<svg width="16" height="14" viewBox="0 0 16 14" fill="none" xmlns="http://www.w3.org/2000/svg">
<path d="M13 5.5H3V12.5H13V5.5ZM1.5 4.5H14.5V1.5H1.5V4.5ZM14 5.5V13C14 13.146 13.9532 13.2658 13.8595 13.3595C13.7658 13.4532 13.646 13.5 13.5 13.5H2.5C2.354 13.5 2.23417 13.4532 2.1405 13.3595C2.04683 13.2658 2 13.146 2 13V5.5H1C0.854 5.5 0.734167 5.45317 0.6405 5.3595C0.546833 5.26583 0.5 5.146 0.5 5V1C0.5 0.854 0.546833 0.734167 0.6405 0.6405C0.734167 0.546833 0.854 0.5 1 0.5H15C15.146 0.5 15.2658 0.546833 15.3595 0.6405C15.4532 0.734167 15.5 0.854 15.5 1V5C15.5 5.146 15.4532 5.26583 15.3595 5.3595C15.2658 5.45317 15.146 5.5 15 5.5H14ZM6.5 7.5H9.5C9.646 7.5 9.76583 7.54683 9.8595 7.6405C9.95317 7.73417 10 7.854 10 8C10 8.146 9.95317 8.26583 9.8595 8.3595C9.76583 8.45317 9.646 8.5 9.5 8.5H6.5C6.354 8.5 6.23417 8.45317 6.1405 8.3595C6.04683 8.26583 6 8.146 6 8C6 7.854 6.04683 7.73417 6.1405 7.6405C6.23417 7.54683 6.354 7.5 6.5 7.5Z" fill="white"/>
</svg>
