<svg width="56" height="66" viewBox="0 0 56 66" fill="none" xmlns="http://www.w3.org/2000/svg">
<path d="M51.3333 23.6206H32.6667V4.86202H4.66667V61.1379H51.3333V23.6206ZM49.4387 18.931L37.3333 6.76602V18.931H49.4387ZM2.33333 0.172363H37.3333L56 18.931V63.4827C56 64.1674 55.7814 64.7294 55.3443 65.1686C54.9072 65.6079 54.348 65.8275 53.6667 65.8275H2.33333C1.652 65.8275 1.09278 65.6079 0.655667 65.1686C0.218556 64.7294 0 64.1674 0 63.4827V2.51719C0 1.8325 0.218556 1.27052 0.655667 0.83126C1.09278 0.391995 1.652 0.172363 2.33333 0.172363ZM25.6667 37.6896V28.3103H30.3333V37.6896H39.6667V42.3793H30.3333V51.7586H25.6667V42.3793H16.3333V37.6896H25.6667Z" fill="#67C23A"/>
</svg>
