<svg width="111" height="110" viewBox="0 0 111 110" fill="none" xmlns="http://www.w3.org/2000/svg">
<path fill-rule="evenodd" clip-rule="evenodd" d="M80.5394 5.53003C66.0985 5.53003 54.3918 17.2367 54.3918 31.6776C54.3918 32.489 54.4288 33.2919 54.5012 34.0845H68.0067C72.1322 34.0845 75.4765 37.4288 75.4765 41.5543V57.3353C77.1145 57.6567 78.8073 57.8251 80.5394 57.8251C94.9802 57.8251 106.687 46.1184 106.687 31.6776C106.687 17.2367 94.9802 5.53003 80.5394 5.53003ZM75.4765 61.7192C77.1231 61.9947 78.8145 62.1381 80.5394 62.1381C97.3622 62.1381 111 48.5004 111 31.6776C111 14.8547 97.3622 1.21704 80.5394 1.21704C63.7165 1.21704 50.0789 14.8547 50.0789 31.6776C50.0789 32.4876 50.1105 33.2903 50.1726 34.0845H8.2477C4.12221 34.0845 0.777832 37.4288 0.777832 41.5543V89.3615V101.313C0.777832 105.439 4.12221 108.783 8.2477 108.783H68.0067C72.1322 108.783 75.4765 105.439 75.4765 101.313V61.7192ZM66.5897 31.6772C66.5897 30.4862 67.5551 29.5207 68.7461 29.5207H78.3831V19.8837C78.3831 18.6927 79.3486 17.7272 80.5396 17.7272C81.7306 17.7272 82.6961 18.6927 82.6961 19.8837V29.5207H92.3328C93.5238 29.5207 94.4893 30.4862 94.4893 31.6772C94.4893 32.8682 93.5238 33.8337 92.3328 33.8337H82.6961V43.4704C82.6961 44.6614 81.7306 45.6269 80.5396 45.6269C79.3486 45.6269 78.3831 44.6614 78.3831 43.4704V33.8337H68.7461C67.5551 33.8337 66.5897 32.8682 66.5897 31.6772ZM9.74168 43.0483V78.5412L14.9175 73.3654C16.3184 71.9645 18.2184 71.1775 20.1995 71.1775C22.1806 71.1775 24.0806 71.9645 25.4815 73.3653L32.1513 80.0352L47.7849 64.4015C49.1858 63.0006 51.0858 62.2136 53.0669 62.2136C55.048 62.2136 56.948 63.0006 58.3489 64.4015L66.5127 72.5653V43.0483H9.74168ZM20.1995 80.7601L9.74168 91.218V99.8193H66.5127V85.2421L53.0669 71.7963L37.4333 87.4299C36.0324 88.8308 34.1324 89.6178 32.1513 89.6178C30.1701 89.6178 28.2702 88.8308 26.8693 87.43L20.1995 80.7601ZM33.6453 57.9881C33.6453 61.2884 30.9698 63.9639 27.6694 63.9639C24.369 63.9639 21.6935 61.2884 21.6935 57.9881C21.6935 54.6877 24.369 52.0122 27.6694 52.0122C30.9698 52.0122 33.6453 54.6877 33.6453 57.9881Z" fill="#67C23A"/>
</svg>
