<svg width="14" height="14" viewBox="0 0 14 14" fill="none" xmlns="http://www.w3.org/2000/svg">
<path d="M8.75 6.125C8.75 6.45642 8.93725 6.7594 9.23369 6.90762C9.53012 7.05584 9.88486 7.02385 10.15 6.825L13.65 4.2C13.8703 4.03475 14 3.77541 14 3.5C14 3.22459 13.8703 2.96525 13.65 2.8L10.15 0.175005C9.88486 -0.0238501 9.53012 -0.0558368 9.23369 0.0923811C8.93725 0.240599 8.75 0.543579 8.75 0.875004V2.625L0.874999 2.625C0.391749 2.625 0 3.01675 0 3.5C0 3.98325 0.391749 4.375 0.874999 4.375L8.75 4.375V6.125Z" fill="#E8E8E8"/>
<path d="M5.25 7.875C5.25 7.54358 5.06275 7.2406 4.76631 7.09238C4.46988 6.94416 4.11514 6.97615 3.85 7.175L0.35 9.8C0.12967 9.96525 0 10.2246 0 10.5C0 10.7754 0.12967 11.0348 0.35 11.2L3.85 13.825C4.11514 14.0239 4.46988 14.0558 4.76631 13.9076C5.06275 13.7594 5.25 13.4564 5.25 13.125V11.375H13.125C13.6082 11.375 14 10.9832 14 10.5C14 10.0168 13.6082 9.625 13.125 9.625H5.25V7.875Z" fill="#E8E8E8"/>
</svg>
