<svg width="11" height="14" viewBox="0 0 11 14" fill="none" xmlns="http://www.w3.org/2000/svg">
<path fill-rule="evenodd" clip-rule="evenodd" d="M0.980262 2.98811C0.209003 2.01215 0.862039 0.52356 2.06144 0.52356H9.52911C10.6711 0.52356 11.3406 1.88932 10.6858 2.88351L7.85834 7.17702C7.803 7.26105 7.77333 7.36112 7.77333 7.46367V11.1957C7.77333 11.5152 7.67731 11.8263 7.49928 12.0838L6.96146 12.8616C6.15399 14.0293 4.41198 13.4225 4.41198 11.9735V7.51271C4.41198 7.39511 4.37296 7.28126 4.30179 7.1912L0.980262 2.98811ZM2.06144 1.52356C1.66164 1.52356 1.44396 2.01976 1.70105 2.34508L5.02257 6.54816C5.2361 6.81836 5.35316 7.15989 5.35316 7.51271V11.9735C5.35316 12.4565 5.93383 12.6588 6.20298 12.2695L6.7408 11.4917C6.80014 11.4059 6.83215 11.3022 6.83215 11.1957V7.46367C6.83215 7.15602 6.92119 6.8558 7.08719 6.60372L9.91468 2.31021C10.1329 1.97881 9.90978 1.52356 9.52911 1.52356H2.06144Z" fill="#BEC6CB"/>
</svg>
