<svg width="14" height="14" viewBox="0 0 14 14" fill="none" xmlns="http://www.w3.org/2000/svg">
<path d="M13.7029 5.49976C15.1162 10.7492 11.2522 13.9 7.07836 13.9982C3.41262 14.0845 0.238314 11.5204 0.0121503 7.8739C-0.0983533 6.0922 0.569652 4.08303 1.01129 3.49976C0.65798 6.29945 2.95641 6.93721 3.9869 6.49976C2.92696 4.74995 3.83968 1.74956 4.42853 0.87466C4.42853 1.74956 4.87017 3.49937 6.63672 3.49937C8.40327 3.49937 8.25606 1.1663 7.96164 -0.000244141C12.8197 -0.000244141 9.23606 6.99976 11.0026 6.99976C12.4159 6.99976 13.5557 6.22884 13.7029 5.49976Z" fill="url(#paint0_linear_1262_2267)"/>
<defs>
<linearGradient id="paint0_linear_1262_2267" x1="7" y1="-0.000244141" x2="7" y2="14.0003" gradientUnits="userSpaceOnUse">
<stop stop-color="#FF3D00"/>
<stop offset="1" stop-color="#F89022"/>
</linearGradient>
</defs>
</svg>
