<svg width="1536" height="1174" viewBox="0 0 1536 1174" fill="none" xmlns="http://www.w3.org/2000/svg">

<g opacity="0.8">
<g clip-path="url(#clip0)">
<path d="M639.793 716.858C526.653 672.56 470.845 544.932 515.142 431.792" stroke="url(#paint0_linear)" stroke-width="5" stroke-linecap="round"/>
<path d="M1413.77 783.525C1263.79 1166.59 831.671 1355.55 448.604 1205.56" stroke="url(#paint1_linear)" stroke-width="5" stroke-linecap="round"/>
<path d="M1003.84 713.267C1115.11 556.514 1078.24 339.235 921.488 227.962C764.736 116.688 547.457 153.556 436.183 310.309" stroke="url(#paint2_linear)" stroke-width="5" stroke-linecap="round"/>
<path d="M864.891 445.912C855.591 425.297 842.014 406.896 825.06 391.928C808.105 376.961 788.162 365.77 766.553 359.098C744.944 352.427 722.163 350.427 699.722 353.231" stroke="url(#paint3_linear)" stroke-width="5" stroke-linecap="round"/>
<path d="M777.626 454.372C762.646 439.131 742.279 430.382 720.912 430.012C699.545 429.642 678.887 437.679 663.388 452.393" stroke="url(#paint4_linear)" stroke-width="5" stroke-linecap="round"/>
<path d="M1411 512C1411 130.371 1101.63 -179 720 -179" stroke="url(#paint5_linear)" stroke-width="5" stroke-linecap="round"/>
<path d="M1115.34 278.794C986.546 60.4524 705.135 -12.1381 486.793 116.658C268.452 245.455 195.861 526.866 324.658 745.208" stroke="url(#paint6_linear)" stroke-width="5" stroke-linecap="round"/>
<path d="M908.224 831.087C731.998 935.04 504.867 876.451 400.914 700.225C296.96 523.998 355.549 296.868 531.776 192.914" stroke="url(#paint7_linear)" stroke-width="5" stroke-linecap="round"/>
<path d="M1171.34 245.832C1318.44 495.191 1235.53 816.578 986.174 963.671" stroke="url(#paint8_linear)" stroke-width="7.07495" stroke-linecap="round"/>
<path d="M876.532 419.664C927.528 506.114 898.786 617.536 812.336 668.532C725.886 719.528 614.464 690.786 563.468 604.336" stroke="#7B8085" stroke-opacity="0.5" stroke-width="5" stroke-linecap="round"/>
<path d="M929.295 388.54C997.481 504.131 959.051 653.111 843.46 721.296C727.87 789.481 578.89 751.052 510.705 635.461" stroke="url(#paint9_linear)" stroke-width="5" stroke-linecap="round"/>
<path d="M868.191 763.219C729.446 845.062 550.624 798.935 468.781 660.19C386.937 521.445 433.065 342.623 571.809 260.78" stroke="url(#paint10_linear)" stroke-width="5" stroke-linecap="round"/>
<path d="M869.08 -44.3735C1176.36 37.961 1358.71 353.803 1276.37 661.08C1194.04 968.356 878.197 1150.71 570.92 1068.37" stroke="#7B8085" stroke-opacity="0.5" stroke-width="5" stroke-linecap="round"/>
<path d="M869.08 -44.3735C1176.36 37.961 1358.71 353.803 1276.37 661.08C1194.04 968.356 878.197 1150.71 570.92 1068.37" stroke="#7B8085" stroke-opacity="0.5" stroke-width="5" stroke-linecap="round"/>
<path d="M230.014 283.31C355.978 12.9483 677.263 -104.109 947.625 21.8557C1217.99 147.82 1335.04 469.105 1209.08 739.467" stroke="url(#paint11_linear)" stroke-width="5" stroke-linecap="round"/>
<path d="M855.75 746.76C985.128 672.063 1029.46 506.628 954.76 377.25C880.063 247.872 714.628 203.544 585.25 278.24" stroke="url(#paint12_linear)" stroke-width="5" stroke-linecap="round"/>
<path d="M1131 512.5C1131 739.213 947.213 923 720.5 923C493.787 923 310 739.213 310 512.5" stroke="url(#paint13_linear)" stroke-width="5" stroke-linecap="round"/>
<path d="M171.32 -26.558C468.956 -329.783 956.051 -334.314 1259.28 -36.6776" stroke="#7B8085" stroke-opacity="0.5" stroke-width="5" stroke-linecap="round"/>
<path d="M856.164 808.163C692.669 883.328 499.198 811.723 424.033 648.229C348.868 484.734 420.473 291.263 583.967 216.098" stroke="#7B8085" stroke-opacity="0.5" stroke-width="5" stroke-linecap="round"/>
<path d="M634.374 326.34C736.892 279.208 858.208 324.107 905.339 426.626" stroke="#7B8085" stroke-opacity="0.5" stroke-width="5" stroke-linecap="round"/>
<path d="M719.563 627C655.774 627.035 604.035 575.352 604 511.563" stroke="url(#paint14_linear)" stroke-width="5" stroke-linecap="round"/>
<path d="M319.644 329.273C420.677 108.219 681.779 10.9215 902.833 111.954C1123.89 212.986 1221.18 474.088 1120.15 695.143" stroke="url(#paint15_linear)" stroke-width="5" stroke-linecap="round"/>
<path d="M548.299 -82.4632C876.613 -177.084 1219.47 12.3621 1314.09 340.676C1408.71 668.99 1219.26 1011.85 890.951 1106.47" stroke="url(#paint16_linear)" stroke-width="5" stroke-linecap="round"/>
<path d="M694.571 424.046C645.586 438.164 617.32 489.319 631.438 538.304C645.555 587.29 696.71 615.555 745.696 601.438" stroke="url(#paint17_linear)" stroke-width="5" stroke-linecap="round"/>
<path d="M719.973 1202.56C1101.52 1202.62 1410.88 893.37 1410.94 511.822" stroke="url(#paint18_linear)" stroke-width="5" stroke-linecap="round"/>
<path d="M719.731 995.132C452.918 995.087 236.66 778.756 236.705 511.944C236.75 245.131 453.08 28.8731 719.893 28.918" stroke="url(#paint19_linear)" stroke-width="5" stroke-linecap="round"/>
<path d="M913.069 378.58C985.487 483.947 957.606 628.875 850.795 702.285" stroke="#54DD64" stroke-width="5" stroke-linecap="round"/>
<path d="M1091.89 -226.589C1494.25 -23.7891 1653.77 471.255 1448.19 879.124C1242.62 1286.99 749.788 1453.23 347.432 1250.43" stroke="#54DD64" stroke-width="5" stroke-linecap="round"/>
<path d="M1038.71 292.283C1158.08 465.964 1112.12 704.854 936.059 825.858C759.999 946.863 520.506 904.16 401.137 730.479" stroke="#54DD64" stroke-width="5" stroke-linecap="round"/>
<path d="M1255 386.687C1186.44 95.2146 891.349 -84.7362 595.884 -15.2441" stroke="#54DD64" stroke-width="5" stroke-linecap="round"/>
<path d="M889 512C889 477.068 878.175 442.993 858.015 414.466C837.854 385.938 809.349 364.358 776.421 352.696C743.493 341.034 707.76 339.862 674.138 349.342C640.516 358.822 610.659 378.487 588.672 405.633" stroke="url(#paint20_linear)" stroke-width="5" stroke-linecap="round"/>
<g opacity="0.95">
<path opacity="0.95" d="M715.002 582.412L670 538.599L715.002 454L760 538.599L715.002 582.412V582.412Z" fill="#333738" stroke="#F2F2F2" stroke-width="2" stroke-linecap="round" stroke-linejoin="round"/>
<path opacity="0.95" d="M760 538.6L714.998 525.384M709.67 548.698L670 538.6L709.67 548.698ZM760 538.6L720.85 548.698L760 538.6ZM715.002 582.414L699.716 482.738H730.284L715.002 582.414V582.414ZM670 538.6L714.998 525.384L670 538.6Z" stroke="#F2F2F2" stroke-width="2" stroke-linecap="round" stroke-linejoin="round"/>
</g>
</g>
</g>
<defs>
<linearGradient id="paint0_linear" x1="475.038" y1="534.221" x2="679.896" y2="614.429" gradientUnits="userSpaceOnUse">
<stop stop-color="#81FF9C"/>
<stop offset="1" stop-color="#ABFF8D" stop-opacity="0"/>
</linearGradient>
<linearGradient id="paint1_linear" x1="584.386" y1="858.762" x2="1277.99" y2="1130.33" gradientUnits="userSpaceOnUse">
<stop stop-color="#81FF9C"/>
<stop offset="1" stop-color="#ABFF8D" stop-opacity="0"/>
</linearGradient>
<linearGradient id="paint2_linear" x1="921.488" y1="227.962" x2="720.009" y2="511.788" gradientUnits="userSpaceOnUse">
<stop stop-color="#81FF9C"/>
<stop offset="1" stop-color="#ABFF8D" stop-opacity="0"/>
</linearGradient>
<linearGradient id="paint3_linear" x1="782.306" y1="352" x2="782.306" y2="445.912" gradientUnits="userSpaceOnUse">
<stop stop-color="#81FF9C"/>
<stop offset="1" stop-color="#ABFF8D" stop-opacity="0"/>
</linearGradient>
<linearGradient id="paint4_linear" x1="720.507" y1="430" x2="720.507" y2="454.372" gradientUnits="userSpaceOnUse">
<stop stop-color="#81FF9C"/>
<stop offset="1" stop-color="#ABFF8D" stop-opacity="0"/>
</linearGradient>
<linearGradient id="paint5_linear" x1="1065.5" y1="-179" x2="1065.5" y2="512" gradientUnits="userSpaceOnUse">
<stop stop-color="#54E062"/>
<stop offset="1" stop-color="#76D6FF" stop-opacity="0"/>
</linearGradient>
<linearGradient id="paint6_linear" x1="486.793" y1="116.658" x2="720" y2="512.001" gradientUnits="userSpaceOnUse">
<stop stop-color="#81FF9C"/>
<stop offset="1" stop-color="#ABFF8D" stop-opacity="0"/>
</linearGradient>
<linearGradient id="paint7_linear" x1="372.232" y1="287.026" x2="748.681" y2="925.199" gradientUnits="userSpaceOnUse">
<stop stop-color="#54E062"/>
<stop offset="1" stop-color="#76D6FF" stop-opacity="0"/>
</linearGradient>
<linearGradient id="paint8_linear" x1="945.591" y1="379" x2="1211.93" y2="830.504" gradientUnits="userSpaceOnUse">
<stop stop-color="#54E062"/>
<stop offset="1" stop-color="#76D6FF" stop-opacity="0"/>
</linearGradient>
<linearGradient id="paint9_linear" x1="720" y1="512.001" x2="843.46" y2="721.296" gradientUnits="userSpaceOnUse">
<stop stop-color="#81FF9C"/>
<stop offset="1" stop-color="#ABFF8D" stop-opacity="0"/>
</linearGradient>
<linearGradient id="paint10_linear" x1="446.2" y1="334.875" x2="742.581" y2="837.314" gradientUnits="userSpaceOnUse">
<stop stop-color="#54E062"/>
<stop offset="1" stop-color="#76D6FF" stop-opacity="0"/>
</linearGradient>
<linearGradient id="paint11_linear" x1="719.546" y1="511.388" x2="947.625" y2="21.8557" gradientUnits="userSpaceOnUse">
<stop stop-color="#81FF9C"/>
<stop offset="1" stop-color="#ABFF8D" stop-opacity="0"/>
</linearGradient>
<linearGradient id="paint12_linear" x1="702.38" y1="210.615" x2="972.88" y2="679.135" gradientUnits="userSpaceOnUse">
<stop stop-color="#81FF9C"/>
<stop offset="1" stop-color="#ABFF8D" stop-opacity="0"/>
</linearGradient>
<linearGradient id="paint13_linear" x1="720.5" y1="512.5" x2="720.5" y2="923" gradientUnits="userSpaceOnUse">
<stop stop-color="#81FF9C"/>
<stop offset="1" stop-color="#ABFF8D" stop-opacity="0"/>
</linearGradient>
<linearGradient id="paint14_linear" x1="719.532" y1="569.25" x2="604.032" y2="569.313" gradientUnits="userSpaceOnUse">
<stop stop-color="#54E062"/>
<stop offset="1" stop-color="#76D6FF" stop-opacity="0"/>
</linearGradient>
<linearGradient id="paint15_linear" x1="1211.62" y1="495.016" x2="411.112" y2="129.146" gradientUnits="userSpaceOnUse">
<stop stop-color="#54E062"/>
<stop offset="1" stop-color="#76D6FF" stop-opacity="0"/>
</linearGradient>
<linearGradient id="paint16_linear" x1="719.625" y1="512.002" x2="1314.09" y2="340.676" gradientUnits="userSpaceOnUse">
<stop stop-color="#54E062"/>
<stop offset="1" stop-color="#76D6FF" stop-opacity="0"/>
</linearGradient>
<linearGradient id="paint17_linear" x1="631.438" y1="538.304" x2="720.133" y2="512.742" gradientUnits="userSpaceOnUse">
<stop stop-color="#54E062"/>
<stop offset="1" stop-color="#76D6FF" stop-opacity="0"/>
</linearGradient>
<linearGradient id="paint18_linear" x1="1410.88" y1="857.249" x2="720.031" y2="857.133" gradientUnits="userSpaceOnUse">
<stop stop-color="#54E062"/>
<stop offset="1" stop-color="#76D6FF" stop-opacity="0"/>
</linearGradient>
<linearGradient id="paint19_linear" x1="719.812" y1="512.025" x2="236.705" y2="511.944" gradientUnits="userSpaceOnUse">
<stop stop-color="#54E062"/>
<stop offset="1" stop-color="#76D6FF" stop-opacity="0"/>
</linearGradient>
<linearGradient id="paint20_linear" x1="738.836" y1="343" x2="738.836" y2="512" gradientUnits="userSpaceOnUse">
<stop stop-color="#54E062"/>
<stop offset="1" stop-color="#76D6FF" stop-opacity="0"/>
</linearGradient>
<clipPath id="clip0">
<rect width="1536" height="1174" rx="20" fill="white"/>
</clipPath>
</defs>
</svg>
