<svg width="21" height="21" viewBox="0 0 21 21" fill="none" xmlns="http://www.w3.org/2000/svg">
<path fill-rule="evenodd" clip-rule="evenodd" d="M1.43953 10.1667C1.43953 5.3468 5.3468 1.43953 10.1667 1.43953C14.9865 1.43953 18.8938 5.3468 18.8938 10.1667C18.8938 14.9865 14.9865 18.8938 10.1667 18.8938C5.3468 18.8938 1.43953 14.9865 1.43953 10.1667ZM10.1667 0C4.55177 0 0 4.55177 0 10.1667C0 15.7816 4.55177 20.3333 10.1667 20.3333C15.7816 20.3333 20.3333 15.7816 20.3333 10.1667C20.3333 4.55177 15.7816 0 10.1667 0ZM6.23058 9.44695C5.83306 9.44695 5.51081 9.7692 5.51081 10.1667C5.51081 10.5642 5.83306 10.8865 6.23058 10.8865H14.103C14.5005 10.8865 14.8228 10.5642 14.8228 10.1667C14.8228 9.7692 14.5005 9.44695 14.103 9.44695H6.23058Z" fill="#FF4949"/>
</svg>
