<svg width="202" height="231" viewBox="0 0 202 231" fill="none" xmlns="http://www.w3.org/2000/svg">
<mask id="mask0_690_1782" style="mask-type:alpha" maskUnits="userSpaceOnUse" x="4" y="2" width="194" height="223">
<rect x="4" y="2" width="194" height="223" rx="10" fill="#C4C4C4"/>
</mask>
<g mask="url(#mask0_690_1782)">
<g clip-path="url(#clip0_690_1782)">
<rect x="-123" y="0.387207" width="1536" height="1046" fill="#252424"/>
<g filter="url(#filter0_biiiiii_690_1782)">
<rect x="-253" y="-27.6128" width="1536" height="1614" rx="768" fill="black" fill-opacity="0.4"/>
</g>
<g opacity="0.4">
<g filter="url(#filter1_dd_690_1782)">
<path d="M2965.2 778.911L117.697 -517.613" stroke="#B7D8FF" stroke-width="2.40444"/>
<path d="M2815.33 778.911L117.696 -517.613" stroke="#B7D8FF" stroke-width="2.40444"/>
<path d="M-931.381 778.911L117.698 -517.613" stroke="#B7D8FF" stroke-width="2.40444"/>
<path d="M1166.78 778.911L117.697 -517.613" stroke="#B7D8FF" stroke-width="2.40444"/>
<path d="M-781.513 778.911L117.698 -517.613" stroke="#B7D8FF" stroke-width="2.40444"/>
<path d="M1016.91 778.911L117.698 -517.613" stroke="#B7D8FF" stroke-width="2.40444"/>
<path d="M-331.908 778.911L117.697 -517.613" stroke="#B7D8FF" stroke-width="2.40444"/>
<path d="M567.302 778.911L117.696 -517.613" stroke="#B7D8FF" stroke-width="2.40444"/>
<path d="M-182.041 778.911L117.696 -517.613" stroke="#B7D8FF" stroke-width="2.40444"/>
<path d="M417.435 778.911L117.698 -517.613" stroke="#B7D8FF" stroke-width="2.40444"/>
<path d="M-32.1719 778.911L117.697 -517.613" stroke="#B7D8FF" stroke-width="2.40444"/>
<path d="M117.697 778.911V-517.613" stroke="#B7D8FF" stroke-width="2.40444"/>
<path d="M267.565 778.911L117.697 -517.613" stroke="#B7D8FF" stroke-width="2.40444"/>
<path d="M-631.646 778.911L117.697 -517.613" stroke="#B7D8FF" stroke-width="2.40444"/>
<path d="M867.039 778.911L117.697 -517.613" stroke="#B7D8FF" stroke-width="2.40444"/>
<path d="M-481.776 778.911L117.697 -517.613" stroke="#B7D8FF" stroke-width="2.40444"/>
<path d="M717.17 778.911L117.696 -517.613" stroke="#B7D8FF" stroke-width="2.40444"/>
<path d="M-1231.12 778.911L117.697 -517.613" stroke="#B7D8FF" stroke-width="2.40444"/>
<path d="M1466.51 778.911L117.697 -517.613" stroke="#B7D8FF" stroke-width="2.40444"/>
<path d="M-1081.25 778.911L117.697 -517.613" stroke="#B7D8FF" stroke-width="2.40444"/>
<path d="M1316.64 778.911L117.697 -517.613" stroke="#B7D8FF" stroke-width="2.40444"/>
<path d="M-1530.85 778.911L117.697 -517.613" stroke="#B7D8FF" stroke-width="2.40444"/>
<path d="M1766.25 778.911L117.699 -517.613" stroke="#B7D8FF" stroke-width="2.40444"/>
<path d="M-1380.99 778.911L117.697 -517.613" stroke="#B7D8FF" stroke-width="2.40444"/>
<path d="M1616.38 778.911L117.7 -517.613" stroke="#B7D8FF" stroke-width="2.40444"/>
<path d="M-1830.59 778.911L117.698 -517.613" stroke="#B7D8FF" stroke-width="2.40444"/>
<path d="M2065.99 778.911L117.698 -517.613" stroke="#B7D8FF" stroke-width="2.40444"/>
<path d="M-1680.72 778.911L117.698 -517.613" stroke="#B7D8FF" stroke-width="2.40444"/>
<path d="M1916.12 778.911L117.696 -517.613" stroke="#B7D8FF" stroke-width="2.40444"/>
<path d="M-2130.33 778.911L117.697 -517.613" stroke="#B7D8FF" stroke-width="2.40444"/>
<path d="M2365.72 778.911L117.698 -517.613" stroke="#B7D8FF" stroke-width="2.40444"/>
<path d="M-1980.46 778.911L117.697 -517.613" stroke="#B7D8FF" stroke-width="2.40444"/>
<path d="M2215.86 778.911L117.697 -517.613" stroke="#B7D8FF" stroke-width="2.40444"/>
<path d="M2665.46 778.911L117.699 -517.613" stroke="#B7D8FF" stroke-width="2.40444"/>
<path d="M-2280.2 778.911L117.697 -517.613" stroke="#B7D8FF" stroke-width="2.40444"/>
<path d="M2515.59 778.911L117.699 -517.613" stroke="#B7D8FF" stroke-width="2.40444"/>
<path d="M-2505 222.447H3190" stroke="#B7D8FF" stroke-width="2.40444"/>
<path d="M-2505 206.995H3190" stroke="#B7D8FF" stroke-width="2.40444"/>
<path d="M-2505 191.998H3190" stroke="#B7D8FF" stroke-width="2.40444"/>
<path d="M-2505 177.458H3190" stroke="#B7D8FF" stroke-width="2.40444"/>
<path d="M-2505 163.368H3190" stroke="#B7D8FF" stroke-width="2.40444"/>
<path d="M-2505 149.737H3190" stroke="#B7D8FF" stroke-width="2.40444"/>
<path d="M-2505 136.556H3190" stroke="#B7D8FF" stroke-width="2.40444"/>
<path d="M-2505 123.832H3190" stroke="#B7D8FF" stroke-width="2.40444"/>
<path d="M-2505 111.563H3190" stroke="#B7D8FF" stroke-width="2.40444"/>
<path d="M-2505 99.748H3190" stroke="#B7D8FF" stroke-width="2.40444"/>
<path d="M-2505 88.3857H3190" stroke="#B7D8FF" stroke-width="2.40444"/>
<path d="M-2505 77.48H3190" stroke="#B7D8FF" stroke-width="2.40444"/>
<path d="M-2505 67.0269H3190" stroke="#B7D8FF" stroke-width="2.40444"/>
<path d="M-2505 57.0303H3190" stroke="#B7D8FF" stroke-width="2.40444"/>
<path d="M-2505 47.4861H3190" stroke="#B7D8FF" stroke-width="2.40444"/>
<path d="M-2505 38.3967H3190" stroke="#B7D8FF" stroke-width="2.40444"/>
<path d="M-2505 29.7639H3190" stroke="#B7D8FF" stroke-width="2.40444"/>
<path d="M-2505 21.5835H3190" stroke="#B7D8FF" stroke-width="2.40444"/>
<path d="M-2505 13.8579H3190" stroke="#B7D8FF" stroke-width="2.40444"/>
<path d="M-2505 6.58667H3190" stroke="#B7D8FF" stroke-width="2.40444"/>
</g>
<rect width="1928" height="1082" transform="matrix(1 0 0 -1 -839 436.387)" fill="url(#paint0_linear_690_1782)"/>
</g>
<g opacity="0.95">
<g style="mix-blend-mode:hard-light" filter="url(#filter2_ddd_690_1782)">
<path d="M101.003 204.638L42.667 147.715L101.003 37.8042L159.334 147.715L101.003 204.638Z" fill="url(#paint1_angular_690_1782)"/>
<path d="M40.9004 146.777C40.4842 147.562 40.6348 148.526 41.2702 149.146L99.6062 206.069C100.383 206.827 101.623 206.827 102.4 206.069L160.73 149.146C161.366 148.526 161.516 147.562 161.1 146.777L102.77 36.8666C102.423 36.2129 101.743 35.8042 101.003 35.8042C100.263 35.8042 99.5833 36.2129 99.2364 36.8666L40.9004 146.777Z" stroke="white" stroke-opacity="0.99" stroke-width="4" stroke-linecap="round" stroke-linejoin="round"/>
<path d="M159.334 147.718L100.998 130.547M94.0915 160.837L42.667 147.718L94.0915 160.837ZM159.334 147.718L108.584 160.837L159.334 147.718ZM101.003 204.641L81.1875 75.1414H120.813L101.003 204.641V204.641ZM42.667 147.718L100.998 130.547L42.667 147.718Z" stroke="white" stroke-opacity="0.99" stroke-width="4" stroke-linecap="round" stroke-linejoin="round"/>
</g>
</g>
</g>
</g>
<defs>
<filter id="filter0_biiiiii_690_1782" x="-365.528" y="-140.141" width="1761.06" height="1839.06" filterUnits="userSpaceOnUse" color-interpolation-filters="sRGB">
<feFlood flood-opacity="0" result="BackgroundImageFix"/>
<feGaussianBlur in="BackgroundImage" stdDeviation="56.2642"/>
<feComposite in2="SourceAlpha" operator="in" result="effect1_backgroundBlur_690_1782"/>
<feBlend mode="normal" in="SourceGraphic" in2="effect1_backgroundBlur_690_1782" result="shape"/>
<feColorMatrix in="SourceAlpha" type="matrix" values="0 0 0 0 0 0 0 0 0 0 0 0 0 0 0 0 0 0 127 0" result="hardAlpha"/>
<feOffset dy="1.12528"/>
<feGaussianBlur stdDeviation="22.5057"/>
<feComposite in2="hardAlpha" operator="arithmetic" k2="-1" k3="1"/>
<feColorMatrix type="matrix" values="0 0 0 0 0.888917 0 0 0 0 0.870833 0 0 0 0 1 0 0 0 0.2 0"/>
<feBlend mode="normal" in2="shape" result="effect2_innerShadow_690_1782"/>
<feColorMatrix in="SourceAlpha" type="matrix" values="0 0 0 0 0 0 0 0 0 0 0 0 0 0 0 0 0 0 127 0" result="hardAlpha"/>
<feOffset dy="4.50114"/>
<feGaussianBlur stdDeviation="10.1276"/>
<feComposite in2="hardAlpha" operator="arithmetic" k2="-1" k3="1"/>
<feColorMatrix type="matrix" values="0 0 0 0 0.60543 0 0 0 0 0.574062 0 0 0 0 0.825 0 0 0 0.3 0"/>
<feBlend mode="normal" in2="effect2_innerShadow_690_1782" result="effect3_innerShadow_690_1782"/>
<feColorMatrix in="SourceAlpha" type="matrix" values="0 0 0 0 0 0 0 0 0 0 0 0 0 0 0 0 0 0 127 0" result="hardAlpha"/>
<feMorphology radius="54.0137" operator="dilate" in="SourceAlpha" result="effect4_innerShadow_690_1782"/>
<feOffset dy="110.278"/>
<feGaussianBlur stdDeviation="56.2642"/>
<feComposite in2="hardAlpha" operator="arithmetic" k2="-1" k3="1"/>
<feColorMatrix type="matrix" values="0 0 0 0 0.792093 0 0 0 0 0.675 0 0 0 0 1 0 0 0 0.3 0"/>
<feBlend mode="normal" in2="effect3_innerShadow_690_1782" result="effect4_innerShadow_690_1782"/>
<feColorMatrix in="SourceAlpha" type="matrix" values="0 0 0 0 0 0 0 0 0 0 0 0 0 0 0 0 0 0 127 0" result="hardAlpha"/>
<feMorphology radius="72.0182" operator="dilate" in="SourceAlpha" result="effect5_innerShadow_690_1782"/>
<feOffset dy="-92.2734"/>
<feGaussianBlur stdDeviation="38.2597"/>
<feComposite in2="hardAlpha" operator="arithmetic" k2="-1" k3="1"/>
<feColorMatrix type="matrix" values="0 0 0 0 0.401037 0 0 0 0 0.213889 0 0 0 0 0.733333 0 0 0 0.3 0"/>
<feBlend mode="normal" in2="effect4_innerShadow_690_1782" result="effect5_innerShadow_690_1782"/>
<feColorMatrix in="SourceAlpha" type="matrix" values="0 0 0 0 0 0 0 0 0 0 0 0 0 0 0 0 0 0 127 0" result="hardAlpha"/>
<feMorphology radius="4.50114" operator="dilate" in="SourceAlpha" result="effect6_innerShadow_690_1782"/>
<feOffset dy="7.87699"/>
<feGaussianBlur stdDeviation="6.18907"/>
<feComposite in2="hardAlpha" operator="arithmetic" k2="-1" k3="1"/>
<feColorMatrix type="matrix" values="0 0 0 0 1 0 0 0 0 1 0 0 0 0 1 0 0 0 1 0"/>
<feBlend mode="normal" in2="effect5_innerShadow_690_1782" result="effect6_innerShadow_690_1782"/>
<feColorMatrix in="SourceAlpha" type="matrix" values="0 0 0 0 0 0 0 0 0 0 0 0 0 0 0 0 0 0 127 0" result="hardAlpha"/>
<feMorphology radius="40.5103" operator="dilate" in="SourceAlpha" result="effect7_innerShadow_690_1782"/>
<feOffset dy="43.8861"/>
<feGaussianBlur stdDeviation="31.508"/>
<feComposite in2="hardAlpha" operator="arithmetic" k2="-1" k3="1"/>
<feColorMatrix type="matrix" values="0 0 0 0 0.442118 0 0 0 0 0.991667 0 0 0 0 0.69491 0 0 0 0.5 0"/>
<feBlend mode="normal" in2="effect6_innerShadow_690_1782" result="effect7_innerShadow_690_1782"/>
</filter>
<filter id="filter1_dd_690_1782" x="-2565.11" y="-578.818" width="5815.22" height="1418.93" filterUnits="userSpaceOnUse" color-interpolation-filters="sRGB">
<feFlood flood-opacity="0" result="BackgroundImageFix"/>
<feColorMatrix in="SourceAlpha" type="matrix" values="0 0 0 0 0 0 0 0 0 0 0 0 0 0 0 0 0 0 127 0" result="hardAlpha"/>
<feOffset/>
<feGaussianBlur stdDeviation="6.01111"/>
<feColorMatrix type="matrix" values="0 0 0 0 0.717647 0 0 0 0 0.847059 0 0 0 0 1 0 0 0 1 0"/>
<feBlend mode="normal" in2="BackgroundImageFix" result="effect1_dropShadow_690_1782"/>
<feColorMatrix in="SourceAlpha" type="matrix" values="0 0 0 0 0 0 0 0 0 0 0 0 0 0 0 0 0 0 127 0" result="hardAlpha"/>
<feOffset/>
<feGaussianBlur stdDeviation="30.0556"/>
<feColorMatrix type="matrix" values="0 0 0 0 0.717647 0 0 0 0 0.847059 0 0 0 0 1 0 0 0 1 0"/>
<feBlend mode="normal" in2="effect1_dropShadow_690_1782" result="effect2_dropShadow_690_1782"/>
<feBlend mode="normal" in="SourceGraphic" in2="effect2_dropShadow_690_1782" result="shape"/>
</filter>
<filter id="filter2_ddd_690_1782" x="18.667" y="9.8042" width="164.667" height="258.833" filterUnits="userSpaceOnUse" color-interpolation-filters="sRGB">
<feFlood flood-opacity="0" result="BackgroundImageFix"/>
<feColorMatrix in="SourceAlpha" type="matrix" values="0 0 0 0 0 0 0 0 0 0 0 0 0 0 0 0 0 0 127 0" result="hardAlpha"/>
<feOffset dy="40"/>
<feGaussianBlur stdDeviation="10"/>
<feColorMatrix type="matrix" values="0 0 0 0 0.110156 0 0 0 0 0.927026 0 0 0 0 0.979167 0 0 0 0.17 0"/>
<feBlend mode="normal" in2="BackgroundImageFix" result="effect1_dropShadow_690_1782"/>
<feColorMatrix in="SourceAlpha" type="matrix" values="0 0 0 0 0 0 0 0 0 0 0 0 0 0 0 0 0 0 127 0" result="hardAlpha"/>
<feOffset dy="20"/>
<feGaussianBlur stdDeviation="7.5"/>
<feColorMatrix type="matrix" values="0 0 0 0 0.9375 0 0 0 0 0.207031 0 0 0 0 0.732969 0 0 0 0.5 0"/>
<feBlend mode="normal" in2="effect1_dropShadow_690_1782" result="effect2_dropShadow_690_1782"/>
<feColorMatrix in="SourceAlpha" type="matrix" values="0 0 0 0 0 0 0 0 0 0 0 0 0 0 0 0 0 0 127 0" result="hardAlpha"/>
<feOffset dy="-20"/>
<feGaussianBlur stdDeviation="2"/>
<feColorMatrix type="matrix" values="0 0 0 0 1 0 0 0 0 0.3 0 0 0 0 0.93 0 0 0 0.25 0"/>
<feBlend mode="normal" in2="effect2_dropShadow_690_1782" result="effect3_dropShadow_690_1782"/>
<feBlend mode="normal" in="SourceGraphic" in2="effect3_dropShadow_690_1782" result="shape"/>
</filter>
<linearGradient id="paint0_linear_690_1782" x1="964" y1="-203.777" x2="964" y2="1082" gradientUnits="userSpaceOnUse">
<stop offset="0.149515" stop-opacity="0"/>
<stop offset="0.515209" stop-color="#1D1B1B"/>
</linearGradient>
<radialGradient id="paint1_angular_690_1782" cx="0" cy="0" r="1" gradientUnits="userSpaceOnUse" gradientTransform="translate(101 162.138) rotate(90) scale(42.4998 29.7201)">
<stop stop-color="#333738"/>
<stop offset="1" stop-color="#333738" stop-opacity="0"/>
</radialGradient>
<clipPath id="clip0_690_1782">
<rect width="448" height="231.226" fill="white" transform="translate(-123 0.387207)"/>
</clipPath>
</defs>
</svg>
