<svg width="92" height="63" viewBox="0 0 92 63" fill="none" xmlns="http://www.w3.org/2000/svg">
<g clip-path="url(#clip0_4447_1143)">
<path d="M51.0116 51.3076L50.5571 49.0579H48.6533L48.2111 51.3076H47.4741L49.3166 43.0753H49.9307L51.724 51.3076H51.0116ZM49.6113 44.299L48.8007 48.4399H50.4466L49.6113 44.299Z" fill="black"/>
<path d="M56.8952 51.3076V44.7069L55.3967 49.0332H54.9054L53.4437 44.8305V51.2952H52.7681V43.0753H53.4437L55.1633 47.9207L56.8952 43.0753H57.5708V51.2952H56.8952V51.3076Z" fill="black"/>
<path d="M62.0663 50.9491C61.317 51.5301 60.2607 51.5301 59.4991 50.9491C59.1306 50.5659 59.0078 50.158 59.0078 49.2681H59.6834C59.6097 49.713 59.7325 50.158 60.015 50.5041C60.2238 50.7019 60.5063 50.8008 60.7888 50.7884C61.0714 50.8132 61.3661 50.7143 61.575 50.5041C61.8452 50.1333 61.968 49.676 61.8943 49.2186C61.8943 48.1803 61.7346 47.8218 61.0345 47.5252L60.1624 47.1667C59.3272 46.8206 59.0815 46.3509 59.0815 45.1148C59.0324 44.5215 59.2412 43.9282 59.6465 43.4832C59.9659 43.1865 60.3958 43.0258 60.838 43.0382C61.2925 43.0135 61.7346 43.1742 62.0663 43.4955C62.4471 43.9282 62.6313 44.5091 62.5576 45.0901H61.882C61.9312 44.6822 61.8206 44.2866 61.575 43.9529C61.3784 43.7551 61.1082 43.6439 60.8257 43.6562C60.5678 43.6439 60.3098 43.7428 60.1133 43.9282C59.8431 44.2619 59.7202 44.6822 59.7571 45.1024C59.7571 46.0542 59.8922 46.3385 60.6415 46.6352L61.5135 46.9937C62.3979 47.3521 62.5699 48.0072 62.5699 49.1939C62.6436 49.8243 62.4593 50.4547 62.0663 50.9491Z" fill="black"/>
<path d="M65.5178 43.7057V51.3076H64.8422V43.7057H63.4788V43.0876H66.8935V43.7057H65.5178Z" fill="black"/>
<path d="M68.0972 51.3076V43.0876H70.9469V43.7057H68.7851V46.8948H70.6276V47.5128H68.7851V50.6772H70.9592V51.2952H68.0972V51.3076Z" fill="black"/>
<path d="M75.3688 51.3076L74.1897 47.587H73.1456V51.3076H72.47V43.0876H74.0791C75.0617 43.0876 75.8479 43.4461 75.8479 45.362C75.8479 46.5981 75.5162 47.2162 74.8407 47.5005L76.1058 51.2952H75.3688V51.3076ZM74.0914 43.681H73.1456V47.006H74.1037C74.9266 47.006 75.1723 46.388 75.1723 45.3497C75.1723 44.3114 74.9021 43.7057 74.0914 43.7057V43.681Z" fill="black"/>
<path d="M80.4908 50.8502C80.1715 51.184 79.717 51.357 79.2625 51.3323H77.592V43.1H79.3117C79.7661 43.0753 80.2206 43.2483 80.54 43.5821C81.0559 44.1259 81.1173 44.7316 81.1173 47.2285C81.105 49.7007 81.0067 50.3064 80.4908 50.8502ZM79.9872 43.99C79.7907 43.7922 79.5205 43.6933 79.238 43.6933H78.2676V50.6772H79.238C79.5205 50.6895 79.7907 50.5783 79.9872 50.3805C80.3435 49.985 80.3926 49.5276 80.3926 47.1667C80.3926 44.8058 80.3435 44.3855 79.9872 43.99Z" fill="black"/>
<path d="M85.5023 51.3076L85.0478 49.0579H83.144L82.7018 51.3076H81.9648L83.8072 43.0753H84.4214L86.2024 51.3076H85.5023ZM84.102 44.299L83.2791 48.4399H84.9127L84.102 44.299Z" fill="black"/>
<path d="M91.386 51.3076V44.7069L89.8875 49.0456H89.3961L87.9222 44.8429V51.3076H87.2466V43.0876H87.9222L89.6418 47.9331L91.3737 43.0876H92.0493V51.3076H91.386Z" fill="black"/>
<path d="M47.3882 38.7119V20.3808H55.1756V22.853H49.9922V28.2423H54.5V30.7144H49.9922V36.1038H55.1633V38.7366L47.3882 38.7119Z" fill="black"/>
<path d="M56.6985 24.6947C56.6862 24.0273 56.8213 23.3474 57.0915 22.7417C57.3249 22.1979 57.6811 21.7158 58.111 21.3202C58.5164 20.9618 58.9954 20.6775 59.5113 20.4921C60.0149 20.3066 60.5431 20.2201 61.0835 20.2078C61.624 20.2078 62.1521 20.3066 62.6557 20.4921C63.1716 20.6775 63.6507 20.9618 64.0806 21.3202C64.4982 21.7281 64.8421 22.2102 65.0755 22.7417C65.3334 23.3598 65.4686 24.0273 65.4563 24.6947V34.3733C65.4686 35.0531 65.3457 35.733 65.0755 36.351C64.8421 36.8702 64.4982 37.3399 64.0806 37.7231C63.6752 38.0939 63.1962 38.3782 62.6803 38.576C62.1767 38.7614 61.6363 38.8603 61.1081 38.8603C60.5676 38.8603 60.0395 38.7614 59.5359 38.576C59.02 38.3905 58.5409 38.1062 58.1356 37.7231C57.7057 37.3522 57.3495 36.8825 57.1161 36.351C56.8459 35.733 56.7108 35.0531 56.723 34.3733L56.6985 24.6947ZM59.3148 34.3856C59.2779 34.9048 59.4622 35.4239 59.8429 35.7948C60.5554 36.3881 61.5871 36.3881 62.2995 35.7948C62.6803 35.4239 62.8646 34.9171 62.8277 34.3856V24.7071C62.8768 24.1879 62.6803 23.6688 62.2995 23.298C61.5871 22.717 60.5554 22.717 59.8429 23.298C59.4622 23.6688 59.2779 24.1756 59.3148 24.7071V34.3856Z" fill="black"/>
<path d="M76.2162 25.6589H73.6V25.0409C73.6122 24.497 73.4648 23.9531 73.1823 23.4834C72.863 23.0261 72.3225 22.7788 71.7575 22.8283C71.4504 22.8159 71.1556 22.8901 70.8854 23.0384C70.6643 23.162 70.4801 23.3474 70.345 23.5576C70.2098 23.7924 70.1116 24.052 70.0624 24.3239C70.001 24.6206 69.9765 24.9173 69.9765 25.2139C69.9765 25.5724 69.9765 25.8814 70.0133 26.1163C70.0379 26.3388 70.0993 26.5489 70.2098 26.7343C70.3204 26.9321 70.4678 27.0928 70.652 27.2287C70.91 27.3894 71.1802 27.5254 71.4627 27.6366L73.4526 28.4401C73.9684 28.6255 74.4352 28.8851 74.8651 29.2312C75.209 29.5155 75.5038 29.874 75.7126 30.2695C75.9092 30.7145 76.0443 31.1842 76.1057 31.6786C76.1794 32.272 76.204 32.8653 76.204 33.471C76.204 34.1879 76.1303 34.9172 75.9706 35.6217C75.8355 36.2274 75.5898 36.8084 75.2213 37.3028C74.8528 37.7972 74.3738 38.1804 73.821 38.44C73.1455 38.7367 72.4208 38.8726 71.6961 38.8603C71.0942 38.8603 70.4923 38.749 69.9273 38.5265C69.3992 38.3164 68.9201 37.995 68.5148 37.5995C68.1217 37.2163 67.8024 36.7713 67.569 36.2769C67.3356 35.733 67.2251 35.152 67.2251 34.5587V33.5822H69.8413V34.4104C69.8413 34.8801 69.9887 35.3374 70.2712 35.7083C70.6275 36.1285 71.1556 36.3387 71.6961 36.2892C72.0523 36.3016 72.4085 36.2398 72.7279 36.0915C72.9735 35.9678 73.17 35.7824 73.3052 35.5352C73.4526 35.2756 73.5263 34.979 73.5508 34.67C73.5508 34.3362 73.5877 33.953 73.5877 33.5451C73.5877 33.1496 73.5754 32.754 73.5385 32.3585C73.514 32.0989 73.4403 31.8393 73.3297 31.6045C73.2069 31.4191 73.0472 31.2584 72.8507 31.1348C72.605 30.9864 72.3348 30.8628 72.0646 30.7516L70.2221 29.9728C69.264 29.6515 68.4656 28.9963 67.962 28.1187C67.5444 27.2164 67.3479 26.2399 67.3847 25.2386C67.3847 24.5712 67.4707 23.916 67.6672 23.2856C67.8392 22.7047 68.1217 22.1608 68.5148 21.6911C68.8833 21.2337 69.35 20.8629 69.8782 20.6157C70.5046 20.3314 71.1802 20.1954 71.868 20.2201C72.4822 20.2078 73.0841 20.3314 73.6491 20.5786C74.165 20.8258 74.6194 21.1719 75.0125 21.5798C75.7618 22.3215 76.1917 23.3227 76.204 24.3857V25.6589H76.2162Z" fill="black"/>
<path d="M16.668 46.3508C18.056 49.268 19.2106 52.284 20.1441 55.3742V36.8577H20.0459C16.1644 36.4745 13.2165 33.1865 13.2165 29.2681L12.4918 17.2781C12.4918 17.2781 14.0763 18.0445 17.5647 18.3535C18.5842 17.4636 19.6651 16.6477 20.8074 15.9185C21.9375 16.6477 23.0184 17.4636 24.0256 18.3535C25.7698 18.2299 27.4771 17.8715 29.1108 17.2781L28.3738 29.2681C28.3738 33.1865 25.4259 36.4745 21.5444 36.8577H21.4461V56.3384C22.5516 53.8538 23.8045 51.4311 25.1925 49.0949C28.0544 44.3607 31.0515 43.6932 31.0515 43.6932C31.0515 43.6932 30.4865 48.0566 23.9642 62.3705L42.0571 50.9738L34.8101 19.5278L21.1022 0.591064H20.9794L7.27149 19.5155L0.012207 50.9614L18.1543 62.3952C10.8336 44.9293 10.0229 42.5313 8.00847 38.8478C8.00847 38.8354 14.2237 41.5672 16.668 46.3508Z" fill="url(#paint0_linear_4447_1143)"/>
</g>
<defs>
<linearGradient id="paint0_linear_4447_1143" x1="27.6661" y1="60.9932" x2="10.4517" y2="18.3208" gradientUnits="userSpaceOnUse">
<stop stop-color="#F58220"/>
<stop offset="0.28" stop-color="#F47821"/>
<stop offset="0.75" stop-color="#F25F22"/>
<stop offset="1" stop-color="#F04E23"/>
</linearGradient>
<clipPath id="clip0_4447_1143">
<rect width="92" height="63" fill="white"/>
</clipPath>
</defs>
</svg>
