<svg width="70" height="71" viewBox="0 0 70 71" fill="none" xmlns="http://www.w3.org/2000/svg">
<path fill-rule="evenodd" clip-rule="evenodd" d="M35 5.45575C18.407 5.45575 4.95575 18.907 4.95575 35.5C4.95575 52.093 18.407 65.5443 35 65.5443C51.593 65.5443 65.0443 52.093 65.0443 35.5C65.0443 18.907 51.593 5.45575 35 5.45575ZM0 35.5C0 16.17 15.67 0.5 35 0.5C54.33 0.5 70 16.17 70 35.5C70 54.83 54.33 70.5 35 70.5C15.67 70.5 0 54.83 0 35.5ZM19 35.5C19 34.3954 20.1074 33.5 21.4734 33.5H33V21.9734C33 20.6074 33.8954 19.5 35 19.5C36.1046 19.5 37 20.6074 37 21.9734V33.5H48.5266C49.8926 33.5 51 34.3954 51 35.5C51 36.6046 49.8926 37.5 48.5266 37.5H37V49.0266C37 50.3926 36.1046 51.5 35 51.5C33.8954 51.5 33 50.3926 33 49.0266V37.5H21.4734C20.1074 37.5 19 36.6046 19 35.5Z" fill="#67C23A"/>
</svg>
