<svg width="14" height="14" viewBox="0 0 14 14" fill="none" xmlns="http://www.w3.org/2000/svg">
<path d="M7 12.25C9.8995 12.25 12.25 9.8995 12.25 7C12.25 4.10051 9.8995 1.75 7 1.75C4.10051 1.75 1.75 4.10051 1.75 7C1.75 9.8995 4.10051 12.25 7 12.25Z" stroke="#F2F2F2" stroke-linecap="round" stroke-linejoin="round"/>
<path d="M7 9.625C8.44975 9.625 9.625 8.44975 9.625 7C9.625 5.55025 8.44975 4.375 7 4.375C5.55025 4.375 4.375 5.55025 4.375 7C4.375 8.44975 5.55025 9.625 7 9.625Z" stroke="#F2F2F2" stroke-linecap="round" stroke-linejoin="round"/>
<path d="M7 4.375V1.75" stroke="#F2F2F2" stroke-linecap="round" stroke-linejoin="round"/>
<path d="M5.14375 5.14381L3.2876 3.28766" stroke="#F2F2F2" stroke-linecap="round" stroke-linejoin="round"/>
<path d="M4.375 7H1.75" stroke="#F2F2F2" stroke-linecap="round" stroke-linejoin="round"/>
<path d="M5.14375 8.85614L3.2876 10.7123" stroke="#F2F2F2" stroke-linecap="round" stroke-linejoin="round"/>
<path d="M7 9.625V12.25" stroke="#F2F2F2" stroke-linecap="round" stroke-linejoin="round"/>
<path d="M8.85596 8.85614L10.7121 10.7123" stroke="#F2F2F2" stroke-linecap="round" stroke-linejoin="round"/>
<path d="M9.625 7H12.25" stroke="#F2F2F2" stroke-linecap="round" stroke-linejoin="round"/>
<path d="M8.85596 5.14381L10.7121 3.28766" stroke="#F2F2F2" stroke-linecap="round" stroke-linejoin="round"/>
</svg>
