<svg width="66" height="69" viewBox="0 0 66 69" fill="none" xmlns="http://www.w3.org/2000/svg">
<g filter="url(#filter0_d_786_1675)">
<path d="M33 34.4546C41.3763 34.4546 48.1666 30.7508 48.1666 26.182C48.1666 21.6131 41.3763 17.9093 33 17.9093C24.6238 17.9093 17.8335 21.6131 17.8335 26.182C17.8335 30.7508 24.6238 34.4546 33 34.4546Z" stroke="#66C167" stroke-width="2.5" stroke-linecap="round" stroke-linejoin="round"/>
<path d="M17.8335 26.1819V34.4545C17.8335 39.0234 24.6238 42.7272 33 42.7272C41.3763 42.7272 48.1666 39.0234 48.1666 34.4545V26.1819" stroke="#66C167" stroke-width="2.5" stroke-linecap="round" stroke-linejoin="round"/>
<path d="M17.8335 34.4547V42.7274C17.8335 47.2962 24.6238 51 33 51C41.3763 51 48.1666 47.2962 48.1666 42.7274V34.4547" stroke="#66C167" stroke-width="2.5" stroke-linecap="round" stroke-linejoin="round"/>
</g>
<defs>
<filter id="filter0_d_786_1675" x="0.583496" y="0.659302" width="64.8331" height="67.5907" filterUnits="userSpaceOnUse" color-interpolation-filters="sRGB">
<feFlood flood-opacity="0" result="BackgroundImageFix"/>
<feColorMatrix in="SourceAlpha" type="matrix" values="0 0 0 0 0 0 0 0 0 0 0 0 0 0 0 0 0 0 127 0" result="hardAlpha"/>
<feOffset/>
<feGaussianBlur stdDeviation="8"/>
<feComposite in2="hardAlpha" operator="out"/>
<feColorMatrix type="matrix" values="0 0 0 0 0.620833 0 0 0 0 1 0 0 0 0 0.433333 0 0 0 0.25 0"/>
<feBlend mode="normal" in2="BackgroundImageFix" result="effect1_dropShadow_786_1675"/>
<feBlend mode="normal" in="SourceGraphic" in2="effect1_dropShadow_786_1675" result="shape"/>
</filter>
</defs>
</svg>
