<svg width="65" height="76" viewBox="0 0 65 76" fill="none" xmlns="http://www.w3.org/2000/svg">
<g opacity="0.95" filter="url(#filter0_d_786_1565)">
<path fill-rule="evenodd" clip-rule="evenodd" d="M32.8177 17.1821C32.7553 17.07 32.6334 17 32.5007 17C32.368 17 32.2461 17.07 32.1837 17.1821L17.0421 44.3996C17.0203 44.4389 17.0071 44.4809 17.0022 44.5232C17.0005 44.5379 16.9998 44.5527 17.0001 44.5676C17.0008 44.6102 17.0099 44.6516 17.0262 44.69C17.0473 44.7397 17.0803 44.7844 17.1229 44.82L32.2503 58.9027C32.3896 59.0324 32.6118 59.0324 32.7511 58.9027L47.8771 44.82C47.8818 44.8161 47.8863 44.8121 47.8907 44.808C47.9263 44.7752 47.9551 44.7349 47.9743 44.6888C47.9886 44.6546 47.9973 44.6181 47.9994 44.5806L47.9999 44.57L48 44.5614C48 44.5491 47.9993 44.5368 47.9979 44.5247C47.9932 44.4818 47.98 44.4393 47.9579 44.3996L32.8177 17.1821ZM46.9235 44.0021L37.8338 27.6616L35.7183 40.8554L46.9235 44.0021ZM37.0462 26.2458L32.5007 18.0743L27.9547 26.2458H37.0462ZM27.1664 27.6628L18.0766 44.0021L29.2823 40.855L27.1664 27.6628ZM18.572 45.2108L31.9833 57.6959L30.4443 48.1005L18.572 45.2108ZM33.0181 57.6959L46.4219 45.2165L34.558 48.1425L34.5526 48.1438L34.5495 48.1445L33.0181 57.6959ZM18.7173 44.5377L29.3921 41.5397L30.3261 47.3632L18.7173 44.5377ZM32.4993 40.667L30.0872 41.3445L32.5006 56.3924L34.9134 41.345L32.4993 40.667ZM37.2243 26.9324L35.0232 40.6602L32.6055 39.9813C32.5715 39.9712 32.5357 39.9659 32.4993 39.9659C32.4629 39.9659 32.4271 39.9712 32.393 39.9813L29.9774 40.6598L27.7757 26.9324H37.2243ZM34.6679 47.4064L35.6085 41.5402L46.2905 44.5399L34.6679 47.4064Z" fill="#66C167"/>
<path d="M48.2491 44.5951L48.249 44.5951C48.2451 44.6616 48.2299 44.7257 48.2049 44.7854M48.2491 44.5951L47.8907 44.808L48.0604 44.9916C48.1211 44.9355 48.1713 44.8659 48.2049 44.7854M48.2491 44.5951L48.2492 44.5911M48.2491 44.5951L48.2492 44.5911M48.2049 44.7854L47.9743 44.6888L48.2051 44.7849C48.205 44.785 48.205 44.7852 48.2049 44.7854ZM48.2492 44.5911L48.2497 44.5805L48.2498 44.5805M48.2492 44.5911L48.2498 44.5805M48.2498 44.5805L48.2499 44.5732M48.2498 44.5805L48.2499 44.5732M48.2499 44.5732L48.25 44.5646H48.25M48.2499 44.5732L48.25 44.5646M48.25 44.5646L48.25 44.5615M48.25 44.5646L48.25 44.5615M48.25 44.5615C48.25 44.54 48.2488 44.5185 48.2464 44.4973L48.25 44.5615ZM32.5007 16.75C32.7202 16.75 32.9278 16.8658 33.0361 17.0605L48.1763 44.278C48.2146 44.3469 48.238 44.4212 48.2464 44.4967L32.5007 16.75ZM32.5007 16.75C32.2812 16.75 32.0736 16.8658 31.9653 17.0605M32.5007 16.75L31.9653 17.0605M31.9653 17.0605L16.8237 44.278M31.9653 17.0605L16.8237 44.278M16.8237 44.278C16.7858 44.3462 16.7625 44.4197 16.7539 44.4944M16.8237 44.278L16.7539 44.4944M16.7539 44.4944C16.7509 44.5202 16.7496 44.5463 16.7501 44.5726L17.0001 44.5676M16.7539 44.4944L17.0001 44.5676M17.0001 44.5676L16.7501 44.5722C16.7515 44.6476 16.7676 44.7204 16.796 44.7875M17.0001 44.5676L16.796 44.7875M16.796 44.7875C16.8317 44.8719 16.8869 44.947 16.9568 45.0069L16.796 44.7875ZM30.1798 40.3432L32.3218 39.7417C32.3225 39.7415 32.3232 39.7413 32.3239 39.7411C32.3801 39.7246 32.4391 39.7159 32.4992 39.7159L30.1798 40.3432ZM30.1798 40.3432L28.069 27.1824H36.931L34.8207 40.3437L32.6767 39.7417C32.676 39.7415 32.6753 39.7412 32.6746 39.741C32.6185 39.7246 32.5595 39.7159 32.4994 39.7159L30.1798 40.3432ZM48.0432 45.0069L48.0475 45.003L47.8771 44.82L48.0375 45.0118C48.0394 45.0102 48.0413 45.0086 48.0432 45.0069ZM45.5466 45.6899L33.3801 57.0173L34.7702 48.3477L45.5466 45.6899ZM36.0004 40.675L37.9663 28.4142L46.4133 43.5992L36.0004 40.675ZM28.3799 25.9958L32.5007 18.5885L36.6211 25.9958H28.3799ZM29.0001 40.6746L18.5868 43.5991L27.0339 28.4152L29.0001 40.6746ZM31.6213 57.0173L19.443 45.6801L30.2238 48.3041L31.6213 57.0173ZM19.7034 44.5204L29.1897 41.8562L30.0197 47.0314L19.7034 44.5204ZM32.5006 54.8135L30.3693 41.5249L32.4993 40.9267L34.6313 41.5254L32.5006 54.8135ZM34.9745 47.0733L35.8109 41.8567L45.31 44.5243L34.9745 47.0733Z" stroke="#66C167" stroke-width="0.5" stroke-linecap="round" stroke-linejoin="round"/>
</g>
<defs>
<filter id="filter0_d_786_1565" x="0.5" y="0.5" width="64" height="75" filterUnits="userSpaceOnUse" color-interpolation-filters="sRGB">
<feFlood flood-opacity="0" result="BackgroundImageFix"/>
<feColorMatrix in="SourceAlpha" type="matrix" values="0 0 0 0 0 0 0 0 0 0 0 0 0 0 0 0 0 0 127 0" result="hardAlpha"/>
<feOffset/>
<feGaussianBlur stdDeviation="8"/>
<feComposite in2="hardAlpha" operator="out"/>
<feColorMatrix type="matrix" values="0 0 0 0 0.620833 0 0 0 0 1 0 0 0 0 0.433333 0 0 0 0.25 0"/>
<feBlend mode="normal" in2="BackgroundImageFix" result="effect1_dropShadow_786_1565"/>
<feBlend mode="normal" in="SourceGraphic" in2="effect1_dropShadow_786_1565" result="shape"/>
</filter>
</defs>
</svg>
