<svg width="13" height="13" viewBox="0 0 13 13" fill="none" xmlns="http://www.w3.org/2000/svg">
<path d="M11.7836 6.20861L10.625 6.78793L9.125 3.91534L10.2954 3.33012C10.3834 3.28615 10.4851 3.27847 10.5786 3.30874C10.6721 3.33901 10.75 3.4048 10.7956 3.49195L11.9483 5.69962C11.9714 5.74377 11.9854 5.79206 11.9896 5.84169C11.9938 5.89131 11.9881 5.94127 11.9727 5.98865C11.9574 6.03603 11.9328 6.07989 11.9003 6.11765C11.8678 6.15542 11.8282 6.18634 11.7836 6.20861V6.20861Z" stroke="#F2F2F2" stroke-linecap="round" stroke-linejoin="round"/>
<path d="M2.37521 6.73776L1.21657 6.15844C1.17203 6.13617 1.13237 6.10525 1.0999 6.06748C1.06744 6.02972 1.04282 5.98586 1.02749 5.93848C1.01216 5.8911 1.00642 5.84114 1.0106 5.79152C1.01479 5.74189 1.02882 5.6936 1.05187 5.64945L2.20466 3.44178C2.25017 3.35463 2.32808 3.28884 2.42162 3.25857C2.51516 3.2283 2.61684 3.23598 2.70478 3.27995L3.87521 3.86516L2.37521 6.73776Z" stroke="#F2F2F2" stroke-linecap="round" stroke-linejoin="round"/>
<path d="M10.625 6.78803L9.875 7.66544L8.15013 9.3903C8.10434 9.43609 8.04748 9.46925 7.98507 9.48653C7.92266 9.50382 7.85684 9.50465 7.79402 9.48894L5.07729 8.80976C5.02633 8.79702 4.97862 8.77372 4.93724 8.74136L2.375 6.73779" stroke="#F2F2F2" stroke-linecap="round" stroke-linejoin="round"/>
<path d="M9.87465 7.66541L7.81215 6.16541L7.21215 6.61541C6.95251 6.81014 6.63671 6.91541 6.31215 6.91541C5.9876 6.91541 5.6718 6.81014 5.41215 6.61541L5.15806 6.42483C5.11507 6.3926 5.07952 6.3515 5.05381 6.30433C5.02809 6.25716 5.01281 6.20501 5.009 6.15142C5.00519 6.09782 5.01294 6.04404 5.03173 5.9937C5.05052 5.94337 5.0799 5.89766 5.11789 5.85967L6.95232 4.02524C6.98714 3.99042 7.02848 3.9628 7.07398 3.94395C7.11947 3.9251 7.16824 3.91541 7.21748 3.91541H9.12465" stroke="#F2F2F2" stroke-linecap="round" stroke-linejoin="round"/>
<path d="M3.9021 3.86523L6.30772 3.16391C6.39366 3.13886 6.48572 3.14537 6.56727 3.18227L8.18768 3.91548" stroke="#F2F2F2" stroke-linecap="round" stroke-linejoin="round"/>
<path d="M5.75 10.4779L4.33721 10.1247C4.27988 10.1104 4.22675 10.0827 4.18215 10.0439L3.125 9.125" stroke="#F2F2F2" stroke-linecap="round" stroke-linejoin="round"/>
</svg>
