<svg width="12" height="12" viewBox="0 0 12 12" fill="none" xmlns="http://www.w3.org/2000/svg">
<circle cx="6" cy="6" r="6" fill="black"/>
<path opacity="0.95" fill-rule="evenodd" clip-rule="evenodd" d="M6.06444 1.74891C6.05181 1.72757 6.02709 1.71423 6.00018 1.71423C5.97326 1.71423 5.94855 1.72757 5.93591 1.74891L2.86572 6.9332C2.86129 6.94069 2.85861 6.94868 2.85763 6.95675C2.85728 6.95954 2.85713 6.96237 2.85719 6.96521C2.85735 6.97331 2.85919 6.9812 2.86249 6.98851C2.86676 6.99799 2.87347 7.0065 2.8821 7.01328L5.9494 9.6957C5.97766 9.72041 6.0227 9.72041 6.05096 9.69569L9.11797 7.01328C9.11892 7.01254 9.11984 7.01178 9.12073 7.011C9.12794 7.00474 9.13379 6.99707 9.13768 6.98828C9.14058 6.98178 9.14234 6.97483 9.14278 6.96768C9.14282 6.96701 9.14285 6.96634 9.14287 6.96566C9.14289 6.96512 9.14289 6.96457 9.14289 6.96403C9.14289 6.96168 9.14275 6.95934 9.14248 6.95703C9.14152 6.94887 9.13883 6.94078 9.13435 6.9332L6.06444 1.74891ZM8.92462 6.8575L7.08154 3.74502L6.65259 6.25813L8.92462 6.8575ZM6.92185 3.47534L6.00017 1.91886L5.07841 3.47534H6.92185ZM4.91857 3.74524L3.07547 6.85749L5.34759 6.25804L4.91857 3.74524ZM3.17593 7.08773L5.89527 9.46584L5.58322 7.63814L3.17593 7.08773ZM6.10508 9.46583L8.82292 7.08881L6.41733 7.64615C6.41697 7.64623 6.4166 7.64631 6.41623 7.64639C6.41602 7.64644 6.41582 7.64648 6.41561 7.64653L6.10508 9.46583ZM3.20538 6.95951L5.36986 6.38847L5.55924 7.49771L3.20538 6.95951ZM5.9999 6.22224L5.5108 6.35128L6.00017 9.21755L6.48938 6.35137L5.9999 6.22224ZM6.95796 3.60612L6.51165 6.22095L6.02143 6.09163C6.01453 6.0897 6.00728 6.08869 5.9999 6.08869C5.9925 6.08869 5.98524 6.0897 5.97835 6.09163L5.48853 6.22086L5.04211 3.60612H6.95796ZM6.43961 7.50593L6.63033 6.38855L8.79626 6.95993L6.43961 7.50593Z" fill="#F2F2F2" stroke="white" stroke-width="0.2" stroke-linecap="round" stroke-linejoin="round"/>
</svg>
