<svg width="42" height="42" viewBox="0 0 42 42" fill="none" xmlns="http://www.w3.org/2000/svg">
<circle cx="21" cy="21" r="21" fill="url(#paint0_radial_382_2548)"/>
<circle cx="21" cy="21" r="21" fill="url(#paint1_angular_382_2548)" style="mix-blend-mode:difference"/>
<circle cx="21" cy="21" r="21" fill="url(#paint2_angular_382_2548)" style="mix-blend-mode:screen"/>
<path opacity="0.95" fill-rule="evenodd" clip-rule="evenodd" d="M21.2254 7.12138C21.1812 7.04668 21.0947 7 21.0005 7C20.9063 7 20.8198 7.04668 20.7756 7.12138L10.0299 25.2664C10.0144 25.2926 10.005 25.3206 10.0016 25.3488C10.0004 25.3586 9.99984 25.3685 10 25.3784C10.0006 25.4068 10.0071 25.4344 10.0186 25.46C10.0335 25.4931 10.057 25.5229 10.0872 25.5467L20.8228 34.9351C20.9217 35.0216 21.0793 35.0216 21.1782 34.9351L31.9128 25.5467C31.9161 25.5441 31.9193 25.5414 31.9224 25.5387C31.9477 25.5168 31.9681 25.4899 31.9818 25.4592C31.9919 25.4364 31.9981 25.4121 31.9996 25.3871L31.9999 25.38L32 25.3743C32 25.3661 31.9995 25.3579 31.9985 25.3498C31.9952 25.3212 31.9858 25.2929 31.9701 25.2664L21.2254 7.12138ZM31.236 25.0014L24.7853 14.1077L23.2839 22.9036L31.236 25.0014ZM24.2264 13.1639L21.0005 7.71618L17.7743 13.1639H24.2264ZM17.2149 14.1085L10.764 25.0014L18.7164 22.9033L17.2149 14.1085ZM11.1156 25.8072L20.6333 34.1306L19.5411 27.7337L11.1156 25.8072ZM21.3677 34.1306L30.8801 25.811L22.4605 27.7617L22.4567 27.7626L22.4545 27.763L21.3677 34.1306ZM11.2187 25.3585L18.7944 23.3598L19.4572 27.2422L11.2187 25.3585ZM20.9995 22.778L19.2877 23.2297L21.0005 33.2616L22.7127 23.23L20.9995 22.778ZM24.3527 13.6216L22.7906 22.7735L21.0749 22.3209C21.0507 22.3141 21.0254 22.3106 20.9995 22.3106C20.9736 22.3106 20.9482 22.3141 20.9241 22.3209L19.2097 22.7732L17.6473 13.6216H24.3527ZM22.5385 27.2709L23.206 23.3601L30.7868 25.36L22.5385 27.2709Z" fill="black" stroke="black" stroke-width="0.5" stroke-linecap="round" stroke-linejoin="round"/>
<defs>
<radialGradient id="paint0_radial_382_2548" cx="0" cy="0" r="1" gradientUnits="userSpaceOnUse" gradientTransform="translate(13 1) rotate(63.4349) scale(42.4853)">
<stop offset="0.0001" stop-color="#9EFF6F"/>
<stop offset="0.276042" stop-color="#70FFE5"/>
<stop offset="0.497844" stop-color="#AD98FF"/>
<stop offset="0.760564" stop-color="#F3FFAA"/>
<stop offset="1" stop-color="#FF4949"/>
</radialGradient>
<radialGradient id="paint1_angular_382_2548" cx="0" cy="0" r="1" gradientUnits="userSpaceOnUse" gradientTransform="translate(21 21) rotate(90) scale(21)">
<stop offset="0.0754884"/>
<stop offset="0.165366" stop-color="white"/>
<stop offset="0.27703"/>
<stop offset="0.415158" stop-color="white"/>
<stop offset="0.558034"/>
<stop offset="0.671331" stop-color="white"/>
<stop offset="0.783613"/>
<stop offset="0.918809" stop-color="white"/>
</radialGradient>
<radialGradient id="paint2_angular_382_2548" cx="0" cy="0" r="1" gradientUnits="userSpaceOnUse" gradientTransform="translate(21 21) rotate(90) scale(21)">
<stop offset="0.0754884"/>
<stop offset="0.165366" stop-color="white"/>
<stop offset="0.27703"/>
<stop offset="0.415158" stop-color="white"/>
<stop offset="0.558034"/>
<stop offset="0.671331" stop-color="white"/>
<stop offset="0.783613"/>
<stop offset="0.918809" stop-color="white"/>
</radialGradient>
</defs>
</svg>
