<svg width="110" height="25" viewBox="0 0 110 25" fill="none" xmlns="http://www.w3.org/2000/svg">
<path d="M25.7571 10.3945C23.6855 10.3762 21.7239 11.3478 20.4957 13.0344C19.0841 14.7576 18.3508 16.9392 18.3874 19.1574C18.3141 20.5873 18.7907 21.9989 19.7074 23.0989C20.5873 24.1072 21.8889 24.6571 23.2272 24.5838C25.2071 24.5838 27.077 23.6672 28.2869 22.0906C29.7902 20.294 30.5968 18.0208 30.5602 15.6926C30.6152 14.3176 30.2302 12.961 29.4419 11.8428C28.6536 10.8895 27.407 10.3945 25.7571 10.3945ZM25.8487 20.9173C25.1888 21.5956 24.2721 21.9806 23.3189 21.9989C22.6772 22.0356 22.0539 21.7606 21.6689 21.2473C21.229 20.6423 21.0273 19.909 21.0823 19.1757C21.0273 17.5991 21.4673 16.0409 22.3656 14.7393C23.0805 13.621 24.3088 12.9427 25.6471 12.961C27.132 12.961 27.8836 13.8777 27.8836 15.6926C27.8836 17.6358 27.1687 19.5057 25.8487 20.9173ZM105.998 16.9392C105.375 16.7192 104.678 17.0308 104.422 17.6358C103.267 20.5323 101.855 21.9806 100.113 21.9806C99.1968 21.9806 98.7385 21.1923 98.7385 19.7074C98.8485 18.0208 99.1051 16.3525 99.4718 14.7026L99.8384 12.961H103.395C104 12.961 104.532 12.5211 104.642 11.9161C104.788 11.2195 104.33 10.5411 103.652 10.4128C103.578 10.3945 103.487 10.3945 103.413 10.3945H100.462L101.048 7.49797C101.195 6.783 100.737 6.06803 100.022 5.90304C99.9301 5.88471 99.8568 5.86638 99.7651 5.86638C99.1418 5.84805 98.6102 6.28802 98.4818 6.91133L97.7119 10.3395H89.4256C87.3357 10.3212 85.3742 11.3111 84.1642 13.016C82.7526 14.7393 82.0193 16.9208 82.056 19.1391C82.056 19.744 82.1293 20.3307 82.2576 20.9173C81.726 21.5589 80.9377 21.9256 80.0944 21.9623C79.6728 21.9989 79.2511 21.8339 78.9761 21.5039C78.7195 21.0456 78.6095 20.5323 78.6461 20.019C78.7011 18.5341 78.9028 17.0492 79.2328 15.5826L81.3777 5.57306C81.5427 4.85809 81.1027 4.16146 80.3877 3.99647C79.6728 3.83148 78.9761 4.27145 78.8111 4.98642L77.5645 11.1095C76.6846 10.5778 75.6763 10.3212 74.668 10.3212C72.5964 10.2845 70.6165 11.2011 69.2783 12.8144C67.83 14.5926 67.0601 16.8108 67.1334 19.1024C67.1151 19.8357 67.225 20.5507 67.4267 21.2473C66.9134 21.6873 66.2718 21.9439 65.6118 21.9439C65.1718 21.9806 64.7318 21.8156 64.4202 21.4856C64.1269 21.0456 63.9985 20.514 64.0535 20.0007C64.0902 19.0107 64.2369 18.0208 64.4752 17.0492C64.6218 16.3159 64.1452 15.6009 63.3936 15.4542C63.3569 15.4542 63.3202 15.4359 63.2836 15.4359C62.6236 15.3442 62.0003 15.7842 61.8353 16.4259C61.487 17.8375 60.8637 19.1757 60.0204 20.3673C59.4154 21.3023 58.4071 21.9073 57.2889 21.9806C56.7022 21.9623 56.1706 21.6506 55.8773 21.1556C55.4923 20.4957 55.309 19.7257 55.3273 18.9557C55.254 17.3975 55.6939 15.8759 56.6106 14.6109C57.3805 13.4927 58.6638 12.851 60.0021 12.8694C60.6804 12.8694 61.3587 13.016 62.0003 13.291C62.3853 13.4743 62.8253 13.4377 63.1919 13.1994C63.7969 12.8327 63.9985 12.0444 63.6319 11.4394C63.4852 11.2011 63.2836 11.0178 63.0269 10.9078C62.6969 10.7611 62.3486 10.6511 62.0003 10.5778C61.3587 10.3945 60.717 10.3028 60.0571 10.2845C58.0038 10.2845 56.0423 11.1828 54.7223 12.7777C53.934 13.6577 53.3657 14.7026 53.0174 15.8392C51.7341 19.9274 50.0842 21.9073 48.086 21.9073C47.4993 21.9439 46.9494 21.7056 46.6011 21.2473C46.2711 20.7706 46.1061 20.2023 46.1427 19.634C46.1244 19.4507 46.1427 19.2674 46.1794 19.1024C47.371 18.6441 48.4343 17.8375 49.2043 16.8292C49.9559 15.8576 50.3775 14.6659 50.3959 13.4377C50.3959 11.3661 49.2776 10.3212 47.0044 10.3212C45.4278 10.3212 43.9062 10.9445 42.7879 12.0627L44.1995 5.55473C44.3462 4.83976 43.8879 4.16146 43.1912 4.0148C43.0996 3.99647 43.0079 3.97814 42.9162 3.99647C42.2929 3.97814 41.7613 4.41812 41.633 5.04142L37.7831 23.0072C37.6365 23.7038 38.0765 24.4005 38.7914 24.5471C38.8831 24.5655 38.9748 24.5838 39.0664 24.5838C39.6714 24.5655 40.203 24.1255 40.2947 23.5205L41.4863 18.0208C41.688 17.2875 41.9629 16.5725 42.3113 15.9126C42.7512 15.1426 43.3379 14.4643 44.0528 13.9327C44.7678 13.3093 45.7028 12.961 46.656 12.9794C47.1327 12.906 47.5727 13.236 47.646 13.7127C47.6643 13.8043 47.6643 13.8777 47.646 13.9693C47.5727 14.8493 47.1144 15.6559 46.3994 16.1692C45.6478 16.8475 44.7128 17.2875 43.7045 17.4525C43.6129 18.2408 43.5762 18.8274 43.5762 19.1574C43.5212 20.5873 43.9245 21.9806 44.7311 23.1539C45.5194 24.1621 46.766 24.6938 48.0493 24.6021C49.8092 24.5838 51.4775 23.7588 52.5591 22.3656L53.0541 21.7789C53.2374 22.2556 53.5124 22.7139 53.8424 23.0989C54.649 24.0888 55.8773 24.6388 57.1605 24.5838C58.9388 24.5838 60.442 23.7588 61.6703 22.0173C62.202 23.7588 63.4486 24.5838 65.5201 24.5838C66.6751 24.5655 67.8117 24.1438 68.6916 23.4105C69.4983 24.1621 70.5615 24.5655 71.6432 24.5288C73.4214 24.5288 74.9063 23.7038 76.1529 21.9623C76.6846 23.7038 77.9312 24.5288 80.0027 24.5288C81.3227 24.5471 82.5876 24.0522 83.5592 23.1539C84.4392 24.0705 85.6491 24.5655 86.9141 24.5288C88.894 24.5288 90.7639 23.6122 91.9738 22.0356C93.4587 20.239 94.2654 17.9841 94.247 15.6559C94.2654 14.7026 94.1004 13.7677 93.7521 12.8877H97.1986L96.8686 14.3726C96.4469 16.0959 96.172 17.8558 96.0436 19.634C96.0436 22.8605 97.3636 24.5105 99.9668 24.5105C102.918 24.5105 105.137 22.5122 106.713 18.5891C106.988 18.0025 106.713 17.2875 106.126 17.0125C106.071 16.9758 106.035 16.9575 105.998 16.9392ZM76.6296 15.3626C76.1713 17.6358 75.438 19.3041 74.5947 20.3857C73.7514 21.4673 72.7798 21.9989 71.7898 21.9989C71.2032 21.9806 70.6715 21.6689 70.3782 21.174C70.0116 20.514 69.8099 19.7807 69.8466 19.0291C69.7732 17.4708 70.2316 15.9492 71.1299 14.6843C72.2848 12.906 74.668 12.4111 76.4463 13.566C76.6112 13.676 76.7762 13.8043 76.9412 13.951L76.6296 15.3626ZM91.0572 18.4791C90.6539 19.3407 90.1589 20.1473 89.5723 20.8806C88.9123 21.5773 87.9957 21.9806 87.0424 21.9989C86.4008 22.0356 85.7958 21.7606 85.3925 21.2473C84.9525 20.6423 84.7508 19.909 84.8058 19.1757C84.7508 17.5991 85.1908 16.0409 86.0891 14.7393C86.8041 13.621 88.0324 12.961 89.3706 12.961C90.8556 12.961 91.6072 13.8777 91.6072 15.6926C91.5705 16.6459 91.3872 17.5808 91.0572 18.4608V18.4791ZM36.9765 3.97814C36.3532 3.9598 35.8216 4.39978 35.6933 5.02309L31.8434 22.9889C31.6968 23.6855 32.1368 24.3821 32.8517 24.5288C32.9434 24.5471 33.035 24.5655 33.1267 24.5655C33.75 24.5838 34.2817 24.1438 34.41 23.5205L38.2598 5.55473C38.3881 4.83976 37.9298 4.14313 37.2148 3.99647C37.1415 3.99647 37.0682 3.97814 36.9765 3.97814ZM9.4412 0C4.23479 0.0183324 0.0183324 4.23479 0 9.44121C0 10.4862 0.164992 11.5128 0.494976 12.5027C0.733298 13.181 1.46659 13.5293 2.14489 13.3277C2.80486 13.071 3.17151 12.3561 2.95152 11.6778C2.67654 10.9078 2.54821 10.0828 2.58487 9.27621C2.69487 5.51806 5.82971 2.56654 9.58786 2.67654C13.346 2.78653 16.2975 5.92137 16.1875 9.67952C16.0775 13.1994 13.3093 16.0592 9.78952 16.2792C9.78952 16.2792 8.46958 16.3709 7.80962 16.4442C7.5713 16.4809 7.33297 16.5175 7.09465 16.5909C7.05799 16.6275 7.00299 16.6092 6.96633 16.5725C6.94799 16.5359 6.94799 16.4992 6.96633 16.4625L7.16798 15.3442L8.41459 9.71619C8.56125 9.01956 8.12127 8.32293 7.42464 8.17627C6.728 8.02961 6.03137 8.46959 5.88471 9.16622C5.88471 9.16622 2.93319 22.9155 2.93319 23.0439C2.7682 23.7222 3.17151 24.4005 3.84981 24.5655C3.86814 24.5655 3.90481 24.5838 3.92314 24.5838C4.60144 24.7488 5.27974 24.3271 5.44473 23.6488C5.44473 23.6305 5.46307 23.6122 5.46307 23.5938C5.49973 23.4289 5.88471 21.5956 5.88471 21.5956C6.1597 20.2207 7.27798 19.1757 8.65291 18.9557C8.94623 18.9191 10.1378 18.8274 10.1378 18.8274C15.3259 18.3508 19.1391 13.7493 18.6624 8.56124C18.2224 3.77648 14.2626 0.0916622 9.4412 0Z" fill="#F2F2F2"/>
<path d="M108.748 21.7421C107.886 21.5771 107.062 22.1271 106.878 22.9704C106.695 23.8137 107.227 24.6387 108.07 24.822C108.088 24.822 108.106 24.822 108.106 24.822C108.931 25.0053 109.756 24.492 109.958 23.667C109.958 23.6304 109.976 23.612 109.976 23.5754C110.123 22.7504 109.573 21.9438 108.748 21.7421Z" fill="#E6007A"/>
</svg>
