<svg width="103" height="31" viewBox="0 0 103 31" fill="none" xmlns="http://www.w3.org/2000/svg">
<path d="M43.1297 17.7888H30.4563C30.6467 21.0273 32.9215 23.1559 36.0403 23.1559C38.2263 23.1559 40.0981 22.2565 40.9722 20.758L42.7838 21.8664C41.629 23.8789 39.0686 25.1359 35.9784 25.1359C31.6953 25.1359 28.237 21.8664 28.237 17.4591C28.2298 16.4704 28.4245 15.4902 28.8097 14.5758C29.195 13.6614 29.763 12.831 30.4808 12.1332C31.1985 11.4353 32.0515 10.8841 32.99 10.5115C33.9285 10.139 34.9336 9.95261 35.9467 9.96333C40.0363 9.96333 43.1899 12.9913 43.1899 16.8894C43.1899 17.1587 43.1582 17.49 43.1265 17.7888H43.1297ZM40.8485 16.0859C40.6613 13.5982 38.5689 11.7993 35.8531 11.7993C33.169 11.7993 31.1083 13.5378 30.5769 16.0859H40.8485Z" fill="black"/>
<path d="M61.6424 17.5489C61.6424 21.837 58.1778 25.1344 53.7757 25.1344C49.3735 25.1344 45.9407 21.837 45.9407 17.5489C45.9407 13.2608 49.3735 9.96338 53.7757 9.96338C58.1778 9.96338 61.6424 13.2623 61.6424 17.5489ZM48.1885 17.5489C48.1885 20.645 50.6236 23.0662 53.7757 23.0662C54.518 23.0716 55.254 22.9324 55.9406 22.6566C56.6271 22.3808 57.2502 21.9741 57.7736 21.4602C58.2969 20.9463 58.7098 20.3357 58.9882 19.664C59.2665 18.9924 59.4047 18.2733 59.3945 17.5489C59.3945 14.4311 56.9293 12.0331 53.7757 12.0331C50.622 12.0331 48.1885 14.4311 48.1885 17.5489Z" fill="black"/>
<path d="M64.577 23.0368L65.6082 21.3881C66.7932 22.5275 68.8855 23.3061 70.6638 23.3061C72.7562 23.3061 74.0983 22.286 74.0983 20.9376C74.0983 17.1603 65.0149 19.6481 65.0149 14.2206C65.0149 11.6724 67.2627 9.96338 70.5671 9.96338C72.6293 9.96338 74.7185 10.6229 75.9051 11.852L74.8439 13.5007C73.8127 12.4171 71.8457 11.7978 70.3783 11.7978C68.5064 11.7978 67.2881 12.6973 67.2881 14.0781C67.2881 17.5257 76.4048 15.2469 76.4048 20.8896C76.4048 23.3479 74.0935 25.1483 70.694 25.1483C68.416 25.1483 66.0127 24.3077 64.5754 23.0492" fill="black"/>
<path d="M83.6942 5.46641C83.6828 5.88788 83.5046 6.28866 83.1971 6.58475C82.8895 6.88085 82.4764 7.04928 82.0444 7.05473C81.8284 7.06134 81.6132 7.02553 81.4117 6.94943C81.2101 6.87332 81.0263 6.75847 80.8711 6.61169C80.7159 6.46492 80.5925 6.28921 80.5082 6.095C80.4239 5.90078 80.3805 5.69203 80.3805 5.48112C80.3805 5.27021 80.4239 5.06146 80.5082 4.86725C80.5925 4.67303 80.7159 4.49732 80.8711 4.35055C81.0263 4.20377 81.2101 4.08892 81.4117 4.01282C81.6132 3.93671 81.8284 3.9009 82.0444 3.90751C82.9185 3.90751 83.699 4.62736 83.699 5.46641H83.6942ZM83.1676 10.2654V24.8358H80.8848V12.4637H79.262V10.2639L83.1676 10.2654Z" fill="black"/>
<path d="M102.538 17.5489C102.538 21.837 99.0722 25.1344 94.6716 25.1344C90.2711 25.1344 86.8367 21.837 86.8367 17.5489C86.8367 13.2608 90.2695 9.96338 94.6716 9.96338C99.0738 9.96338 102.538 13.2623 102.538 17.5489ZM89.0829 17.5489C89.0829 20.645 91.518 23.0662 94.6716 23.0662C95.4138 23.0712 96.1494 22.9316 96.8356 22.6557C97.5217 22.3797 98.1445 21.9729 98.6675 21.4591C99.1905 20.9453 99.6031 20.3348 99.8813 19.6633C100.159 18.9919 100.297 18.273 100.287 17.5489C100.287 14.4311 97.8221 12.0331 94.6685 12.0331C91.5148 12.0331 89.0798 14.4311 89.0798 17.5489" fill="black"/>
<path d="M17.4689 12.7901L19.9119 24.0151L11.9484 28.6082L17.4689 12.7901ZM4.94783 10.2374L10.8332 2.53263L16.7154 10.2374L10.8332 27.0973L4.94783 10.2374ZM1.75292 24.0151L4.1959 12.7886L9.7164 28.6082L1.75292 24.0151ZM18.4493 9.97883L10.8348 0L3.22029 9.97883L0 24.752L10.8332 31L21.6648 24.752L18.4493 9.97883Z" fill="black"/>
</svg>
