<svg width="110" height="34" viewBox="0 0 110 34" fill="none" xmlns="http://www.w3.org/2000/svg">
<g clip-path="url(#clip0)">
<path d="M46.0608 18.9984H32.5261C32.7294 22.457 35.1588 24.7302 38.4896 24.7302C40.8241 24.7302 42.8232 23.7697 43.7567 22.1694L45.6914 23.3531C44.4581 25.5024 41.7237 26.8448 38.4235 26.8448C33.8493 26.8448 30.156 23.3531 30.156 18.6463C30.1483 17.5904 30.3562 16.5436 30.7676 15.567C31.1791 14.5905 31.7857 13.7037 32.5523 12.9584C33.3187 12.2131 34.2297 11.6244 35.232 11.2265C36.2343 10.8287 37.3077 10.6296 38.3896 10.6411C42.7572 10.6411 46.1251 13.8748 46.1251 18.0379C46.1251 18.3255 46.0912 18.6793 46.0574 18.9984H46.0608ZM43.6246 17.1798C43.4246 14.523 41.19 12.6018 38.2897 12.6018C35.4231 12.6018 33.2224 14.4585 32.6549 17.1798H43.6246Z" fill="white"/>
<path d="M65.8316 18.7417C65.8316 23.3212 62.1315 26.8427 57.4302 26.8427C52.7288 26.8427 49.0627 23.3212 49.0627 18.7417C49.0627 14.1621 52.7288 10.6406 57.4302 10.6406C62.1315 10.6406 65.8316 14.1637 65.8316 18.7417ZM51.4633 18.7417C51.4633 22.0482 54.0639 24.6339 57.4302 24.6339C58.223 24.6397 59.009 24.491 59.7423 24.1965C60.4754 23.9019 61.1409 23.4676 61.6998 22.9188C62.2587 22.37 62.6997 21.7179 62.997 21.0005C63.2942 20.2833 63.4418 19.5153 63.4309 18.7417C63.4309 15.412 60.7981 12.851 57.4302 12.851C54.0622 12.851 51.4633 15.412 51.4633 18.7417Z" fill="white"/>
<path d="M68.9658 24.6025L70.0671 22.8418C71.3326 24.0586 73.5671 24.8901 75.4663 24.8901C77.7009 24.8901 79.1342 23.8007 79.1342 22.3607C79.1342 18.3267 69.4335 20.9835 69.4335 15.1872C69.4335 12.4658 71.834 10.6406 75.363 10.6406C77.5654 10.6406 79.7966 11.345 81.0638 12.6576L79.9305 14.4183C78.8292 13.2611 76.7285 12.5997 75.1614 12.5997C73.1623 12.5997 71.8612 13.5603 71.8612 15.035C71.8612 18.7169 81.5975 16.2832 81.5975 22.3094C81.5975 24.9348 79.1291 26.8575 75.4985 26.8575C73.0657 26.8575 70.4991 25.9598 68.9641 24.6158" fill="white"/>
<path d="M89.3821 5.83755C89.3699 6.28766 89.1796 6.71568 88.8512 7.03189C88.5227 7.34811 88.0815 7.52799 87.6202 7.53381C87.3895 7.54087 87.1597 7.50263 86.9445 7.42135C86.7292 7.34007 86.5329 7.21742 86.3671 7.06066C86.2014 6.90392 86.0696 6.71626 85.9796 6.50886C85.8895 6.30144 85.8432 6.0785 85.8432 5.85326C85.8432 5.62801 85.8895 5.40507 85.9796 5.19767C86.0696 4.99025 86.2014 4.8026 86.3671 4.64585C86.5329 4.4891 86.7292 4.36644 86.9445 4.28517C87.1597 4.20389 87.3895 4.16564 87.6202 4.1727C88.5537 4.1727 89.3872 4.94147 89.3872 5.83755H89.3821ZM88.8197 10.9627V26.5233H86.3818V13.3104H84.6487V10.9611L88.8197 10.9627Z" fill="white"/>
<path d="M109.507 18.7417C109.507 23.3212 105.805 26.8427 101.106 26.8427C96.4061 26.8427 92.7383 23.3212 92.7383 18.7417C92.7383 14.1621 96.4044 10.6406 101.106 10.6406C105.807 10.6406 109.507 14.1637 109.507 18.7417ZM95.1371 18.7417C95.1371 22.0482 97.7377 24.6339 101.106 24.6339C101.898 24.6393 102.684 24.4902 103.417 24.1955C104.149 23.9008 104.815 23.4663 105.373 22.9176C105.932 22.3689 106.372 21.7169 106.669 20.9998C106.966 20.2827 107.113 19.515 107.103 18.7417C107.103 15.412 104.47 12.851 101.102 12.851C97.7343 12.851 95.1338 15.412 95.1338 18.7417" fill="white"/>
<path d="M18.6561 13.6593L21.2651 25.6472L12.7604 30.5524L18.6561 13.6593ZM5.28409 10.9331L11.5694 2.70475L17.8514 10.9331L11.5694 28.9389L5.28409 10.9331ZM1.87205 25.6472L4.48106 13.6577L10.3767 30.5524L1.87205 25.6472ZM19.7031 10.657L11.5711 0L3.43914 10.657L0 26.4342L11.5694 33.1068L23.1372 26.4342L19.7031 10.657Z" fill="white"/>
</g>
<defs>
<clipPath id="clip0">
<rect width="110" height="33.1068" fill="white"/>
</clipPath>
</defs>
</svg>
