<svg width="300" height="28" viewBox="0 0 300 28" fill="none" xmlns="http://www.w3.org/2000/svg">
<g clip-path="url(#clip0)">
<path d="M10.4893 13.5524L7.42911 16.6126L4.3689 13.5524L7.42911 10.4922L10.4893 13.5524ZM17.9213 6.12045L23.1674 11.3665L26.2276 8.30629L17.9213 0L9.615 8.30629L12.6752 11.3665L17.9213 6.12045ZM28.4135 10.4922L25.3532 13.5524L28.4135 16.6126L31.4738 13.5524L28.4135 10.4922ZM17.9213 20.9844L12.6752 15.7383L9.615 18.7985L17.9213 27.1049L26.2276 18.7985L23.1674 15.7383L17.9213 20.9844ZM17.9213 16.6126L20.9815 13.5524L17.9213 10.4922L14.8611 13.5524L17.9213 16.6126ZM50.2284 16.9074V16.8649C50.2284 14.8688 49.1669 13.8708 47.4468 13.2126C48.5084 12.618 49.4004 11.6838 49.4004 10.0063V9.96381C49.4004 7.62802 47.5318 6.12042 44.4953 6.12042H37.5942V20.9843H44.665C48.0201 20.9844 50.2284 19.6253 50.2284 16.9074ZM46.1512 10.5584C46.1512 11.6625 45.2383 12.1297 43.7944 12.1297H40.7793V8.98703H44.0068C45.3871 8.98703 46.1512 9.53915 46.1512 10.516V10.5584ZM46.9795 16.5038C46.9795 17.6081 46.1089 18.1178 44.665 18.1178H40.7793V14.8476H44.5588C46.2362 14.8476 46.9795 15.4634 46.9795 16.4613V16.5038ZM57.0858 20.9844V6.12045H53.8157V20.9844H57.0858ZM74.664 20.9844V6.12045H71.4362V15.2723L64.4714 6.12042H61.4563V20.9843H64.6837V11.535L71.8824 20.9844H74.664ZM92.7778 20.9844L86.4074 6.01433H83.3923L77.0219 20.9844H80.3557L81.7146 17.6506H88.0001L89.3589 20.9844H92.7778ZM86.8321 14.7627H82.8826L84.8573 9.94247L86.8321 14.7627ZM108.365 20.9844V6.12045H105.137V15.2723L98.1723 6.12042H95.1572V20.9843H98.3846V11.535L105.583 20.9844H108.365ZM125.247 18.5849L123.166 16.4827C121.998 17.5445 120.958 18.2239 119.259 18.2239C116.711 18.2239 114.948 16.1005 114.948 13.5523V13.51C114.948 10.9618 116.753 8.8809 119.259 8.8809C120.745 8.8809 121.913 9.51779 123.06 10.5584L125.141 8.15881C123.761 6.79981 122.083 5.86549 119.28 5.86549C114.715 5.86549 111.53 9.32672 111.53 13.5523V13.5948C111.53 17.8628 114.778 21.239 119.153 21.239C122.019 21.239 123.718 20.22 125.247 18.5849ZM139.199 20.9844V18.0753H131.13V14.9537H138.137V12.0447H131.13V9.0295H139.092V6.12042H127.881V20.9843L139.199 20.9844Z" fill="#F0B90B"/>
<path d="M150.475 10.0186C150.475 9.02287 151.365 8.23897 152.89 8.23897C154.246 8.23897 155.581 8.76862 156.916 9.76439L158.314 7.79406C156.81 6.58646 155.094 5.92969 152.932 5.92969C149.988 5.92969 147.869 7.66693 147.869 10.2517C147.869 13.0059 149.649 13.9381 152.805 14.7008C155.56 15.3363 156.153 15.9084 156.153 16.9889C156.153 18.1329 155.136 18.8744 153.526 18.8744C151.682 18.8744 150.263 18.1753 148.844 16.9465L147.276 18.8109C149.055 20.3999 151.195 21.1838 153.462 21.1838C156.576 21.1838 158.759 19.5312 158.759 16.7346C158.759 14.2559 157.127 13.133 153.992 12.3703C151.153 11.6923 150.475 11.1838 150.475 10.0186Z" fill="#F0B90B"/>
<path d="M173.369 10.3394V20.9749H175.975V6.14453H173.2L168.687 13.1572L164.175 6.14453H161.399V20.9749H163.963V10.3818L168.603 17.3309H168.687L173.369 10.3394Z" fill="#F0B90B"/>
<path d="M187.038 6.03906H184.623L178.098 20.9753H180.767L182.293 17.3949H189.305L190.809 20.9753H193.564L187.038 6.03906ZM188.352 15.0856H183.246L185.788 9.15345L188.352 15.0856Z" fill="#F0B90B"/>
<path d="M208.268 20.9749L204.263 15.3605C206.34 14.7885 207.802 13.3055 207.802 10.8479C207.802 7.94535 205.704 6.14453 202.293 6.14453H195.683V20.9749H198.289V15.8054H201.552L205.196 20.9749H208.268ZM205.153 10.9962C205.153 12.5216 203.967 13.4962 202.103 13.4962H198.289V8.51739H202.081C204.009 8.51739 205.153 9.36484 205.153 10.9962Z" fill="#F0B90B"/>
<path d="M216.778 8.55976H221.482V6.14453H209.448V8.55976H214.152V20.9749H216.778V8.55976Z" fill="#F0B90B"/>
<path d="M242.016 18.6004L240.342 16.9055C239.071 18.092 237.906 18.8335 236.084 18.8335C233.245 18.8335 231.19 16.4606 231.19 13.5369C231.19 10.6132 233.245 8.28272 236.084 8.28272C237.779 8.28272 239.05 9.02425 240.237 10.1259L241.91 8.19799C240.491 6.84205 238.838 5.88867 236.105 5.88867C231.614 5.88867 228.457 9.34204 228.457 13.5793C228.457 17.8589 231.677 21.2275 235.999 21.2275C238.775 21.2275 240.47 20.2106 242.016 18.6004Z" fill="#F0B90B"/>
<path d="M254.014 14.725V20.9749H256.62V6.14453H254.014V12.3097H246.938V6.14453H244.332V20.9749H246.938V14.725H254.014Z" fill="#F0B90B"/>
<path d="M267.674 6.03906H265.259L258.734 20.9753H261.403L262.928 17.3949H269.942L271.446 20.9753H274.199L267.674 6.03906ZM268.988 15.0856H263.882L266.424 9.15345L268.988 15.0856Z" fill="#F0B90B"/>
<path d="M276.466 6.14453V20.9749H279.074V6.14453H276.466Z" fill="#F0B90B"/>
<path d="M292.98 16.3987L285.034 6.14453H282.62V20.9749H285.183V10.4242L293.362 20.9749H295.544V6.14453H292.98V16.3987Z" fill="#F0B90B"/>
</g>
<defs>
<clipPath id="clip0">
<rect width="300" height="27.2727" fill="white"/>
</clipPath>
</defs>
</svg>
