<svg width="110" height="25" viewBox="0 0 110 25" fill="none" xmlns="http://www.w3.org/2000/svg">
<g clip-path="url(#clip0_4446_1124)">
<path d="M25.7569 10.395C24.7332 10.3844 23.7217 10.6185 22.8066 11.0776C21.8915 11.5368 21.0993 12.2079 20.4959 13.035C19.0916 14.7624 18.3445 16.9312 18.3869 19.157C18.3165 20.5901 18.7877 21.9973 19.7069 23.099C20.1425 23.5974 20.6858 23.9902 21.2957 24.2475C21.9055 24.5048 22.566 24.6198 23.2269 24.584C25.2069 24.584 27.0769 23.667 28.2869 22.091C29.7876 20.3 30.5943 18.0293 30.5599 15.693C30.6207 14.3217 30.2277 12.9685 29.4419 11.843C28.6539 10.889 27.4069 10.395 25.7569 10.395V10.395ZM25.8489 20.917C25.1804 21.5961 24.2717 21.9851 23.3189 22C23.0032 22.0203 22.6874 21.9623 22.3996 21.8311C22.1117 21.6999 21.8607 21.4996 21.6689 21.248C21.2337 20.6492 21.0256 19.9151 21.0819 19.177C21.0222 17.5985 21.4724 16.0427 22.3659 14.74C22.7155 14.1881 23.2005 13.735 23.7749 13.4237C24.3492 13.1125 24.9937 12.9535 25.6469 12.962C27.1319 12.962 27.8839 13.879 27.8839 15.694C27.8839 17.637 27.1689 19.507 25.8489 20.918V20.917ZM105.998 16.939C105.696 16.8345 105.365 16.8483 105.073 16.9776C104.781 17.1069 104.548 17.3422 104.422 17.636C103.267 20.532 101.855 21.981 100.113 21.981C99.1969 21.981 98.7389 21.192 98.7389 19.707C98.8489 18.021 99.1049 16.352 99.4719 14.703L99.8379 12.961H103.395C104 12.961 104.532 12.521 104.642 11.916C104.676 11.7523 104.678 11.5833 104.647 11.4189C104.616 11.2545 104.552 11.0979 104.46 10.9582C104.368 10.8184 104.249 10.6983 104.111 10.6047C103.972 10.5112 103.816 10.446 103.652 10.413C103.578 10.395 103.487 10.395 103.413 10.395H100.462L101.048 7.498C101.117 7.15098 101.049 6.79062 100.857 6.49301C100.666 6.1954 100.366 5.98384 100.022 5.903C99.9299 5.885 99.8569 5.866 99.7649 5.866C99.1419 5.848 98.6099 6.288 98.4819 6.911L97.7119 10.339H89.4259C88.3979 10.3271 87.3822 10.5644 86.4659 11.0306C85.5495 11.4968 84.7597 12.178 84.1639 13.016C82.7598 14.7438 82.0129 16.913 82.0559 19.139C82.0559 19.744 82.1289 20.331 82.2579 20.917C81.7259 21.559 80.9379 21.926 80.0939 21.962C79.8845 21.9813 79.6735 21.9497 79.4788 21.8699C79.2842 21.7902 79.1117 21.6647 78.9759 21.504C78.7228 21.052 78.608 20.5356 78.6459 20.019C78.7009 18.534 78.9029 17.049 79.2329 15.583L81.3779 5.573C81.4177 5.40439 81.4235 5.22957 81.3951 5.05869C81.3668 4.8878 81.3047 4.72425 81.2126 4.57754C81.1205 4.43083 81.0002 4.30387 80.8586 4.20404C80.717 4.10421 80.5571 4.0335 80.3879 3.996C80.2193 3.95627 80.0445 3.95042 79.8736 3.9788C79.7027 4.00719 79.5392 4.06923 79.3925 4.16133C79.2458 4.25343 79.1188 4.37376 79.019 4.51533C78.9192 4.65689 78.8484 4.81688 78.8109 4.986L77.5639 11.11C76.6885 10.5882 75.6871 10.3154 74.6679 10.321C73.64 10.3054 72.6218 10.5215 71.6887 10.953C70.7557 11.3846 69.9317 12.0206 69.2779 12.814C67.8265 14.5819 67.0645 16.8156 67.1329 19.102C67.1199 19.8279 67.2191 20.5514 67.4269 21.247C66.9244 21.6883 66.2807 21.9355 65.6119 21.944C65.1719 21.981 64.7319 21.816 64.4199 21.486C64.1284 21.0485 63.9986 20.5229 64.0529 20C64.0899 19.01 64.2369 18.02 64.4749 17.048C64.5097 16.8722 64.5093 16.6913 64.4736 16.5156C64.438 16.34 64.3679 16.1732 64.2674 16.0249C64.1668 15.8765 64.0379 15.7496 63.8879 15.6514C63.738 15.5533 63.5701 15.4858 63.3939 15.453C63.3569 15.453 63.3199 15.435 63.2839 15.435C62.6239 15.343 61.9999 15.783 61.8349 16.425C61.4812 17.8404 60.8656 19.1771 60.0199 20.366C59.722 20.8293 59.3199 21.2165 58.8458 21.4968C58.3716 21.777 57.8385 21.9425 57.2889 21.98C57.0031 21.9726 56.7238 21.893 56.477 21.7488C56.2302 21.6046 56.0237 21.4003 55.8769 21.155C55.4944 20.4864 55.304 19.725 55.3269 18.955C55.2473 17.4027 55.7003 15.8697 56.6109 14.61C56.9898 14.0637 57.4973 13.619 58.0887 13.3152C58.6801 13.0114 59.3372 12.8578 60.0019 12.868C60.6799 12.868 61.3589 13.015 61.9999 13.29C62.3849 13.473 62.8249 13.437 63.1919 13.198C63.4834 13.0227 63.6935 12.739 63.776 12.409C63.8585 12.079 63.8067 11.7298 63.6319 11.438C63.4909 11.2019 63.2793 11.0162 63.0269 10.907C62.6971 10.7614 62.3529 10.6507 61.9999 10.577C61.3672 10.3977 60.7144 10.2993 60.0569 10.284C59.039 10.2812 58.033 10.5032 57.1108 10.9341C56.1885 11.3651 55.3728 11.9943 54.7219 12.777C53.938 13.6613 53.3561 14.7059 53.0169 15.838C51.7339 19.926 50.0839 21.906 48.0859 21.906C47.803 21.9282 47.5191 21.8794 47.2598 21.7642C47.0005 21.6489 46.774 21.4708 46.6009 21.246C46.271 20.7752 46.1096 20.2069 46.1429 19.633C46.1269 19.4549 46.139 19.2753 46.1789 19.101C47.3764 18.6346 48.4228 17.8484 49.2039 16.828C49.9572 15.8562 50.3754 14.6664 50.3959 13.437C50.3959 11.365 49.2779 10.32 47.0039 10.32C45.4234 10.3194 43.9071 10.9459 42.7879 12.062L44.1999 5.555C44.2349 5.38762 44.2366 5.21499 44.2048 5.04698C44.173 4.87896 44.1084 4.71886 44.0147 4.57583C43.921 4.4328 43.8 4.30965 43.6586 4.21342C43.5173 4.11719 43.3584 4.04976 43.1909 4.015C43.0999 3.996 43.0079 3.978 42.9159 3.996C42.2929 3.978 41.7609 4.418 41.6329 5.041L37.7829 23.007C37.7474 23.1743 37.7453 23.3471 37.7768 23.5152C37.8083 23.6834 37.8727 23.8436 37.9664 23.9868C38.0601 24.1299 38.1812 24.2531 38.3227 24.3493C38.4642 24.4454 38.6233 24.5126 38.7909 24.547C38.8829 24.565 38.9749 24.584 39.0659 24.584C39.6709 24.566 40.2029 24.125 40.2949 23.52L41.4859 18.02C41.6879 17.288 41.9629 16.573 42.3109 15.913C42.7487 15.1398 43.3418 14.4657 44.0529 13.933C44.773 13.3045 45.7002 12.9646 46.6559 12.979C46.7692 12.962 46.8846 12.9675 46.9957 12.9952C47.1068 13.0229 47.2113 13.0723 47.3033 13.1405C47.3953 13.2087 47.4729 13.2943 47.5317 13.3926C47.5905 13.4908 47.6293 13.5997 47.6459 13.713C47.6641 13.7974 47.6641 13.8846 47.6459 13.969C47.6093 14.404 47.4789 14.8259 47.2636 15.2057C47.0484 15.5855 46.7534 15.9141 46.3989 16.169C45.643 16.847 44.7077 17.2928 43.7049 17.453C43.6324 18.0184 43.5893 18.5871 43.5759 19.157C43.5189 20.5791 43.9241 21.9815 44.7309 23.154C45.1228 23.649 45.6305 24.0399 46.2091 24.2924C46.7877 24.545 47.4195 24.6513 48.0489 24.602C48.9204 24.5923 49.7785 24.3862 50.5593 23.9991C51.3401 23.612 52.0236 23.0538 52.5589 22.366L53.0539 21.779C53.2369 22.256 53.5119 22.714 53.8419 23.099C54.2411 23.5881 54.7491 23.9771 55.3254 24.2349C55.9017 24.4927 56.5302 24.6123 57.1609 24.584C58.9389 24.584 60.4419 23.759 61.6709 22.017C62.2019 23.759 63.4489 24.584 65.5209 24.584C66.68 24.5628 67.7977 24.1489 68.6909 23.41C69.4882 24.1587 70.5497 24.5611 71.6429 24.529C73.4209 24.529 74.9059 23.704 76.1529 21.962C76.6849 23.704 77.9309 24.529 80.0029 24.529C81.321 24.5449 82.5945 24.0525 83.5589 23.154C83.9905 23.6056 84.5122 23.9614 85.0902 24.1983C85.6682 24.4351 86.2896 24.5478 86.9139 24.529C88.8939 24.529 90.7639 23.612 91.9739 22.036C93.459 20.2432 94.2639 17.9839 94.2469 15.656C94.2676 14.7096 94.0993 13.7686 93.7519 12.888H97.1999L96.8699 14.373C96.4481 16.1005 96.1721 17.8603 96.0449 19.634C96.0449 22.86 97.3649 24.511 99.9679 24.511C102.919 24.511 105.138 22.512 106.714 18.589C106.989 18.003 106.714 17.288 106.127 17.013C106.086 16.9853 106.043 16.9605 105.999 16.939H105.998ZM76.6299 15.363C76.1709 17.636 75.4379 19.304 74.5949 20.386C73.7509 21.467 72.7799 21.999 71.7899 21.999C71.5041 21.9916 71.2249 21.912 70.978 21.7678C70.7312 21.6236 70.5247 21.4193 70.3779 21.174C70.0119 20.514 69.8099 19.781 69.8469 19.029C69.7757 17.4778 70.2276 15.9477 71.1299 14.684C72.2849 12.906 74.6679 12.411 76.4459 13.566C76.6109 13.676 76.7759 13.804 76.9409 13.951L76.6299 15.363V15.363ZM91.0569 18.479C90.6587 19.3356 90.1602 20.1419 89.5719 20.881C89.2451 21.2254 88.8532 21.5015 88.4189 21.6934C87.9847 21.8853 87.5166 21.9892 87.0419 21.999C86.7265 22.0175 86.4112 21.9587 86.1237 21.8276C85.8361 21.6966 85.5849 21.4973 85.3919 21.247C84.957 20.6481 84.7493 19.914 84.8059 19.176C84.7459 17.5976 85.1957 16.0418 86.0889 14.739C86.4415 14.1898 86.9273 13.7387 87.5012 13.4278C88.0751 13.1169 88.7183 12.9563 89.3709 12.961C90.8559 12.961 91.6069 13.878 91.6069 15.693C91.5728 16.6391 91.3871 17.5737 91.0569 18.461V18.479ZM36.9769 3.979C36.3529 3.959 35.8219 4.399 35.6929 5.023L31.8429 22.989C31.8074 23.1564 31.8054 23.3292 31.8369 23.4974C31.8685 23.6656 31.933 23.8259 32.0268 23.9691C32.1206 24.1122 32.2418 24.2354 32.3834 24.3315C32.525 24.4276 32.6843 24.4947 32.8519 24.529C32.9429 24.547 33.0349 24.566 33.1269 24.566C33.7499 24.584 34.2819 24.144 34.4099 23.52L38.2599 5.555C38.3233 5.2102 38.2495 4.8543 38.0543 4.5631C37.8591 4.27191 37.5579 4.06842 37.2149 3.996C37.1409 3.996 37.0679 3.978 36.9759 3.978L36.9769 3.979ZM9.43994 0C7.93858 0.00524675 6.45996 0.367198 5.12593 1.05602C3.79191 1.74485 2.64067 2.74083 1.76709 3.96188C0.893514 5.18293 0.322611 6.5941 0.10143 8.07909C-0.11975 9.56408 0.0151234 11.0804 0.494936 12.503C0.611357 12.8261 0.847662 13.0921 1.15486 13.2457C1.46206 13.3993 1.81658 13.4287 2.14494 13.328C2.80494 13.071 3.17194 12.356 2.95194 11.678C2.67568 10.9085 2.55106 10.0929 2.58494 9.276C2.61107 8.38271 2.81298 7.50333 3.17913 6.68811C3.54527 5.87289 4.06847 5.13781 4.71883 4.52488C5.36918 3.91195 6.13394 3.43319 6.96941 3.11595C7.80488 2.79871 8.69467 2.64921 9.58794 2.676C10.4813 2.70214 11.3608 2.90408 12.1761 3.27028C12.9913 3.63649 13.7265 4.15978 14.3394 4.81024C14.9524 5.4607 15.4311 6.22559 15.7483 7.06117C16.0655 7.89675 16.2149 8.78665 16.1879 9.68C16.1352 11.3794 15.45 12.9978 14.2666 14.2186C13.0833 15.4393 11.4868 16.1744 9.78994 16.28C9.78994 16.28 8.46994 16.37 7.80994 16.444C7.57094 16.481 7.33294 16.517 7.09494 16.591C7.05794 16.628 7.00294 16.609 6.96594 16.573C6.95692 16.5561 6.9522 16.5372 6.9522 16.518C6.9522 16.4988 6.95692 16.4799 6.96594 16.463L7.16794 15.344L8.41494 9.716C8.48692 9.38058 8.42319 9.03031 8.23768 8.74173C8.05217 8.45316 7.75997 8.24977 7.42494 8.176C7.08952 8.10402 6.73924 8.16774 6.45067 8.35325C6.1621 8.53876 5.9587 8.83097 5.88494 9.166C5.88494 9.166 2.93294 22.916 2.93294 23.044C2.89247 23.2041 2.88414 23.3706 2.9084 23.534C2.93267 23.6973 2.98907 23.8543 3.07433 23.9957C3.1596 24.1371 3.27204 24.2602 3.40517 24.358C3.53829 24.4557 3.68946 24.526 3.84994 24.565C3.86794 24.565 3.90494 24.584 3.92294 24.584C4.08427 24.6227 4.25165 24.6292 4.4155 24.6031C4.57935 24.5771 4.73645 24.5189 4.87781 24.4321C5.01918 24.3453 5.14203 24.2314 5.23935 24.097C5.33666 23.9626 5.40652 23.8104 5.44494 23.649C5.44494 23.631 5.46294 23.612 5.46294 23.594C5.49994 23.429 5.88494 21.596 5.88494 21.596C6.02268 20.9265 6.36151 20.315 6.85615 19.8432C7.35079 19.3714 7.97765 19.0619 8.65294 18.956C9.14742 18.9073 9.64246 18.8643 10.1379 18.827C15.3259 18.351 19.1389 13.749 18.6619 8.561C18.4497 6.24885 17.3913 4.09644 15.6898 2.51656C13.9883 0.936676 11.7635 0.0405378 9.44194 0L9.43994 0Z" fill="#1E1E1E"/>
<path d="M108.748 21.742C108.338 21.662 107.912 21.7457 107.563 21.9752C107.214 22.2047 106.968 22.5617 106.878 22.97C106.834 23.1699 106.83 23.3765 106.867 23.5779C106.903 23.7793 106.979 23.9716 107.089 24.1436C107.2 24.3157 107.344 24.4642 107.512 24.5806C107.68 24.6971 107.87 24.7791 108.07 24.822H108.106C108.931 25.005 109.756 24.492 109.958 23.667C109.958 23.63 109.976 23.612 109.976 23.575C110.123 22.75 109.573 21.944 108.748 21.742V21.742Z" fill="#E6007A"/>
</g>
<defs>
<clipPath id="clip0_4446_1124">
<rect width="110" height="25" fill="white"/>
</clipPath>
</defs>
</svg>
