<svg width="13" height="13" viewBox="0 0 13 13" fill="none" xmlns="http://www.w3.org/2000/svg">
<path d="M10.8872 5.74991L10.1311 1.96923L6.35043 1.21309C6.2899 1.20099 6.22731 1.20401 6.16822 1.2219C6.10913 1.23979 6.05538 1.27199 6.01173 1.31565L1.1155 6.21187C1.08068 6.24669 1.05306 6.28803 1.03421 6.33353C1.01537 6.37902 1.00567 6.42779 1.00567 6.47703C1.00567 6.52628 1.01537 6.57504 1.03421 6.62054C1.05306 6.66604 1.08068 6.70738 1.1155 6.7422L5.35814 10.9848C5.39296 11.0197 5.4343 11.0473 5.4798 11.0661C5.5253 11.085 5.57406 11.0947 5.62331 11.0947C5.67255 11.0947 5.72132 11.085 5.76681 11.0661C5.81231 11.0473 5.85365 11.0197 5.88847 10.9848L10.7847 6.08862C10.8283 6.04496 10.8606 5.99121 10.8784 5.93212C10.8963 5.87303 10.8994 5.81044 10.8872 5.74991V5.74991Z" stroke="#161617" stroke-width="2" stroke-linecap="round" stroke-linejoin="round"/>
<path d="M6.9571 4.28561C6.9571 4.759 7.34086 5.14275 7.81424 5.14275C8.28763 5.14275 8.67139 4.759 8.67139 4.28561C8.67139 3.81222 8.28763 3.42847 7.81424 3.42847C7.34086 3.42847 6.9571 3.81222 6.9571 4.28561Z" fill="#161617"/>
</svg>
