<svg width="10" height="10" viewBox="0 0 10 10" fill="none" xmlns="http://www.w3.org/2000/svg">
<path fill-rule="evenodd" clip-rule="evenodd" d="M5 1.11111C5.76915 1.11111 6.52103 1.33919 7.16055 1.76651C7.80008 2.19382 8.29853 2.80119 8.59287 3.51179C8.88721 4.22239 8.96422 5.00431 8.81417 5.75869C8.66411 6.51306 8.29373 7.20599 7.74986 7.74986C7.20599 8.29373 6.51306 8.66411 5.75869 8.81417C5.00431 8.96422 4.22239 8.88721 3.51179 8.59287C2.80119 8.29853 2.19382 7.80008 1.76651 7.16055C1.33919 6.52103 1.11111 5.76915 1.11111 5H0C0 5.98891 0.293245 6.95561 0.842652 7.77785C1.39206 8.6001 2.17295 9.24096 3.08658 9.6194C4.00021 9.99784 5.00555 10.0969 5.97545 9.90393C6.94536 9.711 7.83627 9.2348 8.53553 8.53553C9.2348 7.83627 9.711 6.94536 9.90393 5.97545C10.0969 5.00555 9.99784 4.00021 9.6194 3.08658C9.24096 2.17295 8.6001 1.39206 7.77785 0.842652C6.95561 0.293245 5.98891 0 5 0V1.11111ZM1.24347 3.99353C1.42015 3.33415 1.76729 2.73289 2.24999 2.25019C2.73269 1.76749 3.33395 1.42035 3.99333 1.24367L3.70575 0.17042C2.85797 0.397581 2.08493 0.843899 1.46431 1.46451C0.843696 2.08513 0.397377 2.85818 0.170216 3.70595L1.24347 3.99353Z" fill="#F2F2F2"/>
</svg>
