<?xml version="1.0" encoding="utf-8"?>
<!-- Generator: Adobe Illustrator 16.0.0, SVG Export Plug-In . SVG Version: 6.00 Build 0)  -->
<!DOCTYPE svg PUBLIC "-//W3C//DTD SVG 1.1//EN" "http://www.w3.org/Graphics/SVG/1.1/DTD/svg11.dtd">
<svg version="1.1" id="Layer_1" xmlns="http://www.w3.org/2000/svg" xmlns:xlink="http://www.w3.org/1999/xlink" x="0px" y="0px"
	 width="229.957px" height="46.438px" viewBox="167.022 164.281 229.957 46.438"
	 enable-background="new 167.022 164.281 229.957 46.438" xml:space="preserve">
<g>
	<path fill="#545454" d="M222.201,202.682c-0.327-0.026-0.592-0.154-0.794-0.393c-0.2-0.234-0.301-0.52-0.301-0.852v-22.049
		c0-0.361,0.119-0.648,0.358-0.871c0.24-0.223,0.529-0.336,0.868-0.336h10.794c0.326,0,0.604,0.115,0.83,0.344
		c0.227,0.23,0.341,0.518,0.341,0.863c0,0.33-0.114,0.617-0.341,0.852c-0.227,0.236-0.504,0.354-0.83,0.354h-9.64v8.672h7.106
		c0.341-0.014,0.624,0.099,0.851,0.334c0.227,0.236,0.34,0.521,0.34,0.854c0,0.332-0.113,0.608-0.34,0.83
		c-0.227,0.225-0.51,0.334-0.851,0.334h-7.106v8.674h9.64c0.326,0,0.604,0.113,0.83,0.344c0.227,0.229,0.341,0.511,0.341,0.841
		c0,0.346-0.114,0.639-0.341,0.869c-0.227,0.239-0.504,0.352-0.83,0.338h-10.925V202.682z"/>
	<path fill="#545454" d="M252.129,178.984c1.491,0.652,2.796,1.543,3.912,2.674c1.114,1.127,1.996,2.445,2.646,3.949
		c0.648,1.506,0.973,3.122,0.973,4.846c0,1.148-0.147,2.254-0.443,3.318c-0.298,1.067-0.709,2.059-1.238,2.977
		c-0.529,0.92-1.172,1.762-1.928,2.529c-0.756,0.764-1.586,1.414-2.494,1.951c-0.907,0.532-1.886,0.953-2.938,1.252
		c-1.054,0.301-2.146,0.451-3.281,0.451c-1.134,0-2.227-0.15-3.278-0.451c-1.054-0.299-2.032-0.72-2.938-1.252
		c-0.907-0.537-1.732-1.188-2.477-1.951c-0.744-0.769-1.379-1.609-1.908-2.529c-0.529-0.918-0.939-1.908-1.23-2.977
		c-0.287-1.064-0.434-2.17-0.434-3.318c0-1.15,0.146-2.254,0.434-3.311c0.291-1.063,0.701-2.051,1.23-2.971
		c0.529-0.92,1.164-1.756,1.908-2.514c0.744-0.764,1.569-1.41,2.477-1.955c0.906-0.541,1.885-0.961,2.938-1.256
		c1.052-0.291,2.145-0.438,3.278-0.438C249.037,178.01,250.636,178.334,252.129,178.984z M243.472,181.225
		c-1.202,0.523-2.249,1.238-3.135,2.143c-0.89,0.91-1.591,1.967-2.108,3.178c-0.518,1.215-0.775,2.517-0.775,3.908
		c0,1.399,0.258,2.713,0.775,3.93c0.518,1.222,1.219,2.283,2.108,3.187c0.886,0.91,1.933,1.623,3.135,2.147
		c1.203,0.521,2.5,0.783,3.886,0.783c1.372,0,2.662-0.262,3.864-0.783c1.203-0.524,2.25-1.237,3.146-2.147
		c0.895-0.902,1.601-1.965,2.116-3.187c0.518-1.217,0.775-2.528,0.775-3.93c0-1.394-0.258-2.693-0.775-3.908
		c-0.516-1.211-1.222-2.268-2.116-3.178c-0.896-0.904-1.943-1.619-3.146-2.143c-1.202-0.523-2.492-0.783-3.864-0.783
		C245.972,180.441,244.675,180.701,243.472,181.225z"/>
	<path fill="#545454" d="M267.125,190.137c-0.882-0.34-1.669-0.768-2.363-1.283c-0.691-0.516-1.253-1.137-1.68-1.856
		c-0.43-0.723-0.644-1.572-0.644-2.555c0-0.996,0.214-1.893,0.644-2.691c0.427-0.797,0.992-1.473,1.689-2.027
		c0.701-0.555,1.491-0.982,2.373-1.285c0.881-0.297,1.777-0.449,2.684-0.449c0.73,0,1.443,0.078,2.136,0.23
		c0.691,0.154,1.342,0.381,1.946,0.68c0.604,0.301,1.153,0.668,1.646,1.109c0.489,0.443,0.899,0.957,1.227,1.543
		c0.14,0.227,0.171,0.463,0.095,0.699c-0.074,0.234-0.182,0.424-0.322,0.563c-0.176,0.166-0.403,0.268-0.688,0.297
		c-0.284,0.033-0.559-0.055-0.823-0.258c-0.729-0.906-1.511-1.539-2.341-1.904c-0.834-0.363-1.777-0.547-2.834-0.547
		c-0.596,0-1.188,0.086-1.779,0.258c-0.592,0.174-1.131,0.426-1.615,0.76c-0.485,0.33-0.882,0.748-1.191,1.252
		c-0.309,0.506-0.461,1.09-0.461,1.752c0,0.703,0.182,1.285,0.547,1.75c0.366,0.467,0.829,0.859,1.39,1.178
		c0.561,0.32,1.174,0.576,1.844,0.775c0.664,0.197,1.303,0.375,1.907,0.527c0.934,0.291,1.843,0.625,2.73,0.996
		c0.888,0.369,1.675,0.819,2.363,1.356s1.238,1.175,1.653,1.916c0.415,0.738,0.621,1.625,0.621,2.66
		c0,1.108-0.215,2.114-0.649,3.012c-0.435,0.9-1.021,1.675-1.758,2.316c-0.737,0.646-1.594,1.146-2.569,1.493
		c-0.979,0.353-2.001,0.527-3.072,0.527c-0.895,0-1.758-0.121-2.59-0.365c-0.831-0.241-1.597-0.569-2.295-0.983
		c-0.699-0.416-1.311-0.906-1.835-1.478c-0.522-0.563-0.923-1.174-1.199-1.826c-0.189-0.407-0.216-0.748-0.084-1.024
		c0.132-0.271,0.324-0.479,0.575-0.621c0.291-0.164,0.564-0.198,0.823-0.104c0.259,0.098,0.526,0.322,0.803,0.68
		c0.239,0.512,0.563,0.973,0.974,1.379c0.41,0.41,0.871,0.756,1.389,1.043c0.516,0.287,1.078,0.506,1.682,0.662
		c0.604,0.15,1.229,0.229,1.872,0.229c0.666,0,1.331-0.1,1.994-0.307c0.659-0.205,1.255-0.51,1.784-0.92
		c0.53-0.408,0.959-0.916,1.286-1.521c0.327-0.604,0.491-1.303,0.491-2.096c0-0.727-0.164-1.336-0.491-1.826
		c-0.327-0.492-0.764-0.914-1.303-1.264c-0.543-0.354-1.154-0.652-1.836-0.9c-0.678-0.248-1.365-0.487-2.06-0.717
		C268.902,190.754,268.008,190.475,267.125,190.137z"/>
</g>
<g>
	<path fill="#545454" d="M290.669,179.826v22.625c0,0.178-0.06,0.328-0.181,0.449c-0.12,0.121-0.268,0.184-0.444,0.184
		c-0.176,0-0.317-0.063-0.424-0.184c-0.109-0.121-0.162-0.271-0.162-0.449v-22.625h-6.577c-0.176,0-0.32-0.063-0.434-0.184
		s-0.17-0.27-0.17-0.451c0-0.164,0.058-0.307,0.17-0.43c0.111-0.119,0.258-0.18,0.434-0.18h14.646c0.179,0,0.324,0.061,0.437,0.18
		c0.112,0.123,0.169,0.273,0.169,0.449c0,0.18-0.057,0.326-0.169,0.441c-0.112,0.113-0.258,0.174-0.437,0.174L290.669,179.826
		L290.669,179.826z"/>
	<path fill="#545454" d="M309.796,178.408c1.131,0,2.224,0.148,3.269,0.441s2.026,0.713,2.938,1.254
		c0.913,0.543,1.746,1.189,2.494,1.943c0.75,0.75,1.392,1.59,1.931,2.516c0.533,0.924,0.949,1.918,1.244,2.979
		c0.294,1.057,0.446,2.162,0.446,3.311c0,1.149-0.152,2.254-0.446,3.318c-0.295,1.068-0.711,2.061-1.244,2.979
		c-0.539,0.92-1.181,1.761-1.931,2.527c-0.748,0.766-1.581,1.414-2.494,1.951c-0.912,0.537-1.896,0.951-2.938,1.254
		c-1.045,0.301-2.138,0.451-3.269,0.451c-1.716,0-3.315-0.328-4.81-0.979c-1.493-0.648-2.797-1.541-3.904-2.67
		c-1.107-1.127-1.98-2.453-2.619-3.97c-0.635-1.521-0.951-3.139-0.951-4.862c0-1.725,0.316-3.343,0.951-4.853
		c0.639-1.516,1.512-2.832,2.619-3.953c1.107-1.125,2.411-2.01,3.904-2.662C306.479,178.732,308.08,178.408,309.796,178.408z
		 M309.796,179.652c-1.537,0-2.976,0.293-4.317,0.881c-1.344,0.586-2.515,1.385-3.517,2.393c-1.002,1.01-1.789,2.195-2.364,3.561
		c-0.574,1.366-0.859,2.822-0.859,4.365c0,1.558,0.285,3.019,0.859,4.381c0.575,1.365,1.362,2.56,2.364,3.57
		c1.002,1.016,2.173,1.814,3.517,2.404c1.342,0.586,2.78,0.877,4.317,0.877c1.521,0,2.96-0.291,4.31-0.877
		c1.347-0.59,2.522-1.389,3.524-2.404c0.999-1.012,1.789-2.205,2.371-3.57c0.579-1.362,0.87-2.823,0.87-4.381
		c0-1.543-0.291-3-0.87-4.365c-0.582-1.365-1.372-2.551-2.371-3.561c-1.002-1.008-2.179-1.807-3.524-2.393
		C312.756,179.945,311.316,179.652,309.796,179.652z"/>
	<path fill="#545454" d="M326.615,191.5l13.929-12.727c0.14-0.129,0.285-0.184,0.442-0.174c0.16,0.016,0.299,0.082,0.425,0.213
		c0.114,0.127,0.168,0.273,0.161,0.438c-0.01,0.168-0.079,0.322-0.215,0.461l-9.547,8.707l9.015,13.688
		c0.116,0.15,0.155,0.313,0.122,0.48c-0.029,0.164-0.115,0.301-0.254,0.4c-0.137,0.088-0.289,0.123-0.453,0.098
		c-0.162-0.027-0.299-0.117-0.4-0.27l-8.955-13.556l-4.27,3.929v9.283c0,0.18-0.063,0.323-0.182,0.44
		c-0.119,0.11-0.266,0.172-0.443,0.172c-0.162,0-0.309-0.062-0.428-0.172c-0.119-0.117-0.174-0.263-0.174-0.44v-23.28
		c0-0.174,0.055-0.324,0.174-0.438c0.119-0.115,0.266-0.172,0.428-0.172c0.179,0,0.324,0.057,0.443,0.172
		c0.118,0.113,0.182,0.264,0.182,0.438V191.5z"/>
	<path fill="#545454" d="M345.398,203.084c-0.176-0.016-0.313-0.09-0.416-0.223c-0.101-0.133-0.149-0.291-0.149-0.467v-23.204
		c0-0.188,0.065-0.338,0.199-0.445c0.132-0.109,0.284-0.164,0.463-0.164h11.379c0.176,0,0.321,0.057,0.435,0.172
		c0.111,0.113,0.172,0.264,0.172,0.438c0,0.182-0.061,0.33-0.172,0.451c-0.113,0.121-0.259,0.184-0.435,0.184h-10.812v10.394h8.09
		c0.176,0,0.324,0.059,0.439,0.172c0.119,0.114,0.182,0.262,0.182,0.438c0,0.18-0.063,0.321-0.182,0.433
		c-0.115,0.106-0.265,0.161-0.439,0.161h-8.09v10.414h10.812c0.176,0,0.321,0.06,0.435,0.172c0.111,0.115,0.172,0.257,0.172,0.421
		c0,0.192-0.061,0.35-0.172,0.471c-0.113,0.121-0.259,0.184-0.435,0.184h-11.476V203.084z"/>
	<path fill="#545454" d="M362.374,181.07v21.401c0,0.18-0.063,0.323-0.183,0.44c-0.119,0.11-0.269,0.172-0.446,0.172
		c-0.162,0-0.304-0.062-0.423-0.172c-0.119-0.117-0.18-0.263-0.18-0.44V179.21c0-0.176,0.061-0.322,0.18-0.438
		c0.119-0.113,0.261-0.174,0.423-0.174c0.053,0,0.116,0.016,0.188,0.039c0.029,0,0.047,0.006,0.06,0.021l0.093,0.055
		c0.079,0.053,0.136,0.098,0.172,0.135l14.835,21.707v-21.346c0-0.176,0.063-0.326,0.183-0.449c0.119-0.119,0.269-0.18,0.442-0.18
		c0.179,0,0.321,0.061,0.435,0.18c0.115,0.123,0.172,0.273,0.172,0.449v23.26c0,0.18-0.061,0.324-0.18,0.441
		c-0.121,0.111-0.265,0.172-0.427,0.172h-0.053c-0.132,0-0.251-0.045-0.363-0.137c-0.05-0.051-0.08-0.088-0.093-0.117
		L362.374,181.07z"/>
	<path fill="#545454" d="M389.038,190.371c-0.708-0.201-1.452-0.457-2.239-0.766c-0.787-0.306-1.515-0.691-2.183-1.158
		c-0.669-0.463-1.224-1.033-1.666-1.703c-0.438-0.668-0.662-1.477-0.662-2.422c0-0.955,0.212-1.805,0.635-2.545
		c0.425-0.738,0.97-1.361,1.644-1.865c0.68-0.504,1.424-0.887,2.24-1.15c0.819-0.26,1.627-0.391,2.424-0.391
		c0.728,0,1.426,0.074,2.094,0.229c0.671,0.154,1.289,0.383,1.861,0.678c0.574,0.303,1.095,0.672,1.562,1.113
		c0.463,0.439,0.862,0.945,1.187,1.52c0.08,0.131,0.101,0.258,0.061,0.383c-0.036,0.131-0.104,0.225-0.188,0.289
		c-0.104,0.088-0.226,0.137-0.371,0.143c-0.143,0.008-0.283-0.055-0.424-0.182c-0.377-0.547-0.785-1.01-1.227-1.387
		c-0.443-0.377-0.913-0.68-1.408-0.908c-0.5-0.23-1.013-0.395-1.545-0.49c-0.525-0.094-1.063-0.143-1.602-0.143
		c-0.594,0-1.227,0.092-1.892,0.279c-0.668,0.182-1.286,0.469-1.854,0.859c-0.565,0.389-1.034,0.877-1.405,1.465
		c-0.37,0.584-0.556,1.281-0.556,2.086c-0.018,0.537,0.08,1.014,0.281,1.436c0.201,0.422,0.467,0.795,0.783,1.121
		c0.32,0.324,0.688,0.607,1.107,0.852c0.412,0.238,0.84,0.453,1.273,0.634c0.437,0.176,0.858,0.332,1.275,0.469
		c0.413,0.129,0.787,0.25,1.113,0.352c0.97,0.346,1.908,0.711,2.828,1.102c0.912,0.39,1.727,0.851,2.438,1.379
		c0.711,0.529,1.28,1.156,1.71,1.884c0.427,0.729,0.646,1.598,0.646,2.604c0,1.123-0.223,2.134-0.654,3.027
		c-0.434,0.894-1.012,1.647-1.727,2.267c-0.722,0.62-1.541,1.092-2.471,1.418c-0.923,0.323-1.879,0.487-2.863,0.487
		c-0.856,0-1.688-0.119-2.494-0.354c-0.808-0.234-1.547-0.56-2.229-0.967c-0.682-0.408-1.275-0.894-1.785-1.453
		c-0.513-0.563-0.898-1.168-1.164-1.818c-0.103-0.219-0.115-0.396-0.047-0.537c0.066-0.139,0.176-0.242,0.313-0.305
		c0.304-0.142,0.578-0.035,0.832,0.324c0.238,0.571,0.586,1.1,1.039,1.58c0.453,0.479,0.979,0.885,1.566,1.225
		c0.594,0.338,1.234,0.6,1.93,0.785c0.694,0.185,1.397,0.272,2.115,0.272c0.768,0,1.534-0.123,2.299-0.369
		c0.764-0.25,1.448-0.625,2.061-1.122c0.611-0.494,1.107-1.117,1.48-1.861c0.381-0.748,0.569-1.615,0.569-2.598
		c0-0.83-0.192-1.541-0.576-2.136c-0.383-0.592-0.893-1.106-1.521-1.541c-0.633-0.433-1.35-0.812-2.149-1.14
		C390.704,190.996,389.881,190.68,389.038,190.371z"/>
</g>
<path fill="#545454" d="M187.645,210.719c-0.076,0-0.152-0.021-0.219-0.063l-15.018-9.41c-0.006-0.004-0.012-0.008-0.018-0.012l0,0
	c-0.001,0-0.001,0-0.001,0v-0.002c-0.001,0-0.001,0-0.001,0c-0.054-0.037-0.097-0.086-0.126-0.144
	c-0.017-0.028-0.029-0.063-0.037-0.098l0,0l0,0c-0.013-0.052-0.016-0.107-0.007-0.16l0,0c0,0,0,0,0-0.002
	c0.001-0.009,0.003-0.017,0.005-0.024l4.895-22.365c0.013-0.06,0.038-0.117,0.075-0.167l10.118-13.823
	c0.081-0.11,0.207-0.165,0.341-0.169c0.128,0.003,0.261,0.059,0.341,0.169l10.117,13.823c0.014,0.018,0.024,0.035,0.034,0.055
	c0.001,0.001,0.001,0.001,0.002,0.001c0,0,0,0,0,0.001c0,0-0.001,0,0,0.001l0,0c0,0.001,0,0.002,0.001,0.002c0,0,0,0,0,0.001
	c0,0,0.001,0,0.001,0.001l0,0c0.017,0.033,0.029,0.069,0.036,0.105l4.896,22.365c0.003,0.01,0.004,0.02,0.006,0.03
	c0.008,0.058,0.005,0.113-0.01,0.166c-0.007,0.024-0.016,0.051-0.028,0.074v0.002l0,0c-0.029,0.06-0.072,0.11-0.127,0.149
	c-0.001,0-0.001,0-0.001,0l0,0c-0.009,0.006-0.017,0.013-0.024,0.019l-15.017,9.41c-0.069,0.043-0.137,0.061-0.227,0.063
	C187.649,210.719,187.646,210.719,187.645,210.719z M174.063,201.309l12.848,8.051l-2.563-8.051H174.063z M190.958,201.309
	l-2.563,8.051l12.847-8.051H190.958z M185.213,201.309l2.439,7.662l2.439-7.662H185.213z M191.221,200.482h10.748l-6.881-12.146
	L191.221,200.482z M184.95,200.482h5.405l4.177-13.124l-6.88-12.143l-6.882,12.143L184.95,200.482z M173.335,200.482h10.748
	l-3.867-12.144L173.335,200.482z M177.597,180.115l-3.983,18.201l6.262-11.05L177.597,180.115z M195.43,187.266l6.261,11.05
	l-3.983-18.201L195.43,187.266z M177.98,178.596l2.449,7.693l6.802-12.005v-8.326L177.98,178.596z M188.072,174.284l6.802,12.003
	l2.449-7.691l-9.251-12.639V174.284z"/>
<g>
	<polygon fill="#EE1443" points="169.246,201.742 168.312,201.742 168.312,205.49 167.958,205.49 167.958,201.742 167.022,201.742 
		167.022,190.109 167.958,190.109 167.958,188.854 168.312,188.854 168.312,190.109 169.246,190.109 	"/>
</g>
<g>
	<polygon fill="#67C269" points="208.751,176.374 207.758,176.374 207.758,172.075 207.382,172.075 207.382,176.374 206.39,176.374 
		206.39,203.205 207.382,203.205 207.382,206.842 207.758,206.842 207.758,203.205 208.751,203.205 	"/>
</g>
<g>
	<path fill="#545454" d="M187.975,186.875v9.719c0,0.078-0.026,0.143-0.078,0.195c-0.053,0.051-0.116,0.078-0.193,0.078
		s-0.139-0.027-0.185-0.078c-0.047-0.053-0.07-0.117-0.07-0.195v-9.719h-2.861c-0.077,0-0.14-0.025-0.188-0.076
		c-0.05-0.053-0.074-0.117-0.074-0.195c0-0.07,0.024-0.131,0.074-0.184c0.049-0.053,0.111-0.078,0.188-0.078h6.372
		c0.077,0,0.14,0.025,0.189,0.078c0.049,0.053,0.073,0.117,0.073,0.193c0,0.076-0.023,0.139-0.073,0.189
		c-0.05,0.049-0.112,0.072-0.189,0.072L187.975,186.875L187.975,186.875z"/>
</g>
</svg>
