<?xml version="1.0" standalone="no"?>
<!DOCTYPE svg PUBLIC "-//W3C//DTD SVG 20010904//EN"
 "http://www.w3.org/TR/2001/REC-SVG-20010904/DTD/svg10.dtd">
<svg version="1.0" xmlns="http://www.w3.org/2000/svg"
 width="192.000000pt" height="192.000000pt" viewBox="0 0 192.000000 192.000000"
 preserveAspectRatio="xMidYMid meet">

<g transform="translate(0.000000,192.000000) scale(0.100000,-0.100000)"
fill="#000000" stroke="none">
<path d="M868 1676 c-49 -90 -88 -167 -88 -170 0 -3 81 -6 180 -6 99 0 180 3
180 6 0 12 -173 334 -179 334 -3 0 -45 -74 -93 -164z"/>
<path d="M770 1438 c0 -36 83 -572 89 -580 4 -4 28 -1 54 7 41 12 53 12 98 -1
28 -9 52 -14 53 -12 6 8 92 594 89 601 -2 4 -89 7 -194 7 l-189 0 0 -22z"/>
<path d="M620 1210 c-57 -107 -141 -265 -186 -350 -46 -85 -82 -156 -81 -157
3 -2 450 128 456 133 3 3 -75 532 -83 559 -1 5 -49 -78 -106 -185z"/>
<path d="M1152 1118 c-24 -154 -42 -281 -40 -283 6 -4 452 -134 455 -132 3 3
-356 679 -365 689 -4 4 -26 -119 -50 -274z"/>
<path d="M905 817 c-24 -8 -39 -19 -38 -28 18 -141 88 -576 92 -582 4 -4 17
59 29 140 13 82 33 217 46 301 l23 154 -22 8 c-44 17 -90 19 -130 7z"/>
<path d="M602 727 c-111 -33 -200 -62 -198 -64 5 -5 426 -113 441 -113 10 0 9
20 -1 88 -22 139 -25 152 -32 151 -4 0 -98 -28 -210 -62z"/>
<path d="M1100 783 c0 -4 -7 -48 -15 -98 -8 -49 -15 -102 -15 -116 l0 -25 183
47 c250 64 270 70 265 74 -2 2 -89 29 -193 60 -105 30 -198 58 -207 61 -10 3
-18 2 -18 -3z"/>
<path d="M392 610 c4 -10 530 -521 533 -518 1 2 -12 93 -29 203 l-31 200 -238
60 c-130 34 -236 58 -235 55z"/>
<path d="M1275 551 l-219 -58 -28 -174 c-15 -96 -27 -184 -27 -197 -1 -21 1
-22 18 -10 10 7 130 122 266 256 151 148 240 242 229 241 -11 0 -118 -27 -239
-58z"/>
</g>
</svg>
