<?xml version="1.0" standalone="no"?>
<!DOCTYPE svg PUBLIC "-//W3C//DTD SVG 20010904//EN"
 "http://www.w3.org/TR/2001/REC-SVG-20010904/DTD/svg10.dtd">
<svg version="1.0" xmlns="http://www.w3.org/2000/svg"
 width="1280.000000pt" height="1280.000000pt" viewBox="0 0 1280.000000 1280.000000"
 preserveAspectRatio="xMidYMid meet">
<metadata>
Created by potrace 1.11, written by Peter Selinger 2001-2013
</metadata>
<g transform="translate(0.000000,1280.000000) scale(0.100000,-0.100000)"
fill="#000000" stroke="none">
<path d="M6065 11722 c-187 -350 -469 -880 -627 -1177 l-287 -540 630 -3 c347
-1 911 -1 1254 0 l624 3 -293 550 c-161 303 -433 816 -606 1140 -172 325 -323
607 -335 627 l-21 38 -339 -638z"/>
<path d="M5080 9715 c0 -8 49 -334 70 -465 11 -69 58 -375 105 -680 83 -548
253 -1660 382 -2495 36 -236 66 -431 67 -432 1 -1 154 43 341 97 186 55 349
100 361 100 12 0 104 -24 205 -54 358 -106 493 -145 495 -143 2 2 35 220 239
1552 58 380 148 967 200 1305 164 1073 185 1208 185 1214 0 3 -596 6 -1325 6
-729 0 -1325 -2 -1325 -5z"/>
<path d="M4485 8752 c-502 -944 -1092 -2054 -1545 -2907 -217 -407 -449 -843
-516 -970 -67 -126 -122 -231 -121 -232 2 -1 87 23 767 223 179 53 422 124
540 159 118 35 361 106 540 159 179 52 538 158 798 234 260 76 475 142 478
145 3 3 -49 363 -116 799 -67 436 -157 1027 -201 1313 -44 286 -95 619 -114
740 -19 121 -60 391 -91 600 -32 209 -60 383 -63 387 -3 4 -163 -289 -356
-650z"/>
<path d="M7966 9399 c-2 -8 -48 -300 -101 -649 -130 -853 -248 -1627 -290
-1895 -120 -772 -196 -1287 -191 -1292 3 -3 218 -69 478 -145 260 -76 619
-182 798 -234 179 -53 422 -124 540 -159 118 -35 361 -106 540 -159 680 -200
765 -224 767 -223 1 1 -54 106 -121 232 -67 127 -297 559 -511 960 -364 687
-779 1466 -1563 2940 -184 347 -336 632 -338 634 -2 2 -6 -2 -8 -10z"/>
<path d="M6066 5457 c-170 -51 -311 -97 -313 -104 -2 -6 7 -85 21 -175 14 -90
64 -415 111 -723 47 -308 94 -616 105 -685 11 -69 58 -377 105 -685 179 -1172
305 -1989 309 -1992 2 -2 6 11 9 29 7 34 181 1173 312 2033 42 270 84 546 95
615 11 69 63 406 115 750 52 344 103 671 112 728 9 61 12 106 7 111 -14 13
-628 191 -655 190 -13 0 -163 -42 -333 -92z"/>
<path d="M5155 5189 c-165 -49 -401 -119 -525 -155 -124 -36 -252 -74 -285
-84 -33 -10 -316 -94 -630 -185 -313 -92 -597 -175 -630 -185 -33 -10 -154
-46 -270 -80 -271 -79 -263 -76 -245 -83 8 -3 335 -87 725 -186 391 -99 863
-219 1050 -267 1020 -260 1385 -351 1385 -347 0 7 -75 501 -125 818 -18 121
-55 361 -82 533 -27 181 -52 312 -58 311 -5 -1 -145 -41 -310 -90z"/>
<path d="M7246 4708 c-48 -315 -106 -691 -128 -836 -22 -145 -38 -265 -36
-267 2 -2 325 79 718 180 393 102 848 219 1010 261 162 41 345 88 405 104 61
16 209 54 330 85 523 133 691 178 698 185 5 4 -4 10 -20 14 -26 6 -190 54
-483 141 -63 19 -254 76 -425 126 -170 50 -440 129 -600 176 -159 47 -387 113
-505 148 -118 35 -362 106 -542 159 -180 53 -328 96 -330 96 -2 0 -43 -258
-92 -572z"/>
<path d="M2511 4133 c0 -5 321 -319 712 -700 392 -380 1221 -1187 1842 -1792
622 -606 1131 -1097 1133 -1093 1 4 -34 242 -77 528 -44 285 -137 888 -206
1339 -69 451 -128 837 -131 857 -5 33 -10 39 -44 48 -20 5 -194 50 -386 99
-603 153 -1142 291 -1339 341 -562 144 -1493 380 -1498 380 -4 0 -7 -3 -6 -7z"/>
<path d="M10095 4090 c-99 -26 -767 -199 -1485 -385 -718 -185 -1367 -353
-1442 -372 -136 -36 -138 -36 -143 -67 -3 -17 -62 -400 -130 -851 -69 -451
-162 -1053 -205 -1338 -44 -285 -80 -524 -80 -529 0 -13 -148 -157 1755 1696
1453 1414 1935 1886 1935 1893 0 6 -30 -1 -205 -47z"/>
</g>
</svg>
