<?xml version="1.0" standalone="no"?>
<!DOCTYPE svg PUBLIC "-//W3C//DTD SVG 20010904//EN"
 "http://www.w3.org/TR/2001/REC-SVG-20010904/DTD/svg10.dtd">
<svg version="1.0" xmlns="http://www.w3.org/2000/svg"
 width="700.000000pt" height="700.000000pt" viewBox="0 0 700.000000 700.000000"
 preserveAspectRatio="xMidYMid meet">
<metadata>
Created by potrace 1.11, written by Peter Selinger 2001-2013
</metadata>
<g transform="translate(0.000000,700.000000) scale(0.100000,-0.100000)"
fill="#000000" stroke="none">
<path d="M3350 6522 c-68 -97 -168 -238 -220 -312 -315 -442 -748 -1058 -757
-1075 -8 -16 -26 -84 -49 -190 -1 -5 -11 -48 -22 -95 -12 -47 -26 -107 -32
-135 -17 -73 -15 -66 -59 -250 -23 -93 -48 -201 -56 -240 -8 -38 -31 -135 -50
-215 -29 -120 -64 -267 -80 -340 -2 -8 -33 -139 -69 -290 -35 -151 -67 -286
-70 -300 -8 -38 -12 -55 -41 -175 -15 -60 -29 -121 -31 -135 -3 -14 -10 -42
-15 -64 -7 -24 -7 -42 -1 -48 5 -5 386 -232 847 -504 l839 -494 35 21 c162 97
305 179 312 179 5 0 9 4 9 9 0 5 10 13 22 17 13 4 34 15 48 24 22 16 842 496
895 525 11 5 31 18 45 26 14 9 95 57 181 108 l156 91 -13 58 c-8 31 -16 66
-18 77 -17 75 -179 781 -201 870 -8 33 -28 121 -45 195 -16 74 -39 173 -50
220 -11 47 -34 146 -50 220 -17 74 -42 180 -55 235 -13 55 -26 111 -29 125 -2
14 -27 124 -55 245 -46 197 -55 226 -89 275 -31 45 -508 708 -994 1383 -55 75
-103 137 -106 137 -4 0 -63 -80 -132 -178z m257 -187 c16 -22 30 -42 33 -45 3
-3 44 -59 91 -125 79 -111 305 -425 627 -873 73 -101 132 -188 132 -195 0 -7
-16 -61 -35 -122 -171 -539 -209 -655 -214 -655 -3 0 -27 38 -52 83 -26 45
-182 315 -347 600 l-301 519 0 451 -1 452 20 -25 c11 -14 32 -43 47 -65z
m-182 -372 l-1 -448 -62 -103 c-34 -57 -62 -106 -62 -108 0 -2 -20 -36 -44
-76 -24 -40 -141 -244 -261 -453 -246 -429 -262 -455 -269 -434 -3 8 -26 82
-51 164 -73 237 -145 464 -166 533 l-21 62 189 268 c463 656 738 1042 743
1042 3 0 5 -201 5 -447z m273 -945 c115 -200 219 -379 230 -398 40 -71 166
-287 213 -368 27 -45 49 -89 49 -96 0 -13 -34 -122 -210 -673 -101 -318 -114
-360 -176 -553 l-56 -175 -262 1 -261 0 -22 65 c-12 35 -64 201 -116 369 -53
168 -143 457 -201 642 l-105 337 131 228 c72 125 223 388 336 583 112 195 209
365 215 377 6 13 14 23 18 23 4 0 102 -163 217 -362z m-1209 -325 c33 -104 83
-261 111 -351 l51 -163 -179 -312 c-99 -172 -228 -395 -286 -497 -58 -102
-110 -192 -116 -200 -5 -8 -19 -34 -31 -57 -13 -24 -24 -41 -26 -39 -2 2 33
160 77 352 68 290 117 505 135 584 30 139 201 870 202 870 1 0 29 -84 62 -187z
m2085 107 c2 -14 16 -73 30 -133 14 -59 28 -118 30 -130 3 -12 21 -92 41 -177
20 -85 38 -162 40 -170 8 -39 108 -474 125 -545 23 -99 42 -178 86 -370 18
-82 38 -167 43 -189 5 -21 6 -35 2 -30 -4 5 -77 128 -161 274 -84 146 -215
371 -290 500 -75 129 -149 258 -165 287 l-29 52 26 83 c14 46 40 126 56 178
155 492 148 476 166 370z m-1795 -1015 c89 -286 139 -445 222 -710 44 -143 85
-272 89 -287 7 -23 5 -28 -8 -29 -80 -4 -1094 -1 -1098 4 -3 3 18 45 47 94 28
48 62 106 74 128 13 22 103 177 200 345 98 168 189 326 204 351 14 26 64 112
111 192 l85 146 12 -37 c6 -20 34 -109 62 -197z m1606 45 c60 -102 117 -201
128 -220 10 -19 77 -134 147 -255 70 -121 176 -303 234 -404 59 -101 103 -187
97 -190 -7 -5 -1078 -6 -1112 -2 -4 1 7 43 23 94 26 79 168 525 273 857 88
276 99 310 101 307 1 -1 50 -85 109 -187z m-1228 -1257 c12 -38 46 -149 78
-248 31 -99 74 -238 96 -310 22 -71 42 -136 44 -142 3 -7 3 -13 0 -13 -2 0
-93 53 -202 119 -109 65 -378 225 -598 356 -220 131 -425 253 -455 271 l-54
34 535 0 536 0 20 -67z m553 64 c0 -2 -15 -50 -34 -108 -18 -57 -68 -215 -111
-352 -43 -136 -80 -245 -82 -243 -2 2 -49 154 -104 337 -55 184 -102 342 -105
352 -5 16 10 17 215 17 122 0 221 -1 221 -3z m1199 -1 c-4 -3 -597 -354 -651
-385 -18 -10 -91 -53 -163 -96 -122 -73 -146 -87 -227 -134 -18 -10 -87 -50
-152 -90 -66 -39 -122 -69 -124 -66 -3 2 0 17 6 32 6 15 34 102 62 193 29 91
64 203 79 250 16 47 43 133 61 193 l34 107 539 0 c297 0 538 -2 536 -4z"/>
<path d="M2322 1114 c-26 -53 -36 -64 -50 -59 -219 90 -477 -36 -537 -263 -18
-71 -9 -232 14 -232 4 0 19 12 33 28 22 23 26 36 26 94 0 91 24 157 78 217 86
96 209 129 330 89 34 -11 78 -35 99 -54 21 -19 42 -34 45 -34 4 0 7 63 6 140
0 77 -3 140 -6 140 -3 0 -20 -30 -38 -66z"/>
<path d="M5422 1048 c-46 -98 -304 -626 -321 -658 -29 -55 -34 -77 -16 -77 10
0 40 52 85 144 50 103 74 143 87 144 102 3 376 -1 381 -6 4 -4 39 -68 77 -143
46 -89 76 -137 88 -138 9 -1 17 -1 17 1 0 2 -52 111 -116 242 -64 131 -149
305 -189 386 l-72 149 -21 -44z m111 -225 c48 -98 88 -180 87 -183 0 -3 -80
-5 -177 -5 -141 1 -177 4 -175 14 5 23 165 351 171 351 4 0 46 -80 94 -177z"/>
<path d="M1170 693 l0 -383 180 0 180 0 0 40 0 40 -138 0 -138 0 -2 95 -2 95
95 0 95 0 0 40 0 40 -94 0 -93 0 -1 165 c0 91 3 166 6 166 4 1 68 2 142 3
l135 2 0 39 0 40 -182 0 -183 0 0 -382z"/>
<path d="M2863 1063 c-106 -31 -174 -127 -153 -217 17 -76 54 -112 190 -181
121 -62 150 -93 150 -160 0 -31 -7 -45 -39 -75 -21 -20 -54 -40 -72 -45 -26
-5 -172 -14 -250 -15 -4 0 -6 -13 -5 -30 1 -28 3 -30 46 -32 83 -3 155 2 207
12 109 23 187 107 186 200 -2 91 -45 138 -200 215 -50 25 -103 59 -117 76 -50
59 -26 143 50 180 33 16 65 20 149 22 l106 2 -3 30 -3 30 -95 1 c-58 1 -115
-4 -147 -13z"/>
<path d="M3810 1061 c-88 -27 -142 -75 -160 -142 -27 -98 15 -158 160 -229
142 -70 171 -99 175 -174 3 -50 -15 -87 -57 -120 -46 -34 -109 -48 -215 -49
-94 0 -99 -1 -84 -25 11 -19 172 -17 237 3 62 18 128 65 149 104 21 42 19 114
-5 161 -25 49 -61 76 -176 133 -86 43 -142 91 -145 123 -6 65 1 87 39 123 48
46 106 64 205 63 70 -1 77 1 77 19 0 17 -7 19 -87 18 -49 0 -99 -4 -113 -8z"/>
<path d="M4172 1062 c48 -122 325 -752 330 -752 3 0 11 12 16 28 6 15 40 94
75 176 l65 148 20 -38 c10 -22 45 -101 77 -176 31 -76 60 -138 64 -138 5 0
302 675 327 743 4 11 1 17 -8 17 -9 0 -37 -51 -73 -132 -218 -498 -243 -551
-253 -532 -5 11 -31 71 -57 134 -27 63 -51 120 -56 125 -12 16 -13 48 -2 75
12 27 89 206 122 283 19 43 19 47 3 47 -12 0 -35 -43 -86 -160 -38 -88 -70
-160 -71 -160 -1 0 -33 72 -70 160 -53 126 -71 160 -86 160 -11 0 -19 -2 -19
-5 0 -4 83 -200 119 -280 35 -76 35 -75 -35 -239 -36 -87 -68 -156 -69 -154
-3 3 -248 568 -278 641 -11 26 -22 37 -37 37 -12 0 -20 -4 -18 -8z"/>
<path d="M5969 1069 c-4 -15 -3 -742 1 -747 9 -13 30 -12 31 0 0 7 1 70 1 141
l1 127 29 0 c39 0 116 41 155 82 136 142 41 374 -163 395 -30 3 -54 4 -55 2z
m97 -44 c106 -31 170 -149 138 -254 -24 -78 -92 -138 -166 -143 l-33 -3 -1
200 c-1 179 1 215 10 215 1 0 25 -7 52 -15z"/>
<path d="M2457 789 c-27 -26 -29 -34 -31 -111 -2 -98 -24 -154 -89 -221 -62
-63 -126 -90 -217 -90 -88 -1 -145 20 -209 78 l-41 37 0 -153 1 -154 37 71 37
71 40 -15 c66 -24 199 -21 275 8 82 30 173 117 216 205 26 55 29 69 29 165 0
58 -5 112 -10 121 -9 13 -14 12 -38 -12z"/>
</g>
</svg>
