<svg width="374" height="416" viewBox="0 0 374 416" fill="none" xmlns="http://www.w3.org/2000/svg">
<rect width="75.3324" height="75.3324" rx="6.47297" transform="matrix(-0.866044 -0.499967 -0.866044 0.499967 244.325 245.138)" fill="url(#paint0_linear_730_3113)"/>
<path d="M258.671 226.185L258.671 210.882C258.671 208.596 257.465 206.479 255.498 205.313L182.369 161.977C180.334 160.772 177.804 160.772 175.769 161.977L102.641 205.313C100.674 206.479 99.4676 208.596 99.4676 210.882V226.185C99.4676 228.497 100.701 230.634 102.704 231.791L175.832 274.019C177.835 275.175 180.303 275.175 182.306 274.019L255.435 231.791C257.437 230.634 258.671 228.497 258.671 226.185Z" fill="url(#paint1_linear_730_3113)"/>
<rect width="94.3984" height="94.3984" rx="6.47297" transform="matrix(-0.866044 -0.499967 -0.866044 0.499967 260.837 206.641)" fill="#F2F2F2"/>
<rect width="94.3984" height="94.3984" rx="6.47297" transform="matrix(-0.866044 -0.499967 -0.866044 0.499967 260.837 205.775)" fill="url(#paint2_linear_730_3113)"/>
<rect width="7.50945" height="3.76626" rx="1.88313" transform="matrix(-0.866007 -0.500033 -3.76314e-05 -1 175.217 265.067)" fill="#F2F2F2"/>
<rect width="7.50945" height="3.76626" rx="1.88313" transform="matrix(-0.866025 -0.5 -7.53362e-05 -1 175.463 259.429)" fill="#F2F2F2"/>
<rect width="7.50945" height="3.76626" rx="1.88313" transform="matrix(-0.866007 -0.500033 -3.76314e-05 -1 166.699 259.89)" fill="#F2F2F2"/>
<rect width="7.50945" height="3.76626" rx="1.88313" transform="matrix(-0.866007 -0.500033 -3.76314e-05 -1 167.161 254.355)" fill="#F2F2F2"/>
<rect width="3.58849" height="3.76626" rx="1.79424" transform="matrix(-0.866007 -0.500033 -3.76314e-05 -1 109.194 221.017)" fill="#F2F2F2"/>
<rect width="3.58849" height="3.76626" rx="1.79424" transform="matrix(-0.866007 -0.500033 -3.76314e-05 -1 137.499 236.701)" fill="#E0E0E0"/>
<rect width="21.4333" height="3.76626" rx="1.88313" transform="matrix(-0.866007 -0.500033 -3.76314e-05 -1 132.425 233.63)" fill="#E0E0E0"/>
<rect width="5.53673" height="3.15436" rx="1.57718" transform="matrix(0.866007 -0.500033 3.76492e-05 -1 250.451 229.637)" fill="#333333"/>
<rect width="5.53673" height="3.15436" rx="1.57718" transform="matrix(0.866007 -0.500033 3.76492e-05 -1 250.451 225.001)" fill="#333333"/>
<rect width="5.53673" height="3.15436" rx="1.57718" transform="matrix(0.866007 -0.500033 3.76492e-05 -1 250.451 220.365)" fill="#333333"/>
<rect width="5.53673" height="3.15436" rx="1.57718" transform="matrix(0.866007 -0.500033 3.76492e-05 -1 245.042 232.727)" fill="#333333"/>
<rect width="5.53673" height="3.15436" rx="1.57718" transform="matrix(0.866007 -0.500033 3.76492e-05 -1 245.042 228.091)" fill="#333333"/>
<rect width="5.53673" height="3.15436" rx="1.57718" transform="matrix(0.866007 -0.500033 3.76492e-05 -1 245.042 223.455)" fill="#333333"/>
<rect width="5.53673" height="3.15436" rx="1.57718" transform="matrix(0.866007 -0.500033 3.76492e-05 -1 239.633 235.818)" fill="#333333"/>
<rect width="5.53673" height="3.15436" rx="1.57718" transform="matrix(0.866007 -0.500033 3.76492e-05 -1 239.634 231.182)" fill="#333333"/>
<rect width="5.53673" height="3.15436" rx="1.57718" transform="matrix(0.866007 -0.500033 3.76492e-05 -1 239.634 226.546)" fill="#333333"/>
<rect width="22.1872" height="3.76626" rx="1.88313" transform="matrix(-0.866007 -0.500033 -3.76314e-05 -1 158.857 249.281)" fill="#F2F2F2"/>
<rect width="75.3324" height="75.3324" rx="6.47297" transform="matrix(-0.866044 -0.499967 -0.866044 0.499967 244.325 204.084)" fill="url(#paint3_linear_730_3113)"/>
<path d="M258.671 185.131L258.671 169.828C258.671 167.542 257.465 165.425 255.498 164.259L182.369 120.923C180.334 119.718 177.804 119.718 175.769 120.923L102.641 164.259C100.674 165.425 99.4676 167.542 99.4676 169.828V185.131C99.4676 187.443 100.701 189.58 102.704 190.737L175.832 232.965C177.835 234.121 180.303 234.121 182.306 232.965L255.435 190.737C257.437 189.58 258.671 187.443 258.671 185.131Z" fill="url(#paint4_linear_730_3113)"/>
<rect width="94.3984" height="94.3984" rx="6.47297" transform="matrix(-0.866044 -0.499967 -0.866044 0.499967 260.837 165.587)" fill="#F2F2F2"/>
<rect width="94.3984" height="94.3984" rx="6.47297" transform="matrix(-0.866044 -0.499967 -0.866044 0.499967 260.837 164.721)" fill="url(#paint5_linear_730_3113)"/>
<rect width="7.50945" height="3.76626" rx="1.88313" transform="matrix(-0.866007 -0.500033 -3.76314e-05 -1 175.217 224.013)" fill="#F2F2F2"/>
<rect width="7.50945" height="3.76626" rx="1.88313" transform="matrix(-0.866025 -0.5 -7.53362e-05 -1 175.463 218.375)" fill="#F2F2F2"/>
<rect width="7.50945" height="3.76626" rx="1.88313" transform="matrix(-0.866007 -0.500033 -3.76314e-05 -1 166.699 218.836)" fill="#F2F2F2"/>
<rect width="7.50945" height="3.76626" rx="1.88313" transform="matrix(-0.866007 -0.500033 -3.76314e-05 -1 167.161 213.301)" fill="#F2F2F2"/>
<rect width="3.58849" height="3.76626" rx="1.79424" transform="matrix(-0.866007 -0.500033 -3.76314e-05 -1 109.194 179.963)" fill="#F2F2F2"/>
<rect width="3.58849" height="3.76626" rx="1.79424" transform="matrix(-0.866007 -0.500033 -3.76314e-05 -1 137.499 195.646)" fill="#E0E0E0"/>
<rect width="21.4333" height="3.76626" rx="1.88313" transform="matrix(-0.866007 -0.500033 -3.76314e-05 -1 132.425 192.576)" fill="#E0E0E0"/>
<rect width="5.53673" height="3.15436" rx="1.57718" transform="matrix(0.866007 -0.500033 3.76492e-05 -1 250.451 188.583)" fill="#333333"/>
<rect width="5.53673" height="3.15436" rx="1.57718" transform="matrix(0.866007 -0.500033 3.76492e-05 -1 250.451 183.947)" fill="#333333"/>
<rect width="5.53673" height="3.15436" rx="1.57718" transform="matrix(0.866007 -0.500033 3.76492e-05 -1 250.451 179.311)" fill="#333333"/>
<rect width="5.53673" height="3.15436" rx="1.57718" transform="matrix(0.866007 -0.500033 3.76492e-05 -1 245.042 191.674)" fill="#333333"/>
<rect width="5.53673" height="3.15436" rx="1.57718" transform="matrix(0.866007 -0.500033 3.76492e-05 -1 245.042 187.037)" fill="#333333"/>
<rect width="5.53673" height="3.15436" rx="1.57718" transform="matrix(0.866007 -0.500033 3.76492e-05 -1 245.042 182.401)" fill="#333333"/>
<rect width="5.53673" height="3.15436" rx="1.57718" transform="matrix(0.866007 -0.500033 3.76492e-05 -1 239.633 194.764)" fill="#333333"/>
<rect width="5.53673" height="3.15436" rx="1.57718" transform="matrix(0.866007 -0.500033 3.76492e-05 -1 239.634 190.128)" fill="#333333"/>
<rect width="5.53673" height="3.15436" rx="1.57718" transform="matrix(0.866007 -0.500033 3.76492e-05 -1 239.634 185.492)" fill="#333333"/>
<rect width="22.1872" height="3.76626" rx="1.88313" transform="matrix(-0.866007 -0.500033 -3.76314e-05 -1 158.857 208.227)" fill="#F2F2F2"/>
<rect width="75.3324" height="75.3324" rx="6.47297" transform="matrix(-0.866044 -0.499967 -0.866044 0.499967 244.325 161.524)" fill="url(#paint6_linear_730_3113)"/>
<path d="M258.671 142.571L258.671 127.268C258.671 124.982 257.465 122.865 255.498 121.699L182.369 78.3631C180.334 77.1573 177.804 77.1573 175.769 78.3631L102.641 121.699C100.674 122.865 99.4676 124.982 99.4676 127.268V142.571C99.4676 144.883 100.701 147.02 102.704 148.176L175.832 190.404C177.835 191.561 180.303 191.561 182.306 190.404L255.435 148.176C257.437 147.02 258.671 144.883 258.671 142.571Z" fill="url(#paint7_linear_730_3113)"/>
<rect width="94.3984" height="94.3984" rx="6.47297" transform="matrix(-0.866044 -0.499967 -0.866044 0.499967 260.837 123.027)" fill="#F2F2F2"/>
<rect width="94.3984" height="94.3984" rx="6.47297" transform="matrix(-0.866044 -0.499967 -0.866044 0.499967 260.837 122.161)" fill="url(#paint8_linear_730_3113)"/>
<rect width="7.50945" height="3.76626" rx="1.88313" transform="matrix(-0.866007 -0.500033 -3.76314e-05 -1 175.217 181.453)" fill="#F2F2F2"/>
<rect width="7.50945" height="3.76626" rx="1.88313" transform="matrix(-0.866025 -0.5 -7.53362e-05 -1 175.463 175.814)" fill="#F2F2F2"/>
<rect width="7.50945" height="3.76626" rx="1.88313" transform="matrix(-0.866007 -0.500033 -3.76314e-05 -1 166.699 176.276)" fill="#F2F2F2"/>
<rect width="7.50945" height="3.76626" rx="1.88313" transform="matrix(-0.866007 -0.500033 -3.76314e-05 -1 167.161 170.74)" fill="#F2F2F2"/>
<rect width="3.58849" height="3.76626" rx="1.79424" transform="matrix(-0.866007 -0.500033 -3.76314e-05 -1 109.194 137.402)" fill="#F2F2F2"/>
<rect width="3.58849" height="3.76626" rx="1.79424" transform="matrix(-0.866007 -0.500033 -3.76314e-05 -1 137.499 153.086)" fill="#E0E0E0"/>
<rect width="21.4333" height="3.76626" rx="1.88313" transform="matrix(-0.866007 -0.500033 -3.76314e-05 -1 132.424 150.016)" fill="#E0E0E0"/>
<rect width="5.53673" height="3.15436" rx="1.57718" transform="matrix(0.866007 -0.500033 3.76492e-05 -1 250.452 146.022)" fill="#333333"/>
<rect width="5.53673" height="3.15436" rx="1.57718" transform="matrix(0.866007 -0.500033 3.76492e-05 -1 250.452 141.386)" fill="#333333"/>
<rect width="5.53673" height="3.15436" rx="1.57718" transform="matrix(0.866007 -0.500033 3.76492e-05 -1 250.452 136.75)" fill="#333333"/>
<rect width="5.53673" height="3.15436" rx="1.57718" transform="matrix(0.866007 -0.500033 3.76492e-05 -1 245.042 149.113)" fill="#333333"/>
<rect width="5.53673" height="3.15436" rx="1.57718" transform="matrix(0.866007 -0.500033 3.76492e-05 -1 245.042 144.477)" fill="#333333"/>
<rect width="5.53673" height="3.15436" rx="1.57718" transform="matrix(0.866007 -0.500033 3.76492e-05 -1 245.042 139.841)" fill="#333333"/>
<rect width="5.53673" height="3.15436" rx="1.57718" transform="matrix(0.866007 -0.500033 3.76492e-05 -1 239.634 152.203)" fill="#333333"/>
<rect width="5.53673" height="3.15436" rx="1.57718" transform="matrix(0.866007 -0.500033 3.76492e-05 -1 239.634 147.568)" fill="#333333"/>
<rect width="5.53673" height="3.15436" rx="1.57718" transform="matrix(0.866007 -0.500033 3.76492e-05 -1 239.634 142.932)" fill="#333333"/>
<rect width="22.1872" height="3.76626" rx="1.88313" transform="matrix(-0.866007 -0.500033 -3.76314e-05 -1 158.858 165.666)" fill="#F2F2F2"/>
<g filter="url(#filter0_d_730_3113)">
<rect width="75.3324" height="75.3324" rx="6.47297" transform="matrix(-0.866044 -0.499967 -0.866044 0.499967 357.488 304.514)" fill="url(#paint9_linear_730_3113)"/>
</g>
<path d="M371.834 285.561L371.834 270.258C371.834 267.972 370.628 265.855 368.661 264.69L295.532 221.353C293.498 220.148 290.967 220.148 288.932 221.353L215.804 264.69C213.837 265.855 212.631 267.972 212.631 270.258V285.561C212.631 287.873 213.864 290.01 215.867 291.167L288.995 333.395C290.998 334.551 293.466 334.551 295.469 333.395L368.598 291.167C370.6 290.01 371.834 287.873 371.834 285.561Z" fill="url(#paint10_linear_730_3113)"/>
<rect width="94.3984" height="94.3984" rx="6.47297" transform="matrix(-0.866044 -0.499967 -0.866044 0.499967 374 266.017)" fill="#F2F2F2"/>
<rect width="94.3984" height="94.3984" rx="6.47297" transform="matrix(-0.866044 -0.499967 -0.866044 0.499967 374 265.151)" fill="url(#paint11_linear_730_3113)"/>
<rect width="7.50945" height="3.76626" rx="1.88313" transform="matrix(-0.866007 -0.500033 -3.76314e-05 -1 288.38 324.443)" fill="#F2F2F2"/>
<rect width="7.50945" height="3.76626" rx="1.88313" transform="matrix(-0.866025 -0.5 -7.53362e-05 -1 288.626 318.805)" fill="#F2F2F2"/>
<rect width="7.50945" height="3.76626" rx="1.88313" transform="matrix(-0.866007 -0.500033 -3.76314e-05 -1 279.862 319.266)" fill="#F2F2F2"/>
<rect width="7.50945" height="3.76626" rx="1.88313" transform="matrix(-0.866007 -0.500033 -3.76314e-05 -1 280.324 313.731)" fill="#F2F2F2"/>
<rect width="3.58849" height="3.76626" rx="1.79424" transform="matrix(-0.866007 -0.500033 -3.76314e-05 -1 222.357 280.393)" fill="#F2F2F2"/>
<rect width="3.58849" height="3.76626" rx="1.79424" transform="matrix(-0.866007 -0.500033 -3.76314e-05 -1 250.662 296.077)" fill="#E0E0E0"/>
<rect width="21.4333" height="3.76626" rx="1.88313" transform="matrix(-0.866007 -0.500033 -3.76314e-05 -1 245.588 293.006)" fill="#E0E0E0"/>
<rect width="5.53673" height="3.15436" rx="1.57718" transform="matrix(0.866007 -0.500033 3.76492e-05 -1 363.614 289.013)" fill="#333333"/>
<rect width="5.53673" height="3.15436" rx="1.57718" transform="matrix(0.866007 -0.500033 3.76492e-05 -1 363.614 284.377)" fill="#333333"/>
<rect width="5.53673" height="3.15436" rx="1.57718" transform="matrix(0.866007 -0.500033 3.76492e-05 -1 363.614 279.741)" fill="#333333"/>
<rect width="5.53673" height="3.15436" rx="1.57718" transform="matrix(0.866007 -0.500033 3.76492e-05 -1 358.206 292.104)" fill="#333333"/>
<rect width="5.53673" height="3.15436" rx="1.57718" transform="matrix(0.866007 -0.500033 3.76492e-05 -1 358.206 287.467)" fill="#333333"/>
<rect width="5.53673" height="3.15436" rx="1.57718" transform="matrix(0.866007 -0.500033 3.76492e-05 -1 358.206 282.831)" fill="#333333"/>
<rect width="5.53673" height="3.15436" rx="1.57718" transform="matrix(0.866007 -0.500033 3.76492e-05 -1 352.796 295.194)" fill="#333333"/>
<rect width="5.53673" height="3.15436" rx="1.57718" transform="matrix(0.866007 -0.500033 3.76492e-05 -1 352.797 290.558)" fill="#333333"/>
<rect width="5.53673" height="3.15436" rx="1.57718" transform="matrix(0.866007 -0.500033 3.76492e-05 -1 352.797 285.922)" fill="#333333"/>
<rect width="22.1872" height="3.76626" rx="1.88313" transform="matrix(-0.866007 -0.500033 -3.76314e-05 -1 272.021 308.657)" fill="#F2F2F2"/>
<rect width="75.3324" height="75.3324" rx="6.47297" transform="matrix(-0.866044 -0.499967 -0.866044 0.499967 357.488 263.46)" fill="url(#paint12_linear_730_3113)"/>
<path d="M371.834 244.507L371.834 229.204C371.834 226.918 370.628 224.801 368.661 223.636L295.532 180.299C293.498 179.094 290.967 179.094 288.932 180.299L215.804 223.636C213.837 224.801 212.631 226.918 212.631 229.204V244.507C212.631 246.819 213.864 248.956 215.867 250.113L288.995 292.341C290.998 293.497 293.466 293.497 295.469 292.341L368.598 250.113C370.6 248.956 371.834 246.819 371.834 244.507Z" fill="url(#paint13_linear_730_3113)"/>
<rect width="94.3984" height="94.3984" rx="6.47297" transform="matrix(-0.866044 -0.499967 -0.866044 0.499967 374 224.963)" fill="#F2F2F2"/>
<rect width="94.3984" height="94.3984" rx="6.47297" transform="matrix(-0.866044 -0.499967 -0.866044 0.499967 374 224.097)" fill="url(#paint14_linear_730_3113)"/>
<rect width="7.50945" height="3.76626" rx="1.88313" transform="matrix(-0.866007 -0.500033 -3.76314e-05 -1 288.38 283.389)" fill="#F2F2F2"/>
<rect width="7.50945" height="3.76626" rx="1.88313" transform="matrix(-0.866025 -0.5 -7.53362e-05 -1 288.626 277.751)" fill="#F2F2F2"/>
<rect width="7.50945" height="3.76626" rx="1.88313" transform="matrix(-0.866007 -0.500033 -3.76314e-05 -1 279.862 278.212)" fill="#F2F2F2"/>
<rect width="7.50945" height="3.76626" rx="1.88313" transform="matrix(-0.866007 -0.500033 -3.76314e-05 -1 280.324 272.677)" fill="#F2F2F2"/>
<rect width="3.58849" height="3.76626" rx="1.79424" transform="matrix(-0.866007 -0.500033 -3.76314e-05 -1 222.357 239.339)" fill="#F2F2F2"/>
<rect width="3.58849" height="3.76626" rx="1.79424" transform="matrix(-0.866007 -0.500033 -3.76314e-05 -1 250.662 255.022)" fill="#E0E0E0"/>
<rect width="21.4333" height="3.76626" rx="1.88313" transform="matrix(-0.866007 -0.500033 -3.76314e-05 -1 245.588 251.952)" fill="#E0E0E0"/>
<rect width="5.53673" height="3.15436" rx="1.57718" transform="matrix(0.866007 -0.500033 3.76492e-05 -1 363.614 247.959)" fill="#333333"/>
<rect width="5.53673" height="3.15436" rx="1.57718" transform="matrix(0.866007 -0.500033 3.76492e-05 -1 363.614 243.323)" fill="#333333"/>
<rect width="5.53673" height="3.15436" rx="1.57718" transform="matrix(0.866007 -0.500033 3.76492e-05 -1 363.614 238.687)" fill="#333333"/>
<rect width="5.53673" height="3.15436" rx="1.57718" transform="matrix(0.866007 -0.500033 3.76492e-05 -1 358.206 251.049)" fill="#333333"/>
<rect width="5.53673" height="3.15436" rx="1.57718" transform="matrix(0.866007 -0.500033 3.76492e-05 -1 358.206 246.413)" fill="#333333"/>
<rect width="5.53673" height="3.15436" rx="1.57718" transform="matrix(0.866007 -0.500033 3.76492e-05 -1 358.206 241.777)" fill="#333333"/>
<rect width="5.53673" height="3.15436" rx="1.57718" transform="matrix(0.866007 -0.500033 3.76492e-05 -1 352.796 254.14)" fill="#333333"/>
<rect width="5.53673" height="3.15436" rx="1.57718" transform="matrix(0.866007 -0.500033 3.76492e-05 -1 352.797 249.504)" fill="#333333"/>
<rect width="5.53673" height="3.15436" rx="1.57718" transform="matrix(0.866007 -0.500033 3.76492e-05 -1 352.797 244.868)" fill="#333333"/>
<rect width="22.1872" height="3.76626" rx="1.88313" transform="matrix(-0.866007 -0.500033 -3.76314e-05 -1 272.021 267.603)" fill="#F2F2F2"/>
<rect width="75.3324" height="75.3324" rx="6.47297" transform="matrix(-0.866044 -0.499967 -0.866044 0.499967 357.488 220.9)" fill="url(#paint15_linear_730_3113)"/>
<path d="M371.834 201.947L371.834 186.644C371.834 184.358 370.628 182.241 368.661 181.075L295.532 137.739C293.498 136.533 290.967 136.533 288.932 137.739L215.804 181.075C213.837 182.241 212.631 184.358 212.631 186.644V201.947C212.631 204.259 213.864 206.396 215.867 207.552L288.995 249.78C290.998 250.937 293.466 250.937 295.469 249.78L368.598 207.552C370.6 206.396 371.834 204.259 371.834 201.947Z" fill="url(#paint16_linear_730_3113)"/>
<rect width="94.3984" height="94.3984" rx="6.47297" transform="matrix(-0.866044 -0.499967 -0.866044 0.499967 374 182.403)" fill="#F2F2F2"/>
<rect width="94.3984" height="94.3984" rx="6.47297" transform="matrix(-0.866044 -0.499967 -0.866044 0.499967 374 181.537)" fill="url(#paint17_linear_730_3113)"/>
<rect width="7.50945" height="3.76626" rx="1.88313" transform="matrix(-0.866007 -0.500033 -3.76314e-05 -1 288.38 240.829)" fill="#F2F2F2"/>
<rect width="7.50945" height="3.76626" rx="1.88313" transform="matrix(-0.866025 -0.5 -7.53362e-05 -1 288.626 235.19)" fill="#F2F2F2"/>
<rect width="7.50945" height="3.76626" rx="1.88313" transform="matrix(-0.866007 -0.500033 -3.76314e-05 -1 279.862 235.652)" fill="#F2F2F2"/>
<rect width="7.50945" height="3.76626" rx="1.88313" transform="matrix(-0.866007 -0.500033 -3.76314e-05 -1 280.324 230.117)" fill="#F2F2F2"/>
<rect width="3.58849" height="3.76626" rx="1.79424" transform="matrix(-0.866007 -0.500033 -3.76314e-05 -1 222.357 196.779)" fill="#F2F2F2"/>
<rect width="3.58849" height="3.76626" rx="1.79424" transform="matrix(-0.866007 -0.500033 -3.76314e-05 -1 250.662 212.462)" fill="#E0E0E0"/>
<rect width="21.4333" height="3.76626" rx="1.88313" transform="matrix(-0.866007 -0.500033 -3.76314e-05 -1 245.588 209.392)" fill="#E0E0E0"/>
<rect width="5.53673" height="3.15436" rx="1.57718" transform="matrix(0.866007 -0.500033 3.76492e-05 -1 363.614 205.399)" fill="#333333"/>
<rect width="5.53673" height="3.15436" rx="1.57718" transform="matrix(0.866007 -0.500033 3.76492e-05 -1 363.614 200.763)" fill="#333333"/>
<rect width="5.53673" height="3.15436" rx="1.57718" transform="matrix(0.866007 -0.500033 3.76492e-05 -1 363.614 196.126)" fill="#333333"/>
<rect width="5.53673" height="3.15436" rx="1.57718" transform="matrix(0.866007 -0.500033 3.76492e-05 -1 358.206 208.489)" fill="#333333"/>
<rect width="5.53673" height="3.15436" rx="1.57718" transform="matrix(0.866007 -0.500033 3.76492e-05 -1 358.206 203.853)" fill="#333333"/>
<rect width="5.53673" height="3.15436" rx="1.57718" transform="matrix(0.866007 -0.500033 3.76492e-05 -1 358.206 199.217)" fill="#333333"/>
<rect width="5.53673" height="3.15436" rx="1.57718" transform="matrix(0.866007 -0.500033 3.76492e-05 -1 352.796 211.58)" fill="#333333"/>
<rect width="5.53673" height="3.15436" rx="1.57718" transform="matrix(0.866007 -0.500033 3.76492e-05 -1 352.797 206.944)" fill="#333333"/>
<rect width="5.53673" height="3.15436" rx="1.57718" transform="matrix(0.866007 -0.500033 3.76492e-05 -1 352.797 202.308)" fill="#333333"/>
<rect width="22.1872" height="3.76626" rx="1.88313" transform="matrix(-0.866007 -0.500033 -3.76314e-05 -1 272.021 225.042)" fill="#F2F2F2"/>
<g filter="url(#filter1_d_730_3113)">
<g filter="url(#filter2_d_730_3113)">
<rect width="75.3324" height="75.3324" rx="6.47297" transform="matrix(-0.866044 -0.499967 -0.866044 0.499967 258.33 370.713)" fill="url(#paint18_linear_730_3113)"/>
</g>
<rect width="75.3324" height="75.3324" rx="6.47297" transform="matrix(-0.866044 -0.499967 -0.866044 0.499967 146.994 311.101)" fill="url(#paint19_linear_730_3113)"/>
</g>
<path d="M161.34 292.148L161.34 276.845C161.34 274.559 160.134 272.442 158.167 271.277L85.0386 227.941C83.0039 226.735 80.4734 226.735 78.4387 227.941L5.31 271.277C3.34311 272.442 2.13699 274.559 2.13699 276.845V292.148C2.13699 294.461 3.37054 296.597 5.37305 297.754L78.5018 339.982C80.5047 341.139 82.9726 341.139 84.9756 339.982L158.104 297.754C160.107 296.597 161.34 294.461 161.34 292.148Z" fill="url(#paint20_linear_730_3113)"/>
<rect width="94.3984" height="94.3984" rx="6.47297" transform="matrix(-0.866044 -0.499967 -0.866044 0.499967 163.506 272.604)" fill="#F2F2F2"/>
<rect width="94.3984" height="94.3984" rx="6.47297" transform="matrix(-0.866044 -0.499967 -0.866044 0.499967 163.506 271.738)" fill="url(#paint21_linear_730_3113)"/>
<rect width="7.50945" height="3.76626" rx="1.88313" transform="matrix(-0.866007 -0.500033 -3.76314e-05 -1 77.8867 331.03)" fill="#F2F2F2"/>
<rect width="7.50945" height="3.76626" rx="1.88313" transform="matrix(-0.866025 -0.5 -7.53362e-05 -1 78.1333 325.392)" fill="#F2F2F2"/>
<rect width="7.50945" height="3.76626" rx="1.88313" transform="matrix(-0.866007 -0.500033 -3.76314e-05 -1 69.3687 325.853)" fill="#F2F2F2"/>
<rect width="7.50945" height="3.76626" rx="1.88313" transform="matrix(-0.866007 -0.500033 -3.76314e-05 -1 69.8301 320.318)" fill="#F2F2F2"/>
<rect width="3.58849" height="3.76626" rx="1.79424" transform="matrix(-0.866007 -0.500033 -3.76314e-05 -1 11.8638 286.98)" fill="#F2F2F2"/>
<rect width="3.58849" height="3.76626" rx="1.79424" transform="matrix(-0.866007 -0.500033 -3.76314e-05 -1 40.1685 302.664)" fill="#E0E0E0"/>
<rect width="21.4333" height="3.76626" rx="1.88313" transform="matrix(-0.866007 -0.500033 -3.76314e-05 -1 35.0942 299.593)" fill="#E0E0E0"/>
<rect width="5.53673" height="3.15436" rx="1.57718" transform="matrix(0.866007 -0.500033 3.76492e-05 -1 153.121 295.6)" fill="#333333"/>
<rect width="5.53673" height="3.15436" rx="1.57718" transform="matrix(0.866007 -0.500033 3.76492e-05 -1 153.121 290.964)" fill="#333333"/>
<rect width="5.53673" height="3.15436" rx="1.57718" transform="matrix(0.866007 -0.500033 3.76492e-05 -1 153.121 286.328)" fill="#333333"/>
<rect width="5.53673" height="3.15436" rx="1.57718" transform="matrix(0.866007 -0.500033 3.76492e-05 -1 147.712 298.691)" fill="#333333"/>
<rect width="5.53673" height="3.15436" rx="1.57718" transform="matrix(0.866007 -0.500033 3.76492e-05 -1 147.712 294.055)" fill="#333333"/>
<rect width="5.53673" height="3.15436" rx="1.57718" transform="matrix(0.866007 -0.500033 3.76492e-05 -1 147.712 289.418)" fill="#333333"/>
<rect width="5.53673" height="3.15436" rx="1.57718" transform="matrix(0.866007 -0.500033 3.76492e-05 -1 142.303 301.781)" fill="#333333"/>
<rect width="5.53673" height="3.15436" rx="1.57718" transform="matrix(0.866007 -0.500033 3.76492e-05 -1 142.303 297.145)" fill="#333333"/>
<rect width="5.53673" height="3.15436" rx="1.57718" transform="matrix(0.866007 -0.500033 3.76492e-05 -1 142.303 292.509)" fill="#333333"/>
<rect width="22.1872" height="3.76626" rx="1.88313" transform="matrix(-0.866007 -0.500033 -3.76314e-05 -1 61.5273 315.244)" fill="#F2F2F2"/>
<rect width="75.3324" height="75.3324" rx="6.47297" transform="matrix(-0.866044 -0.499967 -0.866044 0.499967 146.994 270.047)" fill="url(#paint22_linear_730_3113)"/>
<path d="M161.34 251.094L161.34 235.791C161.34 233.505 160.134 231.388 158.167 230.223L85.0386 186.886C83.0039 185.681 80.4734 185.681 78.4387 186.886L5.31 230.223C3.34311 231.388 2.13699 233.505 2.13699 235.791V251.094C2.13699 253.407 3.37054 255.543 5.37305 256.7L78.5018 298.928C80.5047 300.084 82.9726 300.084 84.9756 298.928L158.104 256.7C160.107 255.543 161.34 253.407 161.34 251.094Z" fill="url(#paint23_linear_730_3113)"/>
<rect width="94.3984" height="94.3984" rx="6.47297" transform="matrix(-0.866044 -0.499967 -0.866044 0.499967 163.506 231.55)" fill="#F2F2F2"/>
<rect width="94.3984" height="94.3984" rx="6.47297" transform="matrix(-0.866044 -0.499967 -0.866044 0.499967 163.506 230.684)" fill="url(#paint24_linear_730_3113)"/>
<rect width="7.50945" height="3.76626" rx="1.88313" transform="matrix(-0.866007 -0.500033 -3.76314e-05 -1 77.8867 289.976)" fill="#F2F2F2"/>
<rect width="7.50945" height="3.76626" rx="1.88313" transform="matrix(-0.866025 -0.5 -7.53362e-05 -1 78.1333 284.338)" fill="#F2F2F2"/>
<rect width="7.50945" height="3.76626" rx="1.88313" transform="matrix(-0.866007 -0.500033 -3.76314e-05 -1 69.3687 284.799)" fill="#F2F2F2"/>
<rect width="7.50945" height="3.76626" rx="1.88313" transform="matrix(-0.866007 -0.500033 -3.76314e-05 -1 69.8301 279.264)" fill="#F2F2F2"/>
<rect width="3.58849" height="3.76626" rx="1.79424" transform="matrix(-0.866007 -0.500033 -3.76314e-05 -1 11.8638 245.926)" fill="#F2F2F2"/>
<rect width="3.58849" height="3.76626" rx="1.79424" transform="matrix(-0.866007 -0.500033 -3.76314e-05 -1 40.1685 261.61)" fill="#E0E0E0"/>
<rect width="21.4333" height="3.76626" rx="1.88313" transform="matrix(-0.866007 -0.500033 -3.76314e-05 -1 35.0942 258.539)" fill="#E0E0E0"/>
<rect width="5.53673" height="3.15436" rx="1.57718" transform="matrix(0.866007 -0.500033 3.76492e-05 -1 153.121 254.546)" fill="#333333"/>
<rect width="5.53673" height="3.15436" rx="1.57718" transform="matrix(0.866007 -0.500033 3.76492e-05 -1 153.121 249.91)" fill="#333333"/>
<rect width="5.53673" height="3.15436" rx="1.57718" transform="matrix(0.866007 -0.500033 3.76492e-05 -1 153.121 245.274)" fill="#333333"/>
<rect width="5.53673" height="3.15436" rx="1.57718" transform="matrix(0.866007 -0.500033 3.76492e-05 -1 147.712 257.637)" fill="#333333"/>
<rect width="5.53673" height="3.15436" rx="1.57718" transform="matrix(0.866007 -0.500033 3.76492e-05 -1 147.712 253.001)" fill="#333333"/>
<rect width="5.53673" height="3.15436" rx="1.57718" transform="matrix(0.866007 -0.500033 3.76492e-05 -1 147.712 248.364)" fill="#333333"/>
<rect width="5.53673" height="3.15436" rx="1.57718" transform="matrix(0.866007 -0.500033 3.76492e-05 -1 142.303 260.727)" fill="#333333"/>
<rect width="5.53673" height="3.15436" rx="1.57718" transform="matrix(0.866007 -0.500033 3.76492e-05 -1 142.303 256.091)" fill="#333333"/>
<rect width="5.53673" height="3.15436" rx="1.57718" transform="matrix(0.866007 -0.500033 3.76492e-05 -1 142.303 251.455)" fill="#333333"/>
<rect width="22.1872" height="3.76626" rx="1.88313" transform="matrix(-0.866007 -0.500033 -3.76314e-05 -1 61.5273 274.19)" fill="#F2F2F2"/>
<rect width="75.3324" height="75.3324" rx="6.47297" transform="matrix(-0.866044 -0.499967 -0.866044 0.499967 146.994 227.487)" fill="url(#paint25_linear_730_3113)"/>
<path d="M161.34 208.534L161.34 193.231C161.34 190.945 160.134 188.828 158.167 187.662L85.0386 144.326C83.0039 143.12 80.4734 143.12 78.4387 144.326L5.31 187.662C3.34311 188.828 2.13699 190.945 2.13699 193.231V208.534C2.13699 210.846 3.37054 212.983 5.37305 214.139L78.5018 256.368C80.5047 257.524 82.9726 257.524 84.9756 256.368L158.104 214.139C160.107 212.983 161.34 210.846 161.34 208.534Z" fill="url(#paint26_linear_730_3113)"/>
<rect width="94.3984" height="94.3984" rx="6.47297" transform="matrix(-0.866044 -0.499967 -0.866044 0.499967 163.506 188.99)" fill="#F2F2F2"/>
<rect width="94.3984" height="94.3984" rx="6.47297" transform="matrix(-0.866044 -0.499967 -0.866044 0.499967 163.506 188.124)" fill="url(#paint27_linear_730_3113)"/>
<rect width="7.50945" height="3.76626" rx="1.88313" transform="matrix(-0.866007 -0.500033 -3.76314e-05 -1 77.8867 247.416)" fill="#F2F2F2"/>
<rect width="7.50945" height="3.76626" rx="1.88313" transform="matrix(-0.866025 -0.5 -7.53362e-05 -1 78.1333 241.778)" fill="#F2F2F2"/>
<rect width="7.50945" height="3.76626" rx="1.88313" transform="matrix(-0.866007 -0.500033 -3.76314e-05 -1 69.3691 242.239)" fill="#F2F2F2"/>
<rect width="7.50945" height="3.76626" rx="1.88313" transform="matrix(-0.866007 -0.500033 -3.76314e-05 -1 69.8301 236.704)" fill="#F2F2F2"/>
<rect width="3.58849" height="3.76626" rx="1.79424" transform="matrix(-0.866007 -0.500033 -3.76314e-05 -1 11.8638 203.366)" fill="#F2F2F2"/>
<rect width="3.58849" height="3.76626" rx="1.79424" transform="matrix(-0.866007 -0.500033 -3.76314e-05 -1 40.1689 219.049)" fill="#E0E0E0"/>
<rect width="21.4333" height="3.76626" rx="1.88313" transform="matrix(-0.866007 -0.500033 -3.76314e-05 -1 35.0947 215.979)" fill="#E0E0E0"/>
<rect width="5.53673" height="3.15436" rx="1.57718" transform="matrix(0.866007 -0.500033 3.76492e-05 -1 153.121 211.986)" fill="#333333"/>
<rect width="5.53673" height="3.15436" rx="1.57718" transform="matrix(0.866007 -0.500033 3.76492e-05 -1 153.121 207.35)" fill="#333333"/>
<rect width="5.53673" height="3.15436" rx="1.57718" transform="matrix(0.866007 -0.500033 3.76492e-05 -1 153.121 202.714)" fill="#333333"/>
<rect width="5.53673" height="3.15436" rx="1.57718" transform="matrix(0.866007 -0.500033 3.76492e-05 -1 147.712 215.076)" fill="#333333"/>
<rect width="5.53673" height="3.15436" rx="1.57718" transform="matrix(0.866007 -0.500033 3.76492e-05 -1 147.712 210.44)" fill="#333333"/>
<rect width="5.53673" height="3.15436" rx="1.57718" transform="matrix(0.866007 -0.500033 3.76492e-05 -1 147.712 205.804)" fill="#333333"/>
<rect width="5.53673" height="3.15436" rx="1.57718" transform="matrix(0.866007 -0.500033 3.76492e-05 -1 142.303 218.167)" fill="#333333"/>
<rect width="5.53673" height="3.15436" rx="1.57718" transform="matrix(0.866007 -0.500033 3.76492e-05 -1 142.304 213.531)" fill="#333333"/>
<rect width="5.53673" height="3.15436" rx="1.57718" transform="matrix(0.866007 -0.500033 3.76492e-05 -1 142.304 208.895)" fill="#333333"/>
<rect width="22.1872" height="3.76626" rx="1.88313" transform="matrix(-0.866007 -0.500033 -3.76314e-05 -1 61.5273 231.629)" fill="#F2F2F2"/>
<path d="M272.676 351.76L272.676 336.457C272.676 334.171 271.47 332.054 269.503 330.889L196.374 287.553C194.339 286.347 191.809 286.347 189.774 287.553L116.645 330.889C114.679 332.054 113.472 334.171 113.472 336.457V351.76C113.472 354.073 114.706 356.209 116.708 357.366L189.837 399.594C191.84 400.751 194.308 400.751 196.311 399.594L269.44 357.366C271.442 356.209 272.676 354.073 272.676 351.76Z" fill="url(#paint28_linear_730_3113)"/>
<rect width="94.3984" height="94.3984" rx="6.47297" transform="matrix(-0.866044 -0.499967 -0.866044 0.499967 274.842 332.216)" fill="#F2F2F2"/>
<rect width="94.3984" height="94.3984" rx="6.47297" transform="matrix(-0.866044 -0.499967 -0.866044 0.499967 274.842 331.35)" fill="url(#paint29_linear_730_3113)"/>
<rect width="7.50945" height="3.76626" rx="1.88313" transform="matrix(-0.866007 -0.500033 -3.76314e-05 -1 189.222 390.642)" fill="#F2F2F2"/>
<rect width="7.50945" height="3.76626" rx="1.88313" transform="matrix(-0.866025 -0.5 -7.53362e-05 -1 189.469 385.004)" fill="#F2F2F2"/>
<rect width="7.50945" height="3.76626" rx="1.88313" transform="matrix(-0.866007 -0.500033 -3.76314e-05 -1 180.705 385.465)" fill="#F2F2F2"/>
<rect width="7.50945" height="3.76626" rx="1.88313" transform="matrix(-0.866007 -0.500033 -3.76314e-05 -1 181.166 379.93)" fill="#F2F2F2"/>
<rect width="3.58849" height="3.76626" rx="1.79424" transform="matrix(-0.866007 -0.500033 -3.76314e-05 -1 123.199 346.592)" fill="#F2F2F2"/>
<rect width="3.58849" height="3.76626" rx="1.79424" transform="matrix(-0.866007 -0.500033 -3.76314e-05 -1 151.504 362.276)" fill="#E0E0E0"/>
<rect width="21.4333" height="3.76626" rx="1.88313" transform="matrix(-0.866007 -0.500033 -3.76314e-05 -1 146.43 359.206)" fill="#E0E0E0"/>
<rect width="5.53673" height="3.15436" rx="1.57718" transform="matrix(0.866007 -0.500033 3.76492e-05 -1 264.456 355.212)" fill="#333333"/>
<rect width="5.53673" height="3.15436" rx="1.57718" transform="matrix(0.866007 -0.500033 3.76492e-05 -1 264.456 350.576)" fill="#333333"/>
<rect width="5.53673" height="3.15436" rx="1.57718" transform="matrix(0.866007 -0.500033 3.76492e-05 -1 264.456 345.94)" fill="#333333"/>
<rect width="5.53673" height="3.15436" rx="1.57718" transform="matrix(0.866007 -0.500033 3.76492e-05 -1 259.048 358.303)" fill="#333333"/>
<rect width="5.53673" height="3.15436" rx="1.57718" transform="matrix(0.866007 -0.500033 3.76492e-05 -1 259.048 353.667)" fill="#333333"/>
<rect width="5.53673" height="3.15436" rx="1.57718" transform="matrix(0.866007 -0.500033 3.76492e-05 -1 259.048 349.031)" fill="#333333"/>
<rect width="5.53673" height="3.15436" rx="1.57718" transform="matrix(0.866007 -0.500033 3.76492e-05 -1 253.639 361.393)" fill="#333333"/>
<rect width="5.53673" height="3.15436" rx="1.57718" transform="matrix(0.866007 -0.500033 3.76492e-05 -1 253.639 356.757)" fill="#333333"/>
<rect width="5.53673" height="3.15436" rx="1.57718" transform="matrix(0.866007 -0.500033 3.76492e-05 -1 253.639 352.121)" fill="#333333"/>
<rect width="22.1872" height="3.76626" rx="1.88313" transform="matrix(-0.866007 -0.500033 -3.76314e-05 -1 172.863 374.856)" fill="#F2F2F2"/>
<rect width="75.3324" height="75.3324" rx="6.47297" transform="matrix(-0.866044 -0.499967 -0.866044 0.499967 258.33 329.659)" fill="url(#paint30_linear_730_3113)"/>
<path d="M272.676 310.706L272.676 295.403C272.676 293.117 271.47 291 269.503 289.835L196.374 246.499C194.339 245.293 191.809 245.293 189.774 246.499L116.645 289.835C114.679 291 113.472 293.117 113.472 295.403V310.706C113.472 313.019 114.706 315.155 116.708 316.312L189.837 358.54C191.84 359.697 194.308 359.697 196.311 358.54L269.44 316.312C271.442 315.155 272.676 313.019 272.676 310.706Z" fill="url(#paint31_linear_730_3113)"/>
<rect width="94.3984" height="94.3984" rx="6.47297" transform="matrix(-0.866044 -0.499967 -0.866044 0.499967 274.842 291.162)" fill="#F2F2F2"/>
<rect width="94.3984" height="94.3984" rx="6.47297" transform="matrix(-0.866044 -0.499967 -0.866044 0.499967 274.842 290.296)" fill="url(#paint32_linear_730_3113)"/>
<rect width="7.50945" height="3.76626" rx="1.88313" transform="matrix(-0.866007 -0.500033 -3.76314e-05 -1 189.222 349.588)" fill="#F2F2F2"/>
<rect width="7.50945" height="3.76626" rx="1.88313" transform="matrix(-0.866025 -0.5 -7.53362e-05 -1 189.469 343.95)" fill="#F2F2F2"/>
<rect width="7.50945" height="3.76626" rx="1.88313" transform="matrix(-0.866007 -0.500033 -3.76314e-05 -1 180.705 344.411)" fill="#F2F2F2"/>
<rect width="7.50945" height="3.76626" rx="1.88313" transform="matrix(-0.866007 -0.500033 -3.76314e-05 -1 181.166 338.876)" fill="#F2F2F2"/>
<rect width="3.58849" height="3.76626" rx="1.79424" transform="matrix(-0.866007 -0.500033 -3.76314e-05 -1 123.199 305.538)" fill="#F2F2F2"/>
<rect width="3.58849" height="3.76626" rx="1.79424" transform="matrix(-0.866007 -0.500033 -3.76314e-05 -1 151.504 321.222)" fill="#E0E0E0"/>
<rect width="21.4333" height="3.76626" rx="1.88313" transform="matrix(-0.866007 -0.500033 -3.76314e-05 -1 146.43 318.151)" fill="#E0E0E0"/>
<rect width="5.53673" height="3.15436" rx="1.57718" transform="matrix(0.866007 -0.500033 3.76492e-05 -1 264.456 314.158)" fill="#333333"/>
<rect width="5.53673" height="3.15436" rx="1.57718" transform="matrix(0.866007 -0.500033 3.76492e-05 -1 264.456 309.522)" fill="#333333"/>
<rect width="5.53673" height="3.15436" rx="1.57718" transform="matrix(0.866007 -0.500033 3.76492e-05 -1 264.456 304.886)" fill="#333333"/>
<rect width="5.53673" height="3.15436" rx="1.57718" transform="matrix(0.866007 -0.500033 3.76492e-05 -1 259.048 317.249)" fill="#333333"/>
<rect width="5.53673" height="3.15436" rx="1.57718" transform="matrix(0.866007 -0.500033 3.76492e-05 -1 259.048 312.613)" fill="#333333"/>
<rect width="5.53673" height="3.15436" rx="1.57718" transform="matrix(0.866007 -0.500033 3.76492e-05 -1 259.048 307.977)" fill="#333333"/>
<rect width="5.53673" height="3.15436" rx="1.57718" transform="matrix(0.866007 -0.500033 3.76492e-05 -1 253.639 320.339)" fill="#333333"/>
<rect width="5.53673" height="3.15436" rx="1.57718" transform="matrix(0.866007 -0.500033 3.76492e-05 -1 253.639 315.703)" fill="#333333"/>
<rect width="5.53673" height="3.15436" rx="1.57718" transform="matrix(0.866007 -0.500033 3.76492e-05 -1 253.639 311.067)" fill="#333333"/>
<rect width="22.1872" height="3.76626" rx="1.88313" transform="matrix(-0.866007 -0.500033 -3.76314e-05 -1 172.863 333.802)" fill="#F2F2F2"/>
<rect width="75.3324" height="75.3324" rx="6.47297" transform="matrix(-0.866044 -0.499967 -0.866044 0.499967 258.33 287.099)" fill="url(#paint33_linear_730_3113)"/>
<path d="M272.676 268.146L272.676 252.843C272.676 250.557 271.47 248.44 269.503 247.275L196.374 203.938C194.339 202.733 191.809 202.733 189.774 203.938L116.645 247.275C114.679 248.44 113.472 250.557 113.472 252.843V268.146C113.472 270.458 114.706 272.595 116.708 273.752L189.837 315.98C191.84 317.136 194.308 317.136 196.311 315.98L269.44 273.752C271.442 272.595 272.676 270.458 272.676 268.146Z" fill="url(#paint34_linear_730_3113)"/>
<rect width="94.3984" height="94.3984" rx="6.47297" transform="matrix(-0.866044 -0.499967 -0.866044 0.499967 274.842 248.602)" fill="#F2F2F2"/>
<rect width="94.3984" height="94.3984" rx="6.47297" transform="matrix(-0.866044 -0.499967 -0.866044 0.499967 274.842 247.736)" fill="url(#paint35_linear_730_3113)"/>
<rect width="7.50945" height="3.76626" rx="1.88313" transform="matrix(-0.866007 -0.500033 -3.76314e-05 -1 189.222 307.028)" fill="#F2F2F2"/>
<rect width="7.50945" height="3.76626" rx="1.88313" transform="matrix(-0.866025 -0.5 -7.53362e-05 -1 189.469 301.39)" fill="#F2F2F2"/>
<rect width="7.50945" height="3.76626" rx="1.88313" transform="matrix(-0.866007 -0.500033 -3.76314e-05 -1 180.705 301.851)" fill="#F2F2F2"/>
<rect width="7.50945" height="3.76626" rx="1.88313" transform="matrix(-0.866007 -0.500033 -3.76314e-05 -1 181.166 296.316)" fill="#F2F2F2"/>
<rect width="3.58849" height="3.76626" rx="1.79424" transform="matrix(-0.866007 -0.500033 -3.76314e-05 -1 123.199 262.978)" fill="#F2F2F2"/>
<rect width="3.58849" height="3.76626" rx="1.79424" transform="matrix(-0.866007 -0.500033 -3.76314e-05 -1 151.504 278.662)" fill="#E0E0E0"/>
<rect width="21.4333" height="3.76626" rx="1.88313" transform="matrix(-0.866007 -0.500033 -3.76314e-05 -1 146.43 275.591)" fill="#E0E0E0"/>
<rect width="5.53673" height="3.15436" rx="1.57718" transform="matrix(0.866007 -0.500033 3.76492e-05 -1 264.457 271.598)" fill="#333333"/>
<rect width="5.53673" height="3.15436" rx="1.57718" transform="matrix(0.866007 -0.500033 3.76492e-05 -1 264.456 266.962)" fill="#333333"/>
<rect width="5.53673" height="3.15436" rx="1.57718" transform="matrix(0.866007 -0.500033 3.76492e-05 -1 264.456 262.326)" fill="#333333"/>
<rect width="5.53673" height="3.15436" rx="1.57718" transform="matrix(0.866007 -0.500033 3.76492e-05 -1 259.048 274.689)" fill="#333333"/>
<rect width="5.53673" height="3.15436" rx="1.57718" transform="matrix(0.866007 -0.500033 3.76492e-05 -1 259.048 270.052)" fill="#333333"/>
<rect width="5.53673" height="3.15436" rx="1.57718" transform="matrix(0.866007 -0.500033 3.76492e-05 -1 259.048 265.417)" fill="#333333"/>
<rect width="5.53673" height="3.15436" rx="1.57718" transform="matrix(0.866007 -0.500033 3.76492e-05 -1 253.639 277.779)" fill="#333333"/>
<rect width="5.53673" height="3.15436" rx="1.57718" transform="matrix(0.866007 -0.500033 3.76492e-05 -1 253.639 273.143)" fill="#333333"/>
<rect width="5.53673" height="3.15436" rx="1.57718" transform="matrix(0.866007 -0.500033 3.76492e-05 -1 253.639 268.507)" fill="#333333"/>
<rect width="22.1872" height="3.76626" rx="1.88313" transform="matrix(-0.866007 -0.500033 -3.76314e-05 -1 172.863 291.242)" fill="#F2F2F2"/>
<g filter="url(#filter3_dddddddd_730_3113)">
<path fill-rule="evenodd" clip-rule="evenodd" d="M218.988 230.409C219.15 230.102 219.006 229.769 218.613 229.542C218.221 229.316 217.644 229.233 217.113 229.326L170.856 237.486C170.633 237.525 170.435 237.592 170.273 237.679C170.252 237.69 170.232 237.702 170.213 237.713C170.103 237.779 170.014 237.853 169.946 237.933C169.883 238.007 169.839 238.086 169.814 238.168C169.796 238.228 169.789 238.288 169.793 238.349L170.217 256.629C170.228 257.098 170.885 257.478 171.699 257.484L203.344 257.728C203.36 257.728 203.376 257.728 203.392 257.728C203.599 257.731 203.81 257.708 204.01 257.658C204.175 257.617 204.328 257.559 204.461 257.485C204.594 257.411 204.7 257.324 204.776 257.23C204.812 257.186 204.841 257.142 204.863 257.096L218.988 230.409ZM203.024 254.637L209.992 241.471L196.13 247.346L203.024 254.637ZM212.044 237.593L215.29 231.461L204.668 233.335L212.044 237.593ZM197.952 234.519L175.147 238.542L187.776 242.522L197.952 234.519ZM172.871 241.545L173.16 254.018L180.095 248.564L172.871 241.545ZM176.221 255.784L197.787 255.951L185.612 251.804L176.221 255.784ZM175.385 240.592L185.983 243.933L182.026 247.045L175.385 240.592ZM190.965 245.503L188.643 244.771L178.725 252.572L192.235 246.846L190.965 245.503ZM210.45 239.125L194.678 245.81L193.401 244.46C193.332 244.384 193.242 244.314 193.135 244.251C193.027 244.189 192.905 244.137 192.772 244.097L190.436 243.361L202.014 234.255L210.45 239.125ZM188.246 250.688L193.687 248.382L199.489 254.517L188.246 250.688Z" fill="#F2F2F2"/>
</g>
<g filter="url(#filter4_dddddddd_730_3113)">
<path fill-rule="evenodd" clip-rule="evenodd" d="M107.759 172.524C107.921 172.218 107.777 171.885 107.385 171.658C106.992 171.431 106.415 171.348 105.884 171.442L59.6272 179.601C59.4494 179.633 59.2876 179.682 59.1468 179.745C59.0895 179.77 59.0352 179.799 58.9843 179.829C58.8561 179.906 58.7556 179.994 58.685 180.09C58.5969 180.209 58.5555 180.338 58.565 180.468L58.9886 198.744C58.9995 199.214 59.6565 199.593 60.4702 199.6L92.1156 199.843C92.1316 199.844 92.1476 199.844 92.1636 199.844C92.3708 199.846 92.5812 199.824 92.7812 199.774C92.9464 199.733 93.0998 199.675 93.2324 199.601C93.3533 199.533 93.4519 199.455 93.5262 199.371C93.5393 199.356 93.5517 199.341 93.5634 199.326C93.5907 199.29 93.6134 199.254 93.6318 199.217L107.759 172.524ZM91.7957 196.752L98.7641 183.586L84.9014 189.462L91.7957 196.752ZM100.816 179.709L104.062 173.577L93.4393 175.45L100.816 179.709ZM86.7231 176.635L63.9188 180.658L76.5476 184.638L86.7231 176.635ZM61.6428 183.661L61.9319 196.134L68.8664 190.68L61.6428 183.661ZM64.9925 197.9L86.5584 198.066L74.3837 193.92L64.9925 197.9ZM64.1562 182.708L74.7543 186.049L70.7973 189.161L64.1562 182.708ZM79.7368 187.619L77.4142 186.887L67.4959 194.688L81.0063 188.962L79.7368 187.619ZM99.2215 181.241L83.4492 187.926L82.1722 186.576C82.103 186.5 82.0139 186.429 81.9063 186.367C81.7984 186.305 81.6759 186.253 81.5438 186.213L79.2075 185.477L90.7854 176.37L99.2215 181.241ZM77.0175 192.803L82.4585 190.497L88.2603 196.633L77.0175 192.803Z" fill="#F2F2F2"/>
</g>
<g filter="url(#filter5_dddddddd_730_3113)">
<path fill-rule="evenodd" clip-rule="evenodd" d="M207.071 106.695C207.233 106.389 207.089 106.055 206.697 105.829C206.304 105.602 205.727 105.519 205.196 105.613L158.939 113.772C158.786 113.799 158.646 113.839 158.52 113.89C158.44 113.922 158.365 113.959 158.296 114C158.168 114.077 158.067 114.165 157.996 114.261C157.908 114.38 157.866 114.511 157.877 114.642L158.3 132.915C158.311 133.385 158.968 133.764 159.782 133.77L191.428 134.014C191.444 134.015 191.459 134.015 191.475 134.015C191.682 134.017 191.893 133.994 192.093 133.945C192.258 133.904 192.411 133.846 192.544 133.771C192.639 133.719 192.72 133.659 192.786 133.596C192.838 133.546 192.882 133.492 192.917 133.436C192.925 133.422 192.933 133.408 192.94 133.394L207.071 106.695ZM191.107 130.923L198.076 117.757L184.213 123.633L191.107 130.923ZM200.128 113.88L203.373 107.747L192.751 109.621L200.128 113.88ZM186.035 110.806L163.23 114.828L175.859 118.809L186.035 110.806ZM160.954 117.832L161.243 130.304L168.178 124.85L160.954 117.832ZM164.304 132.071L185.87 132.237L173.695 128.091L164.304 132.071ZM163.468 116.879L174.066 120.219L170.109 123.332L163.468 116.879ZM179.048 121.79L176.726 121.058L166.807 128.859L180.318 123.132L179.048 121.79ZM198.533 115.412L182.761 122.097L181.484 120.747C181.414 120.671 181.325 120.6 181.218 120.538C181.11 120.476 180.987 120.424 180.855 120.384L178.519 119.647L190.097 110.541L198.533 115.412ZM176.329 126.974L181.77 124.668L187.572 130.803L176.329 126.974Z" fill="#F2F2F2"/>
</g>
<g filter="url(#filter6_dddddddd_730_3113)">
<path fill-rule="evenodd" clip-rule="evenodd" d="M320.002 166.849C320.164 166.543 320.02 166.21 319.627 165.983C319.235 165.756 318.658 165.673 318.127 165.767L271.87 173.926C271.608 173.973 271.381 174.057 271.204 174.168C271.124 174.219 271.054 174.274 270.997 174.333C270.909 174.425 270.848 174.526 270.822 174.633C270.809 174.684 270.804 174.736 270.807 174.788L271.231 193.069C271.242 193.539 271.899 193.918 272.713 193.925L304.357 194.168C304.373 194.169 304.39 194.169 304.406 194.169C304.614 194.171 304.824 194.149 305.024 194.099C305.189 194.058 305.343 194 305.475 193.926C305.608 193.852 305.714 193.765 305.79 193.671C305.827 193.627 305.856 193.581 305.878 193.535L320.002 166.849ZM304.038 191.077L311.007 177.911L297.144 183.787L304.038 191.077ZM313.059 174.034L316.304 167.902L305.682 169.775L313.059 174.034ZM298.966 170.96L276.161 174.983L288.79 178.963L298.966 170.96ZM273.885 177.986L274.174 190.459L281.109 185.005L273.885 177.986ZM277.235 192.225L298.801 192.391L286.627 188.245L277.235 192.225ZM276.399 177.033L286.997 180.374L283.04 183.486L276.399 177.033ZM291.98 181.944L289.657 181.212L279.739 189.013L293.249 183.287L291.98 181.944ZM311.464 175.566L295.692 182.251L294.415 180.901C294.346 180.825 294.257 180.754 294.149 180.692C294.041 180.63 293.919 180.578 293.787 180.538L291.45 179.802L303.028 170.696L311.464 175.566ZM289.26 187.128L294.701 184.822L300.503 190.958L289.26 187.128Z" fill="#F2F2F2"/>
</g>
<defs>
<filter id="filter0_d_730_3113" x="227.7" y="268.746" width="129.093" height="76.7143" filterUnits="userSpaceOnUse" color-interpolation-filters="sRGB">
<feFlood flood-opacity="0" result="BackgroundImageFix"/>
<feColorMatrix in="SourceAlpha" type="matrix" values="0 0 0 0 0 0 0 0 0 0 0 0 0 0 0 0 0 0 127 0" result="hardAlpha"/>
<feOffset dy="2.58919"/>
<feGaussianBlur stdDeviation="1.29459"/>
<feColorMatrix type="matrix" values="0 0 0 0 0 0 0 0 0 0 0 0 0 0 0 0 0 0 0.25 0"/>
<feBlend mode="normal" in2="BackgroundImageFix" result="effect1_dropShadow_730_3113"/>
<feBlend mode="normal" in="SourceGraphic" in2="effect1_dropShadow_730_3113" result="shape"/>
</filter>
<filter id="filter1_d_730_3113" x="17.2062" y="275.333" width="240.429" height="136.326" filterUnits="userSpaceOnUse" color-interpolation-filters="sRGB">
<feFlood flood-opacity="0" result="BackgroundImageFix"/>
<feColorMatrix in="SourceAlpha" type="matrix" values="0 0 0 0 0 0 0 0 0 0 0 0 0 0 0 0 0 0 127 0" result="hardAlpha"/>
<feOffset dy="2.58919"/>
<feGaussianBlur stdDeviation="1.29459"/>
<feColorMatrix type="matrix" values="0 0 0 0 0 0 0 0 0 0 0 0 0 0 0 0 0 0 0.25 0"/>
<feBlend mode="normal" in2="BackgroundImageFix" result="effect1_dropShadow_730_3113"/>
<feBlend mode="normal" in="SourceGraphic" in2="effect1_dropShadow_730_3113" result="shape"/>
</filter>
<filter id="filter2_d_730_3113" x="128.542" y="334.945" width="129.093" height="76.7143" filterUnits="userSpaceOnUse" color-interpolation-filters="sRGB">
<feFlood flood-opacity="0" result="BackgroundImageFix"/>
<feColorMatrix in="SourceAlpha" type="matrix" values="0 0 0 0 0 0 0 0 0 0 0 0 0 0 0 0 0 0 127 0" result="hardAlpha"/>
<feOffset dy="2.58919"/>
<feGaussianBlur stdDeviation="1.29459"/>
<feColorMatrix type="matrix" values="0 0 0 0 0 0 0 0 0 0 0 0 0 0 0 0 0 0 0.25 0"/>
<feBlend mode="normal" in2="BackgroundImageFix" result="effect1_dropShadow_730_3113"/>
<feBlend mode="normal" in="SourceGraphic" in2="effect1_dropShadow_730_3113" result="shape"/>
</filter>
<filter id="filter3_dddddddd_730_3113" x="119.951" y="124.426" width="148.945" height="133.302" filterUnits="userSpaceOnUse" color-interpolation-filters="sRGB">
<feFlood flood-opacity="0" result="BackgroundImageFix"/>
<feColorMatrix in="SourceAlpha" type="matrix" values="0 0 0 0 0 0 0 0 0 0 0 0 0 0 0 0 0 0 127 0" result="hardAlpha"/>
<feOffset dy="-1.09669"/>
<feGaussianBlur stdDeviation="0.496735"/>
<feColorMatrix type="matrix" values="0 0 0 0 0.262745 0 0 0 0 1 0 0 0 0 0.294118 0 0 0 0.119834 0"/>
<feBlend mode="normal" in2="BackgroundImageFix" result="effect1_dropShadow_730_3113"/>
<feColorMatrix in="SourceAlpha" type="matrix" values="0 0 0 0 0 0 0 0 0 0 0 0 0 0 0 0 0 0 127 0" result="hardAlpha"/>
<feOffset dy="-2.49176"/>
<feGaussianBlur stdDeviation="1.12862"/>
<feColorMatrix type="matrix" values="0 0 0 0 0.262745 0 0 0 0 1 0 0 0 0 0.294118 0 0 0 0.174206 0"/>
<feBlend mode="normal" in2="effect1_dropShadow_730_3113" result="effect2_dropShadow_730_3113"/>
<feColorMatrix in="SourceAlpha" type="matrix" values="0 0 0 0 0 0 0 0 0 0 0 0 0 0 0 0 0 0 127 0" result="hardAlpha"/>
<feOffset dy="-4.33679"/>
<feGaussianBlur stdDeviation="1.96431"/>
<feColorMatrix type="matrix" values="0 0 0 0 0.262745 0 0 0 0 1 0 0 0 0 0.294118 0 0 0 0.214553 0"/>
<feBlend mode="normal" in2="effect2_dropShadow_730_3113" result="effect3_dropShadow_730_3113"/>
<feColorMatrix in="SourceAlpha" type="matrix" values="0 0 0 0 0 0 0 0 0 0 0 0 0 0 0 0 0 0 127 0" result="hardAlpha"/>
<feOffset dy="-6.88939"/>
<feGaussianBlur stdDeviation="3.12049"/>
<feColorMatrix type="matrix" values="0 0 0 0 0.262745 0 0 0 0 1 0 0 0 0 0.294118 0 0 0 0.25 0"/>
<feBlend mode="normal" in2="effect3_dropShadow_730_3113" result="effect4_dropShadow_730_3113"/>
<feColorMatrix in="SourceAlpha" type="matrix" values="0 0 0 0 0 0 0 0 0 0 0 0 0 0 0 0 0 0 127 0" result="hardAlpha"/>
<feOffset dy="-10.6298"/>
<feGaussianBlur stdDeviation="4.81468"/>
<feColorMatrix type="matrix" values="0 0 0 0 0.262745 0 0 0 0 1 0 0 0 0 0.294118 0 0 0 0.285447 0"/>
<feBlend mode="normal" in2="effect4_dropShadow_730_3113" result="effect5_dropShadow_730_3113"/>
<feColorMatrix in="SourceAlpha" type="matrix" values="0 0 0 0 0 0 0 0 0 0 0 0 0 0 0 0 0 0 127 0" result="hardAlpha"/>
<feOffset dy="-16.587"/>
<feGaussianBlur stdDeviation="7.51293"/>
<feColorMatrix type="matrix" values="0 0 0 0 0.262745 0 0 0 0 1 0 0 0 0 0.294118 0 0 0 0.325794 0"/>
<feBlend mode="normal" in2="effect5_dropShadow_730_3113" result="effect6_dropShadow_730_3113"/>
<feColorMatrix in="SourceAlpha" type="matrix" values="0 0 0 0 0 0 0 0 0 0 0 0 0 0 0 0 0 0 127 0" result="hardAlpha"/>
<feOffset dy="-27.537"/>
<feGaussianBlur stdDeviation="12.4726"/>
<feColorMatrix type="matrix" values="0 0 0 0 0.262745 0 0 0 0 1 0 0 0 0 0.294118 0 0 0 0.380166 0"/>
<feBlend mode="normal" in2="effect6_dropShadow_730_3113" result="effect7_dropShadow_730_3113"/>
<feColorMatrix in="SourceAlpha" type="matrix" values="0 0 0 0 0 0 0 0 0 0 0 0 0 0 0 0 0 0 127 0" result="hardAlpha"/>
<feOffset dy="-55.0203"/>
<feGaussianBlur stdDeviation="24.9209"/>
<feColorMatrix type="matrix" values="0 0 0 0 0.262745 0 0 0 0 1 0 0 0 0 0.292235 0 0 0 0.5 0"/>
<feBlend mode="normal" in2="effect7_dropShadow_730_3113" result="effect8_dropShadow_730_3113"/>
<feBlend mode="normal" in="SourceGraphic" in2="effect8_dropShadow_730_3113" result="shape"/>
</filter>
<filter id="filter4_dddddddd_730_3113" x="8.72159" y="66.5418" width="148.945" height="133.302" filterUnits="userSpaceOnUse" color-interpolation-filters="sRGB">
<feFlood flood-opacity="0" result="BackgroundImageFix"/>
<feColorMatrix in="SourceAlpha" type="matrix" values="0 0 0 0 0 0 0 0 0 0 0 0 0 0 0 0 0 0 127 0" result="hardAlpha"/>
<feOffset dy="-1.09669"/>
<feGaussianBlur stdDeviation="0.496735"/>
<feColorMatrix type="matrix" values="0 0 0 0 0.262745 0 0 0 0 1 0 0 0 0 0.294118 0 0 0 0.119834 0"/>
<feBlend mode="normal" in2="BackgroundImageFix" result="effect1_dropShadow_730_3113"/>
<feColorMatrix in="SourceAlpha" type="matrix" values="0 0 0 0 0 0 0 0 0 0 0 0 0 0 0 0 0 0 127 0" result="hardAlpha"/>
<feOffset dy="-2.49176"/>
<feGaussianBlur stdDeviation="1.12862"/>
<feColorMatrix type="matrix" values="0 0 0 0 0.262745 0 0 0 0 1 0 0 0 0 0.294118 0 0 0 0.174206 0"/>
<feBlend mode="normal" in2="effect1_dropShadow_730_3113" result="effect2_dropShadow_730_3113"/>
<feColorMatrix in="SourceAlpha" type="matrix" values="0 0 0 0 0 0 0 0 0 0 0 0 0 0 0 0 0 0 127 0" result="hardAlpha"/>
<feOffset dy="-4.33679"/>
<feGaussianBlur stdDeviation="1.96431"/>
<feColorMatrix type="matrix" values="0 0 0 0 0.262745 0 0 0 0 1 0 0 0 0 0.294118 0 0 0 0.214553 0"/>
<feBlend mode="normal" in2="effect2_dropShadow_730_3113" result="effect3_dropShadow_730_3113"/>
<feColorMatrix in="SourceAlpha" type="matrix" values="0 0 0 0 0 0 0 0 0 0 0 0 0 0 0 0 0 0 127 0" result="hardAlpha"/>
<feOffset dy="-6.88939"/>
<feGaussianBlur stdDeviation="3.12049"/>
<feColorMatrix type="matrix" values="0 0 0 0 0.262745 0 0 0 0 1 0 0 0 0 0.294118 0 0 0 0.25 0"/>
<feBlend mode="normal" in2="effect3_dropShadow_730_3113" result="effect4_dropShadow_730_3113"/>
<feColorMatrix in="SourceAlpha" type="matrix" values="0 0 0 0 0 0 0 0 0 0 0 0 0 0 0 0 0 0 127 0" result="hardAlpha"/>
<feOffset dy="-10.6298"/>
<feGaussianBlur stdDeviation="4.81468"/>
<feColorMatrix type="matrix" values="0 0 0 0 0.262745 0 0 0 0 1 0 0 0 0 0.294118 0 0 0 0.285447 0"/>
<feBlend mode="normal" in2="effect4_dropShadow_730_3113" result="effect5_dropShadow_730_3113"/>
<feColorMatrix in="SourceAlpha" type="matrix" values="0 0 0 0 0 0 0 0 0 0 0 0 0 0 0 0 0 0 127 0" result="hardAlpha"/>
<feOffset dy="-16.587"/>
<feGaussianBlur stdDeviation="7.51293"/>
<feColorMatrix type="matrix" values="0 0 0 0 0.262745 0 0 0 0 1 0 0 0 0 0.294118 0 0 0 0.325794 0"/>
<feBlend mode="normal" in2="effect5_dropShadow_730_3113" result="effect6_dropShadow_730_3113"/>
<feColorMatrix in="SourceAlpha" type="matrix" values="0 0 0 0 0 0 0 0 0 0 0 0 0 0 0 0 0 0 127 0" result="hardAlpha"/>
<feOffset dy="-27.537"/>
<feGaussianBlur stdDeviation="12.4726"/>
<feColorMatrix type="matrix" values="0 0 0 0 0.262745 0 0 0 0 1 0 0 0 0 0.294118 0 0 0 0.380166 0"/>
<feBlend mode="normal" in2="effect6_dropShadow_730_3113" result="effect7_dropShadow_730_3113"/>
<feColorMatrix in="SourceAlpha" type="matrix" values="0 0 0 0 0 0 0 0 0 0 0 0 0 0 0 0 0 0 127 0" result="hardAlpha"/>
<feOffset dy="-55.0203"/>
<feGaussianBlur stdDeviation="24.9209"/>
<feColorMatrix type="matrix" values="0 0 0 0 0.262745 0 0 0 0 1 0 0 0 0 0.292235 0 0 0 0.5 0"/>
<feBlend mode="normal" in2="effect7_dropShadow_730_3113" result="effect8_dropShadow_730_3113"/>
<feBlend mode="normal" in="SourceGraphic" in2="effect8_dropShadow_730_3113" result="shape"/>
</filter>
<filter id="filter5_dddddddd_730_3113" x="108.033" y="0.712681" width="148.945" height="133.302" filterUnits="userSpaceOnUse" color-interpolation-filters="sRGB">
<feFlood flood-opacity="0" result="BackgroundImageFix"/>
<feColorMatrix in="SourceAlpha" type="matrix" values="0 0 0 0 0 0 0 0 0 0 0 0 0 0 0 0 0 0 127 0" result="hardAlpha"/>
<feOffset dy="-1.09669"/>
<feGaussianBlur stdDeviation="0.496735"/>
<feColorMatrix type="matrix" values="0 0 0 0 0.262745 0 0 0 0 1 0 0 0 0 0.294118 0 0 0 0.119834 0"/>
<feBlend mode="normal" in2="BackgroundImageFix" result="effect1_dropShadow_730_3113"/>
<feColorMatrix in="SourceAlpha" type="matrix" values="0 0 0 0 0 0 0 0 0 0 0 0 0 0 0 0 0 0 127 0" result="hardAlpha"/>
<feOffset dy="-2.49176"/>
<feGaussianBlur stdDeviation="1.12862"/>
<feColorMatrix type="matrix" values="0 0 0 0 0.262745 0 0 0 0 1 0 0 0 0 0.294118 0 0 0 0.174206 0"/>
<feBlend mode="normal" in2="effect1_dropShadow_730_3113" result="effect2_dropShadow_730_3113"/>
<feColorMatrix in="SourceAlpha" type="matrix" values="0 0 0 0 0 0 0 0 0 0 0 0 0 0 0 0 0 0 127 0" result="hardAlpha"/>
<feOffset dy="-4.33679"/>
<feGaussianBlur stdDeviation="1.96431"/>
<feColorMatrix type="matrix" values="0 0 0 0 0.262745 0 0 0 0 1 0 0 0 0 0.294118 0 0 0 0.214553 0"/>
<feBlend mode="normal" in2="effect2_dropShadow_730_3113" result="effect3_dropShadow_730_3113"/>
<feColorMatrix in="SourceAlpha" type="matrix" values="0 0 0 0 0 0 0 0 0 0 0 0 0 0 0 0 0 0 127 0" result="hardAlpha"/>
<feOffset dy="-6.88939"/>
<feGaussianBlur stdDeviation="3.12049"/>
<feColorMatrix type="matrix" values="0 0 0 0 0.262745 0 0 0 0 1 0 0 0 0 0.294118 0 0 0 0.25 0"/>
<feBlend mode="normal" in2="effect3_dropShadow_730_3113" result="effect4_dropShadow_730_3113"/>
<feColorMatrix in="SourceAlpha" type="matrix" values="0 0 0 0 0 0 0 0 0 0 0 0 0 0 0 0 0 0 127 0" result="hardAlpha"/>
<feOffset dy="-10.6298"/>
<feGaussianBlur stdDeviation="4.81468"/>
<feColorMatrix type="matrix" values="0 0 0 0 0.262745 0 0 0 0 1 0 0 0 0 0.294118 0 0 0 0.285447 0"/>
<feBlend mode="normal" in2="effect4_dropShadow_730_3113" result="effect5_dropShadow_730_3113"/>
<feColorMatrix in="SourceAlpha" type="matrix" values="0 0 0 0 0 0 0 0 0 0 0 0 0 0 0 0 0 0 127 0" result="hardAlpha"/>
<feOffset dy="-16.587"/>
<feGaussianBlur stdDeviation="7.51293"/>
<feColorMatrix type="matrix" values="0 0 0 0 0.262745 0 0 0 0 1 0 0 0 0 0.294118 0 0 0 0.325794 0"/>
<feBlend mode="normal" in2="effect5_dropShadow_730_3113" result="effect6_dropShadow_730_3113"/>
<feColorMatrix in="SourceAlpha" type="matrix" values="0 0 0 0 0 0 0 0 0 0 0 0 0 0 0 0 0 0 127 0" result="hardAlpha"/>
<feOffset dy="-27.537"/>
<feGaussianBlur stdDeviation="12.4726"/>
<feColorMatrix type="matrix" values="0 0 0 0 0.262745 0 0 0 0 1 0 0 0 0 0.294118 0 0 0 0.380166 0"/>
<feBlend mode="normal" in2="effect6_dropShadow_730_3113" result="effect7_dropShadow_730_3113"/>
<feColorMatrix in="SourceAlpha" type="matrix" values="0 0 0 0 0 0 0 0 0 0 0 0 0 0 0 0 0 0 127 0" result="hardAlpha"/>
<feOffset dy="-55.0203"/>
<feGaussianBlur stdDeviation="24.9209"/>
<feColorMatrix type="matrix" values="0 0 0 0 0.262745 0 0 0 0 1 0 0 0 0 0.292235 0 0 0 0.5 0"/>
<feBlend mode="normal" in2="effect7_dropShadow_730_3113" result="effect8_dropShadow_730_3113"/>
<feBlend mode="normal" in="SourceGraphic" in2="effect8_dropShadow_730_3113" result="shape"/>
</filter>
<filter id="filter6_dddddddd_730_3113" x="220.965" y="60.8669" width="148.945" height="133.302" filterUnits="userSpaceOnUse" color-interpolation-filters="sRGB">
<feFlood flood-opacity="0" result="BackgroundImageFix"/>
<feColorMatrix in="SourceAlpha" type="matrix" values="0 0 0 0 0 0 0 0 0 0 0 0 0 0 0 0 0 0 127 0" result="hardAlpha"/>
<feOffset dy="-1.09669"/>
<feGaussianBlur stdDeviation="0.496735"/>
<feColorMatrix type="matrix" values="0 0 0 0 0.262745 0 0 0 0 1 0 0 0 0 0.294118 0 0 0 0.119834 0"/>
<feBlend mode="normal" in2="BackgroundImageFix" result="effect1_dropShadow_730_3113"/>
<feColorMatrix in="SourceAlpha" type="matrix" values="0 0 0 0 0 0 0 0 0 0 0 0 0 0 0 0 0 0 127 0" result="hardAlpha"/>
<feOffset dy="-2.49176"/>
<feGaussianBlur stdDeviation="1.12862"/>
<feColorMatrix type="matrix" values="0 0 0 0 0.262745 0 0 0 0 1 0 0 0 0 0.294118 0 0 0 0.174206 0"/>
<feBlend mode="normal" in2="effect1_dropShadow_730_3113" result="effect2_dropShadow_730_3113"/>
<feColorMatrix in="SourceAlpha" type="matrix" values="0 0 0 0 0 0 0 0 0 0 0 0 0 0 0 0 0 0 127 0" result="hardAlpha"/>
<feOffset dy="-4.33679"/>
<feGaussianBlur stdDeviation="1.96431"/>
<feColorMatrix type="matrix" values="0 0 0 0 0.262745 0 0 0 0 1 0 0 0 0 0.294118 0 0 0 0.214553 0"/>
<feBlend mode="normal" in2="effect2_dropShadow_730_3113" result="effect3_dropShadow_730_3113"/>
<feColorMatrix in="SourceAlpha" type="matrix" values="0 0 0 0 0 0 0 0 0 0 0 0 0 0 0 0 0 0 127 0" result="hardAlpha"/>
<feOffset dy="-6.88939"/>
<feGaussianBlur stdDeviation="3.12049"/>
<feColorMatrix type="matrix" values="0 0 0 0 0.262745 0 0 0 0 1 0 0 0 0 0.294118 0 0 0 0.25 0"/>
<feBlend mode="normal" in2="effect3_dropShadow_730_3113" result="effect4_dropShadow_730_3113"/>
<feColorMatrix in="SourceAlpha" type="matrix" values="0 0 0 0 0 0 0 0 0 0 0 0 0 0 0 0 0 0 127 0" result="hardAlpha"/>
<feOffset dy="-10.6298"/>
<feGaussianBlur stdDeviation="4.81468"/>
<feColorMatrix type="matrix" values="0 0 0 0 0.262745 0 0 0 0 1 0 0 0 0 0.294118 0 0 0 0.285447 0"/>
<feBlend mode="normal" in2="effect4_dropShadow_730_3113" result="effect5_dropShadow_730_3113"/>
<feColorMatrix in="SourceAlpha" type="matrix" values="0 0 0 0 0 0 0 0 0 0 0 0 0 0 0 0 0 0 127 0" result="hardAlpha"/>
<feOffset dy="-16.587"/>
<feGaussianBlur stdDeviation="7.51293"/>
<feColorMatrix type="matrix" values="0 0 0 0 0.262745 0 0 0 0 1 0 0 0 0 0.294118 0 0 0 0.325794 0"/>
<feBlend mode="normal" in2="effect5_dropShadow_730_3113" result="effect6_dropShadow_730_3113"/>
<feColorMatrix in="SourceAlpha" type="matrix" values="0 0 0 0 0 0 0 0 0 0 0 0 0 0 0 0 0 0 127 0" result="hardAlpha"/>
<feOffset dy="-27.537"/>
<feGaussianBlur stdDeviation="12.4726"/>
<feColorMatrix type="matrix" values="0 0 0 0 0.262745 0 0 0 0 1 0 0 0 0 0.294118 0 0 0 0.380166 0"/>
<feBlend mode="normal" in2="effect6_dropShadow_730_3113" result="effect7_dropShadow_730_3113"/>
<feColorMatrix in="SourceAlpha" type="matrix" values="0 0 0 0 0 0 0 0 0 0 0 0 0 0 0 0 0 0 127 0" result="hardAlpha"/>
<feOffset dy="-55.0203"/>
<feGaussianBlur stdDeviation="24.9209"/>
<feColorMatrix type="matrix" values="0 0 0 0 0.262745 0 0 0 0 1 0 0 0 0 0.292235 0 0 0 0.5 0"/>
<feBlend mode="normal" in2="effect7_dropShadow_730_3113" result="effect8_dropShadow_730_3113"/>
<feBlend mode="normal" in="SourceGraphic" in2="effect8_dropShadow_730_3113" result="shape"/>
</filter>
<linearGradient id="paint0_linear_730_3113" x1="37.6662" y1="0" x2="37.6662" y2="75.3324" gradientUnits="userSpaceOnUse">
<stop stop-color="#106537"/>
<stop offset="1" stop-color="#062916"/>
</linearGradient>
<linearGradient id="paint1_linear_730_3113" x1="99.4675" y1="217.955" x2="258.671" y2="217.955" gradientUnits="userSpaceOnUse">
<stop stop-color="#35BB00"/>
<stop offset="0.5" stop-color="#305037"/>
<stop offset="1" stop-color="#30744F"/>
</linearGradient>
<linearGradient id="paint2_linear_730_3113" x1="47.1992" y1="0" x2="47.1992" y2="94.3984" gradientUnits="userSpaceOnUse">
<stop stop-color="#158D4C"/>
<stop offset="1" stop-color="#094D73"/>
<stop offset="1" stop-color="#89FC53"/>
</linearGradient>
<linearGradient id="paint3_linear_730_3113" x1="37.6662" y1="0" x2="37.6662" y2="75.3324" gradientUnits="userSpaceOnUse">
<stop stop-color="#106537"/>
<stop offset="1" stop-color="#062916"/>
</linearGradient>
<linearGradient id="paint4_linear_730_3113" x1="99.4675" y1="176.901" x2="258.671" y2="176.901" gradientUnits="userSpaceOnUse">
<stop stop-color="#35BB00"/>
<stop offset="0.5" stop-color="#305037"/>
<stop offset="1" stop-color="#30744F"/>
</linearGradient>
<linearGradient id="paint5_linear_730_3113" x1="47.1992" y1="0" x2="47.1992" y2="94.3984" gradientUnits="userSpaceOnUse">
<stop stop-color="#54E062"/>
<stop offset="1" stop-color="#333333"/>
</linearGradient>
<linearGradient id="paint6_linear_730_3113" x1="37.6662" y1="0" x2="37.6662" y2="75.3324" gradientUnits="userSpaceOnUse">
<stop stop-color="#106537"/>
<stop offset="1" stop-color="#062916"/>
</linearGradient>
<linearGradient id="paint7_linear_730_3113" x1="99.4675" y1="134.341" x2="258.671" y2="134.341" gradientUnits="userSpaceOnUse">
<stop stop-color="#35BB00"/>
<stop offset="0.5" stop-color="#305037"/>
<stop offset="1" stop-color="#30744F"/>
</linearGradient>
<linearGradient id="paint8_linear_730_3113" x1="47.1992" y1="0" x2="47.1992" y2="94.3984" gradientUnits="userSpaceOnUse">
<stop stop-color="#54E062"/>
<stop offset="1" stop-color="#333333"/>
</linearGradient>
<linearGradient id="paint9_linear_730_3113" x1="37.6662" y1="0" x2="37.6662" y2="75.3324" gradientUnits="userSpaceOnUse">
<stop stop-color="#106537"/>
<stop offset="1" stop-color="#062916"/>
</linearGradient>
<linearGradient id="paint10_linear_730_3113" x1="212.631" y1="277.331" x2="371.834" y2="277.331" gradientUnits="userSpaceOnUse">
<stop stop-color="#35BB00"/>
<stop offset="0.5" stop-color="#305037"/>
<stop offset="1" stop-color="#30744F"/>
</linearGradient>
<linearGradient id="paint11_linear_730_3113" x1="47.1992" y1="0" x2="47.1992" y2="94.3984" gradientUnits="userSpaceOnUse">
<stop stop-color="#54E062"/>
<stop offset="1" stop-color="#333333"/>
</linearGradient>
<linearGradient id="paint12_linear_730_3113" x1="37.6662" y1="0" x2="37.6662" y2="75.3324" gradientUnits="userSpaceOnUse">
<stop stop-color="#106537"/>
<stop offset="1" stop-color="#062916"/>
</linearGradient>
<linearGradient id="paint13_linear_730_3113" x1="212.631" y1="236.277" x2="371.834" y2="236.277" gradientUnits="userSpaceOnUse">
<stop stop-color="#35BB00"/>
<stop offset="0.5" stop-color="#305037"/>
<stop offset="1" stop-color="#30744F"/>
</linearGradient>
<linearGradient id="paint14_linear_730_3113" x1="47.1992" y1="0" x2="47.1992" y2="94.3984" gradientUnits="userSpaceOnUse">
<stop stop-color="#54E062"/>
<stop offset="1" stop-color="#333333"/>
</linearGradient>
<linearGradient id="paint15_linear_730_3113" x1="37.6662" y1="0" x2="37.6662" y2="75.3324" gradientUnits="userSpaceOnUse">
<stop stop-color="#106537"/>
<stop offset="1" stop-color="#062916"/>
</linearGradient>
<linearGradient id="paint16_linear_730_3113" x1="212.631" y1="193.717" x2="371.834" y2="193.717" gradientUnits="userSpaceOnUse">
<stop stop-color="#35BB00"/>
<stop offset="0.5" stop-color="#305037"/>
<stop offset="1" stop-color="#30744F"/>
</linearGradient>
<linearGradient id="paint17_linear_730_3113" x1="47.1992" y1="0" x2="47.1992" y2="94.3984" gradientUnits="userSpaceOnUse">
<stop stop-color="#54E062"/>
<stop offset="1" stop-color="#333333"/>
</linearGradient>
<linearGradient id="paint18_linear_730_3113" x1="37.6662" y1="0" x2="37.6662" y2="75.3324" gradientUnits="userSpaceOnUse">
<stop stop-color="#106537"/>
<stop offset="1" stop-color="#062916"/>
</linearGradient>
<linearGradient id="paint19_linear_730_3113" x1="37.6662" y1="0" x2="37.6662" y2="75.3324" gradientUnits="userSpaceOnUse">
<stop stop-color="#106537"/>
<stop offset="1" stop-color="#062916"/>
</linearGradient>
<linearGradient id="paint20_linear_730_3113" x1="2.13698" y1="283.918" x2="161.34" y2="283.918" gradientUnits="userSpaceOnUse">
<stop stop-color="#35BB00"/>
<stop offset="0.5" stop-color="#305037"/>
<stop offset="1" stop-color="#30744F"/>
</linearGradient>
<linearGradient id="paint21_linear_730_3113" x1="47.1992" y1="0" x2="47.1992" y2="94.3984" gradientUnits="userSpaceOnUse">
<stop stop-color="#54E062"/>
<stop offset="1" stop-color="#333333"/>
</linearGradient>
<linearGradient id="paint22_linear_730_3113" x1="37.6662" y1="0" x2="37.6662" y2="75.3324" gradientUnits="userSpaceOnUse">
<stop stop-color="#106537"/>
<stop offset="1" stop-color="#062916"/>
</linearGradient>
<linearGradient id="paint23_linear_730_3113" x1="2.13698" y1="242.864" x2="161.34" y2="242.864" gradientUnits="userSpaceOnUse">
<stop stop-color="#35BB00"/>
<stop offset="0.5" stop-color="#305037"/>
<stop offset="1" stop-color="#30744F"/>
</linearGradient>
<linearGradient id="paint24_linear_730_3113" x1="47.1992" y1="0" x2="47.1992" y2="94.3984" gradientUnits="userSpaceOnUse">
<stop stop-color="#54E062"/>
<stop offset="1" stop-color="#333333"/>
</linearGradient>
<linearGradient id="paint25_linear_730_3113" x1="37.6662" y1="0" x2="37.6662" y2="75.3324" gradientUnits="userSpaceOnUse">
<stop stop-color="#106537"/>
<stop offset="1" stop-color="#062916"/>
</linearGradient>
<linearGradient id="paint26_linear_730_3113" x1="2.13698" y1="200.304" x2="161.34" y2="200.304" gradientUnits="userSpaceOnUse">
<stop stop-color="#35BB00"/>
<stop offset="0.5" stop-color="#305037"/>
<stop offset="1" stop-color="#30744F"/>
</linearGradient>
<linearGradient id="paint27_linear_730_3113" x1="47.1992" y1="0" x2="47.1992" y2="94.3984" gradientUnits="userSpaceOnUse">
<stop stop-color="#54E062"/>
<stop offset="1" stop-color="#333333"/>
</linearGradient>
<linearGradient id="paint28_linear_730_3113" x1="113.472" y1="343.53" x2="272.676" y2="343.53" gradientUnits="userSpaceOnUse">
<stop stop-color="#35BB00"/>
<stop offset="0.5" stop-color="#305037"/>
<stop offset="1" stop-color="#30744F"/>
</linearGradient>
<linearGradient id="paint29_linear_730_3113" x1="47.1992" y1="0" x2="47.1992" y2="94.3984" gradientUnits="userSpaceOnUse">
<stop stop-color="#54E062"/>
<stop offset="1" stop-color="#333333"/>
</linearGradient>
<linearGradient id="paint30_linear_730_3113" x1="37.6662" y1="0" x2="37.6662" y2="75.3324" gradientUnits="userSpaceOnUse">
<stop stop-color="#106537"/>
<stop offset="1" stop-color="#062916"/>
</linearGradient>
<linearGradient id="paint31_linear_730_3113" x1="113.472" y1="302.476" x2="272.676" y2="302.476" gradientUnits="userSpaceOnUse">
<stop stop-color="#35BB00"/>
<stop offset="0.5" stop-color="#305037"/>
<stop offset="1" stop-color="#30744F"/>
</linearGradient>
<linearGradient id="paint32_linear_730_3113" x1="47.1992" y1="0" x2="47.1992" y2="94.3984" gradientUnits="userSpaceOnUse">
<stop stop-color="#54E062"/>
<stop offset="1" stop-color="#333333"/>
</linearGradient>
<linearGradient id="paint33_linear_730_3113" x1="37.6662" y1="0" x2="37.6662" y2="75.3324" gradientUnits="userSpaceOnUse">
<stop stop-color="#106537"/>
<stop offset="1" stop-color="#062916"/>
</linearGradient>
<linearGradient id="paint34_linear_730_3113" x1="113.472" y1="259.916" x2="272.676" y2="259.916" gradientUnits="userSpaceOnUse">
<stop stop-color="#35BB00"/>
<stop offset="0.5" stop-color="#305037"/>
<stop offset="1" stop-color="#30744F"/>
</linearGradient>
<linearGradient id="paint35_linear_730_3113" x1="47.1992" y1="0" x2="47.1992" y2="94.3984" gradientUnits="userSpaceOnUse">
<stop stop-color="#54E062"/>
<stop offset="1" stop-color="#333333"/>
</linearGradient>
</defs>
</svg>
