<svg width="40" height="41" viewBox="0 0 40 41" fill="none" xmlns="http://www.w3.org/2000/svg">
<path d="M20 40.0881C31.0457 40.0881 40 31.1337 40 20.0881C40 9.04241 31.0457 0.0880737 20 0.0880737C8.95433 0.0880737 0 9.04241 0 20.0881C0 31.1337 8.95433 40.0881 20 40.0881Z" fill="url(#paint0_linear_729_2792)"/>
<path d="M7.44869 21.0664C9.78667 19.7786 12.3965 18.7038 14.835 17.6234C19.0302 15.8539 23.242 14.1151 27.4963 12.4963C28.3241 12.2204 29.8113 11.9507 29.9572 13.1773C29.8773 14.9137 29.5488 16.6398 29.3235 18.366C28.7516 22.162 28.0906 25.945 27.446 29.7285C27.2239 30.9888 25.6452 31.6412 24.635 30.8347C22.2073 29.1948 19.761 27.571 17.3643 25.8932C16.5793 25.0954 17.3073 23.9498 18.0084 23.3802C20.0079 21.4097 22.1284 19.7355 24.0234 17.6632C24.5346 16.4288 23.0243 17.4691 22.5261 17.7878C19.7888 19.6742 17.1184 21.6757 14.2324 23.3335C12.7583 24.145 11.0401 23.4515 9.56659 22.9987C8.2454 22.4517 6.30939 21.9006 7.44855 21.0665L7.44869 21.0664Z" fill="white"/>
<defs>
<linearGradient id="paint0_linear_729_2792" x1="15.0023" y1="1.75607" x2="5.00233" y2="25.0881" gradientUnits="userSpaceOnUse">
<stop stop-color="#37AEE2"/>
<stop offset="1" stop-color="#1E96C8"/>
</linearGradient>
</defs>
</svg>
