<svg width="41" height="40" viewBox="0 0 41 40" fill="none" xmlns="http://www.w3.org/2000/svg">
<path d="M0.5 20C0.5 8.9543 9.4543 0 20.5 0C31.5457 0 40.5 8.9543 40.5 20C40.5 31.0457 31.5457 40 20.5 40C9.4543 40 0.5 31.0457 0.5 20Z" fill="#55ACEE"/>
<path d="M19.901 16.2563L19.943 16.9483L19.2435 16.8636C16.6974 16.5387 14.473 15.4371 12.5844 13.5869L11.6611 12.6689L11.4233 13.3468C10.9197 14.858 11.2414 16.454 12.2907 17.5274C12.8503 18.1205 12.7243 18.2053 11.7591 17.8522C11.4233 17.7392 11.1295 17.6545 11.1016 17.6968C11.0036 17.7957 11.3394 19.0809 11.6052 19.5894C11.9689 20.2955 12.7104 20.9876 13.5218 21.3972L14.2072 21.722L13.3958 21.7361C12.6124 21.7361 12.5844 21.7502 12.6684 22.0468C12.9482 22.9649 14.0534 23.9394 15.2844 24.3631L16.1518 24.6597L15.3964 25.1116C14.2772 25.7613 12.9622 26.1285 11.6471 26.1567C11.0176 26.1709 10.5 26.2273 10.5 26.2697C10.5 26.411 12.2067 27.2019 13.2 27.5126C16.1798 28.4306 19.7191 28.0351 22.3772 26.4674C24.2658 25.3517 26.1543 23.1343 27.0357 20.9876C27.5113 19.8436 27.987 17.7533 27.987 16.7506C27.987 16.1009 28.029 16.0162 28.8124 15.2394C29.274 14.7874 29.7077 14.2931 29.7916 14.1519C29.9315 13.8835 29.9175 13.8835 29.2041 14.1236C28.015 14.5473 27.8471 14.4908 28.4346 13.8553C28.8683 13.4033 29.3859 12.5842 29.3859 12.3441C29.3859 12.3017 29.1761 12.3723 28.9383 12.4994C28.6865 12.6407 28.1269 12.8525 27.7072 12.9796L26.9518 13.2197L26.2663 12.7537C25.8885 12.4994 25.3569 12.217 25.0771 12.1322C24.3637 11.9345 23.2725 11.9627 22.629 12.1887C20.8803 12.8243 19.7751 14.4626 19.901 16.2563Z" fill="white"/>
</svg>
