<svg id="e62c6610-ff05-4275-9013-1896db11ee3e" data-name="Layer 1" xmlns="http://www.w3.org/2000/svg" viewBox="0 0 1037.72 320.34">
  <defs>
    <style>
      .b38959ba-82c6-4bdc-9c1f-9599e738ad9f {
        fill: #514e4e;
      }

      .b4663f6e-89e2-4743-a66b-43cb87d62281 {
        opacity: 0.95;
      }

      .a0f88660-526c-48c8-9ed9-ec9f309df8d8 {
        fill: #f2f2f2;
      }

      .a0f88660-526c-48c8-9ed9-ec9f309df8d8, .ed3ed678-0204-426d-88b9-34ec1170425b {
        stroke: #333;
        stroke-linecap: round;
        stroke-linejoin: round;
        stroke-width: 7px;
      }

      .ed3ed678-0204-426d-88b9-34ec1170425b {
        fill: none;
      }
    </style>
  </defs>
  <title>logoalcor</title>
  <g>
    <path class="b38959ba-82c6-4bdc-9c1f-9599e738ad9f" d="M543.64,440q-6,0-5.95-4.71v-6.21q0-4.46,5.95-4.46h70.11Q602.11,399.78,591,375.35t-22.51-50L517.25,437q-1.54,3-5.69,3H503q-3.63,0-5.17-1.86a3.62,3.62,0,0,1-.26-4.34l55.1-119.08v.5a12.65,12.65,0,0,1,6.08-5.83,20.23,20.23,0,0,1,9.45-2.36,21.31,21.31,0,0,1,9.44,2.36q4.79,2.36,6.34,5.83v-.5q14,30,27.16,59.54t27.17,59.54a4,4,0,0,1-.52,4.34c-1,1.24-2.76,1.86-5.18,1.86Z" transform="translate(-166.28 -205.88)"/>
    <path class="b38959ba-82c6-4bdc-9c1f-9599e738ad9f" d="M766.64,424.59q5.43,0,5.43,4.46v6.21q0,4.71-5.43,4.71H712.05a46.65,46.65,0,0,1-17.33-3A39.87,39.87,0,0,1,682,429.18a32.53,32.53,0,0,1-7.76-10.79,30.3,30.3,0,0,1-2.58-12.16V311.71q0-4.71,5.43-4.71h7.76q6,0,6,4.71v91.05a21.62,21.62,0,0,0,1.42,7.56,21.18,21.18,0,0,0,4.4,7.07,21.88,21.88,0,0,0,7.5,5.21,25.78,25.78,0,0,0,10.48,2Z" transform="translate(-166.28 -205.88)"/>
    <path class="b38959ba-82c6-4bdc-9c1f-9599e738ad9f" d="M849.43,322.38a25.78,25.78,0,0,0-10.48,2,22.14,22.14,0,0,0-7.5,5.2,21.07,21.07,0,0,0-4.4,7.2,22.71,22.71,0,0,0-1.42,7.69v58.3a21.62,21.62,0,0,0,1.42,7.56,21,21,0,0,0,4.4,7.07,21.88,21.88,0,0,0,7.5,5.21,25.78,25.78,0,0,0,10.48,2h52q5.43,0,5.43,4.46v6.21q0,4.71-5.43,4.71H846.84a46.61,46.61,0,0,1-17.33-3,39.76,39.76,0,0,1-12.68-7.81,32.39,32.39,0,0,1-7.76-10.79,30.15,30.15,0,0,1-2.59-12.16V341a30.52,30.52,0,0,1,2.59-12A31.94,31.94,0,0,1,816.83,318a41.48,41.48,0,0,1,12.68-7.94,45.19,45.19,0,0,1,17.33-3.1h54.59q5.43,0,5.43,4.71v6.21q0,4.45-5.43,4.46Z" transform="translate(-166.28 -205.88)"/>
    <path class="b38959ba-82c6-4bdc-9c1f-9599e738ad9f" d="M978.52,440q-19.39,0-27.55-8.06t-8.15-20.72V336q0-12.66,8.15-20.84T978.78,307h33.12q19.65,0,27.81,8.19t8.15,20.84v75.16q0,12.66-8,20.72T1012.16,440Zm31.05-15.38q11.89,0,15.39-3.85t3.49-13V339.5a18.69,18.69,0,0,0-4-12.16q-4-4.95-15.39-5H981.63a30,30,0,0,0-9.83,1.37,15.6,15.6,0,0,0-6.08,3.59,11.42,11.42,0,0,0-3,5.34,28.47,28.47,0,0,0-.77,6.82v68.22a33.66,33.66,0,0,0,.77,7.69,10.62,10.62,0,0,0,3,5.33,12.47,12.47,0,0,0,6.08,3,46,46,0,0,0,9.83.87Z" transform="translate(-166.28 -205.88)"/>
    <path class="b38959ba-82c6-4bdc-9c1f-9599e738ad9f" d="M1187.3,440a5.8,5.8,0,0,1-2.72-.75,9.71,9.71,0,0,1-2.2-1.48L1135,374q-2.08-2.48-.39-4.71T1140,367h7q11.37,0,18.75-6.32a20.17,20.17,0,0,0,7.38-16q0-11.16-7.38-16.75t-18.75-5.58h-55.88c-3.62,0-5.44-1.49-5.44-4.46v-6.21c0-3.14,1.82-4.71,5.44-4.71h55.88a60.51,60.51,0,0,1,18.75,2.73,44,44,0,0,1,14.36,7.57,32.6,32.6,0,0,1,9.19,11.9,37,37,0,0,1,3.23,15.51,28.32,28.32,0,0,1-2.59,12,42.9,42.9,0,0,1-6.72,10.29,45.71,45.71,0,0,1-9.45,8.19,52,52,0,0,1-10.73,5.46L1202.82,433q2.07,2.49.52,4.72c-1,1.48-2.77,2.23-5.18,2.23Zm-88.48-103.2c4,0,6,1.57,6,4.71v93.78c0,3.14-2,4.71-6,4.71h-7.76c-3.62,0-5.44-1.57-5.44-4.71V341.48c0-3.14,1.82-4.71,5.44-4.71Z" transform="translate(-166.28 -205.88)"/>
  </g>
  <g class="b4663f6e-89e2-4743-a66b-43cb87d62281">
    <polygon class="a0f88660-526c-48c8-9ed9-ec9f309df8d8" points="113.31 316.84 3.5 209.93 113.31 3.5 223.11 209.93 113.31 316.84"/>
    <line class="ed3ed678-0204-426d-88b9-34ec1170425b" x1="100.3" y1="234.57" x2="3.5" y2="209.93"/>
    <line class="ed3ed678-0204-426d-88b9-34ec1170425b" x1="223.11" y1="209.93" x2="127.58" y2="234.57"/>
    <polygon class="ed3ed678-0204-426d-88b9-34ec1170425b" points="113.31 316.84 76.01 73.62 150.6 73.62 113.31 316.84"/>
    <line class="ed3ed678-0204-426d-88b9-34ec1170425b" x1="3.5" y1="209.93" x2="113.3" y2="177.68"/>
    <line class="ed3ed678-0204-426d-88b9-34ec1170425b" x1="223.11" y1="209.93" x2="113.3" y2="177.68"/>
  </g>
</svg>
