<?xml version="1.0" encoding="utf-8"?>
<!-- Generator: Adobe Illustrator 23.0.1, SVG Export Plug-In . SVG Version: 6.00 Build 0)  -->
<svg version="1.1" id="Layer_1" xmlns="http://www.w3.org/2000/svg" xmlns:xlink="http://www.w3.org/1999/xlink" x="0px" y="0px"
	 viewBox="0 0 877.82 122.14" style="enable-background:new 0 0 877.82 122.14;" xml:space="preserve">
<style type="text/css">
	.st0{fill:#FFFFFF;}
	.st1{fill:url(#SVGID_1_);}
	.st2{fill:url(#SVGID_2_);}
	.st3{fill:url(#SVGID_3_);}
	.st4{fill:url(#SVGID_4_);}
	.st5{fill:url(#SVGID_5_);}
	.st6{fill:url(#SVGID_6_);}
</style>
<rect x="1570.94" y="-4079.35" class="st0" width="679.32" height="679.32"/>
<g>
	<text transform="matrix(1.0525 0 0 1 1678.9812 -3604.6438)" style="font-family:'Poppins-Regular'; font-size:40.407px;">a l c o r. e x c h a n g e</text>
</g>
<linearGradient id="SVGID_1_" gradientUnits="userSpaceOnUse" x1="1805.8088" y1="-3739.6917" x2="1975.2507" y2="-3739.6917">
	<stop  offset="0" style="stop-color:#EAA518"/>
	<stop  offset="1" style="stop-color:#984913"/>
</linearGradient>
<path class="st1" d="M1805.86-3762.85c0-3.7,1.99-5.55,6-5.56l7.9-0.01c3.79-0.01,5.69,1.84,5.69,5.54l0.08,66.93
	c21.06-7.19,41.95-14.43,62.7-21.74c20.74-7.31,41.95-14.55,63.64-21.74L1809.62-3788c-2.53-0.73-3.8-2.46-3.8-5.17l-0.01-8.5
	c0-2.22,0.78-3.76,2.36-4.63c1.58-0.87,3.42-0.93,5.53-0.19l151.73,51.88l-0.63,0c2.95,1.23,5.43,3.19,7.44,5.91
	c2,2.71,3.01,5.66,3.01,8.87c0,2.96-1,5.92-2.99,8.88c-2,2.96-4.47,5.06-7.42,6.3l0.63,0c-25.48,8.92-50.75,17.58-75.8,26.01
	c-25.06,8.42-50.33,17.09-75.8,26.01c-2.11,0.49-3.95,0.31-5.53-0.54c-1.58-0.87-2.37-2.4-2.38-4.62L1805.86-3762.85z"/>
<linearGradient id="SVGID_2_" gradientUnits="userSpaceOnUse" x1="1843.4507" y1="-3818.1511" x2="2012.8513" y2="-3818.1511">
	<stop  offset="0" style="stop-color:#1114AE"/>
	<stop  offset="1" style="stop-color:#0D8CFF"/>
</linearGradient>
<path class="st2" d="M2012.83-3794.99c0,3.7-2,5.55-6,5.55l-7.9,0.01c-3.79,0-5.69-1.84-5.69-5.54l-0.04-66.93
	c-21.06,7.17-41.96,14.39-62.71,21.68c-20.74,7.29-41.96,14.52-63.66,21.68l142.22,48.7c2.53,0.74,3.79,2.46,3.79,5.17l0.01,8.5
	c0,2.22-0.79,3.76-2.37,4.62c-1.58,0.87-3.42,0.93-5.53,0.19l-151.7-52.02l0.63,0c-2.95-1.23-5.42-3.2-7.43-5.91
	c-2-2.71-3-5.67-3.01-8.87c0-2.96,1-5.92,3-8.88c2-2.96,4.48-5.05,7.42-6.29l-0.63,0c25.49-8.89,50.76-17.54,75.82-25.94
	c25.07-8.39,50.34-17.05,75.82-25.94c2.11-0.49,3.95-0.31,5.53,0.55c1.58,0.87,2.37,2.4,2.37,4.62L2012.83-3794.99z"/>
<radialGradient id="SVGID_3_" cx="1910.5958" cy="-2991.4194" r="339.6595" gradientUnits="userSpaceOnUse">
	<stop  offset="0" style="stop-color:#0D8CFF"/>
	<stop  offset="0.2359" style="stop-color:#0E74EF"/>
	<stop  offset="0.7305" style="stop-color:#1038C6"/>
	<stop  offset="1" style="stop-color:#1114AE"/>
</radialGradient>
<rect x="1570.94" y="-3331.08" class="st3" width="679.32" height="679.32"/>
<g>
	
		<text transform="matrix(1.0525 0 0 1 1679.9812 -2857.3718)" class="st0" style="font-family:'Poppins-Regular'; font-size:40.407px;">a l c o r. e x c h a n g e</text>
</g>
<path class="st0" d="M1805.86-3014.58c0-3.7,1.99-5.55,6-5.56l7.9-0.01c3.79-0.01,5.69,1.84,5.69,5.54l0.08,66.93
	c21.06-7.19,41.95-14.43,62.7-21.74c20.74-7.31,41.95-14.55,63.64-21.74l-142.25-48.57c-2.53-0.73-3.8-2.46-3.8-5.17l-0.01-8.5
	c0-2.22,0.78-3.76,2.36-4.63c1.58-0.87,3.42-0.93,5.53-0.19l151.73,51.88l-0.63,0c2.95,1.23,5.43,3.19,7.44,5.91
	c2,2.71,3.01,5.66,3.01,8.87c0,2.96-1,5.92-2.99,8.88c-2,2.96-4.47,5.06-7.42,6.3l0.63,0c-25.48,8.92-50.75,17.58-75.8,26.01
	c-25.06,8.42-50.33,17.09-75.8,26.01c-2.11,0.49-3.95,0.31-5.53-0.54c-1.58-0.87-2.37-2.4-2.38-4.62L1805.86-3014.58z"/>
<path class="st0" d="M2012.83-3046.71c0,3.7-2,5.55-6,5.55l-7.9,0.01c-3.79,0-5.69-1.84-5.69-5.54l-0.04-66.93
	c-21.06,7.17-41.96,14.39-62.71,21.68c-20.74,7.29-41.96,14.52-63.66,21.68l142.22,48.7c2.53,0.74,3.79,2.46,3.79,5.17l0.01,8.5
	c0,2.22-0.79,3.76-2.37,4.62c-1.58,0.87-3.42,0.93-5.53,0.19l-151.7-52.02l0.63,0c-2.95-1.23-5.42-3.2-7.43-5.91
	c-2-2.71-3-5.67-3.01-8.87c0-2.96,1-5.92,3-8.88c2-2.96,4.48-5.05,7.42-6.29l-0.63,0c25.49-8.89,50.76-17.54,75.82-25.94
	c25.07-8.39,50.34-17.05,75.82-25.94c2.11-0.49,3.95-0.31,5.53,0.55c1.58,0.87,2.37,2.4,2.37,4.62L2012.83-3046.71z"/>
<g>
	<g>
		<path d="M176.89,52.96c6.77,0,11.42,3.45,13.54,7.24v-6.64h6.11v36.38h-6.11v-6.77c-2.19,3.92-6.9,7.37-13.61,7.37
			c-9.69,0-17.2-7.63-17.2-18.92C159.63,60.27,167.13,52.96,176.89,52.96z M178.09,58.21c-6.64,0-12.28,4.85-12.28,13.41
			s5.64,13.61,12.28,13.61s12.35-4.98,12.35-13.54C190.43,63.25,184.72,58.21,178.09,58.21z"/>
		<path d="M224.5,40.81h6.04v49.13h-6.04V40.81z"/>
		<path d="M274.02,52.96c9.03,0,14.94,4.65,16.8,12.28h-6.51c-1.26-4.38-4.91-7.17-10.29-7.17c-6.64,0-11.55,4.71-11.55,13.61
			c0,9.03,4.91,13.74,11.55,13.74c5.38,0,8.96-2.59,10.29-7.17h6.51c-1.86,7.24-7.77,12.28-16.8,12.28
			c-10.36,0-17.73-7.3-17.73-18.86C256.3,60.27,263.67,52.96,274.02,52.96z"/>
		<path d="M332.45,90.54c-10.29,0-18.13-7.3-18.13-18.86c0-11.49,8.1-18.72,18.39-18.72c10.36,0,18.39,7.24,18.39,18.72
			C351.11,83.24,342.81,90.54,332.45,90.54z M332.45,85.23c6.31,0,12.48-4.32,12.48-13.54c0-9.16-6.04-13.48-12.28-13.48
			c-6.37,0-12.15,4.32-12.15,13.48C320.5,80.91,326.15,85.23,332.45,85.23z"/>
		<path d="M382.85,89.94h-6.04V53.56h6.04v5.91c2.06-4.05,5.98-6.57,11.75-6.57v6.24H393c-5.78,0-10.16,2.59-10.16,11.02V89.94z"/>
		<path d="M403.49,90.34c-2.32,0-4.12-1.79-4.12-4.12c0-2.32,1.79-4.12,4.12-4.12c2.19,0,3.98,1.79,3.98,4.12
			C407.48,88.55,405.69,90.34,403.49,90.34z"/>
		<path d="M448.97,90.54c-10.36,0-17.99-7.3-17.99-18.86c0-11.49,7.37-18.72,17.99-18.72c10.56,0,17.46,7.44,17.46,17.39
			c0,1.33-0.07,2.39-0.2,3.65h-29.08c0.46,7.37,5.64,11.42,11.82,11.42c5.44,0,8.9-2.79,10.22-6.71h6.51
			C463.85,85.36,458,90.54,448.97,90.54z M437.22,69.1h22.97c0.07-7.1-5.24-11.02-11.49-11.02C442.8,58.08,437.89,61.99,437.22,69.1
			z"/>
		<path d="M502.49,76.4l-8.3,13.54h-6.31l11.75-18.06l-11.75-18.32h6.84l8.63,13.48l8.23-13.48h6.31l-11.69,17.99l11.75,18.39h-6.84
			L502.49,76.4z"/>
		<path d="M557.13,52.96c9.03,0,14.94,4.65,16.8,12.28h-6.51c-1.26-4.38-4.91-7.17-10.29-7.17c-6.64,0-11.55,4.71-11.55,13.61
			c0,9.03,4.91,13.74,11.55,13.74c5.38,0,8.96-2.59,10.29-7.17h6.51c-1.86,7.24-7.77,12.28-16.8,12.28
			c-10.36,0-17.73-7.3-17.73-18.86C539.4,60.27,546.77,52.96,557.13,52.96z"/>
		<path d="M599.69,40.81h6.04v17.99c2.39-3.85,6.91-5.91,12.02-5.91c8.1,0,14.54,5.18,14.54,15.6v21.44h-5.97V69.36
			c0-7.44-4.05-11.22-10.16-11.22c-6.17,0-10.42,3.85-10.42,11.69v20.12h-6.04V40.81z"/>
		<path d="M674.91,52.96c6.77,0,11.42,3.45,13.54,7.24v-6.64h6.11v36.38h-6.11v-6.77c-2.19,3.92-6.9,7.37-13.61,7.37
			c-9.69,0-17.2-7.63-17.2-18.92C657.65,60.27,665.16,52.96,674.91,52.96z M676.11,58.21c-6.64,0-12.28,4.85-12.28,13.41
			s5.64,13.61,12.28,13.61s12.35-4.98,12.35-13.54C688.46,63.25,682.75,58.21,676.11,58.21z"/>
		<path d="M749.14,69.36c0-7.44-4.05-11.22-10.16-11.22c-6.17,0-10.42,3.85-10.42,11.69v20.12h-6.04V53.56h6.04v5.18
			c2.39-3.78,6.77-5.84,11.69-5.84c8.43,0,14.87,5.18,14.87,15.6v21.44h-5.97V69.36z"/>
		<path d="M797.74,52.96c6.64,0,11.42,3.32,13.54,7.24v-6.64h6.11v37.18c0,10.02-6.71,17.13-17.39,17.13
			c-9.56,0-16.4-4.85-17.59-12.61h5.97c1.33,4.38,5.64,7.37,11.62,7.37c6.44,0,11.29-4.12,11.29-11.88V83.1
			c-2.19,3.92-6.9,7.44-13.54,7.44c-9.76,0-17.26-7.63-17.26-18.92C780.48,60.27,787.99,52.96,797.74,52.96z M798.94,58.21
			c-6.64,0-12.28,4.85-12.28,13.41s5.64,13.61,12.28,13.61s12.35-4.98,12.35-13.54C811.29,63.25,805.58,58.21,798.94,58.21z"/>
		<path d="M861.09,90.54c-10.36,0-17.99-7.3-17.99-18.86c0-11.49,7.37-18.72,17.99-18.72c10.56,0,17.46,7.44,17.46,17.39
			c0,1.33-0.07,2.39-0.2,3.65h-29.08c0.46,7.37,5.64,11.42,11.82,11.42c5.44,0,8.9-2.79,10.22-6.71h6.51
			C875.96,85.36,870.11,90.54,861.09,90.54z M849.33,69.1h22.97c0.07-7.1-5.24-11.02-11.49-11.02
			C854.91,58.08,850,61.99,849.33,69.1z"/>
	</g>
</g>
<linearGradient id="SVGID_4_" gradientUnits="userSpaceOnUse" x1="0" y1="83.5588" x2="97.1243" y2="83.5588">
	<stop  offset="0" style="stop-color:#EAA518"/>
	<stop  offset="1" style="stop-color:#984913"/>
</linearGradient>
<path class="st4" d="M0.03,70.28c0-2.12,1.14-3.18,3.44-3.18l4.53-0.01c2.17,0,3.26,1.05,3.26,3.17l0.05,38.36
	c12.07-4.12,24.05-8.27,35.94-12.46c11.89-4.19,24.05-8.34,36.48-12.46L2.18,55.87c-1.45-0.42-2.18-1.41-2.18-2.96L0,48.03
	c0-1.27,0.45-2.16,1.35-2.65c0.91-0.5,1.96-0.53,3.17-0.11L91.5,75l-0.36,0c1.69,0.7,3.11,1.83,4.26,3.38
	c1.15,1.55,1.72,3.25,1.73,5.08c0,1.7-0.57,3.39-1.71,5.09c-1.15,1.7-2.56,2.9-4.25,3.61l0.36,0
	c-14.61,5.11-29.09,10.08-43.45,14.91c-14.36,4.82-28.85,9.8-43.45,14.91c-1.21,0.28-2.27,0.18-3.17-0.31
	c-0.91-0.5-1.36-1.38-1.36-2.65L0.03,70.28z"/>
<linearGradient id="SVGID_5_" gradientUnits="userSpaceOnUse" x1="21.5763" y1="38.5857" x2="118.6769" y2="38.5857">
	<stop  offset="0" style="stop-color:#1114AE"/>
	<stop  offset="1" style="stop-color:#0D8CFF"/>
</linearGradient>
<path class="st5" d="M118.66,51.86c0,2.12-1.14,3.18-3.44,3.18l-4.53,0c-2.17,0-3.26-1.06-3.26-3.18l-0.02-38.36
	c-12.07,4.11-24.05,8.25-35.95,12.43c-11.89,4.18-24.05,8.32-36.49,12.43l81.52,27.92c1.45,0.42,2.17,1.41,2.18,2.97l0,4.87
	c0,1.27-0.45,2.16-1.36,2.65c-0.91,0.5-1.96,0.53-3.17,0.11L27.2,47.06l0.36,0c-1.69-0.7-3.11-1.83-4.26-3.39
	c-1.15-1.55-1.72-3.25-1.72-5.09c0-1.7,0.57-3.39,1.72-5.09c1.15-1.7,2.57-2.9,4.26-3.61l-0.36,0c14.61-5.1,29.09-10.05,43.46-14.87
	c14.37-4.81,28.86-9.77,43.46-14.87c1.21-0.28,2.26-0.18,3.17,0.32c0.91,0.5,1.36,1.38,1.36,2.65L118.66,51.86z"/>
<radialGradient id="SVGID_6_" cx="1910.5958" cy="-2243.1475" r="339.6595" gradientUnits="userSpaceOnUse">
	<stop  offset="0" style="stop-color:#EAA518"/>
	<stop  offset="0.1301" style="stop-color:#DC9517"/>
	<stop  offset="0.5149" style="stop-color:#B76C15"/>
	<stop  offset="0.8181" style="stop-color:#A05214"/>
	<stop  offset="1" style="stop-color:#984913"/>
</radialGradient>
<rect x="1570.94" y="-2582.81" class="st6" width="679.32" height="679.32"/>
<g>
	
		<text transform="matrix(1.0525 0 0 1 1679.9812 -2109.0999)" class="st0" style="font-family:'Poppins-Regular'; font-size:40.407px;">a l c o r. e x c h a n g e</text>
</g>
<path class="st0" d="M1805.86-2266.31c0-3.7,1.99-5.55,6-5.56l7.9-0.01c3.79-0.01,5.69,1.84,5.69,5.54l0.08,66.93
	c21.06-7.19,41.95-14.43,62.7-21.74c20.74-7.31,41.95-14.55,63.64-21.74l-142.25-48.57c-2.53-0.73-3.8-2.46-3.8-5.17l-0.01-8.5
	c0-2.22,0.78-3.76,2.36-4.63c1.58-0.87,3.42-0.93,5.53-0.19l151.73,51.88l-0.63,0c2.95,1.23,5.43,3.19,7.44,5.91
	c2,2.71,3.01,5.66,3.01,8.87c0,2.96-1,5.92-2.99,8.88c-2,2.96-4.47,5.06-7.42,6.3l0.63,0c-25.48,8.92-50.75,17.58-75.8,26.01
	c-25.06,8.42-50.33,17.09-75.8,26.01c-2.11,0.49-3.95,0.31-5.53-0.54c-1.58-0.87-2.37-2.4-2.38-4.62L1805.86-2266.31z"/>
<path class="st0" d="M2012.83-2298.44c0,3.7-2,5.55-6,5.55l-7.9,0.01c-3.79,0-5.69-1.84-5.69-5.54l-0.04-66.93
	c-21.06,7.17-41.96,14.39-62.71,21.68c-20.74,7.29-41.96,14.52-63.66,21.68l142.22,48.7c2.53,0.74,3.79,2.46,3.79,5.17l0.01,8.5
	c0,2.22-0.79,3.76-2.37,4.62c-1.58,0.87-3.42,0.93-5.53,0.19l-151.7-52.02l0.63,0c-2.95-1.23-5.42-3.2-7.43-5.91
	c-2-2.71-3-5.67-3.01-8.87c0-2.96,1-5.92,3-8.88c2-2.96,4.48-5.05,7.42-6.29l-0.63,0c25.49-8.89,50.76-17.54,75.82-25.94
	c25.07-8.39,50.34-17.05,75.82-25.94c2.11-0.49,3.95-0.31,5.53,0.55c1.58,0.87,2.37,2.4,2.37,4.62L2012.83-2298.44z"/>
</svg>
