<svg id="b102bb7b-ad48-440b-9720-2c7df80fcf1a" data-name="Layer 1" xmlns="http://www.w3.org/2000/svg" viewBox="0 0 1084.76 320.34">
  <defs>
    <style>
      .eb0d25ca-bf27-400c-a26b-fc0d6e66a304 {
        opacity: 0.95;
      }

      .fd58d447-618f-4479-afe0-7690dd234159 {
        fill: #333738;
      }

      .f22afb6d-3293-422c-b9e7-17aec505df4c, .fd58d447-618f-4479-afe0-7690dd234159 {
        stroke: #f2f2f2;
        stroke-linecap: round;
        stroke-linejoin: round;
        stroke-width: 7px;
      }

      .f22afb6d-3293-422c-b9e7-17aec505df4c {
        fill: none;
      }

      .a3aaf4f7-d3ca-424c-8ea8-444a4223035b {
        fill: #514e4e;
      }

      .bb32a8bc-dc17-4a25-a747-266ee714166a {
        fill: #bdc2c6;
      }

      .ede238d0-721c-4201-a8ec-ad814c5a2eeb {
        fill: gray;
      }
    </style>
  </defs>
  <title>ALCORLOGONAKED</title>
  <g class="eb0d25ca-bf27-400c-a26b-fc0d6e66a304">
    <polygon class="fd58d447-618f-4479-afe0-7690dd234159" points="113.31 316.84 3.5 209.93 113.31 3.5 223.11 209.93 113.31 316.84"/>
    <line class="f22afb6d-3293-422c-b9e7-17aec505df4c" x1="100.3" y1="234.57" x2="3.5" y2="209.93"/>
    <line class="f22afb6d-3293-422c-b9e7-17aec505df4c" x1="223.11" y1="209.93" x2="127.58" y2="234.57"/>
    <polygon class="f22afb6d-3293-422c-b9e7-17aec505df4c" points="113.31 316.84 76.01 73.62 150.6 73.62 113.31 316.84"/>
    <line class="f22afb6d-3293-422c-b9e7-17aec505df4c" x1="3.5" y1="209.93" x2="113.3" y2="177.68"/>
    <line class="f22afb6d-3293-422c-b9e7-17aec505df4c" x1="223.11" y1="209.93" x2="113.3" y2="177.68"/>
  </g>
  <g>
    <path class="a3aaf4f7-d3ca-424c-8ea8-444a4223035b" d="M522.5,360q-3.64,0-3.64-2.87v-3.78q0-2.72,3.64-2.72h42.84q-7.12-15.11-13.91-30t-13.76-30.45l-31.3,68A3.55,3.55,0,0,1,502.9,360h-5.22a3.92,3.92,0,0,1-3.16-1.13,2.22,2.22,0,0,1-.16-2.65L528,283.68V284a7.67,7.67,0,0,1,3.72-3.55,12.29,12.29,0,0,1,5.76-1.44,13.05,13.05,0,0,1,5.78,1.44,7.68,7.68,0,0,1,3.87,3.55v-.31Q555.7,302,563.76,320t16.59,36.27a2.41,2.41,0,0,1-.31,2.65,3.93,3.93,0,0,1-3.16,1.13Z" transform="translate(-166.64 -206.42)"/>
    <path class="a3aaf4f7-d3ca-424c-8ea8-444a4223035b" d="M658.76,350.63q3.32,0,3.32,2.72v3.78q0,2.87-3.32,2.87H625.41a28.68,28.68,0,0,1-10.6-1.81,24.51,24.51,0,0,1-7.74-4.76,19.72,19.72,0,0,1-4.74-6.58,18.24,18.24,0,0,1-1.58-7.4V281.87q0-2.87,3.31-2.87h4.75q3.63,0,3.63,2.87v55.46a13.18,13.18,0,0,0,.87,4.61,13,13,0,0,0,2.69,4.31,13.43,13.43,0,0,0,4.58,3.17,15.83,15.83,0,0,0,6.41,1.21Z" transform="translate(-166.64 -206.42)"/>
    <path class="a3aaf4f7-d3ca-424c-8ea8-444a4223035b" d="M709.35,288.37a15.83,15.83,0,0,0-6.41,1.21,13.57,13.57,0,0,0-4.58,3.17,12.82,12.82,0,0,0-2.69,4.38,13.87,13.87,0,0,0-.87,4.69v35.51a13.18,13.18,0,0,0,.87,4.61,13,13,0,0,0,2.69,4.31,13.43,13.43,0,0,0,4.58,3.17,15.83,15.83,0,0,0,6.41,1.21h31.77q3.32,0,3.32,2.72v3.78q0,2.87-3.32,2.87H707.76a28.66,28.66,0,0,1-10.59-1.81,24.4,24.4,0,0,1-7.74-4.76,19.89,19.89,0,0,1-4.75-6.58,18.41,18.41,0,0,1-1.58-7.4V299.7a18.66,18.66,0,0,1,1.58-7.33,19.75,19.75,0,0,1,4.75-6.65,25.47,25.47,0,0,1,7.74-4.83A27.64,27.64,0,0,1,707.76,279h33.36q3.32,0,3.32,2.87v3.78q0,2.72-3.32,2.72Z" transform="translate(-166.64 -206.42)"/>
    <path class="a3aaf4f7-d3ca-424c-8ea8-444a4223035b" d="M788.23,360q-11.87,0-16.84-4.91a17,17,0,0,1-5-12.62V296.68a17.19,17.19,0,0,1,5-12.69q5-5,17-5h20.24q12,0,17,5a17.19,17.19,0,0,1,5,12.69v45.79a17.08,17.08,0,0,1-4.9,12.62Q820.78,360,808.78,360Zm19-9.37c4.84,0,8-.78,9.4-2.34s2.14-4.21,2.14-7.94V298.8a11.43,11.43,0,0,0-2.45-7.41q-2.46-3-9.41-3H790.12a18.5,18.5,0,0,0-6,.83,9.81,9.81,0,0,0-3.72,2.19,7,7,0,0,0-1.82,3.25,17.42,17.42,0,0,0-.47,4.16v41.55a20.56,20.56,0,0,0,.47,4.69,6.5,6.5,0,0,0,1.82,3.25,7.65,7.65,0,0,0,3.72,1.81,27.76,27.76,0,0,0,6,.53Z" transform="translate(-166.64 -206.42)"/>
    <path class="a3aaf4f7-d3ca-424c-8ea8-444a4223035b" d="M915.79,360a3.61,3.61,0,0,1-1.66-.45,6.31,6.31,0,0,1-1.34-.91L883.86,319.8a2.11,2.11,0,0,1-.24-2.87,3.8,3.8,0,0,1,3.24-1.36h4.27a17,17,0,0,0,11.46-3.85A12.27,12.27,0,0,0,907.1,302q0-6.8-4.51-10.2t-11.46-3.4H857q-3.32,0-3.32-2.72v-3.78q0-2.87,3.32-2.87h34.14a37,37,0,0,1,11.46,1.66,27.12,27.12,0,0,1,8.78,4.61,19.93,19.93,0,0,1,5.61,7.26,22.32,22.32,0,0,1,2,9.44,17.09,17.09,0,0,1-1.58,7.33,25.71,25.71,0,0,1-4.11,6.27,27.85,27.85,0,0,1-5.77,5,31.63,31.63,0,0,1-6.56,3.32l24.35,31.89a2.17,2.17,0,0,1,.31,2.87,3.56,3.56,0,0,1-3.16,1.36Zm-54.06-62.87c2.42,0,3.64,1,3.64,2.88v57.12c0,1.91-1.22,2.87-3.64,2.87H857q-3.32,0-3.32-2.87V300q0-2.88,3.32-2.88Z" transform="translate(-166.64 -206.42)"/>
  </g>
  <g>
    <path class="bb32a8bc-dc17-4a25-a747-266ee714166a" d="M522.5,360q-3.64,0-3.64-2.87v-3.78q0-2.72,3.64-2.72h42.84q-7.12-15.11-13.91-30t-13.76-30.45l-31.3,68A3.55,3.55,0,0,1,502.9,360h-5.22a3.92,3.92,0,0,1-3.16-1.13,2.22,2.22,0,0,1-.16-2.65L528,283.68V284a7.67,7.67,0,0,1,3.72-3.55,12.29,12.29,0,0,1,5.76-1.44,13.05,13.05,0,0,1,5.78,1.44,7.68,7.68,0,0,1,3.87,3.55v-.31Q555.7,302,563.76,320t16.59,36.27a2.41,2.41,0,0,1-.31,2.65,3.93,3.93,0,0,1-3.16,1.13Z" transform="translate(-166.64 -206.42)"/>
    <path class="bb32a8bc-dc17-4a25-a747-266ee714166a" d="M658.76,350.63q3.32,0,3.32,2.72v3.78q0,2.87-3.32,2.87H625.41a28.68,28.68,0,0,1-10.6-1.81,24.51,24.51,0,0,1-7.74-4.76,19.72,19.72,0,0,1-4.74-6.58,18.24,18.24,0,0,1-1.58-7.4V281.87q0-2.87,3.31-2.87h4.75q3.63,0,3.63,2.87v55.46a13.18,13.18,0,0,0,.87,4.61,13,13,0,0,0,2.69,4.31,13.43,13.43,0,0,0,4.58,3.17,15.83,15.83,0,0,0,6.41,1.21Z" transform="translate(-166.64 -206.42)"/>
    <path class="bb32a8bc-dc17-4a25-a747-266ee714166a" d="M709.35,288.37a15.83,15.83,0,0,0-6.41,1.21,13.57,13.57,0,0,0-4.58,3.17,12.82,12.82,0,0,0-2.69,4.38,13.87,13.87,0,0,0-.87,4.69v35.51a13.18,13.18,0,0,0,.87,4.61,13,13,0,0,0,2.69,4.31,13.43,13.43,0,0,0,4.58,3.17,15.83,15.83,0,0,0,6.41,1.21h31.77q3.32,0,3.32,2.72v3.78q0,2.87-3.32,2.87H707.76a28.66,28.66,0,0,1-10.59-1.81,24.4,24.4,0,0,1-7.74-4.76,19.89,19.89,0,0,1-4.75-6.58,18.41,18.41,0,0,1-1.58-7.4V299.7a18.66,18.66,0,0,1,1.58-7.33,19.75,19.75,0,0,1,4.75-6.65,25.47,25.47,0,0,1,7.74-4.83A27.64,27.64,0,0,1,707.76,279h33.36q3.32,0,3.32,2.87v3.78q0,2.72-3.32,2.72Z" transform="translate(-166.64 -206.42)"/>
    <path class="bb32a8bc-dc17-4a25-a747-266ee714166a" d="M788.23,360q-11.87,0-16.84-4.91a17,17,0,0,1-5-12.62V296.68a17.19,17.19,0,0,1,5-12.69q5-5,17-5h20.24q12,0,17,5a17.19,17.19,0,0,1,5,12.69v45.79a17.08,17.08,0,0,1-4.9,12.62Q820.78,360,808.78,360Zm19-9.37c4.84,0,8-.78,9.4-2.34s2.14-4.21,2.14-7.94V298.8a11.43,11.43,0,0,0-2.45-7.41q-2.46-3-9.41-3H790.12a18.5,18.5,0,0,0-6,.83,9.81,9.81,0,0,0-3.72,2.19,7,7,0,0,0-1.82,3.25,17.42,17.42,0,0,0-.47,4.16v41.55a20.56,20.56,0,0,0,.47,4.69,6.5,6.5,0,0,0,1.82,3.25,7.65,7.65,0,0,0,3.72,1.81,27.76,27.76,0,0,0,6,.53Z" transform="translate(-166.64 -206.42)"/>
    <path class="bb32a8bc-dc17-4a25-a747-266ee714166a" d="M915.79,360a3.61,3.61,0,0,1-1.66-.45,6.31,6.31,0,0,1-1.34-.91L883.86,319.8a2.11,2.11,0,0,1-.24-2.87,3.8,3.8,0,0,1,3.24-1.36h4.27a17,17,0,0,0,11.46-3.85A12.27,12.27,0,0,0,907.1,302q0-6.8-4.51-10.2t-11.46-3.4H857q-3.32,0-3.32-2.72v-3.78q0-2.87,3.32-2.87h34.14a37,37,0,0,1,11.46,1.66,27.12,27.12,0,0,1,8.78,4.61,19.93,19.93,0,0,1,5.61,7.26,22.32,22.32,0,0,1,2,9.44,17.09,17.09,0,0,1-1.58,7.33,25.71,25.71,0,0,1-4.11,6.27,27.85,27.85,0,0,1-5.77,5,31.63,31.63,0,0,1-6.56,3.32l24.35,31.89a2.17,2.17,0,0,1,.31,2.87,3.56,3.56,0,0,1-3.16,1.36Zm-54.06-62.87c2.42,0,3.64,1,3.64,2.88v57.12c0,1.91-1.22,2.87-3.64,2.87H857q-3.32,0-3.32-2.87V300q0-2.88,3.32-2.88Z" transform="translate(-166.64 -206.42)"/>
  </g>
  <g>
    <path class="ede238d0-721c-4201-a8ec-ad814c5a2eeb" d="M492.36,389.16h13.35q8.06,0,12.27,4.8T522.21,407q0,8.25-4.25,13.05t-12.25,4.8H492.36Zm4.5,31.6h8.85q6.1,0,9-3.82a18.27,18.27,0,0,0,0-19.85q-2.93-3.82-9-3.83h-8.85Z" transform="translate(-166.64 -206.42)"/>
    <path class="ede238d0-721c-4201-a8ec-ad814c5a2eeb" d="M550.91,410.76v1.45h-19.2a11.37,11.37,0,0,0,2.15,7.08,7.17,7.17,0,0,0,5.9,2.52q5.21,0,6.4-3.9h4.3a8.72,8.72,0,0,1-3.43,5.5,11.73,11.73,0,0,1-7.27,2.1,11.29,11.29,0,0,1-9-3.75,14.34,14.34,0,0,1-3.25-9.75q0-5.89,3.25-9.45a11.49,11.49,0,0,1,8.9-3.55q5.36,0,8.25,3.38A12.84,12.84,0,0,1,550.91,410.76Zm-11.35-8.05a7.69,7.69,0,0,0-5.2,1.68,7,7,0,0,0-2.4,4.27h14.55a6.22,6.22,0,0,0-2-4.25A7,7,0,0,0,539.56,402.71Z" transform="translate(-166.64 -206.42)"/>
    <path class="ede238d0-721c-4201-a8ec-ad814c5a2eeb" d="M574.56,417.26h4.25a9.94,9.94,0,0,1-3.53,6,11,11,0,0,1-7.07,2.22,11.36,11.36,0,0,1-9-3.72,15.59,15.59,0,0,1,0-19.08,11.38,11.38,0,0,1,9-3.7,11,11,0,0,1,7.07,2.18,9.19,9.19,0,0,1,3.38,5.77h-4.25q-1.35-4.24-6.2-4.25a7,7,0,0,0-6,2.68,11.13,11.13,0,0,0-2,6.77,11.43,11.43,0,0,0,2,6.9,6.94,6.94,0,0,0,6,2.75Q573.51,421.81,574.56,417.26Z" transform="translate(-166.64 -206.42)"/>
    <path class="ede238d0-721c-4201-a8ec-ad814c5a2eeb" d="M607,410.76v1.45h-19.2a11.31,11.31,0,0,0,2.15,7.08,7.15,7.15,0,0,0,5.9,2.52c3.46,0,5.6-1.3,6.4-3.9h4.3a8.76,8.76,0,0,1-3.43,5.5,11.73,11.73,0,0,1-7.27,2.1,11.26,11.26,0,0,1-9-3.75,14.34,14.34,0,0,1-3.25-9.75q0-5.89,3.25-9.45a11.47,11.47,0,0,1,8.9-3.55q5.34,0,8.25,3.38A12.84,12.84,0,0,1,607,410.76Zm-11.35-8.05a7.69,7.69,0,0,0-5.2,1.68,7,7,0,0,0-2.4,4.27h14.55a6.27,6.27,0,0,0-2.05-4.25A7,7,0,0,0,595.66,402.71Z" transform="translate(-166.64 -206.42)"/>
    <path class="ede238d0-721c-4201-a8ec-ad814c5a2eeb" d="M636,424.86h-4.25v-15.1q0-6.94-6.4-6.95a6.76,6.76,0,0,0-5.4,2.48,8.84,8.84,0,0,0-2.1,5.92v13.65h-4.25v-25.2h4.1v2.7h1.1a7.66,7.66,0,0,1,3.1-2.42,10.53,10.53,0,0,1,4.5-.93,9.36,9.36,0,0,1,7.1,2.63,10.06,10.06,0,0,1,2.5,7.22Z" transform="translate(-166.64 -206.42)"/>
    <path class="ede238d0-721c-4201-a8ec-ad814c5a2eeb" d="M649.66,399.66H656v3.7h-6.35v13.85a3.79,3.79,0,0,0,1,2.93,5.2,5.2,0,0,0,3.48.92H656v3.8h-2q-4.3,0-6.48-1.6t-2.17-5.45V403.36h-4.35v-3.7h4.35v-7.6h4.25Z" transform="translate(-166.64 -206.42)"/>
    <path class="ede238d0-721c-4201-a8ec-ad814c5a2eeb" d="M677.41,399.66v4h-2.1a7.76,7.76,0,0,0-5.93,2.25,8.88,8.88,0,0,0-2.12,6.35v12.6H663v-25.2h4.1v3h1.1q2.4-3,7.3-3Z" transform="translate(-166.64 -206.42)"/>
    <path class="ede238d0-721c-4201-a8ec-ad814c5a2eeb" d="M699,424.86v-2.65h-1.1c-1.74,2.2-4.35,3.3-7.85,3.3a9,9,0,0,1-6.6-2.4,7.79,7.79,0,0,1-2.45-5.8,8.12,8.12,0,0,1,2.4-5.9c1.6-1.63,4-2.45,7.25-2.45h8.2v-1a5,5,0,0,0-1.5-3.82,6.55,6.55,0,0,0-4.65-1.43q-5.51,0-5.85,3.65h-4.25a6.9,6.9,0,0,1,3-5.4,13.84,13.84,0,0,1,14.65.3,7.83,7.83,0,0,1,2.78,6.45v17.15Zm-7.9-3.05a7.89,7.89,0,0,0,5.45-2.07,6.61,6.61,0,0,0,2.3-5.08v-2.3h-7.55c-4,0-6,1.6-6,4.8a4.15,4.15,0,0,0,1.52,3.4A6.69,6.69,0,0,0,691.11,421.81Z" transform="translate(-166.64 -206.42)"/>
    <path class="ede238d0-721c-4201-a8ec-ad814c5a2eeb" d="M710.8,388.51h4.25v36.35H710.8Z" transform="translate(-166.64 -206.42)"/>
    <path class="ede238d0-721c-4201-a8ec-ad814c5a2eeb" d="M727.75,393.11h-4.5v-4.6h4.5Zm-.14,6.55v25.2h-4.25v-25.2Z" transform="translate(-166.64 -206.42)"/>
    <path class="ede238d0-721c-4201-a8ec-ad814c5a2eeb" d="M755.2,424.86h-21v-4.8l15.35-15.65v-1.05H735.1v-3.7h19.95v4.75l-15.3,15.65v1.1H755.2Z" transform="translate(-166.64 -206.42)"/>
    <path class="ede238d0-721c-4201-a8ec-ad814c5a2eeb" d="M783.55,410.76v1.45h-19.2a11.43,11.43,0,0,0,2.15,7.08,7.18,7.18,0,0,0,5.9,2.52q5.21,0,6.4-3.9h4.3a8.71,8.71,0,0,1-3.42,5.5,11.76,11.76,0,0,1-7.28,2.1,11.29,11.29,0,0,1-9-3.75,14.39,14.39,0,0,1-3.25-9.75,13.49,13.49,0,0,1,3.25-9.45,11.5,11.5,0,0,1,8.9-3.55q5.36,0,8.25,3.38A12.74,12.74,0,0,1,783.55,410.76Zm-11.35-8.05a7.7,7.7,0,0,0-5.2,1.68,7,7,0,0,0-2.4,4.27h14.55a6.18,6.18,0,0,0-2-4.25A7,7,0,0,0,772.2,402.71Z" transform="translate(-166.64 -206.42)"/>
    <path class="ede238d0-721c-4201-a8ec-ad814c5a2eeb" d="M808.45,388.51h4.25v36.35h-4.1v-2.7h-1.1c-1.8,2.23-4.41,3.35-7.85,3.35a9.75,9.75,0,0,1-8.07-3.75,16.71,16.71,0,0,1,0-19.05,9.82,9.82,0,0,1,8.07-3.7q5.1,0,7.7,3.35h1.1Zm-7.85,33.3a6.83,6.83,0,0,0,5.93-2.75,12.72,12.72,0,0,0,0-13.6,7.65,7.65,0,0,0-11.65-.12,12.83,12.83,0,0,0,0,13.85A6.8,6.8,0,0,0,800.6,421.81Z" transform="translate(-166.64 -206.42)"/>
    <path class="ede238d0-721c-4201-a8ec-ad814c5a2eeb" d="M857.7,408.36h4.2a20.68,20.68,0,0,1-3.6,9.65l6.65,6.85h-5.4l-3.3-3.4h-1.1a14.24,14.24,0,0,1-10,4.05,12.75,12.75,0,0,1-8.32-2.62,8.92,8.92,0,0,1-3.23-7.33,9.79,9.79,0,0,1,1.43-5.22,11.6,11.6,0,0,1,3.57-3.73l1.45-.95v-1.1l-1-1.15a9.85,9.85,0,0,1-2.75-6.5,7.29,7.29,0,0,1,2.33-5.6,8.6,8.6,0,0,1,6.07-2.15,9.65,9.65,0,0,1,6.38,2.1,6.87,6.87,0,0,1,2.52,5.55q0,4.2-5,7.65l-2,1.45,8.85,9.15A17.16,17.16,0,0,0,857.7,408.36Zm-12.6,13.25a10.61,10.61,0,0,0,7.95-3.45L843.3,408l-1.75,1.15a7.27,7.27,0,0,0-3.75,6.35,5.36,5.36,0,0,0,2.1,4.48A8.27,8.27,0,0,0,845.1,421.61Zm-2.35-19.7,1.4,1.5,2.05-1.5q3.3-2.4,3.3-5.05a3.61,3.61,0,0,0-1.35-2.95,5.14,5.14,0,0,0-3.35-1.1,4.69,4.69,0,0,0-3.2,1.05,3.84,3.84,0,0,0-1.2,3.05A7.55,7.55,0,0,0,842.75,401.91Z" transform="translate(-166.64 -206.42)"/>
    <path class="ede238d0-721c-4201-a8ec-ad814c5a2eeb" d="M889.6,420.61h20v4.25H885.1v-35.7h4.5Z" transform="translate(-166.64 -206.42)"/>
    <path class="ede238d0-721c-4201-a8ec-ad814c5a2eeb" d="M920.3,393.11h-4.5v-4.6h4.5Zm-.15,6.55v25.2H915.9v-25.2Z" transform="translate(-166.64 -206.42)"/>
    <path class="ede238d0-721c-4201-a8ec-ad814c5a2eeb" d="M941.55,399a9.85,9.85,0,0,1,8.08,3.7,16.76,16.76,0,0,1,0,19.05,9.78,9.78,0,0,1-8.08,3.75q-5.14,0-7.85-3.35h-1.1v2.7h-4.1V388.51h4.25v13.85h1.1Q936.36,399,941.55,399Zm-.95,22.8a6.81,6.81,0,0,0,5.73-2.62,12.88,12.88,0,0,0,0-13.85,7.65,7.65,0,0,0-11.65.12,12.67,12.67,0,0,0,0,13.6A6.81,6.81,0,0,0,940.6,421.81Z" transform="translate(-166.64 -206.42)"/>
    <path class="ede238d0-721c-4201-a8ec-ad814c5a2eeb" d="M981.1,410.76v1.45H961.9a11.43,11.43,0,0,0,2.15,7.08,7.17,7.17,0,0,0,5.9,2.52q5.2,0,6.4-3.9h4.3a8.71,8.71,0,0,1-3.42,5.5,11.76,11.76,0,0,1-7.28,2.1,11.29,11.29,0,0,1-9-3.75A14.39,14.39,0,0,1,957.7,412a13.49,13.49,0,0,1,3.25-9.45,11.5,11.5,0,0,1,8.9-3.55q5.35,0,8.25,3.38A12.74,12.74,0,0,1,981.1,410.76Zm-11.35-8.05a7.7,7.7,0,0,0-5.2,1.68,7,7,0,0,0-2.4,4.27H976.7a6.22,6.22,0,0,0-2.05-4.25A7,7,0,0,0,969.75,402.71Z" transform="translate(-166.64 -206.42)"/>
    <path class="ede238d0-721c-4201-a8ec-ad814c5a2eeb" d="M1002.1,399.66v4H1000a7.74,7.74,0,0,0-5.92,2.25,8.88,8.88,0,0,0-2.13,6.35v12.6H987.7v-25.2h4.1v3h1.1q2.4-3,7.3-3Z" transform="translate(-166.64 -206.42)"/>
    <path class="ede238d0-721c-4201-a8ec-ad814c5a2eeb" d="M1015.1,399.66h6.35v3.7h-6.35v13.85a3.76,3.76,0,0,0,1,2.93,5.19,5.19,0,0,0,3.47.92h1.85v3.8h-2c-2.87,0-5-.53-6.47-1.6s-2.18-2.88-2.18-5.45V403.36h-4.35v-3.7h4.35v-7.6h4.25Z" transform="translate(-166.64 -206.42)"/>
    <path class="ede238d0-721c-4201-a8ec-ad814c5a2eeb" d="M1035.25,434.86H1031l5.2-12.35-10.75-22.85H1030l7.7,16.6h1.25l7-16.6h4.45Z" transform="translate(-166.64 -206.42)"/>
    <path class="ede238d0-721c-4201-a8ec-ad814c5a2eeb" d="M1094.65,393.26H1074.2v11.6h16.55V409H1074.2v15.9h-4.5v-35.7h25Z" transform="translate(-166.64 -206.42)"/>
    <path class="ede238d0-721c-4201-a8ec-ad814c5a2eeb" d="M1105.45,393.11H1101v-4.6h4.5Zm-.15,6.55v25.2h-4.25v-25.2Z" transform="translate(-166.64 -206.42)"/>
    <path class="ede238d0-721c-4201-a8ec-ad814c5a2eeb" d="M1136.05,424.86h-4.25v-15.1q0-6.94-6.4-6.95a6.76,6.76,0,0,0-5.4,2.48,8.84,8.84,0,0,0-2.1,5.92v13.65h-4.25v-25.2h4.1v2.7h1.1a7.73,7.73,0,0,1,3.1-2.42,10.53,10.53,0,0,1,4.5-.93,9.34,9.34,0,0,1,7.1,2.63,10.06,10.06,0,0,1,2.5,7.22Z" transform="translate(-166.64 -206.42)"/>
    <path class="ede238d0-721c-4201-a8ec-ad814c5a2eeb" d="M1159.9,424.86v-2.65h-1.1c-1.74,2.2-4.35,3.3-7.85,3.3a9,9,0,0,1-6.6-2.4,7.79,7.79,0,0,1-2.45-5.8,8.12,8.12,0,0,1,2.4-5.9c1.6-1.63,4-2.45,7.25-2.45h8.2v-1a5,5,0,0,0-1.5-3.82,6.55,6.55,0,0,0-4.65-1.43q-5.5,0-5.85,3.65h-4.25a6.93,6.93,0,0,1,3-5.4,13.84,13.84,0,0,1,14.65.3,7.83,7.83,0,0,1,2.78,6.45v17.15Zm-7.9-3.05a7.89,7.89,0,0,0,5.45-2.07,6.61,6.61,0,0,0,2.3-5.08v-2.3h-7.55c-4,0-6,1.6-6,4.8a4.18,4.18,0,0,0,1.52,3.4A6.69,6.69,0,0,0,1152,421.81Z" transform="translate(-166.64 -206.42)"/>
    <path class="ede238d0-721c-4201-a8ec-ad814c5a2eeb" d="M1194.1,424.86h-4.25v-15.1q0-6.94-6.4-6.95a6.76,6.76,0,0,0-5.4,2.48,8.84,8.84,0,0,0-2.1,5.92v13.65h-4.25v-25.2h4.1v2.7h1.1a7.66,7.66,0,0,1,3.1-2.42,10.53,10.53,0,0,1,4.5-.93,9.36,9.36,0,0,1,7.1,2.63,10.06,10.06,0,0,1,2.5,7.22Z" transform="translate(-166.64 -206.42)"/>
    <path class="ede238d0-721c-4201-a8ec-ad814c5a2eeb" d="M1219,417.26h4.25a9.94,9.94,0,0,1-3.53,6,11,11,0,0,1-7.07,2.22,11.35,11.35,0,0,1-9-3.72,15.59,15.59,0,0,1,0-19.08,11.36,11.36,0,0,1,9-3.7,11,11,0,0,1,7.07,2.18,9.23,9.23,0,0,1,3.38,5.77h-4.25q-1.35-4.24-6.2-4.25a7,7,0,0,0-6,2.68,11.06,11.06,0,0,0-2,6.77,11.37,11.37,0,0,0,2,6.9,6.94,6.94,0,0,0,6,2.75Q1217.9,421.81,1219,417.26Z" transform="translate(-166.64 -206.42)"/>
    <path class="ede238d0-721c-4201-a8ec-ad814c5a2eeb" d="M1251.4,410.76v1.45h-19.2a11.31,11.31,0,0,0,2.15,7.08,7.15,7.15,0,0,0,5.9,2.52c3.46,0,5.6-1.3,6.4-3.9h4.3a8.76,8.76,0,0,1-3.43,5.5,11.73,11.73,0,0,1-7.27,2.1,11.26,11.26,0,0,1-9-3.75A14.34,14.34,0,0,1,1228,412q0-5.89,3.25-9.45a11.47,11.47,0,0,1,8.9-3.55q5.34,0,8.25,3.38A12.84,12.84,0,0,1,1251.4,410.76Zm-11.35-8.05a7.69,7.69,0,0,0-5.2,1.68,7,7,0,0,0-2.4,4.27H1247a6.27,6.27,0,0,0-2-4.25A7,7,0,0,0,1240.05,402.71Z" transform="translate(-166.64 -206.42)"/>
  </g>
</svg>