<svg id="b473a3dc-0ec1-420f-98f0-2b7fea07b756" data-name="Layer 1" xmlns="http://www.w3.org/2000/svg" viewBox="0 0 1252.3628 320.3367">
  <defs>
    <style>
      .b70582b4-036c-461e-938b-e03d92250395 {
        opacity: 0.95;
      }

      .be7e7e57-00b1-475e-9c9c-2f57897df1fa {
        fill: #333738;
      }

      .be7e7e57-00b1-475e-9c9c-2f57897df1fa, .e7c008fc-e239-4368-a317-030c6ffbec52 {
        stroke: #f2f2f2;
        stroke-linecap: round;
        stroke-linejoin: round;
        stroke-width: 7px;
      }

      .e7c008fc-e239-4368-a317-030c6ffbec52 {
        fill: none;
      }

      .b3f50cb8-5050-44fe-8e28-caa3fad50462 {
        fill: #bdc2c6;
      }

      .a4b52678-ccb4-4326-8204-7cc9dba83943 {
        fill: gray;
      }
    </style>
  </defs>
  <title>ALCORLOGONAKEQ</title>
  <g class="b70582b4-036c-461e-938b-e03d92250395">
    <polygon class="be7e7e57-00b1-475e-9c9c-2f57897df1fa" points="113.305 316.837 3.5 209.929 113.305 3.5 223.11 209.929 113.305 316.837"/>
    <line class="e7c008fc-e239-4368-a317-030c6ffbec52" x1="100.3031" y1="234.5685" x2="3.5" y2="209.9287"/>
    <line class="e7c008fc-e239-4368-a317-030c6ffbec52" x1="223.1098" y1="209.9287" x2="127.5825" y2="234.5685"/>
    <polygon class="e7c008fc-e239-4368-a317-030c6ffbec52" points="113.305 316.837 76.007 73.619 150.603 73.619 113.305 316.837"/>
    <line class="e7c008fc-e239-4368-a317-030c6ffbec52" x1="3.5" y1="209.9287" x2="113.3049" y2="177.6751"/>
    <line class="e7c008fc-e239-4368-a317-030c6ffbec52" x1="223.1097" y1="209.9287" x2="113.3048" y2="177.6751"/>
  </g>
  <g>
    <path class="b3f50cb8-5050-44fe-8e28-caa3fad50462" d="M414.4978,360q-3.6382,0-3.6357-2.8712v-3.7777q0-2.72,3.6357-2.7207h42.8388q-7.1137-15.1092-13.9109-29.997-6.7982-14.8829-13.7524-30.45l-31.2994,68.004A3.5686,3.5686,0,0,1,394.8961,360H389.68a3.9106,3.9106,0,0,1-3.1618-1.1337,2.2091,2.2091,0,0,1-.158-2.6446l33.6707-72.5369v.3022a7.7326,7.7326,0,0,1,3.7145-3.5514A12.3714,12.3714,0,0,1,429.515,279a13.0387,13.0387,0,0,1,5.77,1.4356,7.6973,7.6973,0,0,1,3.8729,3.5514v-.3022q8.5356,18.2863,16.5982,36.2685,8.0616,17.9851,16.5982,36.2684a2.3991,2.3991,0,0,1-.3166,2.6446A3.9127,3.9127,0,0,1,468.8763,360Z" transform="translate(-58.6372 -206.4155)"/>
    <path class="b3f50cb8-5050-44fe-8e28-caa3fad50462" d="M550.7593,350.63q3.32,0,3.32,2.7207v3.7777q0,2.8721-3.32,2.8712h-33.354a28.65,28.65,0,0,1-10.5912-1.813,24.3241,24.3241,0,0,1-7.7457-4.761,19.7063,19.7063,0,0,1-4.7426-6.5734,18.35,18.35,0,0,1-1.58-7.4049V281.8712q0-2.8689,3.3192-2.8712h4.7425q3.6342,0,3.6357,2.8712v55.4613a13.1655,13.1655,0,0,0,.87,4.6087A12.8648,12.8648,0,0,0,508,346.2477a13.4741,13.4741,0,0,0,4.5842,3.174,15.8226,15.8226,0,0,0,6.4024,1.2087Z" transform="translate(-58.6372 -206.4155)"/>
    <path class="b3f50cb8-5050-44fe-8e28-caa3fad50462" d="M601.3453,288.3694a15.8656,15.8656,0,0,0-6.4023,1.2089,13.5435,13.5435,0,0,0-4.5843,3.1734,12.7513,12.7513,0,0,0-2.6872,4.3827,13.7938,13.7938,0,0,0-.87,4.6845v35.5136a13.1655,13.1655,0,0,0,.87,4.6087,12.8648,12.8648,0,0,0,2.6872,4.3065,13.4736,13.4736,0,0,0,4.5843,3.174,15.8217,15.8217,0,0,0,6.4023,1.2087h31.7731q3.32,0,3.32,2.7207v3.7777q0,2.8721-3.32,2.8712H599.7643a28.6511,28.6511,0,0,1-10.5912-1.813,24.3252,24.3252,0,0,1-7.7457-4.761,19.7059,19.7059,0,0,1-4.7425-6.5734,18.35,18.35,0,0,1-1.58-7.4049V299.7034a18.5508,18.5508,0,0,1,1.58-7.3294,19.5036,19.5036,0,0,1,4.7425-6.6492,25.4362,25.4362,0,0,1,7.7457-4.8359A27.6407,27.6407,0,0,1,599.7643,279h33.3541q3.32,0,3.32,2.8712v3.778q0,2.72-3.32,2.72Z" transform="translate(-58.6372 -206.4155)"/>
    <path class="b3f50cb8-5050-44fe-8e28-caa3fad50462" d="M680.2263,360q-11.856,0-16.8353-4.9115a16.9549,16.9549,0,0,1-4.979-12.6179V296.6811a17.2108,17.2108,0,0,1,4.979-12.6941Q668.3707,279,680.3846,279h20.2339q12.0117,0,16.993,4.987a17.2086,17.2086,0,0,1,4.98,12.6941v45.7895a17.1051,17.1051,0,0,1-4.9,12.6179q-4.9023,4.9127-16.9142,4.9115Zm18.9695-9.37q7.2693,0,9.4056-2.3425,2.134-2.3412,2.1341-7.9337V298.7966a11.39,11.39,0,0,0-2.45-7.405q-2.4534-3.021-9.4056-3.0222H682.1233a18.4488,18.4488,0,0,0-6.0069.8312,9.5891,9.5891,0,0,0-3.7146,2.191,6.9411,6.9411,0,0,0-1.8182,3.2493,17.08,17.08,0,0,0-.4742,4.1557v41.5576a20.1921,20.1921,0,0,0,.4742,4.6848,6.4669,6.4669,0,0,0,1.8182,3.2489,7.6376,7.6376,0,0,0,3.7146,1.8137,28.2081,28.2081,0,0,0,6.0069.5288Z" transform="translate(-58.6372 -206.4155)"/>
    <path class="b3f50cb8-5050-44fe-8e28-caa3fad50462" d="M807.7928,360a3.5864,3.5864,0,0,1-1.66-.4533,5.8808,5.8808,0,0,1-1.3433-.9065l-28.9282-38.838a2.1022,2.1022,0,0,1-.2371-2.8712,3.7951,3.7951,0,0,1,3.24-1.36h4.2683a17.0106,17.0106,0,0,0,11.46-3.8536,12.2746,12.2746,0,0,0,4.5054-9.747q0-6.8007-4.5054-10.2006a18.4967,18.4967,0,0,0-11.46-3.4H748.988q-3.32,0-3.32-2.72v-3.778q0-2.8689,3.32-2.8712h34.1449a37.1464,37.1464,0,0,1,11.46,1.6622,27.0155,27.0155,0,0,1,8.7736,4.6093,19.9011,19.9011,0,0,1,5.6116,7.2536,22.3953,22.3953,0,0,1,1.9758,9.4452,17.19,17.19,0,0,1-1.58,7.3291,26.1373,26.1373,0,0,1-4.11,6.2715,28.2066,28.2066,0,0,1-5.77,4.987,32.0117,32.0117,0,0,1-6.56,3.3245l24.3439,31.886a2.1792,2.1792,0,0,1,.316,2.8718,3.5821,3.5821,0,0,1-3.1615,1.36Zm-54.0623-62.8656q3.6342,0,3.6357,2.8712v57.1232q0,2.8721-3.6357,2.8712H748.988q-3.32,0-3.32-2.8712V300.0056q0-2.8691,3.32-2.8712Z" transform="translate(-58.6372 -206.4155)"/>
  </g>
  <g>
    <path class="a4b52678-ccb4-4326-8204-7cc9dba83943" d="M386,399.3452h16.2691q9.81,0,14.9587,6.16t5.149,16.75q0,10.5887-5.1793,16.749t-14.9284,6.16H386Zm5.4839,40.5584h10.7852q7.4333,0,10.9981-4.9095t3.5649-12.7382q0-7.8286-3.5649-12.7394-3.564-4.9089-10.9981-4.9083H391.4839Z" transform="translate(-58.6372 -206.4155)"/>
    <path class="a4b52678-ccb4-4326-8204-7cc9dba83943" d="M457.3522,427.0689v1.86H433.9539q.1214,5.8415,2.62,9.0808a8.5333,8.5333,0,0,0,7.19,3.2413q6.3372,0,7.8-5.0061h5.24a11.3054,11.3054,0,0,1-4.1736,7.0591A13.7994,13.7994,0,0,1,443.7638,446q-7.0075,0-10.9678-4.813t-3.9607-12.5139q0-7.5729,3.9607-12.129t10.8464-4.5561q6.5193,0,10.0538,4.3317A16.9935,16.9935,0,0,1,457.3522,427.0689ZM443.52,416.736a8.7695,8.7695,0,0,0-9.2618,7.6369H451.99a8.0191,8.0191,0,0,0-8.4693-7.6369Z" transform="translate(-58.6372 -206.4155)"/>
    <path class="a4b52678-ccb4-4326-8204-7cc9dba83943" d="M486.1719,435.4114h5.1792A12.3346,12.3346,0,0,1,478.4334,446q-6.9461,0-10.9369-4.7817-3.9917-4.7791-3.9916-12.2243,0-7.509,3.9606-12.2581,3.96-4.7472,10.9679-4.7479a12.9446,12.9446,0,0,1,8.6221,2.7913,11.9809,11.9809,0,0,1,4.113,7.4113h-5.1793q-1.645-5.4522-7.5558-5.4547-4.935,0-7.3423,3.4342a14.7935,14.7935,0,0,0-2.4069,8.6948,15.2232,15.2232,0,0,0,2.4373,8.8564,8.2957,8.2957,0,0,0,7.3119,3.53Q484.892,441.251,486.1719,435.4114Z" transform="translate(-58.6372 -206.4155)"/>
    <path class="a4b52678-ccb4-4326-8204-7cc9dba83943" d="M525.7166,427.0689v1.86H502.3184q.1214,5.8415,2.62,9.0808a8.5335,8.5335,0,0,0,7.19,3.2413q6.3374,0,7.8-5.0061h5.24a11.3058,11.3058,0,0,1-4.1736,7.0591A13.8,13.8,0,0,1,512.1282,446q-7.0074,0-10.9678-4.813T497.2,428.6732q0-7.5729,3.9606-12.129t10.8465-4.5561q6.5193,0,10.0538,4.3317A16.9935,16.9935,0,0,1,525.7166,427.0689ZM511.8849,416.736a8.77,8.77,0,0,0-9.2619,7.6369h17.7311a8.019,8.019,0,0,0-8.4692-7.6369Z" transform="translate(-58.6372 -206.4155)"/>
    <path class="a4b52678-ccb4-4326-8204-7cc9dba83943" d="M561.0568,445.1653h-5.1792v-19.38q0-8.919-7.7992-8.92a8.0738,8.0738,0,0,0-6.5806,3.176,11.7417,11.7417,0,0,0-2.5593,7.6044v17.52h-5.1793V412.8216h4.9966v3.4657h1.34a9.599,9.599,0,0,1,3.7779-3.1122,12.3649,12.3649,0,0,1,5.4839-1.187q5.6054,0,8.6525,3.3691t3.0466,9.2726Z" transform="translate(-58.6372 -206.4155)"/>
    <path class="a4b52678-ccb4-4326-8204-7cc9dba83943" d="M577.6907,412.8216h7.7379v4.7491h-7.7379v17.7756a4.973,4.973,0,0,0,1.249,3.7551q1.2477,1.1883,4.2349,1.187h2.254v4.8769h-2.376q-5.2412,0-7.8909-2.053t-2.65-6.9952V417.5707H567.21v-4.7491h5.3012v-9.7538h5.1793Z" transform="translate(-58.6372 -206.4155)"/>
    <path class="a4b52678-ccb4-4326-8204-7cc9dba83943" d="M611.5069,412.8216v5.1339h-2.5586a9.2006,9.2006,0,0,0-7.2215,2.8878q-2.59,2.8878-2.589,8.1508v16.1712h-5.1793V412.8216h4.9966v3.85h1.34q2.9259-3.85,8.8959-3.85Z" transform="translate(-58.6372 -206.4155)"/>
    <path class="a4b52678-ccb4-4326-8204-7cc9dba83943" d="M637.8293,445.1653v-3.4017H636.488q-3.1686,4.2358-9.5659,4.2365a10.6842,10.6842,0,0,1-8.0438-3.0809,10.3064,10.3064,0,0,1-2.9847-7.4438,10.7285,10.7285,0,0,1,2.924-7.573q2.9259-3.1436,8.8352-3.1448h9.9932v-1.2834a6.6328,6.6328,0,0,0-1.828-4.9083q-1.8279-1.8292-5.6672-1.83-6.703,0-7.1286,4.6851H617.843a9.0242,9.0242,0,0,1,3.625-6.9312,13.8415,13.8415,0,0,1,8.5614-2.5018q5.9088,0,9.2922,2.8878,3.381,2.8878,3.3822,8.2774v22.012Zm-9.6278-3.9143a9.3177,9.3177,0,0,0,6.6418-2.6635,8.644,8.644,0,0,0,2.8027-6.5138v-2.9518h-9.2006q-7.3743,0-7.3725,6.16a5.4657,5.4657,0,0,0,1.8577,4.3643A7.8255,7.8255,0,0,0,628.2015,441.251Z" transform="translate(-58.6372 -206.4155)"/>
    <path class="a4b52678-ccb4-4326-8204-7cc9dba83943" d="M652.2079,398.5117h5.1792v46.6536h-5.1792Z" transform="translate(-58.6372 -206.4155)"/>
    <path class="a4b52678-ccb4-4326-8204-7cc9dba83943" d="M672.8642,404.4152H667.38v-5.9035h5.4839Zm-.1821,8.4064v32.3437h-5.1792V412.8216Z" transform="translate(-58.6372 -206.4155)"/>
    <path class="a4b52678-ccb4-4326-8204-7cc9dba83943" d="M706.3151,445.1653h-25.53v-6.16l18.7058-20.0868v-1.3474h-17.67v-4.7491H706.133v6.0965l-18.645,20.0868v1.4113h18.8271Z" transform="translate(-58.6372 -206.4155)"/>
    <path class="a4b52678-ccb4-4326-8204-7cc9dba83943" d="M740.8645,427.0689v1.86H717.4662q.1214,5.8415,2.6206,9.0808a8.5308,8.5308,0,0,0,7.1893,3.2413q6.3372,0,7.8-5.0061h5.24a11.3055,11.3055,0,0,1-4.1737,7.0591A13.8005,13.8005,0,0,1,727.2761,446q-7.0067,0-10.9678-4.813t-3.9606-12.5139q0-7.5729,3.9606-12.129t10.8464-4.5561q6.5193,0,10.0538,4.3317A16.9935,16.9935,0,0,1,740.8645,427.0689ZM727.0321,416.736a8.77,8.77,0,0,0-9.2612,7.6369H735.502a8.0191,8.0191,0,0,0-8.47-7.6369Z" transform="translate(-58.6372 -206.4155)"/>
    <path class="a4b52678-ccb4-4326-8204-7cc9dba83943" d="M771.2081,398.5117h5.1793v46.6536H771.39V441.7h-1.34q-3.29,4.3-9.5671,4.3a11.6663,11.6663,0,0,1-9.84-4.813q-3.6273-4.813-3.6262-12.193,0-7.509,3.6262-12.2581a11.7234,11.7234,0,0,1,9.84-4.7479q6.2157,0,9.3838,4.2992h1.3412ZM761.641,441.251a8.1587,8.1587,0,0,0,7.22-3.53,17.0245,17.0245,0,0,0,0-17.4559,9.03,9.03,0,0,0-14.1966-.16,17.2384,17.2384,0,0,0,0,17.7768A8.1382,8.1382,0,0,0,761.641,441.251Z" transform="translate(-58.6372 -206.4155)"/>
    <path class="a4b52678-ccb4-4326-8204-7cc9dba83943" d="M831.2253,423.9881h5.1186a27.5554,27.5554,0,0,1-4.3879,12.3859l8.1045,8.7913h-6.5812l-4.0213-4.3643h-1.34A16.9136,16.9136,0,0,1,815.9315,446a15.04,15.04,0,0,1-10.1455-3.3691q-3.9307-3.3691-3.93-9.4017a13.0916,13.0916,0,0,1,1.7363-6.7069,14.58,14.58,0,0,1,4.3569-4.78l1.7661-1.22v-1.4113l-1.2186-1.4765a12.972,12.972,0,0,1-3.3513-8.3425,9.586,9.586,0,0,1,2.8336-7.1869,10.1645,10.1645,0,0,1,7.4035-2.76,11.3612,11.3612,0,0,1,7.7689,2.696,9.0088,9.0088,0,0,1,3.0775,7.123q0,5.39-6.0325,9.8178l-2.498,1.8613,10.7846,11.7443A22.8232,22.8232,0,0,0,831.2253,423.9881ZM815.8708,440.994a12.627,12.627,0,0,0,9.6873-4.4282l-11.8818-13.0264-2.1326,1.4752a9.42,9.42,0,0,0-4.57,8.1508,7.0043,7.0043,0,0,0,2.56,5.743A9.6966,9.6966,0,0,0,815.8708,440.994Zm-2.8645-25.2846,1.7066,1.9252,2.498-1.9252q4.0218-3.0795,4.0213-6.4812a4.74,4.74,0,0,0-1.6447-3.7865,6.0582,6.0582,0,0,0-4.0832-1.4113,5.5244,5.5244,0,0,0-3.8987,1.3474,5.0561,5.0561,0,0,0-1.4627,3.9143A9.8734,9.8734,0,0,0,813.0063,415.7094Z" transform="translate(-58.6372 -206.4155)"/>
    <path class="a4b52678-ccb4-4326-8204-7cc9dba83943" d="M870.1006,439.7106h24.4337v5.4547H864.6167v-45.82h5.4839Z" transform="translate(-58.6372 -206.4155)"/>
    <path class="a4b52678-ccb4-4326-8204-7cc9dba83943" d="M907.511,404.4152h-5.4839v-5.9035h5.4839Zm-.1821,8.4064v32.3437H902.15V412.8216Z" transform="translate(-58.6372 -206.4155)"/>
    <path class="a4b52678-ccb4-4326-8204-7cc9dba83943" d="M933.4084,411.9881a11.7249,11.7249,0,0,1,9.84,4.7479q3.6255,4.7509,3.6262,12.2581,0,7.3792-3.6262,12.193a11.6678,11.6678,0,0,1-9.84,4.813q-6.2765,0-9.5671-4.3h-1.34v3.4656h-4.9972V398.5117h5.1793v17.7756h1.3412Q927.07,411.9894,933.4084,411.9881Zm-1.1579,29.2629a8.14,8.14,0,0,0,6.9763-3.3691,17.2384,17.2384,0,0,0,0-17.7768,9.03,9.03,0,0,0-14.1966.16,17.0245,17.0245,0,0,0,0,17.4559A8.1574,8.1574,0,0,0,932.2505,441.251Z" transform="translate(-58.6372 -206.4155)"/>
    <path class="a4b52678-ccb4-4326-8204-7cc9dba83943" d="M981.6057,427.0689v1.86H958.2074q.1215,5.8415,2.6206,9.0808a8.5308,8.5308,0,0,0,7.1893,3.2413q6.3372,0,7.8-5.0061h5.24a11.3058,11.3058,0,0,1-4.1736,7.0591A13.8008,13.8008,0,0,1,968.0173,446q-7.0067,0-10.9678-4.813t-3.9606-12.5139q0-7.5729,3.9606-12.129t10.8464-4.5561q6.5193,0,10.0539,4.3317A16.9935,16.9935,0,0,1,981.6057,427.0689ZM967.7734,416.736a8.77,8.77,0,0,0-9.2613,7.6369h17.7311a8.0191,8.0191,0,0,0-8.47-7.6369Z" transform="translate(-58.6372 -206.4155)"/>
    <path class="a4b52678-ccb4-4326-8204-7cc9dba83943" d="M1007.1961,412.8216v5.1339h-2.5587a9.2,9.2,0,0,0-7.2214,2.8878q-2.59,2.8878-2.59,8.1508v16.1712h-5.1793V412.8216h4.9972v3.85h1.34q2.9259-3.85,8.8959-3.85Z" transform="translate(-58.6372 -206.4155)"/>
    <path class="a4b52678-ccb4-4326-8204-7cc9dba83943" d="M1023.0374,412.8216h7.7379v4.7491h-7.7379v17.7756a4.9729,4.9729,0,0,0,1.2484,3.7551q1.2495,1.1883,4.2355,1.187h2.254v4.8769h-2.3766q-5.2411,0-7.89-2.053-2.6508-2.053-2.65-6.9952V417.5707h-5.3018v-4.7491h5.3018v-9.7538h5.1793Z" transform="translate(-58.6372 -206.4155)"/>
    <path class="a4b52678-ccb4-4326-8204-7cc9dba83943" d="M1047.5924,458h-5.2411l6.3372-15.85-13.1005-29.3281h5.5446l9.3838,21.3064h1.5233l8.5306-21.3064h5.4232Z" transform="translate(-58.6372 -206.4155)"/>
    <path class="a4b52678-ccb4-4326-8204-7cc9dba83943" d="M1119.9794,404.6082h-24.9216v14.8877h20.1684v5.2617h-20.1684v20.4077h-5.4839v-45.82h30.4055Z" transform="translate(-58.6372 -206.4155)"/>
    <path class="a4b52678-ccb4-4326-8204-7cc9dba83943" d="M1133.1393,404.4152h-5.4839v-5.9035h5.4839Zm-.1821,8.4064v32.3437h-5.1792V412.8216Z" transform="translate(-58.6372 -206.4155)"/>
    <path class="a4b52678-ccb4-4326-8204-7cc9dba83943" d="M1170.4307,445.1653h-5.1793v-19.38q0-8.919-7.8-8.92a8.0734,8.0734,0,0,0-6.58,3.176,11.7422,11.7422,0,0,0-2.56,7.6044v17.52h-5.1792V412.8216h4.9971v3.4657h1.34a9.601,9.601,0,0,1,3.7785-3.1122,12.3576,12.3576,0,0,1,5.4839-1.187q5.6054,0,8.6519,3.3691t3.0467,9.2726Z" transform="translate(-58.6372 -206.4155)"/>
    <path class="a4b52678-ccb4-4326-8204-7cc9dba83943" d="M1199.4949,445.1653v-3.4017h-1.3412q-3.1686,4.2358-9.5659,4.2365a10.6841,10.6841,0,0,1-8.0438-3.0809,10.3064,10.3064,0,0,1-2.9847-7.4438,10.728,10.728,0,0,1,2.924-7.573q2.9259-3.1436,8.8352-3.1448h9.9932v-1.2834a6.6332,6.6332,0,0,0-1.828-4.9083q-1.828-1.8292-5.6672-1.83-6.7032,0-7.1286,4.6851h-5.1793a9.0245,9.0245,0,0,1,3.625-6.9312,13.842,13.842,0,0,1,8.5615-2.5018q5.9088,0,9.2922,2.8878,3.381,2.8878,3.3822,8.2774v22.012Zm-9.6278-3.9143a9.3177,9.3177,0,0,0,6.6419-2.6635,8.6444,8.6444,0,0,0,2.8027-6.5138v-2.9518h-9.2006q-7.3743,0-7.3726,6.16a5.466,5.466,0,0,0,1.8577,4.3643A7.8257,7.8257,0,0,0,1189.8671,441.251Z" transform="translate(-58.6372 -206.4155)"/>
    <path class="a4b52678-ccb4-4326-8204-7cc9dba83943" d="M1241.1717,445.1653h-5.1792v-19.38q0-8.919-7.8-8.92a8.0734,8.0734,0,0,0-6.58,3.176,11.7422,11.7422,0,0,0-2.56,7.6044v17.52h-5.1793V412.8216h4.9972v3.4657h1.34a9.6021,9.6021,0,0,1,3.7786-3.1122,12.3573,12.3573,0,0,1,5.4839-1.187q5.6054,0,8.6519,3.3691t3.0466,9.2726Z" transform="translate(-58.6372 -206.4155)"/>
    <path class="a4b52678-ccb4-4326-8204-7cc9dba83943" d="M1271.4546,435.4114h5.1793A12.3357,12.3357,0,0,1,1263.7155,446q-6.9459,0-10.9369-4.7817-3.9915-4.7791-3.9915-12.2243,0-7.509,3.9606-12.2581,3.9612-4.7472,10.9678-4.7479a12.9449,12.9449,0,0,1,8.6222,2.7913,11.9812,11.9812,0,0,1,4.1129,7.4113h-5.1792q-1.646-5.4522-7.5559-5.4547-4.9359,0-7.3416,3.4342a14.7893,14.7893,0,0,0-2.4076,8.6948,15.2284,15.2284,0,0,0,2.4373,8.8564,8.2959,8.2959,0,0,0,7.3119,3.53Q1270.174,441.251,1271.4546,435.4114Z" transform="translate(-58.6372 -206.4155)"/>
    <path class="a4b52678-ccb4-4326-8204-7cc9dba83943" d="M1311,427.0689v1.86h-23.3983q.1215,5.8415,2.6206,9.0808a8.5308,8.5308,0,0,0,7.1893,3.2413q6.3372,0,7.8-5.0061h5.24a11.3055,11.3055,0,0,1-4.1737,7.0591A13.8005,13.8005,0,0,1,1297.4116,446q-7.0066,0-10.9678-4.813t-3.9606-12.5139q0-7.5729,3.9606-12.129t10.8464-4.5561q6.5193,0,10.0539,4.3317A16.994,16.994,0,0,1,1311,427.0689Zm-13.8324-10.3329a8.77,8.77,0,0,0-9.2612,7.6369h17.7311a8.0191,8.0191,0,0,0-8.47-7.6369Z" transform="translate(-58.6372 -206.4155)"/>
  </g>
</svg>
