<svg id="b595703c-f17b-45ac-934e-d34f842ae2d9" data-name="Layer 1" xmlns="http://www.w3.org/2000/svg" viewBox="0 0 1037.52 320.34">
  <defs>
    <style>
      .e1c162ba-e672-4145-b1e9-fa7dcb770481 {
        opacity: 0.95;
      }

      .bbdefb45-a7d2-4ce0-8048-9830cfc0952a {
        fill: #333738;
      }

      .a90a28cf-cff2-4dd6-8ab9-82cc32d7aa79, .bbdefb45-a7d2-4ce0-8048-9830cfc0952a {
        stroke: #f2f2f2;
        stroke-linecap: round;
        stroke-linejoin: round;
        stroke-width: 7px;
      }

      .a90a28cf-cff2-4dd6-8ab9-82cc32d7aa79 {
        fill: none;
      }

      .b77e305a-40a7-4900-9479-6029b1eb3053 {
        fill: #bdc2c6;
      }
    </style>
  </defs>
  <title>alcorlogo</title>
  <g class="e1c162ba-e672-4145-b1e9-fa7dcb770481">
    <polygon class="bbdefb45-a7d2-4ce0-8048-9830cfc0952a" points="113.31 316.84 3.5 209.93 113.31 3.5 223.11 209.93 113.31 316.84"/>
    <line class="a90a28cf-cff2-4dd6-8ab9-82cc32d7aa79" x1="100.3" y1="234.57" x2="3.5" y2="209.93"/>
    <line class="a90a28cf-cff2-4dd6-8ab9-82cc32d7aa79" x1="223.11" y1="209.93" x2="127.58" y2="234.57"/>
    <polygon class="a90a28cf-cff2-4dd6-8ab9-82cc32d7aa79" points="113.31 316.84 76.01 73.62 150.6 73.62 113.31 316.84"/>
    <line class="a90a28cf-cff2-4dd6-8ab9-82cc32d7aa79" x1="3.5" y1="209.93" x2="113.3" y2="177.68"/>
    <line class="a90a28cf-cff2-4dd6-8ab9-82cc32d7aa79" x1="223.11" y1="209.93" x2="113.3" y2="177.68"/>
  </g>
  <g>
    <path class="b77e305a-40a7-4900-9479-6029b1eb3053" d="M543.8,440q-6,0-5.95-4.71v-6.2q0-4.47,5.95-4.47h70.11q-11.64-24.79-22.77-49.24t-22.5-50L517.41,437q-1.54,3-5.69,3h-8.54c-2.41,0-4.14-.62-5.17-1.86a3.63,3.63,0,0,1-.26-4.34l55.1-119.08v.5a12.7,12.7,0,0,1,6.08-5.83,20.23,20.23,0,0,1,9.45-2.36,21.28,21.28,0,0,1,9.44,2.36q4.78,2.36,6.34,5.83v-.5q14,30,27.16,59.54t27.17,59.54a4,4,0,0,1-.52,4.34c-1,1.24-2.76,1.86-5.18,1.86Z" transform="translate(-166.64 -206.42)"/>
    <path class="b77e305a-40a7-4900-9479-6029b1eb3053" d="M766.8,424.58c3.62,0,5.44,1.49,5.44,4.47v6.2c0,3.14-1.82,4.71-5.44,4.71H712.22a46.87,46.87,0,0,1-17.34-3,39.73,39.73,0,0,1-12.67-7.82,32.32,32.32,0,0,1-7.77-10.79,30.3,30.3,0,0,1-2.58-12.16V311.71c0-3.14,1.81-4.72,5.43-4.72h7.76c4,0,6,1.58,6,4.72v91a21.72,21.72,0,0,0,1.42,7.57,21.38,21.38,0,0,0,4.4,7.07,22.2,22.2,0,0,0,7.51,5.21,25.87,25.87,0,0,0,10.47,2Z" transform="translate(-166.64 -206.42)"/>
    <path class="b77e305a-40a7-4900-9479-6029b1eb3053" d="M849.59,322.37a26,26,0,0,0-10.48,2,22,22,0,0,0-7.5,5.21,20.94,20.94,0,0,0-4.4,7.19,22.71,22.71,0,0,0-1.42,7.69v58.3a21.72,21.72,0,0,0,1.42,7.57,21.22,21.22,0,0,0,4.4,7.07,22.16,22.16,0,0,0,7.5,5.21,26,26,0,0,0,10.48,2h52q5.43,0,5.43,4.47v6.2q0,4.71-5.43,4.71H847a46.85,46.85,0,0,1-17.33-3A39.78,39.78,0,0,1,817,429.17a32.29,32.29,0,0,1-7.76-10.79,30.31,30.31,0,0,1-2.59-12.16V341a30.61,30.61,0,0,1,2.59-12A32.07,32.07,0,0,1,817,318a41.68,41.68,0,0,1,12.68-7.94A45.23,45.23,0,0,1,847,307h54.59c3.62,0,5.43,1.58,5.43,4.72v6.2c0,3-1.81,4.46-5.43,4.46Z" transform="translate(-166.64 -206.42)"/>
    <path class="b77e305a-40a7-4900-9479-6029b1eb3053" d="M978.68,440q-19.39,0-27.55-8.06T943,411.19V336q0-12.66,8.15-20.84T978.94,307h33.12q19.65,0,27.81,8.19T1048,336v75.17q0,12.65-8,20.71T1012.32,440Zm31.05-15.38q11.89,0,15.39-3.84t3.49-13V339.49a18.73,18.73,0,0,0-4-12.15q-4-5-15.4-5H981.79a30,30,0,0,0-9.83,1.37,15.61,15.61,0,0,0-6.08,3.6,11.34,11.34,0,0,0-3,5.33,28.47,28.47,0,0,0-.77,6.82v68.22a33.66,33.66,0,0,0,.77,7.69,10.69,10.69,0,0,0,3,5.34,12.46,12.46,0,0,0,6.08,3,46.08,46.08,0,0,0,9.83.87Z" transform="translate(-166.64 -206.42)"/>
    <path class="b77e305a-40a7-4900-9479-6029b1eb3053" d="M1187.46,440a5.93,5.93,0,0,1-2.72-.74,9.71,9.71,0,0,1-2.2-1.49L1135.2,374q-2.07-2.48-.39-4.71t5.3-2.23h7q11.39,0,18.75-6.33a20.17,20.17,0,0,0,7.38-16q0-11.16-7.38-16.74t-18.75-5.59h-55.88c-3.62,0-5.44-1.48-5.44-4.46v-6.2c0-3.14,1.82-4.72,5.44-4.72h55.88a60.51,60.51,0,0,1,18.75,2.73,44,44,0,0,1,14.36,7.57,32.55,32.55,0,0,1,9.19,11.91,36.9,36.9,0,0,1,3.23,15.5,28.17,28.17,0,0,1-2.59,12,43,43,0,0,1-6.72,10.3,46,46,0,0,1-9.45,8.18,52,52,0,0,1-10.73,5.46L1203,433q2.07,2.48.52,4.71c-1,1.49-2.76,2.23-5.18,2.23ZM1099,336.76c4,0,6,1.58,6,4.72v93.77c0,3.14-2,4.71-6,4.71h-7.76c-3.62,0-5.44-1.57-5.44-4.71V341.48c0-3.14,1.82-4.72,5.44-4.72Z" transform="translate(-166.64 -206.42)"/>
  </g>
</svg>
