<svg id="a2bd205d-51e8-44c8-a327-3b5d919d3bc9" data-name="Layer 1" xmlns="http://www.w3.org/2000/svg" viewBox="0 0 1084.92 320.34">
  <defs>
    <style>
      .fc9670c8-270d-4269-a54c-4eabcba40f6f {
        fill: #514e4e;
      }

      .e90f5421-d6bf-4ea5-93ca-094becaa62fe {
        opacity: 0.95;
      }

      .a83d2c4b-5233-435b-ad07-28c05cf55d77 {
        fill: #f2f2f2;
      }

      .a83d2c4b-5233-435b-ad07-28c05cf55d77, .af0c1761-ddbe-4d35-a334-37833d813450 {
        stroke: #333;
        stroke-linecap: round;
        stroke-linejoin: round;
        stroke-width: 7px;
      }

      .af0c1761-ddbe-4d35-a334-37833d813450 {
        fill: none;
      }

      .e7e1b0ee-1a65-4e5a-aee5-fc0ba3682ded {
        fill: gray;
      }
    </style>
  </defs>
  <title>ALCORLOGONAKED</title>
  <g>
    <path class="fc9670c8-270d-4269-a54c-4eabcba40f6f" d="M522.5,360q-3.64,0-3.64-2.87v-3.78q0-2.72,3.64-2.72h42.84q-7.12-15.11-13.91-30t-13.76-30.45l-31.3,68A3.55,3.55,0,0,1,502.9,360h-5.22a3.92,3.92,0,0,1-3.16-1.13,2.22,2.22,0,0,1-.16-2.65L528,283.68V284a7.67,7.67,0,0,1,3.72-3.55,12.29,12.29,0,0,1,5.76-1.44,13.05,13.05,0,0,1,5.78,1.44,7.68,7.68,0,0,1,3.87,3.55v-.31Q555.7,302,563.76,320t16.59,36.27a2.41,2.41,0,0,1-.31,2.65,3.93,3.93,0,0,1-3.16,1.13Z" transform="translate(-166.28 -205.88)"/>
    <path class="fc9670c8-270d-4269-a54c-4eabcba40f6f" d="M658.76,350.63q3.32,0,3.32,2.72v3.78q0,2.87-3.32,2.87H625.41a28.68,28.68,0,0,1-10.6-1.81,24.51,24.51,0,0,1-7.74-4.76,19.72,19.72,0,0,1-4.74-6.58,18.24,18.24,0,0,1-1.58-7.4V281.87q0-2.87,3.31-2.87h4.75q3.63,0,3.63,2.87v55.46a13.18,13.18,0,0,0,.87,4.61,13,13,0,0,0,2.69,4.31,13.43,13.43,0,0,0,4.58,3.17,15.83,15.83,0,0,0,6.41,1.21Z" transform="translate(-166.28 -205.88)"/>
    <path class="fc9670c8-270d-4269-a54c-4eabcba40f6f" d="M709.35,288.37a15.83,15.83,0,0,0-6.41,1.21,13.57,13.57,0,0,0-4.58,3.17,12.82,12.82,0,0,0-2.69,4.38,13.87,13.87,0,0,0-.87,4.69v35.51a13.18,13.18,0,0,0,.87,4.61,13,13,0,0,0,2.69,4.31,13.43,13.43,0,0,0,4.58,3.17,15.83,15.83,0,0,0,6.41,1.21h31.77q3.32,0,3.32,2.72v3.78q0,2.87-3.32,2.87H707.76a28.66,28.66,0,0,1-10.59-1.81,24.4,24.4,0,0,1-7.74-4.76,19.89,19.89,0,0,1-4.75-6.58,18.41,18.41,0,0,1-1.58-7.4V299.7a18.66,18.66,0,0,1,1.58-7.33,19.75,19.75,0,0,1,4.75-6.65,25.47,25.47,0,0,1,7.74-4.83A27.64,27.64,0,0,1,707.76,279h33.36q3.32,0,3.32,2.87v3.78q0,2.72-3.32,2.72Z" transform="translate(-166.28 -205.88)"/>
    <path class="fc9670c8-270d-4269-a54c-4eabcba40f6f" d="M788.23,360q-11.87,0-16.84-4.91a17,17,0,0,1-5-12.62V296.68a17.19,17.19,0,0,1,5-12.69q5-5,17-5h20.24q12,0,17,5a17.19,17.19,0,0,1,5,12.69v45.79a17.08,17.08,0,0,1-4.9,12.62Q820.78,360,808.78,360Zm19-9.37c4.84,0,8-.78,9.4-2.34s2.14-4.21,2.14-7.94V298.8a11.43,11.43,0,0,0-2.45-7.41q-2.46-3-9.41-3H790.12a18.5,18.5,0,0,0-6,.83,9.81,9.81,0,0,0-3.72,2.19,7,7,0,0,0-1.82,3.25,17.42,17.42,0,0,0-.47,4.16v41.55a20.56,20.56,0,0,0,.47,4.69,6.5,6.5,0,0,0,1.82,3.25,7.65,7.65,0,0,0,3.72,1.81,27.76,27.76,0,0,0,6,.53Z" transform="translate(-166.28 -205.88)"/>
    <path class="fc9670c8-270d-4269-a54c-4eabcba40f6f" d="M915.79,360a3.61,3.61,0,0,1-1.66-.45,6.31,6.31,0,0,1-1.34-.91L883.86,319.8a2.11,2.11,0,0,1-.24-2.87,3.8,3.8,0,0,1,3.24-1.36h4.27a17,17,0,0,0,11.46-3.85A12.27,12.27,0,0,0,907.1,302q0-6.8-4.51-10.2t-11.46-3.4H857q-3.32,0-3.32-2.72v-3.78q0-2.87,3.32-2.87h34.14a37,37,0,0,1,11.46,1.66,27.12,27.12,0,0,1,8.78,4.61,19.93,19.93,0,0,1,5.61,7.26,22.32,22.32,0,0,1,2,9.44,17.09,17.09,0,0,1-1.58,7.33,25.71,25.71,0,0,1-4.11,6.27,27.85,27.85,0,0,1-5.77,5,31.63,31.63,0,0,1-6.56,3.32l24.35,31.89a2.17,2.17,0,0,1,.31,2.87,3.56,3.56,0,0,1-3.16,1.36Zm-54.06-62.87c2.42,0,3.64,1,3.64,2.88v57.12c0,1.91-1.22,2.87-3.64,2.87H857q-3.32,0-3.32-2.87V300q0-2.88,3.32-2.88Z" transform="translate(-166.28 -205.88)"/>
  </g>
  <g class="e90f5421-d6bf-4ea5-93ca-094becaa62fe">
    <polygon class="a83d2c4b-5233-435b-ad07-28c05cf55d77" points="113.31 316.84 3.5 209.93 113.31 3.5 223.11 209.93 113.31 316.84"/>
    <line class="af0c1761-ddbe-4d35-a334-37833d813450" x1="100.3" y1="234.57" x2="3.5" y2="209.93"/>
    <line class="af0c1761-ddbe-4d35-a334-37833d813450" x1="223.11" y1="209.93" x2="127.58" y2="234.57"/>
    <polygon class="af0c1761-ddbe-4d35-a334-37833d813450" points="113.31 316.84 76.01 73.62 150.6 73.62 113.31 316.84"/>
    <line class="af0c1761-ddbe-4d35-a334-37833d813450" x1="3.5" y1="209.93" x2="113.3" y2="177.68"/>
    <line class="af0c1761-ddbe-4d35-a334-37833d813450" x1="223.11" y1="209.93" x2="113.3" y2="177.68"/>
  </g>
  <g>
    <path class="e7e1b0ee-1a65-4e5a-aee5-fc0ba3682ded" d="M492.16,389.12h13.35c5.37,0,9.46,1.61,12.28,4.8S522,401.48,522,407s-1.41,9.85-4.25,13-6.91,4.8-12.25,4.8H492.16Zm4.5,31.61h8.85q6.11,0,9-3.83a18.33,18.33,0,0,0,0-19.85q-2.92-3.82-9-3.82h-8.85Z" transform="translate(-166.28 -205.88)"/>
    <path class="e7e1b0ee-1a65-4e5a-aee5-fc0ba3682ded" d="M550.71,410.73v1.44h-19.2a11.41,11.41,0,0,0,2.15,7.08,7.19,7.19,0,0,0,5.9,2.53q5.21,0,6.4-3.9h4.3a8.73,8.73,0,0,1-3.42,5.5,11.76,11.76,0,0,1-7.28,2.1,11.29,11.29,0,0,1-9-3.75,14.39,14.39,0,0,1-3.25-9.75q0-5.91,3.25-9.45a11.47,11.47,0,0,1,8.9-3.55q5.35,0,8.25,3.37A12.74,12.74,0,0,1,550.71,410.73Zm-11.35-8.06a7.7,7.7,0,0,0-5.2,1.68,7.05,7.05,0,0,0-2.4,4.27h14.55a6.16,6.16,0,0,0-2-4.24A6.92,6.92,0,0,0,539.36,402.67Z" transform="translate(-166.28 -205.88)"/>
    <path class="e7e1b0ee-1a65-4e5a-aee5-fc0ba3682ded" d="M574.36,417.23h4.25a9.87,9.87,0,0,1-3.52,6,11,11,0,0,1-7.08,2.23,11.33,11.33,0,0,1-9-3.73,13.86,13.86,0,0,1-3.28-9.52,14,14,0,0,1,3.25-9.56,11.38,11.38,0,0,1,9-3.69,11,11,0,0,1,7.08,2.17,9.25,9.25,0,0,1,3.37,5.77h-4.25c-.9-2.83-3-4.25-6.2-4.25a7,7,0,0,0-6,2.68,11.07,11.07,0,0,0-2,6.77,11.49,11.49,0,0,0,2,6.91,7,7,0,0,0,6,2.75C571.55,421.78,573.66,420.26,574.36,417.23Z" transform="translate(-166.28 -205.88)"/>
    <path class="e7e1b0ee-1a65-4e5a-aee5-fc0ba3682ded" d="M606.81,410.73v1.44h-19.2a11.41,11.41,0,0,0,2.15,7.08,7.19,7.19,0,0,0,5.9,2.53q5.21,0,6.4-3.9h4.3a8.73,8.73,0,0,1-3.42,5.5,11.76,11.76,0,0,1-7.28,2.1,11.29,11.29,0,0,1-9-3.75,14.39,14.39,0,0,1-3.25-9.75q0-5.91,3.25-9.45a11.47,11.47,0,0,1,8.9-3.55q5.36,0,8.25,3.37A12.74,12.74,0,0,1,606.81,410.73Zm-11.35-8.06a7.7,7.7,0,0,0-5.2,1.68,7.05,7.05,0,0,0-2.4,4.27h14.55a6.16,6.16,0,0,0-2-4.24A6.92,6.92,0,0,0,595.46,402.67Z" transform="translate(-166.28 -205.88)"/>
    <path class="e7e1b0ee-1a65-4e5a-aee5-fc0ba3682ded" d="M635.81,424.83h-4.25v-15.1q0-7-6.4-7a6.75,6.75,0,0,0-5.4,2.47,8.86,8.86,0,0,0-2.1,5.92v13.66h-4.25V399.62h4.1v2.71h1.1a7.91,7.91,0,0,1,3.1-2.43,10.59,10.59,0,0,1,4.5-.92q4.6,0,7.1,2.62a10,10,0,0,1,2.5,7.23Z" transform="translate(-166.28 -205.88)"/>
    <path class="e7e1b0ee-1a65-4e5a-aee5-fc0ba3682ded" d="M649.46,399.62h6.35v3.71h-6.35v13.84a3.74,3.74,0,0,0,1,2.93A5.13,5.13,0,0,0,654,421h1.85v3.8h-1.95c-2.87,0-5-.54-6.47-1.6s-2.18-2.89-2.18-5.45V403.33h-4.35v-3.71h4.35V392h4.25Z" transform="translate(-166.28 -205.88)"/>
    <path class="e7e1b0ee-1a65-4e5a-aee5-fc0ba3682ded" d="M677.21,399.62v4h-2.1a7.75,7.75,0,0,0-5.92,2.26,8.86,8.86,0,0,0-2.13,6.35v12.6h-4.25V399.62h4.1v3H668q2.4-3,7.3-3Z" transform="translate(-166.28 -205.88)"/>
    <path class="e7e1b0ee-1a65-4e5a-aee5-fc0ba3682ded" d="M698.81,424.83v-2.66h-1.1q-2.6,3.31-7.85,3.31a9.05,9.05,0,0,1-6.6-2.4,7.84,7.84,0,0,1-2.45-5.8,8.12,8.12,0,0,1,2.4-5.9q2.4-2.46,7.25-2.46h8.2v-1a5,5,0,0,0-1.5-3.82,6.55,6.55,0,0,0-4.65-1.43q-5.5,0-5.85,3.66h-4.25a7,7,0,0,1,3-5.41,13.89,13.89,0,0,1,14.66.31,7.84,7.84,0,0,1,2.77,6.44v17.16Zm-7.9-3.05a7.88,7.88,0,0,0,5.45-2.08,6.59,6.59,0,0,0,2.3-5.08v-2.29h-7.55c-4,0-6.05,1.59-6.05,4.79a4.2,4.2,0,0,0,1.52,3.41A6.69,6.69,0,0,0,690.91,421.78Z" transform="translate(-166.28 -205.88)"/>
    <path class="e7e1b0ee-1a65-4e5a-aee5-fc0ba3682ded" d="M710.61,388.48h4.25v36.35h-4.25Z" transform="translate(-166.28 -205.88)"/>
    <path class="e7e1b0ee-1a65-4e5a-aee5-fc0ba3682ded" d="M727.56,393.08h-4.5v-4.6h4.5Zm-.15,6.54v25.21h-4.25V399.62Z" transform="translate(-166.28 -205.88)"/>
    <path class="e7e1b0ee-1a65-4e5a-aee5-fc0ba3682ded" d="M755,424.83h-21V420l15.35-15.65v-1.05h-14.5v-3.71h20v4.76L739.56,420v1.09H755Z" transform="translate(-166.28 -205.88)"/>
    <path class="e7e1b0ee-1a65-4e5a-aee5-fc0ba3682ded" d="M783.36,410.73v1.44h-19.2a11.35,11.35,0,0,0,2.15,7.08,7.17,7.17,0,0,0,5.9,2.53q5.2,0,6.4-3.9h4.3a8.75,8.75,0,0,1-3.43,5.5,11.73,11.73,0,0,1-7.27,2.1,11.29,11.29,0,0,1-9-3.75A14.34,14.34,0,0,1,760,412q0-5.91,3.25-9.45a11.45,11.45,0,0,1,8.9-3.55q5.35,0,8.25,3.37A12.85,12.85,0,0,1,783.36,410.73ZM772,402.67a7.69,7.69,0,0,0-5.2,1.68,7.05,7.05,0,0,0-2.4,4.27H779a6.2,6.2,0,0,0-2.05-4.24A6.93,6.93,0,0,0,772,402.67Z" transform="translate(-166.28 -205.88)"/>
    <path class="e7e1b0ee-1a65-4e5a-aee5-fc0ba3682ded" d="M808.26,388.48h4.25v36.35h-4.1v-2.71h-1.1q-2.7,3.36-7.85,3.36a9.78,9.78,0,0,1-8.08-3.75,16.77,16.77,0,0,1,0-19.06,9.84,9.84,0,0,1,8.08-3.69c3.4,0,6,1.11,7.7,3.35h1.1Zm-7.85,33.3a6.81,6.81,0,0,0,5.92-2.75,12.68,12.68,0,0,0,0-13.61,7.65,7.65,0,0,0-11.65-.12,12.88,12.88,0,0,0,0,13.85A6.82,6.82,0,0,0,800.41,421.78Z" transform="translate(-166.28 -205.88)"/>
    <path class="e7e1b0ee-1a65-4e5a-aee5-fc0ba3682ded" d="M857.51,408.33h4.2a21,21,0,0,1-3.6,9.65l6.65,6.85h-5.4l-3.3-3.41H855a14.27,14.27,0,0,1-10,4.06,12.78,12.78,0,0,1-8.33-2.63,8.91,8.91,0,0,1-3.22-7.32,9.8,9.8,0,0,1,1.42-5.23,11.49,11.49,0,0,1,3.58-3.72l1.45-1v-1.09l-1-1.15a9.81,9.81,0,0,1-2.75-6.5,7.27,7.27,0,0,1,2.32-5.6,8.58,8.58,0,0,1,6.08-2.16,9.63,9.63,0,0,1,6.37,2.11,6.83,6.83,0,0,1,2.53,5.55q0,4.2-4.95,7.64l-2.05,1.46,8.85,9.15A17.22,17.22,0,0,0,857.51,408.33Zm-12.6,13.25a10.62,10.62,0,0,0,8-3.46L843.11,408l-1.75,1.14a7.28,7.28,0,0,0-3.75,6.36,5.33,5.33,0,0,0,2.1,4.47A8.26,8.26,0,0,0,844.91,421.58Zm-2.35-19.7,1.4,1.5,2-1.5c2.2-1.6,3.3-3.29,3.3-5.05a3.6,3.6,0,0,0-1.35-2.95,5.1,5.1,0,0,0-3.35-1.1,4.63,4.63,0,0,0-3.2,1.05,3.83,3.83,0,0,0-1.2,3.05A7.53,7.53,0,0,0,842.56,401.88Z" transform="translate(-166.28 -205.88)"/>
    <path class="e7e1b0ee-1a65-4e5a-aee5-fc0ba3682ded" d="M889.41,420.58h20.05v4.25H884.91V389.12h4.5Z" transform="translate(-166.28 -205.88)"/>
    <path class="e7e1b0ee-1a65-4e5a-aee5-fc0ba3682ded" d="M920.11,393.08h-4.5v-4.6h4.5Zm-.15,6.54v25.21h-4.25V399.62Z" transform="translate(-166.28 -205.88)"/>
    <path class="e7e1b0ee-1a65-4e5a-aee5-fc0ba3682ded" d="M941.36,399a9.81,9.81,0,0,1,8.07,3.69,16.73,16.73,0,0,1,0,19.06,9.75,9.75,0,0,1-8.07,3.75c-3.44,0-6.05-1.12-7.85-3.36h-1.1v2.71h-4.1V388.48h4.25v13.85h1.1C935.32,400.09,937.89,399,941.36,399Zm-1,22.8a6.81,6.81,0,0,0,5.72-2.63,12.83,12.83,0,0,0,0-13.85,7.65,7.65,0,0,0-11.65.12,12.74,12.74,0,0,0,0,13.61A6.83,6.83,0,0,0,940.41,421.78Z" transform="translate(-166.28 -205.88)"/>
    <path class="e7e1b0ee-1a65-4e5a-aee5-fc0ba3682ded" d="M980.91,410.73v1.44h-19.2a11.29,11.29,0,0,0,2.15,7.08,7.16,7.16,0,0,0,5.9,2.53c3.46,0,5.6-1.3,6.4-3.9h4.3a8.79,8.79,0,0,1-3.43,5.5,11.73,11.73,0,0,1-7.27,2.1,11.26,11.26,0,0,1-9-3.75,14.34,14.34,0,0,1-3.25-9.75q0-5.91,3.25-9.45a11.44,11.44,0,0,1,8.9-3.55q5.34,0,8.25,3.37A12.85,12.85,0,0,1,980.91,410.73Zm-11.35-8.06a7.69,7.69,0,0,0-5.2,1.68,7.05,7.05,0,0,0-2.4,4.27h14.55a6.24,6.24,0,0,0-2-4.24A7,7,0,0,0,969.56,402.67Z" transform="translate(-166.28 -205.88)"/>
    <path class="e7e1b0ee-1a65-4e5a-aee5-fc0ba3682ded" d="M1001.91,399.62v4h-2.1a7.77,7.77,0,0,0-5.93,2.26,8.86,8.86,0,0,0-2.12,6.35v12.6h-4.25V399.62h4.1v3h1.1q2.4-3,7.3-3Z" transform="translate(-166.28 -205.88)"/>
    <path class="e7e1b0ee-1a65-4e5a-aee5-fc0ba3682ded" d="M1014.91,399.62h6.34v3.71h-6.34v13.84a3.77,3.77,0,0,0,1,2.93,5.14,5.14,0,0,0,3.48.93h1.84v3.8h-2c-2.86,0-5-.54-6.47-1.6s-2.17-2.89-2.17-5.45V403.33h-4.36v-3.71h4.36V392h4.25Z" transform="translate(-166.28 -205.88)"/>
    <path class="e7e1b0ee-1a65-4e5a-aee5-fc0ba3682ded" d="M1035.05,434.83h-4.3l5.2-12.35-10.75-22.86h4.55l7.7,16.61h1.25l7-16.61h4.45Z" transform="translate(-166.28 -205.88)"/>
    <path class="e7e1b0ee-1a65-4e5a-aee5-fc0ba3682ded" d="M1094.45,393.23H1074v11.6h16.55v4.09H1074v15.91h-4.5V389.12h25Z" transform="translate(-166.28 -205.88)"/>
    <path class="e7e1b0ee-1a65-4e5a-aee5-fc0ba3682ded" d="M1105.25,393.08h-4.5v-4.6h4.5Zm-.15,6.54v25.21h-4.25V399.62Z" transform="translate(-166.28 -205.88)"/>
    <path class="e7e1b0ee-1a65-4e5a-aee5-fc0ba3682ded" d="M1135.85,424.83h-4.25v-15.1q0-7-6.4-7a6.75,6.75,0,0,0-5.4,2.47,8.86,8.86,0,0,0-2.1,5.92v13.66h-4.25V399.62h4.1v2.71h1.1a7.91,7.91,0,0,1,3.1-2.43,10.59,10.59,0,0,1,4.5-.92q4.61,0,7.1,2.62a10,10,0,0,1,2.5,7.23Z" transform="translate(-166.28 -205.88)"/>
    <path class="e7e1b0ee-1a65-4e5a-aee5-fc0ba3682ded" d="M1159.7,424.83v-2.66h-1.1q-2.6,3.31-7.85,3.31a9.09,9.09,0,0,1-6.6-2.4,7.84,7.84,0,0,1-2.45-5.8,8.12,8.12,0,0,1,2.4-5.9q2.4-2.46,7.25-2.46h8.2v-1a5,5,0,0,0-1.5-3.82,6.55,6.55,0,0,0-4.65-1.43q-5.49,0-5.85,3.66h-4.25a7,7,0,0,1,3-5.41,11.77,11.77,0,0,1,7-1.94q4.86,0,7.63,2.25a7.81,7.81,0,0,1,2.77,6.44v17.16Zm-7.9-3.05a7.88,7.88,0,0,0,5.45-2.08,6.56,6.56,0,0,0,2.3-5.08v-2.29H1152c-4,0-6,1.59-6,4.79a4.18,4.18,0,0,0,1.53,3.41A6.66,6.66,0,0,0,1151.8,421.78Z" transform="translate(-166.28 -205.88)"/>
    <path class="e7e1b0ee-1a65-4e5a-aee5-fc0ba3682ded" d="M1193.9,424.83h-4.25v-15.1q0-7-6.4-7a6.75,6.75,0,0,0-5.4,2.47,8.86,8.86,0,0,0-2.1,5.92v13.66h-4.25V399.62h4.1v2.71h1.1a7.91,7.91,0,0,1,3.1-2.43,10.52,10.52,0,0,1,4.5-.92q4.6,0,7.1,2.62a10,10,0,0,1,2.5,7.23Z" transform="translate(-166.28 -205.88)"/>
    <path class="e7e1b0ee-1a65-4e5a-aee5-fc0ba3682ded" d="M1218.75,417.23H1223a9.87,9.87,0,0,1-3.52,6,11,11,0,0,1-7.08,2.23,11.33,11.33,0,0,1-9-3.73,15.57,15.57,0,0,1,0-19.08,11.38,11.38,0,0,1,9-3.69,11,11,0,0,1,7.08,2.17,9.25,9.25,0,0,1,3.37,5.77h-4.25q-1.35-4.25-6.2-4.25a7,7,0,0,0-6,2.68,11.07,11.07,0,0,0-2,6.77,11.49,11.49,0,0,0,2,6.91,6.94,6.94,0,0,0,6,2.75Q1217.7,421.78,1218.75,417.23Z" transform="translate(-166.28 -205.88)"/>
    <path class="e7e1b0ee-1a65-4e5a-aee5-fc0ba3682ded" d="M1251.2,410.73v1.44H1232a11.41,11.41,0,0,0,2.15,7.08,7.17,7.17,0,0,0,5.9,2.53q5.21,0,6.4-3.9h4.3a8.73,8.73,0,0,1-3.42,5.5,11.76,11.76,0,0,1-7.28,2.1,11.29,11.29,0,0,1-9-3.75,14.34,14.34,0,0,1-3.25-9.75q0-5.91,3.25-9.45A11.45,11.45,0,0,1,1240,399q5.35,0,8.25,3.37A12.85,12.85,0,0,1,1251.2,410.73Zm-11.35-8.06a7.69,7.69,0,0,0-5.2,1.68,7.05,7.05,0,0,0-2.4,4.27h14.55a6.2,6.2,0,0,0-2-4.24A6.93,6.93,0,0,0,1239.85,402.67Z" transform="translate(-166.28 -205.88)"/>
  </g>
</svg>
