<svg xmlns="http://www.w3.org/2000/svg" viewBox="0 0 310.89 121.11"><defs><style>.\36 9b67059-f6b9-4503-9c79-0f5dd648508c,.\37 c1740d7-2402-4541-b754-b02081631367,.eed438db-611c-4850-af62-18e9b5beb656{fill-rule:evenodd;}.eed438db-611c-4850-af62-18e9b5beb656{fill:#65216c;}.\37 c1740d7-2402-4541-b754-b02081631367{fill:#212121;}</style></defs><title>logo</title><g id="ce26b367-7b7c-410e-a159-d61f288e970a" data-name="Слой 1"><g id="e0e3e8e7-a61d-47c2-a1c2-6de56d13e4e2" data-name="Символ 2"><g id="1a2bd763-0826-4b12-9686-cc365387f7fc" data-name="Слой 3"><path class="69b67059-f6b9-4503-9c79-0f5dd648508c" d="M433.9,162.4v3.7c0,.43-.2.65-.6.65H411.65a.27.27,0,0,0-.3.3v26.3a.27.27,0,0,0,.3.3H433.3a.53.53,0,0,1,.6.6V198a.53.53,0,0,1-.6.6H406.4a.53.53,0,0,1-.6-.6V162.4c0-.43.2-.65.6-.65h26.9C433.7,161.75,433.9,162,433.9,162.4Zm-18.5,15.5h14.8a.53.53,0,0,1,.6.6v3.1c0,.43-.2.65-.6.65H415.4c-.4,0-.6-.22-.6-.65v-3.1A.53.53,0,0,1,415.4,177.9ZM290.65,164.15a8,8,0,0,1,5.9-2.4H311.7A8.2,8.2,0,0,1,320,170v20.35a8.2,8.2,0,0,1-8.3,8.25h-5.2a.53.53,0,0,1-.6-.6v-3.75a.53.53,0,0,1,.6-.6h4.05a3.76,3.76,0,0,0,3.9-3.9V170.6a3.65,3.65,0,0,0-1.1-2.75,3.81,3.81,0,0,0-2.8-1.1H297.7a3.81,3.81,0,0,0-2.8,1.1,3.65,3.65,0,0,0-1.1,2.75v19.15a3.76,3.76,0,0,0,3.9,3.9h4.1c.37,0,.55.2.55.6V198c0,.4-.18.6-.55.6h-5.25a8.2,8.2,0,0,1-8.3-8.25V170A8.06,8.06,0,0,1,290.65,164.15Z" transform="translate(-123.01 -138.6)"/><path class="eed438db-611c-4850-af62-18e9b5beb656" d="M395.65,162.4v3.7c0,.43-.2.65-.6.65H374.5a.27.27,0,0,0-.3.3V198a.53.53,0,0,1-.6.6h-4.35a.53.53,0,0,1-.6-.6V162.4c0-.43.2-.65.6-.65h25.8C395.45,161.75,395.65,162,395.65,162.4Zm-17.4,15.5H391.9a.53.53,0,0,1,.6.6v3.1c0,.43-.2.65-.6.65H378.25c-.4,0-.6-.22-.6-.65v-3.1A.53.53,0,0,1,378.25,177.9Zm-19.8-15.5v3.7c0,.43-.2.65-.6.65H337.3a.27.27,0,0,0-.3.3V198a.53.53,0,0,1-.6.6h-4.35a.53.53,0,0,1-.6-.6V162.4c0-.43.2-.65.6-.65h25.8C358.25,161.75,358.45,162,358.45,162.4Zm-17.4,15.5H354.7a.53.53,0,0,1,.6.6v3.1c0,.43-.2.65-.6.65H341.05c-.4,0-.6-.22-.6-.65v-3.1A.53.53,0,0,1,341.05,177.9Zm-62.5-15.5v3.7a.58.58,0,0,1-.65.65H259.15a3.56,3.56,0,0,0-2.6,1.1,3.41,3.41,0,0,0-1.1,2.55V190a3.76,3.76,0,0,0,3.7,3.7H277.9c.43,0,.65.2.65.6V198c0,.4-.22.6-.65.6H258.2a8.2,8.2,0,0,1-8.3-8.25V170a8.2,8.2,0,0,1,8.3-8.25h19.7A.58.58,0,0,1,278.55,162.4ZM224.25,169a59.49,59.49,0,0,1,8.15,26.4,55.89,55.89,0,0,1,0,6.6,54.78,54.78,0,0,1-.65,6.05c-.37,2.27-.85,4.53-1.45,6.8a71.72,71.72,0,0,1-2.3,7,57.5,57.5,0,0,1-25.85,29.65,58.08,58.08,0,0,1-45.85,6.05,63.05,63.05,0,0,1-10.15-3.65.75.75,0,0,1-.5-.55.87.87,0,0,1-.05-.75.49.49,0,0,0,.05-.2,1.93,1.93,0,0,1,.15-.35.69.69,0,0,1,.2-.5.76.76,0,0,1,.5-.3.75.75,0,0,1,.55,0c1.13.37,2.28.7,3.45,1a51.92,51.92,0,0,0,40.8-5.35,53.37,53.37,0,0,0,16-13.85,54.62,54.62,0,0,0,9-18.85,51.63,51.63,0,0,0-5.35-40.8A56.2,56.2,0,0,0,203.4,163a54.27,54.27,0,0,0-66-9.35c-1,.6-2,1.23-3,1.9a1,1,0,0,1-.7.15.76.76,0,0,1-.6-.4,2,2,0,0,0-.5-.45,1.1,1.1,0,0,1-.4-.4,1,1,0,0,1,0-.65.76.76,0,0,1,.3-.5,61.82,61.82,0,0,1,9.25-6.45,58.23,58.23,0,0,1,45.8-6q20.65,5.55,32.85,22.2A62.59,62.59,0,0,1,224.25,169Z" transform="translate(-123.01 -138.6)"/><path class="7c1740d7-2402-4541-b754-b02081631367" d="M383.8,205.85V220.9l1.05-.55,4.2-7.3h5.25l-4.35,7-1.9,1.35,1.95,1.5,5,8.45h-5.45l-4.5-7.5H383.8v7.5h-4.7v-25.5Zm-16,13.7v11.8h-4.7v-18.3h3.7l.55,2.45h.1a5.35,5.35,0,0,1,1.7-2.1,4.37,4.37,0,0,1,2.5-.7,7.42,7.42,0,0,1,2.1.35l-.6,4.5a6.26,6.26,0,0,0-2-.4,3.39,3.39,0,0,0-2.1.65A3.1,3.1,0,0,0,367.8,219.55Zm-66.7-11.2v4.7h4.4v4h-4.4v7a7.2,7.2,0,0,0,.35,2.7,1.4,1.4,0,0,0,1.45.85,4.76,4.76,0,0,0,1.25-.15,3.7,3.7,0,0,0,1.15-.45l.9,3.7a12.56,12.56,0,0,1-2.35.8,10.31,10.31,0,0,1-2.65.35,4.7,4.7,0,0,1-3.7-1.35,6.17,6.17,0,0,1-1.2-4.25v-9.2h-2.55v-4h2.55v-3.4Zm-12,11.6c0,.5,0,1.05-.05,1.65s-.15,1.22-.25,1.85h-11a5.68,5.68,0,0,0,1.2,3.45,4.55,4.55,0,0,0,3.5,1.15,7.89,7.89,0,0,0,2.7-.45,9.31,9.31,0,0,0,1.8-.95l1.55,3.1a8.93,8.93,0,0,1-3,1.5,12.21,12.21,0,0,1-3.95.65c-3,0-5.13-.88-6.5-2.65a10.94,10.94,0,0,1-2.05-7.05c0-3.17.77-5.58,2.3-7.25a8.5,8.5,0,0,1,6.45-2.4,9.05,9.05,0,0,1,2.7.4,5.43,5.43,0,0,1,2.35,1.2,5.57,5.57,0,0,1,1.7,2.3A9.34,9.34,0,0,1,289.1,220Zm33-.95-.45,2.35-3.5,10.15h-3.6l-5.85-18.45h5.1l2.7,9.2.4,3.3h.2l.65-3.35,3-9.15h3.45l3.4,9.35.65,3.1h.2l.45-3.15,2.35-9.3h4.35L330,231.5h-3.5l-3.7-10.2-.45-2.3Zm19.6-3.95a8.1,8.1,0,0,1,6.35-2.5,9.38,9.38,0,0,1,3.8.7,6.88,6.88,0,0,1,2.65,2,7.93,7.93,0,0,1,1.55,3.05,13.18,13.18,0,0,1,.55,3.9q0,4.65-2.25,7.15a8,8,0,0,1-6.3,2.55,9.53,9.53,0,0,1-3.85-.7,7.62,7.62,0,0,1-2.7-1.95,7.94,7.94,0,0,1-1.55-3.1,14.88,14.88,0,0,1-.5-4Q339.45,217.55,341.7,215.05Zm2.8,9.4a8.51,8.51,0,0,0,.65,1.85,3.55,3.55,0,0,0,1.2,1.15,3.71,3.71,0,0,0,4.5-.9,8.21,8.21,0,0,0,.9-4.35,7.84,7.84,0,0,0-.9-4,2.89,2.89,0,0,0-2.8-1.55,3.33,3.33,0,0,0-2.8,1.3,7.62,7.62,0,0,0-.95,4.3A11.84,11.84,0,0,0,344.5,224.45Zm-87-11a6.53,6.53,0,0,1,3.6-.9,6.64,6.64,0,0,1,2.4.4,3.6,3.6,0,0,1,1.8,1.2,5.67,5.67,0,0,1,1.1,2.3,15.16,15.16,0,0,1,.35,3.55v11.35H262V221a6.21,6.21,0,0,0-.65-3.25,2.36,2.36,0,0,0-2.15-1,3.35,3.35,0,0,0-2.3.8,4.91,4.91,0,0,0-1.35,1.95v11.85h-4.7v-18.3h3.7l.55,2.45h.2A6.91,6.91,0,0,1,257.5,213.45ZM279,217.5a5.21,5.21,0,0,0-1.05,2.95h6.75a4.41,4.41,0,0,0-.6-3,2.62,2.62,0,0,0-2.35-1A3.44,3.44,0,0,0,279,217.5Zm-104.3-59a.68.68,0,0,1,.7.65,1.4,1.4,0,0,1,0,.5,1.49,1.49,0,0,0-.15.45,1.23,1.23,0,0,0-.05.35,1.05,1.05,0,0,1-.35.55,1,1,0,0,1-.7.2,35.58,35.58,0,0,0-16,1.8,36.59,36.59,0,0,0-10.25,5.65v0a37.16,37.16,0,0,0-7.15,52.15A36.18,36.18,0,0,0,156.7,233a39.59,39.59,0,0,0,8.65,2.2,36,36,0,0,0,18.9-2.2A38.19,38.19,0,0,0,193,228c.63-.47,1.25-.93,1.85-1.4a.67.67,0,0,1,.6-.3.7.7,0,0,1,.65.35l.35.25a1.08,1.08,0,0,1,.3.35.77.77,0,0,1,.1.5.88.88,0,0,1-.25.5,42.85,42.85,0,0,1-5.25,4.8,2.25,2.25,0,0,1-.45.35l-.05.05a42.41,42.41,0,0,1-51.8-.4,44.06,44.06,0,0,1-7.4-7.75,42.34,42.34,0,0,1,8-59.2,41.51,41.51,0,0,1,31.3-8.2C172.27,158,173.5,158.23,174.7,158.5Z" transform="translate(-123.01 -138.6)"/></g></g></g></svg>