<svg xmlns="http://www.w3.org/2000/svg" viewBox="0 0 594.49 132.37"><defs><style>.cls-1{fill:#818285;}.cls-2{fill:#939598;}.cls-3{fill:#454545;}.cls-4{fill:#464646;}</style></defs><title>Ресурс 1</title><g id="Слой_2" data-name="Слой 2"><g id="Слой_1-2" data-name="Слой 1"><g id="horiz-logo"><path class="cls-1" d="M155.31,54.67h0c-.07-.59-.15-1.16-.25-1.65a3.47,3.47,0,0,0-.17-.82l-.16-.75c-.45-2-1-4-1.63-6A61.37,61.37,0,0,0,151,39.69a62,62,0,0,0-13.87-20.5A63.82,63.82,0,0,0,116.35,5.84,82.33,82.33,0,0,0,92.56.35,116.47,116.47,0,0,0,68.29,1,160.79,160.79,0,0,0,44.7,6a82.31,82.31,0,0,0-11.5,4.2,74.32,74.32,0,0,0-10.71,6A57.79,57.79,0,0,0,5.29,33.87,37.65,37.65,0,0,0,.51,45.73,25.77,25.77,0,0,0,0,52.43a18.59,18.59,0,0,0,1.79,6.87,16.18,16.18,0,0,0,2,3.09,8.09,8.09,0,0,0,.61.72c.24.28.51.53.71.72A11.87,11.87,0,0,0,6.66,65,15.66,15.66,0,0,0,10,66.73a27.54,27.54,0,0,0,3.24,1c1,.24,2,.45,3,.65s1.91.39,2.8.61a16.25,16.25,0,0,1,4.07,1.48,57.79,57.79,0,0,0,5.29,5,58.62,58.62,0,0,0,6.33,4.62,65.23,65.23,0,0,0,6.84,3.74A71.06,71.06,0,0,0,63.77,90a81.75,81.75,0,0,0,15.3.36,77.81,77.81,0,0,0,15-2.55A62.33,62.33,0,0,0,108.26,82a44.75,44.75,0,0,0,6.37-4.43A33.43,33.43,0,0,0,120,72a26.17,26.17,0,0,0,3.77-6.84,22.12,22.12,0,0,0,1.38-7.67V56.8l-2.31-.09v.66A20.53,20.53,0,0,1,121.13,64a23.37,23.37,0,0,1-3.73,5.78,31.9,31.9,0,0,1-5.15,4.62,41.69,41.69,0,0,1-6,3.63A57.4,57.4,0,0,1,92.9,82.7a72.82,72.82,0,0,1-14.1,1.65,75.78,75.78,0,0,1-27.68-4.48A62.41,62.41,0,0,1,27.94,65.07l-.44-.44-.37-.2a22.49,22.49,0,0,0-6.62-2.24c-1.16-.22-2.15-.39-3.18-.55s-1.83-.29-2.68-.46a19.16,19.16,0,0,1-2.47-.62,9.72,9.72,0,0,1-2-.9,6.69,6.69,0,0,1-.81-.6L9,58.74H9a4.31,4.31,0,0,1-.34-.38A9.86,9.86,0,0,1,7.4,56.5,12.53,12.53,0,0,1,6,51.91a19.37,19.37,0,0,1,.21-5.12A31.06,31.06,0,0,1,10,36.66a45.75,45.75,0,0,1,6.75-8.93,58.58,58.58,0,0,1,8.63-7.36,70.12,70.12,0,0,1,20.67-9.69A148.27,148.27,0,0,1,68.91,5.84c3.94-.5,7.84-.8,11.56-.91A101,101,0,0,1,92,5.28c1.66.15,3.47.37,5.71.72,2,.34,3.9.69,5.65,1.16,2,.49,3.86,1,5.52,1.51,1.86.61,3.68,1.27,5.37,2a57.79,57.79,0,0,1,18.78,12.46,56.09,56.09,0,0,1,12.25,18.81c.68,1.65,1.28,3.47,1.87,5.34a56.7,56.7,0,0,1,1.4,5.51l.15.69a4.09,4.09,0,0,0,.12.64q.1.61.17,1.28a21.27,21.27,0,0,1,.13,2.61,24.58,24.58,0,0,1-.6,5.24,23.32,23.32,0,0,1-4.33,9.37,17.68,17.68,0,0,1-3.56,3.47,15.4,15.4,0,0,1-4.28,2.17c-.4.13-.79.23-1.16.32l-.59.13-.9.2a10.47,10.47,0,0,0-4.11,2.1,9.25,9.25,0,0,0-2.82,4.15l-.23.67a1.62,1.62,0,0,1-.2.54c-.14.36-.3.71-.47,1.06a16.76,16.76,0,0,1-6.59,6.77,30.32,30.32,0,0,1-4.62,2.31,46.23,46.23,0,0,1-5.13,1.66c-1.68.44-3.47.82-5.4,1.16s-3.64.55-5.56.74-3.76.31-5.63.38c-1,0-1.9.06-2.79.06L88.85,100a19.65,19.65,0,0,0-7.28-1.39,14.53,14.53,0,0,0-2.09.21l-1,.23-.79.23-.29.1a4.76,4.76,0,0,0-1.54.94,4.48,4.48,0,0,0-.38,6.24,4.62,4.62,0,0,0,.86.77h.07a4.91,4.91,0,0,0,.81.45h.06l.5.2a11.9,11.9,0,0,0,1.16.34h0c.67.16,1.26.25,1.79.34a55.78,55.78,0,0,0,6.39.54c1,0,2,.06,2.95.07l1,.47a62.3,62.3,0,0,1,9.39,6,98.3,98.3,0,0,1,8.71,7.46c1.47,1.42,2.77,2.77,4,4.15.74.86,1.32,1.56,1.81,2.22a19.43,19.43,0,0,1,1.53,2.31l.29.52,1.83-.62-.1-.59a16,16,0,0,0-.95-3.11,27.53,27.53,0,0,0-1.33-2.84,47.87,47.87,0,0,0-3.27-5.28,68.93,68.93,0,0,0-8.09-9.41c-.76-.74-1.54-1.46-2.31-2.14,1.09-.15,2.15-.32,3.19-.51,2.12-.4,4.2-.89,6.18-1.46a43.17,43.17,0,0,0,12-5.35,28.14,28.14,0,0,0,5.29-4.5,22.63,22.63,0,0,0,3.92-6c.24-.55.46-1.16.66-1.69L134,88l.21-.75a1.53,1.53,0,0,1,.45-.72,2.76,2.76,0,0,1,1.06-.61l.55-.15.87-.23a15.15,15.15,0,0,0,1.69-.55,22.78,22.78,0,0,0,6.11-3.47,25.08,25.08,0,0,0,4.73-5,30.59,30.59,0,0,0,5.18-12.17,32.88,32.88,0,0,0,.59-6.57A27.65,27.65,0,0,0,155.31,54.67Z"/><path class="cls-2" d="M275.82,11.26A20,20,0,0,1,284,22.41h-7A14.81,14.81,0,0,0,271,15.48a18.9,18.9,0,0,0-10.08-2.62,19.3,19.3,0,0,0-9.39,2.25A16.18,16.18,0,0,0,245,21.53a19.58,19.58,0,0,0-2.37,9.81,19.82,19.82,0,0,0,2.4,10,16.33,16.33,0,0,0,6.66,6.45,20.63,20.63,0,0,0,9.79,2.31,19.65,19.65,0,0,0,8.66-1.88,16.18,16.18,0,0,0,6.44-5.48,17.72,17.72,0,0,0,3-8.43H259.42V29.67h25.75v5.65A22,22,0,0,1,273,52.8a26.41,26.41,0,0,1-12.08,2.68,27.3,27.3,0,0,1-13.11-3.05A22.12,22.12,0,0,1,239,43.89a26.39,26.39,0,0,1,0-25.07,22.25,22.25,0,0,1,8.83-8.56,26.72,26.72,0,0,1,13-3.1A26.18,26.18,0,0,1,275.82,11.26Z"/><path class="cls-2" d="M382.89,55,369.51,35.66h-7.2V55h-6.62V7.63h16.88q8.74,0,13.1,3.86A13,13,0,0,1,390,21.74a12.71,12.71,0,0,1-3.47,9.3q-3.47,3.54-10.11,4.4l14,19.57Zm-20.59-23.8H372q11.27,0,11.28-9.14T372,12.93h-9.67Z"/><path class="cls-2" d="M466.28,12.6V28.78h19.5v4.7h-19.5V50H488v5H459.66V7.64H488v5Z"/><path class="cls-2" d="M594.49,7.63,577.68,37.07V55H571V37.07L554.1,7.63h7.72l12.59,22.92L586.93,7.63Z"/><path class="cls-3" d="M292.55,82.71V130.1H278.37V103.22l-9.54,26.88h-12.3L247,103.22V130.1H232.67V82.71H250.2l12.71,30.79,12.3-30.79Z"/><path class="cls-3" d="M384.53,122.17H366.27l-2.84,7.93h-15l18.84-47.39h16.53l18.77,47.39H387.4Zm-3.57-10-5.52-15.45-5.61,15.45Z"/><path class="cls-3" d="M494.48,123.58a14.72,14.72,0,0,1-6.4,5.06A24.79,24.79,0,0,1,478,130.53q-8.95,0-14.74-4a14.18,14.18,0,0,1-6.29-11.29h15.21a5.09,5.09,0,0,0,1.66,3.69,5.4,5.4,0,0,0,3.57,1.16,4.52,4.52,0,0,0,2.95-.87,3.07,3.07,0,0,0,1.05-2.5,3.64,3.64,0,0,0-2.1-3.32,36.85,36.85,0,0,0-6.7-2.59,69.71,69.71,0,0,1-8-3,14.63,14.63,0,0,1-5.46-4.44,12,12,0,0,1-2.31-7.59,12.12,12.12,0,0,1,2.47-7.63A15.26,15.26,0,0,1,466,83.31a27,27,0,0,1,9.74-1.64q8.88,0,14.16,3.86a14,14,0,0,1,5.78,10.85H480.36a5.18,5.18,0,0,0-1.49-3.29A4.62,4.62,0,0,0,475.7,92a4,4,0,0,0-2.62.81,3,3,0,0,0-.94,2.42,3.47,3.47,0,0,0,2.07,3.17,39.48,39.48,0,0,0,6.51,2.55,68.19,68.19,0,0,1,8.09,3.16,15.65,15.65,0,0,1,5.54,4.51,12,12,0,0,1,2.31,7.66A12.55,12.55,0,0,1,494.48,123.58Z"/><path class="cls-3" d="M590.67,123.58a14.79,14.79,0,0,1-6.4,5.11,24.84,24.84,0,0,1-10.11,1.88q-8.95,0-14.74-4a14.19,14.19,0,0,1-6.3-11.29h15.21A5.14,5.14,0,0,0,570,119a5.39,5.39,0,0,0,3.56,1.16,4.48,4.48,0,0,0,2.95-.87,3.07,3.07,0,0,0,1.06-2.5,3.63,3.63,0,0,0-2.12-3.32,37,37,0,0,0-6.69-2.59,70.83,70.83,0,0,1-8.09-3,14.73,14.73,0,0,1-5.46-4.44,13.36,13.36,0,0,1,.18-15.22,15.28,15.28,0,0,1,6.76-4.84,27.1,27.1,0,0,1,9.76-1.64q8.88,0,14.15,3.86a14,14,0,0,1,5.78,10.85H576.56a5.18,5.18,0,0,0-1.49-3.29,4.62,4.62,0,0,0-3.17-1.07,4,4,0,0,0-2.62.81,3,3,0,0,0-.95,2.42,3.47,3.47,0,0,0,2.08,3.17,39.06,39.06,0,0,0,6.51,2.55,69,69,0,0,1,8.09,3.16,15.61,15.61,0,0,1,5.52,4.51,12,12,0,0,1,2.31,7.66A12.55,12.55,0,0,1,590.67,123.58Z"/><rect class="cls-4" x="184.78" y="7.34" width="7.25" height="122.76"/></g></g></g></svg>