<?xml version="1.0" encoding="utf-8"?>
<!-- Generator: Adobe Illustrator 21.0.0, SVG Export Plug-In . SVG Version: 6.00 Build 0)  -->
<svg version="1.1" id="Слой_1" xmlns="http://www.w3.org/2000/svg" xmlns:xlink="http://www.w3.org/1999/xlink" x="0px" y="0px"
	 viewBox="0 0 64 64" style="enable-background:new 0 0 64 64;" xml:space="preserve">
<style type="text/css">
	.st0{fill:#FFFFFF;}
	.st1{fill:#151516;}
</style>
<g id="XMLID_1_">
	<g>
		<path class="st0" d="M54.5,15.2c2.8,1.8-0.2,9.6-2.7,14.4c1.4,2.2,2.2,4.7,2.2,7.3c0,7-5.8,13-13.9,15.5c-1.9,2-4.8,3.1-8.1,3.1
			c-3.3,0-6.2-1.2-8.1-3.1C15.7,50,10,44,10,37c0-2.6,0.8-5.1,2.2-7.3C9.8,24.9,6.7,17,9.6,15.2c2.7-1.6,9.9,3.1,14.2,6.3
			c2.7-0.8,5.5-1.2,8.3-1.2c2.9,0,5.7,0.4,8.3,1.2C44.5,18.4,51.8,13.6,54.5,15.2z M47.4,35.3c-0.1,0-0.2-0.1-0.2-0.2
			c-0.6-0.4-1.4-0.9-4-1c-4.9-0.3-5.8,3.8-5.8,4.8C44,41.1,46.8,37.4,47.4,35.3z M35.8,45.9c1.8-0.3-0.7-2.7-2-2.7h-3.6
			c-1.3,0-3.8,2.3-2,2.7c1.5,0.3,1.6,0.7,1.7,1.1c0.1,0.3,0.1,0.5,0.6,0.7c0.4,0.1,0.9,0.2,1.3,0.2c0,0,0.1,0,0.1,0l0.2,0
			c0.4,0,0.9-0.1,1.3-0.2c0.5-0.1,0.6-0.4,0.6-0.7C34.2,46.6,34.3,46.2,35.8,45.9z M16.6,35.3c0.6,2.1,3.4,5.9,10.1,3.6
			c0-0.9-0.9-5-5.8-4.8c-2.7,0.1-3.5,0.6-4,1C16.8,35.2,16.7,35.2,16.6,35.3z"/>
		<path class="st1" d="M32,0c17.7,0,32,14.3,32,32S49.7,64,32,64S0,49.7,0,32S14.3,0,32,0z M51.8,29.7c2.4-4.8,5.5-12.7,2.7-14.4
			c-2.7-1.6-9.9,3.1-14.2,6.3c-2.5-0.8-5.3-1.2-8.3-1.2c-2.8,0-5.6,0.4-8.3,1.2c-4.3-3.2-11.5-7.9-14.2-6.3
			c-2.8,1.8,0.2,9.6,2.7,14.4C10.8,31.9,10,34.3,10,37c0,7,5.8,13,13.9,15.5c1.9,2,4.8,3.1,8.1,3.1c3.3,0,6.2-1.2,8.1-3.1
			C48.3,50,54,44,54,37C54,34.3,53.2,31.9,51.8,29.7z"/>
		<path class="st1" d="M47.2,35.1c0.1,0.1,0.2,0.1,0.2,0.2c-0.6,2.1-3.4,5.9-10.1,3.6c0-0.9,0.9-5,5.8-4.8
			C45.8,34.2,46.6,34.8,47.2,35.1z"/>
		<path class="st1" d="M33.5,47.7c-0.5,0.2-0.9,0.2-1.3,0.2l-0.2,0c0,0-0.1,0-0.1,0c-0.5,0-0.9-0.1-1.3-0.2
			c-0.5-0.1-0.6-0.4-0.6-0.7c-0.1-0.4-0.2-0.8-1.7-1.1c-1.8-0.3,0.7-2.7,2-2.7h3.6c1.3,0,3.8,2.3,2,2.7c-1.5,0.3-1.6,0.7-1.7,1.1
			C34.1,47.2,34,47.5,33.5,47.7z"/>
		<path class="st1" d="M26.7,38.9c-6.7,2.3-9.5-1.5-10.1-3.6c0.1,0,0.2-0.1,0.2-0.2c0.6-0.4,1.4-0.9,4-1
			C25.8,33.8,26.7,38,26.7,38.9z"/>
	</g>
	<g>
	</g>
</g>
</svg>
