<?xml version="1.0" encoding="UTF-8"?>
<svg width="100px" height="100px" viewBox="0 0 100 100" version="1.1" xmlns="http://www.w3.org/2000/svg" xmlns:xlink="http://www.w3.org/1999/xlink">
    <!-- Generator: Sketch 53.1 (72631) - https://sketchapp.com -->
    <title>Artboard</title>
    <desc>Created with Sketch.</desc>
    <defs>
        <linearGradient x1="93.6909263%" y1="0%" x2="-10.2188693%" y2="104.123785%" id="linearGradient-1">
            <stop stop-color="#7D4997" offset="0%"></stop>
            <stop stop-color="#DC2430" offset="100%"></stop>
        </linearGradient>
    </defs>
    <g id="Artboard" stroke="none" stroke-width="1" fill="none" fill-rule="evenodd">
        <path d="M13,66.5708848 L45,87 L23.4345332,18 L13,66.5708848 Z M30,19.024148 L50.4961913,84 L71,19 L52.5376407,40.539094 C51.4486721,41.8095381 49.5007118,41.8088056 48.4126757,40.5375428 L30,19.024148 Z M56,87 L88,66.5708848 L77.5654668,18 L56,87 Z M92.936344,67.0253966 C93.1838799,68.1728942 92.6953859,69.3547968 91.7162926,69.9772895 L51.4669721,95.5671963 C50.9886695,95.8712938 50.4853091,96.0041623 50,95.9999008 C49.5146909,96.0041623 49.0113305,95.8712938 48.5330279,95.5671963 L8.28370744,69.9772895 C7.30461411,69.3547968 6.81612013,68.1728942 7.06365604,67.0253966 L20.1769314,6.23643238 C20.4982582,5.02768222 21.2460522,4.35592656 22.1101313,4.10731023 C22.2377001,4.07042919 22.3657415,4.04346542 22.4935651,4.02595147 C23.2860379,3.9160047 24.1292492,4.15201288 24.7699687,4.79948869 C24.8363153,4.86580647 24.8995332,4.93579424 24.9592844,5.00927456 L49.9811775,34.3948494 L75.042028,5.00766187 C75.1017873,4.93428506 75.1650058,4.86439712 75.2313463,4.79817511 C76.6970441,3.31904623 79.2197624,3.99082039 79.7741449,6.02959654 C79.7867188,6.07503579 84.1741185,26.4069691 92.936344,67.0253966 Z" id="Shape" stroke="url(#linearGradient-1)" fill="url(#linearGradient-1)"></path>
    </g>
</svg>