<svg width="674" height="146" viewBox="0 0 674 146" fill="none" xmlns="http://www.w3.org/2000/svg">
<path fill-rule="evenodd" clip-rule="evenodd" d="M135.325 106.817C127.048 106.817 120.339 100.131 120.339 91.8841V57.3941V55.0001C120.339 46.7521 113.629 40.0671 105.353 40.0671C97.076 40.0671 91.836 46.7531 91.836 55.0001V58.0661V91.8831C91.836 100.13 83.656 106.816 75.38 106.816C67.103 106.816 60.394 100.13 60.394 91.8831V83.4631V57.6431C60.246 57.5611 60.095 57.4871 59.947 57.4061V55.0001C59.947 46.7521 54.579 40.0671 46.303 40.0671C38.026 40.0671 31.317 46.7531 31.317 55.0001V58.0551C31.317 58.0551 31.764 92.9761 33.554 102.795C35.343 112.615 41.159 118.664 48.764 126.698C56.369 134.732 44.738 153.231 29.528 142.965C14.318 132.699 6.598 119.664 4.029 102.795C1.411 85.6201 0 55.3251 0 55.3251C0 55.3251 0.597 44.4701 2 42.0421C7.669 23.7171 24.757 10.4031 44.96 10.4031C56.583 10.4031 67.176 14.8111 75.156 22.0441C83.136 14.8111 93.729 10.4031 105.353 10.4031C125.555 10.4031 142.643 23.7171 148.312 42.0421C149.715 44.4701 150.312 55.3251 150.312 55.3251V83.4641V91.8841C150.312 100.131 143.602 106.817 135.325 106.817Z" fill="#4D525D"/>
<path fill-rule="evenodd" clip-rule="evenodd" d="M46.22 39.174C54.497 39.174 61.206 45.86 61.206 54.107V88.597V90.991C61.206 99.239 67.916 105.925 76.192 105.925C84.469 105.925 91.179 99.239 91.179 90.991V87.925V54.107C91.179 45.86 97.888 39.174 106.165 39.174C114.442 39.174 121.152 45.86 121.152 54.107V62.527V88.347C121.3 88.429 121.451 88.503 121.599 88.584V90.991C121.599 99.239 126.967 105.925 135.243 105.925C143.52 105.925 150.229 99.239 150.229 90.991V87.936C150.229 87.936 149.782 53.015 147.992 43.196C146.202 33.377 140.387 27.327 132.782 19.293C125.177 11.259 136.808 -7.23997 152.018 3.02603C167.228 13.292 174.948 26.327 177.517 43.196C180.133 60.371 181.543 90.666 181.543 90.666C181.543 90.666 180.946 101.521 179.543 103.949C173.874 122.274 156.786 135.588 136.583 135.588C124.96 135.588 114.367 131.18 106.387 123.947C98.407 131.18 87.814 135.588 76.19 135.588C55.988 135.588 38.9 122.274 33.231 103.949C31.828 101.521 31.231 90.666 31.231 90.666V62.527V54.107C31.234 45.86 37.943 39.174 46.22 39.174Z" fill="#FCD600"/>
<path d="M298.408 31.1399C296.599 29.9309 294.159 29.3259 291.086 29.3259H286.096C283.094 29.3259 280.916 29.5969 279.56 30.1379C278.204 30.6789 277.201 31.6539 276.55 33.0609C275.899 34.4679 275.158 36.7609 274.326 39.9359L262.773 83.4049L251.22 39.9359C250.388 36.7609 249.647 34.4689 248.996 33.0609C248.345 31.6539 247.342 30.6789 245.986 30.1379C244.63 29.5969 242.451 29.3259 239.45 29.3259H234.46C231.386 29.3259 228.945 29.9309 227.138 31.1399C225.33 32.3489 224.426 34.6859 224.426 38.1499V100.944C224.426 104.012 225.112 106.295 226.487 107.792C227.861 109.289 229.633 110.039 231.802 110.039C234.044 110.039 235.843 109.281 237.199 107.766C238.555 106.25 239.233 103.977 239.233 100.945V46.1619L251.979 96.7219C252.413 98.3819 252.837 99.9789 253.254 101.513C253.669 103.047 254.239 104.445 254.962 105.708C255.685 106.972 256.698 108.009 257.999 108.821C259.301 109.633 260.892 110.039 262.772 110.039C265.267 110.039 267.22 109.407 268.63 108.144C270.04 106.881 271.007 105.483 271.532 103.949C272.056 102.415 272.734 100.007 273.566 96.7219L286.312 46.1619V100.945C286.312 103.976 286.999 106.25 288.373 107.766C289.747 109.282 291.5 110.039 293.634 110.039C295.912 110.039 297.729 109.281 299.085 107.766C300.441 106.25 301.119 103.977 301.119 100.945V38.1499C301.119 34.6849 300.215 32.3489 298.408 31.1399ZM368.863 27.9729C367.561 27.9729 366.458 28.2079 365.554 28.6769C364.65 29.1459 363.827 29.8229 363.086 30.7069C362.344 31.5919 361.667 32.5389 361.052 33.5489C360.437 34.5599 359.677 35.8049 358.774 37.2839L343.75 61.3729L328.89 37.2839C326.612 33.5669 324.903 31.0859 323.764 29.8409C322.625 28.5959 320.952 27.9729 318.747 27.9729C316.65 27.9729 314.887 28.6409 313.459 29.9759C312.03 31.3119 311.317 32.8989 311.317 34.7399C311.317 35.8589 311.67 37.1759 312.375 38.6919C313.08 40.2079 314.282 42.3189 315.982 45.0259L335.399 75.0699V100.242C335.399 103.563 336.14 106.026 337.623 107.631C339.105 109.236 341.04 110.04 343.426 110.04C345.776 110.04 347.711 109.228 349.23 107.604C350.749 105.98 351.508 103.526 351.508 100.242V75.0689L371.414 44.5919C373.077 42.1019 374.252 40.1529 374.94 38.7459C375.626 37.3389 375.971 35.9309 375.971 34.5239C375.971 32.7919 375.293 31.2679 373.937 29.9499C372.579 28.6319 370.888 27.9729 368.863 27.9729ZM479.826 27.9729C477.728 27.9729 476.128 28.5139 475.026 29.5969C473.923 30.6799 473.145 31.9069 472.694 33.2779C472.241 34.6499 471.763 36.5439 471.257 38.9619L460.842 85.2999L449.072 41.9399C448.096 38.3669 447.318 35.8049 446.74 34.2529C446.161 32.7019 445.121 31.2669 443.621 29.9499C442.12 28.6329 440.014 27.9739 437.302 27.9739C434.626 27.9739 432.51 28.6059 430.956 29.8689C429.401 31.1329 428.28 32.6299 427.593 34.3619C426.906 36.0939 426.128 38.6209 425.261 41.9409L413.601 85.2999L403.187 38.9619C402.428 35.3889 401.541 32.6649 400.529 30.7879C399.516 28.9119 397.546 27.9729 394.617 27.9729C392.483 27.9729 390.693 28.6769 389.247 30.0839C387.8 31.4909 387.077 33.2239 387.077 35.2809C387.077 36.9049 387.474 39.2689 388.27 42.3719L401.504 95.8009C401.902 97.3899 402.353 99.1119 402.86 100.971C403.366 102.83 404.017 104.435 404.813 105.789C405.608 107.142 406.648 108.19 407.932 108.929C409.215 109.668 410.851 110.039 412.841 110.039C415.299 110.039 417.27 109.417 418.753 108.172C420.235 106.927 421.275 105.519 421.872 103.95C422.469 102.38 423.273 99.7909 424.286 96.1819L437.303 48.5989L450.157 96.1819C451.205 99.8989 452.019 102.525 452.598 104.058C453.176 105.592 454.207 106.973 455.69 108.199C457.172 109.426 459.143 110.04 461.602 110.04C464.205 110.04 466.221 109.408 467.65 108.145C469.078 106.882 470.091 105.411 470.687 103.733C471.284 102.055 472.034 99.4119 472.938 95.8029L486.172 42.3739C486.967 39.1259 487.365 36.7629 487.365 35.2829C487.365 33.1899 486.633 31.4489 485.168 30.0589C483.704 28.6679 481.923 27.9729 479.826 27.9729ZM506.674 27.9729C504.323 27.9729 502.407 28.7849 500.925 30.4089C499.442 32.0329 498.701 34.4689 498.701 37.7169V100.24C498.701 103.488 499.451 105.933 500.952 107.575C502.452 109.217 504.36 110.038 506.674 110.038C509.096 110.038 511.058 109.226 512.559 107.602C514.059 105.978 514.81 103.524 514.81 100.24V37.7169C514.81 34.4339 514.059 31.9879 512.559 30.3819C511.058 28.7769 509.096 27.9729 506.674 27.9729ZM585.13 67.8689C582.581 66.0649 579.489 64.5309 575.855 63.2679C572.221 62.0049 568.162 60.8509 563.678 59.8039C560.098 58.9019 557.53 58.2159 555.976 57.7469C554.421 57.2779 552.885 56.6289 551.366 55.7979C549.847 54.9679 548.654 53.9759 547.786 52.8209C546.918 51.6669 546.484 50.2949 546.484 48.7069C546.484 46.1449 547.759 43.9529 550.308 42.1299C552.857 40.3079 556.211 39.3959 560.369 39.3959C564.852 39.3959 568.106 40.2349 570.132 41.9129C572.157 43.5909 573.892 45.9279 575.339 48.9229C576.459 51.0159 577.499 52.5229 578.458 53.4429C579.416 54.3629 580.817 54.8229 582.661 54.8229C584.686 54.8229 586.376 54.0569 587.732 52.5219C589.088 50.9889 589.766 49.2659 589.766 47.3519C589.766 45.2589 589.224 43.1119 588.139 40.9099C587.054 38.7089 585.336 36.6059 582.986 34.6029C580.635 32.5999 577.679 30.9949 574.118 29.7849C570.556 28.5759 566.335 27.9719 561.453 27.9719C555.342 27.9719 550.027 28.8839 545.507 30.7059C540.986 32.5289 537.534 35.1359 535.147 38.5279C532.76 41.9209 531.567 45.7999 531.567 50.1669C531.567 54.7509 532.697 58.5849 534.957 61.6699C537.216 64.7559 540.272 67.1909 544.123 68.9779C547.974 70.7639 552.755 72.3259 558.469 73.6599C562.735 74.6339 566.144 75.5549 568.693 76.4209C571.242 77.2869 573.321 78.5409 574.93 80.1829C576.539 81.8259 577.344 83.9639 577.344 86.5979C577.344 89.9189 575.853 92.6879 572.869 94.9069C569.886 97.1259 566.008 98.2359 561.235 98.2359C557.764 98.2359 554.961 97.6859 552.828 96.5849C550.694 95.4849 549.04 94.0859 547.865 92.3899C546.69 90.6939 545.595 88.5829 544.584 86.0559C543.752 83.9269 542.748 82.3209 541.574 81.2379C540.399 80.1549 538.961 79.6139 537.262 79.6139C535.164 79.6139 533.438 80.3089 532.082 81.6979C530.726 83.0879 530.048 84.7559 530.048 86.7049C530.048 90.0609 531.178 93.5169 533.438 97.0709C535.697 100.626 538.636 103.468 542.252 105.597C547.35 108.557 553.823 110.036 561.669 110.036C568.213 110.036 573.873 108.953 578.646 106.788C583.419 104.623 587.044 101.628 589.521 97.8019C591.997 93.9769 593.236 89.6639 593.236 84.8639C593.236 80.8579 592.522 77.4749 591.094 74.7139C589.668 71.9559 587.679 69.6739 585.13 67.8689ZM671.749 30.3819C670.248 28.7769 668.286 27.9729 665.864 27.9729C663.478 27.9729 661.552 28.7849 660.088 30.4089C658.623 32.0329 657.891 34.4689 657.891 37.7169V60.4529H623.124V37.7169C623.124 34.4339 622.373 31.9879 620.873 30.3819C619.372 28.7769 617.41 27.9729 614.988 27.9729C612.529 27.9729 610.585 28.7849 609.157 30.4089C607.728 32.0329 607.015 34.4689 607.015 37.7169V100.24C607.015 103.488 607.738 105.933 609.185 107.575C610.631 109.217 612.566 110.038 614.988 110.038C617.375 110.038 619.327 109.226 620.846 107.602C622.365 105.978 623.124 103.524 623.124 100.24V73.5529H657.891V100.241C657.891 103.489 658.614 105.934 660.061 107.576C661.507 109.218 663.442 110.039 665.864 110.039C668.251 110.039 670.203 109.227 671.722 107.603C673.241 105.979 674 103.525 674 100.24V37.7169C674 34.4329 673.249 31.9879 671.749 30.3819Z" fill="#4A525D"/>
</svg>
