<svg xmlns="http://www.w3.org/2000/svg" width="180" height="54"><defs><linearGradient id="a" x1="14.294%" x2="90.426%" y1="50%" y2="53.538%"><stop offset="0%" stop-color="#7543E3"/><stop offset="100%" stop-color="#582ACB"/></linearGradient></defs><g fill="none" fill-rule="evenodd"><path fill="#FFF" fill-rule="nonzero" d="M66.257 35.762v-5.057h3.99c1.532 0 2.866-.25 4.002-.751 1.136-.5 2.008-1.223 2.614-2.165.606-.943.909-2.049.909-3.317 0-1.285-.303-2.395-.91-3.33-.605-.934-1.477-1.652-2.613-2.153-1.136-.5-2.47-.75-4.002-.75h-7.272v17.523h3.282zm3.838-7.81h-3.838v-6.96h3.838c1.431 0 2.517.3 3.258.901.74.601 1.11 1.46 1.11 2.579 0 1.118-.37 1.977-1.11 2.578-.74.6-1.827.901-3.258.901zm15.685 7.81v-5.107h4.087c.255-.002.45-.01.584-.025l3.61 5.132h3.536l-4.065-5.758c1.212-.467 2.142-1.177 2.79-2.128.648-.951.972-2.086.972-3.404 0-1.285-.303-2.395-.91-3.33-.605-.934-1.476-1.652-2.613-2.153-1.136-.5-2.47-.75-4.002-.75h-7.272v17.523h3.283zm3.838-7.786H85.78v-6.984h3.838c1.43 0 2.516.3 3.257.901.74.601 1.111 1.46 1.111 2.579 0 1.118-.37 1.981-1.111 2.59-.74.61-1.826.914-3.257.914zm21.037 8.036c1.801 0 3.426-.388 4.873-1.164 1.448-.776 2.584-1.848 3.41-3.217.824-1.368 1.236-2.912 1.236-4.631 0-1.719-.412-3.263-1.237-4.631-.825-1.369-1.961-2.44-3.409-3.217-1.447-.776-3.072-1.164-4.873-1.164-1.801 0-3.426.388-4.873 1.164-1.448.776-2.584 1.853-3.41 3.23-.824 1.376-1.236 2.916-1.236 4.618 0 1.702.412 3.242 1.237 4.619a8.66 8.66 0 003.409 3.229c1.447.776 3.072 1.164 4.873 1.164zm0-2.854c-1.178 0-2.239-.263-3.182-.788a5.737 5.737 0 01-2.222-2.203c-.538-.943-.808-1.999-.808-3.167 0-1.168.27-2.224.808-3.167a5.743 5.743 0 012.222-2.203c.943-.525 2.004-.788 3.182-.788s2.239.263 3.182.788a5.737 5.737 0 012.222 2.203c.538.943.808 1.999.808 3.167 0 1.168-.27 2.224-.808 3.167a5.743 5.743 0 01-2.222 2.203c-.943.525-2.004.788-3.182.788zm21.063 2.604v-14.77h5.858v-2.754h-15v2.754h5.859v14.77h3.283zm17.78.25c1.8 0 3.425-.388 4.873-1.164 1.448-.776 2.584-1.848 3.409-3.217.824-1.368 1.237-2.912 1.237-4.631 0-1.719-.413-3.263-1.237-4.631-.825-1.369-1.961-2.44-3.41-3.217-1.447-.776-3.071-1.164-4.873-1.164-1.8 0-3.425.388-4.873 1.164-1.448.776-2.584 1.853-3.409 3.23-.825 1.376-1.237 2.916-1.237 4.618 0 1.702.412 3.242 1.237 4.619.825 1.376 1.961 2.453 3.41 3.229 1.447.776 3.071 1.164 4.872 1.164zm0-2.854c-1.179 0-2.24-.263-3.182-.788a5.73 5.73 0 01-2.222-2.203c-.539-.943-.808-1.999-.808-3.167 0-1.168.27-2.224.808-3.167a5.737 5.737 0 012.222-2.203c.943-.525 2.003-.788 3.181-.788 1.179 0 2.24.263 3.182.788a5.73 5.73 0 012.222 2.203c.539.943.808 1.999.808 3.167 0 1.168-.27 2.224-.808 3.167a5.737 5.737 0 01-2.222 2.203c-.943.525-2.003.788-3.182.788zm17.704 2.604V23.896l9.746 11.866h2.702V18.238h-3.257v11.866l-9.747-11.866h-2.702v17.524h3.258z"/><path fill="url(#a)" d="M24.28 0c3.492 0 6.504 3.594 8.488 9.434-.8.222-1.62.468-2.446.744-1.648-4.832-3.91-7.675-6.042-7.675-2.403 0-4.966 3.606-6.635 9.599.652.209 1.31.43 1.982.676a60.24 60.24 0 014.669 1.94l.273-.127a61.773 61.773 0 013.397-1.428c3.006-1.15 5.91-1.977 8.568-2.413 5.725-.944 9.75.032 11.33 2.75 1.584 2.718.426 6.662-3.26 11.104-.214.254-.43.511-.657.765a39.966 39.966 0 00-1.757-1.813c3.254-3.74 4.534-7.01 3.489-8.804-.99-1.699-4.25-2.271-8.73-1.535a34.61 34.61 0 00-2.974.636c.145.665.282 1.344.402 2.047.276 1.573.49 3.238.642 4.972a60.752 60.752 0 012.294 1.672c2.893 2.22 5.378 4.549 7.29 6.852 3.687 4.442 4.845 8.386 3.261 11.104-1.187 2.042-3.755 3.1-7.387 3.1-1.201 0-2.518-.114-3.943-.35-.368-.06-.743-.129-1.122-.204.227-.776.437-1.588.628-2.428.306.06.61.114.909.165 4.477.736 7.74.164 8.73-1.535 1.2-2.063-.675-6.077-5.087-10.515a50.91 50.91 0 01-1.363 1.189c-.07.057-.141.118-.21.171a59.738 59.738 0 01-4.006 3.043 61.863 61.863 0 01-.24 2.314C33.397 46.45 29.342 54 24.28 54c-3.484 0-6.493-3.583-8.477-9.409a42.134 42.134 0 002.446-.744c1.648 4.817 3.903 7.65 6.031 7.65 2.403 0 4.973-3.618 6.645-9.627a45.086 45.086 0 01-1.984-.673 59.786 59.786 0 01-4.647-1.913l-.1.047c-.884.407-1.754.786-2.612 1.137-.134.053-.263.107-.393.154-4.942 1.974-9.455 2.996-13.044 2.996-3.575 0-6.226-1.015-7.452-3.118-1.754-3.011-.094-7.42 4.058-12.07l1.764 1.846c-3.359 3.812-4.693 7.152-3.633 8.972 1.2 2.062 5.631 2.46 11.7.898a49.983 49.983 0 01-.398-2.042 59.45 59.45 0 01-.64-4.962 65.204 65.204 0 01-2.29-1.657C4.22 26.12 0 20.423 0 16.182c0-.98.227-1.88.693-2.682 1.745-2.993 6.38-3.784 12.466-2.575-.23.787-.444 1.61-.635 2.46-5.003-.98-8.585-.454-9.642 1.367-1.2 2.06.669 6.066 5.068 10.497.564-.507 1.15-1.01 1.764-1.51a60.492 60.492 0 013.833-2.885c.07-.787.147-1.565.243-2.319C15.168 7.545 19.223 0 24.28 0zm7.99 34.95a73.86 73.86 0 01-1.85 1.126 69.86 69.86 0 01-2.872 1.592c-.109.058-.218.111-.327.169a53.948 53.948 0 004.301 1.597c.148-.685.285-1.392.41-2.124.128-.76.237-1.553.338-2.36zm-15.988-.004c.106.848.228 1.672.365 2.468.12.696.253 1.365.395 2.017.408-.13.82-.268 1.24-.415.126-.043.255-.09.382-.136a48.231 48.231 0 002.647-1.03l.025-.01a73.833 73.833 0 01-2.557-1.395c-.043-.025-.09-.05-.133-.079a73.144 73.144 0 01-2.364-1.42zm8-17.455a65.378 65.378 0 00-4.24 2.232 67.93 67.93 0 00-4.067 2.521A64.73 64.73 0 0015.803 27c0 1.646.061 3.23.17 4.754.737.494 1.495.984 2.287 1.465a68.399 68.399 0 006.022 3.29l.272-.129a65.632 65.632 0 002.85-1.48 67.58 67.58 0 005.181-3.143A64.931 64.931 0 0032.757 27c0-1.645-.06-3.23-.17-4.753a66.234 66.234 0 00-4.068-2.524 67.98 67.98 0 00-4.238-2.232zm-.002 6.29c1.793 0 3.247 1.441 3.247 3.219 0 1.778-1.454 3.219-3.247 3.219S21.034 28.778 21.034 27c0-1.778 1.453-3.219 3.246-3.219zm10.946.335c.037.945.056 1.907.056 2.884 0 .236 0 .472-.003.708-.008.74-.03 1.466-.059 2.187.65-.488 1.274-.976 1.87-1.465l.22-.178c.504-.42.987-.836 1.451-1.252a51.598 51.598 0 00-3.535-2.884zm-21.886-.007c-.584.438-1.149.876-1.689 1.314-.65.524-1.267 1.05-1.854 1.578.426.381.867.764 1.328 1.147.696.58 1.437 1.159 2.21 1.737A73.77 73.77 0 0113.278 27c0-.236 0-.472.007-.705.005-.738.027-1.465.055-2.186zm18.178-9.542a51.46 51.46 0 00-4.067 1.501l-.22.093c.845.441 1.696.906 2.55 1.394.043.025.09.05.134.079.806.46 1.59.938 2.363 1.423a53.885 53.885 0 00-.365-2.47 50.997 50.997 0 00-.395-2.02zm-14.478 0a49.687 49.687 0 00-.751 4.478c.77-.482 1.562-.958 2.375-1.425l.115-.065a73.19 73.19 0 012.561-1.394 55.197 55.197 0 00-2.28-.898 44.692 44.692 0 00-2.02-.696z"/></g></svg>
