<?xml version="1.0" encoding="utf-8"?>
<!-- Generator: Adobe Illustrator 16.0.0, SVG Export Plug-In . SVG Version: 6.00 Build 0)  -->
<!DOCTYPE svg PUBLIC "-//W3C//DTD SVG 1.1//EN" "http://www.w3.org/Graphics/SVG/1.1/DTD/svg11.dtd">
<svg version="1.1" id="Layer_1" xmlns="http://www.w3.org/2000/svg" xmlns:xlink="http://www.w3.org/1999/xlink" x="0px" y="0px"
	 width="1180px" height="316px" viewBox="0 0 1180 316" enable-background="new 0 0 1180 316" xml:space="preserve">
<g>
	<linearGradient id="SVGID_1_" gradientUnits="userSpaceOnUse" x1="100.0796" y1="161.1357" x2="232.1558" y2="161.1357">
		<stop  offset="0" style="stop-color:#089DC7"/>
		<stop  offset="1" style="stop-color:#07CED1"/>
	</linearGradient>
	<path fill="url(#SVGID_1_)" d="M166.147,256.633c-0.02,0-0.039,0-0.061,0c-0.945,0-1.891-0.257-2.727-0.77l-60.871-37.33
		c-0.814-0.5-1.444-1.192-1.859-1.994c-0.166-0.319-0.297-0.66-0.387-1.003c-0.171-0.653-0.213-1.338-0.104-2.026v-0.005
		c0.001,0,0.001,0,0.001,0c0.017-0.116,0.039-0.228,0.062-0.335l19.822-88.636c0.093-0.453,0.251-0.894,0.465-1.306l0,0
		c0.005-0.006,0.011-0.02,0.016-0.027l0,0c0,0,0.002-0.006,0.005-0.006v-0.002c0-0.005,0.002-0.005,0.002-0.005v-0.002l0.005-0.005
		h0.001c0-0.003,0-0.008,0-0.008v-0.002c0.129-0.236,0.274-0.462,0.437-0.676l40.987-54.802c0.991-1.325,2.559-2.067,4.174-2.056
		c0.01,0,0.02,0,0.029,0c1.607,0,3.157,0.741,4.143,2.056l40.987,54.802c0.163,0.214,0.309,0.439,0.434,0.676l0.001,0.002
		c0,0,0.002,0.005,0.003,0.008l0,0l0.001,0.005c0,0,0.002,0.002,0.003,0.002c0,0,0.003,0,0.003,0.005v0.002l0.003,0.003
		c0.001,0.003,0.001,0.003,0.001,0.003c0.005,0.008,0.01,0.021,0.015,0.027l0,0c0.215,0.412,0.372,0.853,0.465,1.306l19.82,88.636
		c0.024,0.107,0.049,0.219,0.065,0.33c0,0,0,0.005,0.003,0.005v0.005c0.106,0.688,0.065,1.373-0.108,2.026
		c-0.093,0.343-0.22,0.684-0.388,1.003c-0.411,0.802-1.043,1.494-1.855,1.994l-60.871,37.33
		C168.037,256.376,167.09,256.633,166.147,256.633z M182.047,219.299l-6.757,20.766l33.866-20.766H182.047z M123.079,219.299
		l33.864,20.766l-6.757-20.766H123.079z M160.965,219.299l5.153,15.839l5.152-15.839H160.965z M185.318,209.251h32.89
		l-21.056-36.376L185.318,209.251z M157.695,209.251h16.846l15.708-48.292l-24.131-41.684l-24.133,41.684L157.695,209.251z
		 M114.026,209.251h32.89l-11.832-36.376L114.026,209.251z M201.397,159.823l13.342,23.05l-8.488-37.967L201.397,159.823z
		 M125.981,144.906l-8.488,37.967l13.344-23.05L125.981,144.906z M171.282,107.813l23.218,40.096l6.987-21.486l-30.205-40.384
		V107.813z M130.748,126.422l6.99,21.486l23.212-40.096V86.038L130.748,126.422z"/>
</g>
<g>
	
		<linearGradient id="SVGID_2_" gradientUnits="userSpaceOnUse" x1="-3360.8237" y1="1304.0645" x2="-3325.6577" y2="1304.0645" gradientTransform="matrix(-0.998 0.0632 -0.0632 -0.998 -3158.8777 1653.5781)">
		<stop  offset="0" style="stop-color:#089DC7"/>
		<stop  offset="1" style="stop-color:#07CED1"/>
	</linearGradient>
	<path fill="url(#SVGID_2_)" d="M107.714,149.55l4.45-19.986c0,0-33.809-4.453-34.083,18.208c2.8,3.764,6.183,4.84,6.183,4.84
		S86.212,149.137,107.714,149.55z"/>
	<path fill="#FFFFFF" d="M140.205,192.8l-1.942,9.777l0.174,2.761l38.727-13.879l-0.176-2.762l-30.196-25.674l-2.346,9.605
		c-46.135-10.801-59.225-23.045-62.935-28.953c-0.604-0.963-1.18-2.67,0.21-4.363c7.927-9.654,26.615-8.229,30.025-7.871
		l0.418-1.878c0,0-31.794-4.187-33.967,16.23c-1.129,3.69-2.529,8.684-3.459,13.468C73.635,176.076,140.205,192.8,140.205,192.8z"/>
	
		<linearGradient id="SVGID_3_" gradientUnits="userSpaceOnUse" x1="-3421.7822" y1="1270.584" x2="-3320.8506" y2="1270.584" gradientTransform="matrix(-0.998 0.0632 -0.0632 -0.998 -3158.8777 1653.5781)">
		<stop  offset="0" style="stop-color:#089DC7"/>
		<stop  offset="1" style="stop-color:#07CED1"/>
	</linearGradient>
	<path fill="url(#SVGID_3_)" d="M177.165,191.459l-38.727,13.879l1.942-9.777c0,0-67.282-17.023-66.18-33.842
		c1.785-9.176,4.841-20.011,4.841-20.011s1.978,18.791,65.582,33.682l2.346-9.607L177.165,191.459z"/>
</g>
<g>
	<g>
		
			<linearGradient id="SVGID_4_" gradientUnits="userSpaceOnUse" x1="349.2158" y1="1186.4766" x2="383.792" y2="1186.4766" gradientTransform="matrix(0.8825 -0.4703 0.4703 0.8825 -636.8751 -704.5266)">
			<stop  offset="0" style="stop-color:#089DC7"/>
			<stop  offset="1" style="stop-color:#07CED1"/>
		</linearGradient>
		<path fill="url(#SVGID_4_)" d="M229.865,167.432l4.146,19.699c0,0,32.078-9.76,23.107-30.16c-4.037-2.229-7.503-1.817-7.503-1.817
			S249.286,159.055,229.865,167.432z"/>
		<path fill="#FFFFFF" d="M183.188,141.922l-2.238-9.544l-1.279-2.4l-29.028,28.175l1.279,2.402l37.477,10.707l-1.806-9.556
			c45.699-9.093,62.396-3.454,68.124,0.327c0.932,0.614,2.141,1.905,1.584,3.99c-3.172,11.869-20.481,18.189-23.679,19.258
			l0.39,1.85c0,0,30.17-9.178,23.808-28.342c-0.489-3.764-1.268-8.805-2.379-13.463
			C249.591,129.819,183.188,141.922,183.188,141.922z"/>
		
			<linearGradient id="SVGID_5_" gradientUnits="userSpaceOnUse" x1="319" y1="1114.2227" x2="366.9226" y2="1195.7595" gradientTransform="matrix(0.8825 -0.4703 0.4703 0.8825 -636.8751 -704.5266)">
			<stop  offset="0" style="stop-color:#089DC7"/>
			<stop  offset="1" style="stop-color:#07CED1"/>
		</linearGradient>
		<path fill="url(#SVGID_5_)" d="M150.643,158.152l29.028-28.175l2.239,9.544c0,0,67.161-12.123,73.01,3.383
			c2.136,8.941,3.805,19.885,3.805,19.885s-9.412-16.02-72.41-3.484l1.805,9.555L150.643,158.152z"/>
	</g>
</g>
<g>
	<linearGradient id="SVGID_6_" gradientUnits="userSpaceOnUse" x1="280.042" y1="167.1846" x2="351.4219" y2="167.1846">
		<stop  offset="0" style="stop-color:#089DC7"/>
		<stop  offset="1" style="stop-color:#07CED1"/>
	</linearGradient>
	<path fill="url(#SVGID_6_)" d="M320.366,121.9v96.02c0,1.525-0.488,2.83-1.464,3.913c-0.976,1.085-2.194,1.626-3.658,1.626
		c-1.41,0-2.575-0.541-3.497-1.626c-0.922-1.083-1.382-2.388-1.382-3.913V121.9h-25.283c-1.41,0-2.603-0.541-3.578-1.627
		c-0.974-1.083-1.462-2.387-1.462-3.912c0-1.523,0.488-2.813,1.462-3.869c0.976-1.056,2.168-1.582,3.578-1.582h61.3
		c1.408,0,2.601,0.543,3.576,1.627c0.977,1.084,1.464,2.389,1.464,3.912c0,1.583-0.487,2.889-1.464,3.913
		c-0.976,1.026-2.168,1.538-3.576,1.538H320.366z"/>
	<linearGradient id="SVGID_7_" gradientUnits="userSpaceOnUse" x1="356.9482" y1="167.3613" x2="462.7207" y2="167.3613">
		<stop  offset="0" style="stop-color:#089DC7"/>
		<stop  offset="1" style="stop-color:#07CED1"/>
	</linearGradient>
	<path fill="url(#SVGID_7_)" d="M430.323,114.602c6.422,2.99,12.032,7.079,16.828,12.268c4.797,5.188,8.591,11.241,11.383,18.158
		c2.79,6.916,4.187,14.331,4.187,22.244c0,5.277-0.638,10.363-1.911,15.257c-1.274,4.896-3.048,9.452-5.324,13.674
		c-2.277,4.22-5.042,8.089-8.294,11.606c-3.252,3.516-6.828,6.507-10.731,8.968c-3.901,2.462-8.116,4.383-12.641,5.76
		c-4.526,1.377-9.228,2.067-14.106,2.067c-4.877,0-9.581-0.69-14.105-2.067c-4.526-1.377-8.739-3.298-12.642-5.76
		c-3.902-2.461-7.453-5.452-10.651-8.968c-3.198-3.518-5.935-7.387-8.211-11.606c-2.276-4.222-4.038-8.778-5.285-13.674
		c-1.246-4.894-1.87-9.979-1.87-15.257c0-5.275,0.624-10.345,1.87-15.211c1.247-4.865,3.009-9.408,5.285-13.629
		s5.013-8.074,8.211-11.563c3.198-3.486,6.749-6.478,10.651-8.969c3.902-2.492,8.115-4.411,12.642-5.76
		c4.524-1.349,9.229-2.022,14.105-2.022C417.029,110.118,423.9,111.613,430.323,114.602z M393.088,124.891
		c-5.178,2.404-9.675,5.686-13.496,9.849c-3.821,4.162-6.843,9.026-9.065,14.595c-2.223,5.571-3.334,11.55-3.334,17.938
		c0,6.451,1.111,12.473,3.334,18.07c2.223,5.6,5.244,10.479,9.065,14.641s8.318,7.445,13.496,9.848
		c5.174,2.405,10.743,3.605,16.707,3.605c5.906,0,11.449-1.2,16.625-3.605c5.176-2.402,9.688-5.686,13.537-9.848
		c3.848-4.162,6.882-9.041,9.104-14.641c2.223-5.598,3.334-11.619,3.334-18.07c0-6.388-1.111-12.366-3.334-17.938
		c-2.223-5.568-5.257-10.433-9.104-14.595c-3.85-4.163-8.361-7.444-13.537-9.849c-5.176-2.402-10.719-3.605-16.625-3.605
		C403.831,121.285,398.262,122.488,393.088,124.891z"/>
	<linearGradient id="SVGID_8_" gradientUnits="userSpaceOnUse" x1="476.7842" y1="167.1846" x2="548.4092" y2="167.1846">
		<stop  offset="0" style="stop-color:#089DC7"/>
		<stop  offset="1" style="stop-color:#07CED1"/>
	</linearGradient>
	<path fill="url(#SVGID_8_)" d="M487.028,164.898l52.683-52.406c1.083-1.112,2.317-1.627,3.699-1.539
		c1.382,0.089,2.56,0.691,3.536,1.804c0.976,1.112,1.463,2.418,1.463,3.913c0,1.494-0.569,2.827-1.707,4l-36.259,35.875
		l35.935,58.209c0.866,1.35,1.15,2.771,0.854,4.266c-0.299,1.495-1.017,2.653-2.155,3.473c-1.193,0.822-2.479,1.113-3.86,0.879
		c-1.383-0.232-2.455-1.024-3.212-2.373L502.8,164.194l-15.771,15.651v38.162c0,1.525-0.501,2.813-1.505,3.869
		c-1.003,1.056-2.208,1.582-3.617,1.582c-1.41,0-2.616-0.526-3.617-1.582c-1.004-1.056-1.505-2.344-1.505-3.869V116.361
		c0-1.523,0.501-2.813,1.505-3.869c1.001-1.056,2.207-1.582,3.617-1.582c1.409,0,2.614,0.526,3.617,1.582
		c1.004,1.057,1.505,2.346,1.505,3.869V164.898z"/>
	<linearGradient id="SVGID_9_" gradientUnits="userSpaceOnUse" x1="563.043" y1="167.1875" x2="619.79" y2="167.1875">
		<stop  offset="0" style="stop-color:#089DC7"/>
		<stop  offset="1" style="stop-color:#07CED1"/>
	</linearGradient>
	<path fill="url(#SVGID_9_)" d="M567.758,223.459c-1.409-0.117-2.548-0.717-3.415-1.803c-0.866-1.083-1.3-2.387-1.3-3.912V116.449
		c0-1.64,0.516-2.975,1.545-4.001c1.029-1.024,2.276-1.538,3.739-1.538h46.423c1.407,0,2.601,0.526,3.576,1.582
		c0.976,1.057,1.464,2.375,1.464,3.957c0,1.525-0.488,2.83-1.464,3.913c-0.976,1.085-2.169,1.626-3.576,1.626h-41.464v39.832h30.57
		c1.462-0.057,2.683,0.455,3.658,1.539c0.976,1.086,1.462,2.391,1.462,3.912c0,1.526-0.486,2.801-1.462,3.825
		c-0.976,1.026-2.196,1.54-3.658,1.54h-30.57v39.832h41.464c1.407,0,2.601,0.527,3.576,1.582c0.976,1.057,1.464,2.346,1.464,3.869
		c0,1.583-0.488,2.918-1.464,4.001c-0.976,1.085-2.169,1.596-3.576,1.538H567.758z"/>
	<linearGradient id="SVGID_10_" gradientUnits="userSpaceOnUse" x1="634.9912" y1="167.1846" x2="711.5762" y2="167.1846">
		<stop  offset="0" style="stop-color:#089DC7"/>
		<stop  offset="1" style="stop-color:#07CED1"/>
	</linearGradient>
	<path fill="url(#SVGID_10_)" d="M645.234,133.156l-8.535-13.19c-0.543-0.761-0.854-1.655-0.935-2.681
		c-0.082-1.025,0.04-1.992,0.365-2.901c0.324-0.909,0.825-1.686,1.504-2.332c0.678-0.643,1.503-0.966,2.479-0.966h0.406
		c0.542,0.117,1.084,0.294,1.627,0.527h0.164c0.107,0.117,0.215,0.19,0.324,0.22c0.107,0.03,0.215,0.103,0.324,0.219l0.325,0.177
		c0.163,0.119,0.312,0.264,0.447,0.439s0.285,0.352,0.448,0.527l0.243,0.439l56.911,87.666v-84.852c0-1.523,0.499-2.828,1.502-3.912
		c1.004-1.084,2.237-1.627,3.699-1.627c1.464,0,2.67,0.543,3.619,1.627c0.946,1.084,1.423,2.389,1.423,3.912v101.559
		c0,1.35-0.395,2.521-1.18,3.517c-0.786,0.999-1.775,1.614-2.968,1.847c-0.217,0.059-0.542,0.088-0.975,0.088
		c-1.519,0-2.793-0.556-3.821-1.67l-0.326-0.527l-0.243-0.264L645.234,133.156v84.852c0,1.525-0.501,2.813-1.504,3.869
		c-1.004,1.056-2.208,1.582-3.618,1.582c-1.409,0-2.615-0.526-3.617-1.582c-1.003-1.056-1.504-2.344-1.504-3.869V116.537
		c0-1.523,0.501-2.814,1.504-3.869c1.002-1.055,2.208-1.582,3.617-1.582h0.406c0.598,0.117,1.14,0.294,1.627,0.527h0.164
		c0.107,0.117,0.215,0.19,0.324,0.22c0.107,0.03,0.215,0.103,0.324,0.219c0.108,0,0.216,0.061,0.325,0.177
		c0.597,0.47,1.07,1.084,1.423,1.847s0.528,1.583,0.528,2.462V133.156z"/>
	<path fill="#666666" d="M757.754,165.074c-3.037-0.937-6.248-2.109-9.636-3.517c-3.387-1.408-6.517-3.181-9.389-5.321
		c-2.873-2.139-5.259-4.748-7.155-7.825c-1.897-3.077-2.846-6.784-2.846-11.124c0-4.395,0.907-8.293,2.724-11.693
		c1.816-3.399,4.174-6.256,7.073-8.573c2.899-2.315,6.111-4.073,9.634-5.275c3.522-1.201,6.992-1.804,10.407-1.804
		c3.143,0,6.149,0.354,9.023,1.057c2.873,0.703,5.541,1.744,8.008,3.121c2.466,1.377,4.703,3.078,6.708,5.1
		c2.004,2.023,3.712,4.354,5.122,6.99c0.325,0.587,0.406,1.174,0.243,1.759c-0.162,0.587-0.434,1.026-0.813,1.319
		c-0.435,0.41-0.963,0.631-1.586,0.66s-1.233-0.25-1.829-0.836c-1.625-2.52-3.388-4.646-5.284-6.375
		c-1.897-1.729-3.916-3.121-6.057-4.178c-2.143-1.054-4.35-1.803-6.626-2.241s-4.58-0.659-6.91-0.659
		c-2.549,0-5.258,0.426-8.131,1.273c-2.874,0.851-5.528,2.171-7.968,3.957c-2.438,1.791-4.458,4.032-6.057,6.729
		c-1.6,2.697-2.397,5.891-2.397,9.584c-0.056,2.461,0.351,4.66,1.22,6.594c0.866,1.936,1.992,3.65,3.374,5.145
		c1.382,1.495,2.966,2.801,4.756,3.913c1.789,1.114,3.618,2.081,5.487,2.901c1.87,0.82,3.699,1.539,5.488,2.154
		c1.788,0.615,3.386,1.158,4.797,1.626c4.172,1.583,8.224,3.269,12.152,5.057c3.93,1.788,7.427,3.898,10.489,6.331
		c3.061,2.434,5.514,5.319,7.357,8.661c1.842,3.341,2.764,7.328,2.764,11.959c0,5.157-0.935,9.79-2.805,13.892
		c-1.87,4.104-4.349,7.578-7.438,10.421c-3.09,2.844-6.627,5.011-10.609,6.505c-3.983,1.495-8.091,2.244-12.316,2.244
		c-3.688,0-7.265-0.543-10.731-1.627c-3.471-1.085-6.667-2.564-9.595-4.441c-2.926-1.875-5.487-4.102-7.682-6.682
		c-2.197-2.58-3.862-5.363-5.002-8.354c-0.434-0.995-0.501-1.815-0.202-2.462c0.297-0.643,0.744-1.113,1.342-1.406
		c1.3-0.645,2.491-0.146,3.576,1.494c1.029,2.639,2.521,5.057,4.473,7.254c1.951,2.198,4.2,4.076,6.747,5.629
		s5.312,2.756,8.292,3.604c2.981,0.852,6.017,1.276,9.106,1.276c3.307,0,6.598-0.571,9.879-1.715
		c3.277-1.144,6.231-2.857,8.86-5.144c2.628-2.287,4.756-5.145,6.383-8.574c1.625-3.428,2.439-7.4,2.439-11.913
		c0-3.81-0.827-7.079-2.48-9.806c-1.654-2.727-3.834-5.084-6.545-7.078c-2.71-1.992-5.786-3.736-9.227-5.23
		C764.92,167.933,761.384,166.48,757.754,165.074z"/>
	<path fill="#666666" d="M800.19,114.867c-0.271-0.763-0.285-1.495-0.04-2.199c0.243-0.703,0.718-1.2,1.423-1.494
		c0.649-0.293,1.313-0.309,1.992-0.044c0.676,0.263,1.178,0.806,1.503,1.627l40.244,100.768l19.755-49.241l-19.674-49.416
		c-0.272-0.763-0.285-1.495-0.04-2.199c0.243-0.703,0.718-1.2,1.423-1.494c0.649-0.293,1.313-0.309,1.99-0.044
		c0.678,0.263,1.18,0.806,1.505,1.627l17.724,44.315l17.805-44.404c0.324-0.703,0.813-1.2,1.464-1.494
		c0.649-0.293,1.326-0.293,2.031,0c0.651,0.294,1.111,0.807,1.382,1.539c0.271,0.732,0.245,1.48-0.081,2.242l-19.755,49.328
		l19.755,49.416l40.487-101.031c0.271-0.703,0.732-1.2,1.382-1.494c0.651-0.293,1.328-0.293,2.033,0
		c0.703,0.294,1.178,0.807,1.423,1.539c0.243,0.732,0.23,1.48-0.041,2.242l-42.764,106.657c-0.272,0.646-0.65,1.13-1.139,1.452
		s-1.029,0.452-1.625,0.395c-0.435-0.057-0.868-0.232-1.301-0.526c-0.436-0.294-0.786-0.732-1.058-1.32l-19.999-50.119
		l-20.082,50.119c-0.271,0.588-0.623,1.026-1.057,1.32c-0.435,0.294-0.895,0.47-1.383,0.526c-0.541,0.058-1.056-0.072-1.543-0.395
		c-0.488-0.322-0.868-0.806-1.14-1.452L800.19,114.867z"/>
	<path fill="#666666" d="M1010.351,185.035h-51.464l-14.472,36.666c-0.271,0.764-0.73,1.29-1.382,1.582
		c-0.649,0.294-1.354,0.294-2.112,0c-0.705-0.292-1.167-0.818-1.383-1.582c-0.217-0.761-0.163-1.495,0.163-2.198l42.601-106.835
		c0.488-1.172,1.328-1.758,2.521-1.758c1.137,0,1.922,0.586,2.357,1.758l42.519,106.835c0.271,0.762,0.313,1.509,0.123,2.241
		c-0.191,0.734-0.61,1.247-1.26,1.539c-0.707,0.294-1.411,0.309-2.115,0.045s-1.219-0.777-1.545-1.539L1010.351,185.035z
		 M961.163,179.318h46.911l-23.414-59.353L961.163,179.318z"/>
	<path fill="#666666" d="M1047.502,173.076v47.57c0,0.82-0.258,1.494-0.772,2.021c-0.517,0.527-1.153,0.791-1.91,0.791
		c-0.705,0-1.315-0.264-1.829-0.791c-0.516-0.527-0.773-1.201-0.773-2.021V113.723c0-0.818,0.258-1.494,0.773-2.021
		c0.514-0.527,1.124-0.791,1.829-0.791h27.397c4.228,0,8.184,0.777,11.869,2.33s6.897,3.723,9.635,6.507
		c2.735,2.784,4.878,6.081,6.423,9.892c1.544,3.812,2.317,7.973,2.317,12.485c0,4.515-0.773,8.661-2.317,12.442
		c-1.545,3.781-3.688,7.05-6.423,9.805c-2.737,2.756-5.949,4.895-9.635,6.419c-3.686,1.525-7.642,2.286-11.869,2.286H1047.502z
		 M1047.502,116.537v50.911h24.877c3.63,0,6.964-0.673,10-2.021c3.035-1.349,5.65-3.195,7.846-5.54
		c2.194-2.345,3.902-5.057,5.122-8.134c1.219-3.077,1.829-6.345,1.829-9.804c0-3.574-0.624-6.916-1.87-10.025
		c-1.247-3.106-2.981-5.802-5.204-8.088c-2.222-2.287-4.863-4.074-7.927-5.365c-3.063-1.287-6.409-1.934-10.039-1.934H1047.502z"/>
</g>
</svg>
