<svg viewBox="0 0 1038 321" fill="none"
  xmlns="http://www.w3.org/2000/svg">
  <g clip-path="url(#clip0_3260_1909)">
    <g opacity="0.95">
      <path d="M113.31 316.84L3.5 209.93L111.448 7H113.31H115.172L223.11 209.93L113.31 316.84Z" fill="#333738" stroke="#F2F2F2" stroke-width="7" stroke-linecap="round" stroke-linejoin="round"/>
      <path d="M100.3 234.57L3.5 209.93L113.3 177.68L223.11 209.93L127.58 234.57M113.31 316.84L76.01 73.6201H150.6L113.31 316.84Z" stroke="#F2F2F2" stroke-width="7" stroke-linecap="round" stroke-linejoin="round"/>
    </g>
    <path d="M377.16 233.58C373.16 233.58 371.177 232.01 371.21 228.87V222.67C371.21 219.69 373.193 218.2 377.16 218.2H447.27C439.51 201.673 431.92 185.26 424.5 168.96C417.08 152.66 409.58 135.993 402 118.96L350.77 230.58C349.743 232.58 347.847 233.58 345.08 233.58H336.54C334.13 233.58 332.4 232.96 331.37 231.72C330.864 231.122 330.565 230.376 330.518 229.593C330.472 228.811 330.679 228.035 331.11 227.38L386.21 108.3V108.8C387.514 106.222 389.659 104.165 392.29 102.97C395.201 101.426 398.445 100.615 401.74 100.61C405.027 100.657 408.258 101.465 411.18 102.97C414.367 104.543 416.48 106.487 417.52 108.8V108.3C426.853 128.3 435.907 148.147 444.68 167.84C453.453 187.533 462.51 207.38 471.85 227.38C472.194 228.076 472.328 228.857 472.235 229.627C472.143 230.398 471.828 231.125 471.33 231.72C470.33 232.96 468.57 233.58 466.15 233.58H377.16ZM600.16 218.16C603.78 218.16 605.6 219.65 605.6 222.63V228.83C605.6 231.97 603.78 233.54 600.16 233.54H545.58C539.663 233.644 533.779 232.626 528.24 230.54C523.562 228.755 519.263 226.102 515.57 222.72C512.26 219.701 509.614 216.026 507.8 211.93C506.109 208.099 505.23 203.958 505.22 199.77V105.29C505.22 102.15 507.03 100.57 510.65 100.57H518.41C522.41 100.57 524.41 102.15 524.41 105.29V196.29C524.429 198.878 524.91 201.441 525.83 203.86C526.819 206.482 528.314 208.885 530.23 210.93C532.345 213.169 534.902 214.943 537.74 216.14C541.053 217.526 544.619 218.207 548.21 218.14L600.16 218.16ZM682.95 115.95C679.356 115.885 675.788 116.566 672.47 117.95C669.633 119.143 667.078 120.918 664.97 123.16C663.031 125.234 661.534 127.68 660.57 130.35C659.656 132.812 659.175 135.414 659.15 138.04V196.34C659.169 198.928 659.65 201.491 660.57 203.91C661.555 206.534 663.051 208.937 664.97 210.98C667.081 213.219 669.635 214.993 672.47 216.19C675.788 217.574 679.356 218.255 682.95 218.19H734.95C738.57 218.19 740.38 219.68 740.38 222.66V228.86C740.38 232 738.57 233.57 734.95 233.57H680.36C674.446 233.673 668.566 232.655 663.03 230.57C658.352 228.784 654.054 226.131 650.36 222.75C647.053 219.73 644.411 216.056 642.6 211.96C640.906 208.129 640.024 203.989 640.01 199.8V134.58C640.054 130.446 640.935 126.364 642.6 122.58C644.379 118.406 647.024 114.656 650.36 111.58C654.073 108.19 658.369 105.5 663.04 103.64C668.558 101.497 674.442 100.457 680.36 100.58H734.95C738.57 100.58 740.38 102.16 740.38 105.3V111.5C740.38 114.5 738.57 115.96 734.95 115.96L682.95 115.95ZM812.04 233.58C799.113 233.58 789.93 230.893 784.49 225.52C779.05 220.147 776.34 213.23 776.36 204.77V129.58C776.36 121.14 779.077 114.193 784.51 108.74C789.943 103.287 799.207 100.567 812.3 100.58H845.42C858.52 100.58 867.79 103.31 873.23 108.77C878.67 114.23 881.38 121.167 881.36 129.58V204.75C881.36 213.183 878.693 220.087 873.36 225.46C868.027 230.833 858.8 233.54 845.68 233.58H812.04ZM843.09 218.2C851.017 218.2 856.147 216.92 858.48 214.36C860.813 211.8 861.977 207.467 861.97 201.36V133.07C862.104 128.676 860.688 124.375 857.97 120.92C855.303 117.587 850.17 115.92 842.57 115.92H815.15C811.82 115.828 808.498 116.291 805.32 117.29C803.045 118.01 800.965 119.241 799.24 120.89C797.771 122.358 796.733 124.202 796.24 126.22C795.709 128.454 795.451 130.744 795.47 133.04V201.26C795.431 203.844 795.689 206.425 796.24 208.95C796.698 210.985 797.741 212.841 799.24 214.29C800.95 215.833 803.055 216.871 805.32 217.29C808.556 217.931 811.852 218.223 815.15 218.16L843.09 218.2ZM1020.82 233.58C1019.87 233.556 1018.93 233.302 1018.1 232.84C1017.3 232.447 1016.56 231.945 1015.9 231.35L968.56 167.58C967.18 165.927 967.05 164.357 968.17 162.87C969.29 161.383 971.057 160.64 973.47 160.64H980.47C988.063 160.64 994.313 158.53 999.22 154.31C1001.58 152.375 1003.47 149.93 1004.75 147.159C1006.03 144.387 1006.66 141.362 1006.6 138.31C1006.6 130.87 1004.14 125.29 999.22 121.57C994.3 117.85 988.05 115.987 980.47 115.98H924.59C920.97 115.98 919.15 114.5 919.15 111.52V105.32C919.15 102.18 920.97 100.6 924.59 100.6H980.47C986.825 100.52 993.152 101.441 999.22 103.33C1004.43 104.941 1009.3 107.508 1013.58 110.9C1017.53 114.098 1020.68 118.177 1022.77 122.81C1024.96 127.682 1026.06 132.971 1026 138.31C1026.03 142.452 1025.15 146.549 1023.41 150.31C1021.68 154.048 1019.41 157.516 1016.69 160.61C1013.93 163.754 1010.75 166.506 1007.24 168.79C1003.89 171.019 1000.29 172.852 996.51 174.25L1036.36 226.58C1037.74 228.233 1037.91 229.803 1036.88 231.29C1035.88 232.78 1034.12 233.52 1031.7 233.52L1020.82 233.58ZM932.36 130.34C936.36 130.34 938.36 131.92 938.36 135.06V228.83C938.36 231.97 936.36 233.54 932.36 233.54H924.6C920.98 233.54 919.16 231.97 919.16 228.83V135.06C919.16 131.92 920.98 130.34 924.6 130.34H932.36Z" fill="#BDC2C6"/>
    <path d="M63.4999 33.0001C57.8999 41.4001 59.1665 57.8334 60.4999 65.0001L67.5 79.5001L155 111.5C156.167 114.167 158.7 120.3 159.5 123.5C160.3 126.7 165.5 136.167 168 140.5H172.5L181.5 149L184.5 143.5C183.667 142.167 183.1 136.3 187.5 123.5C193 107.5 217.5 81.5001 218 68.5001C218.5 55.5001 192.5 5.00012 174 9.00012C159.2 12.2001 145.833 11.8909 141 11.3363C136.146 9.41785 129.433 6.84643 119 3.50007C92.5 -4.99993 70.4999 22.5001 63.4999 33.0001Z" fill="#E23940"/>
    <path d="M157 16.0001C151.543 15.697 148.476 14.291 141 11.3363M141 11.3363C136.146 9.41785 129.433 6.84643 119 3.50007C92.5 -4.99993 70.4999 22.5001 63.4999 33.0001C57.8999 41.4001 59.1665 57.8334 60.4999 65.0001L67.5 79.5001L155 111.5C156.167 114.167 158.7 120.3 159.5 123.5C160.3 126.7 165.5 136.167 168 140.5H172.5L181.5 149L184.5 143.5C183.667 142.167 183.1 136.3 187.5 123.5C193 107.5 217.5 81.5001 218 68.5001C218.5 55.5001 192.5 5.00012 174 9.00012C159.2 12.2001 145.833 11.8909 141 11.3363Z" stroke="black"/>
    <path d="M77.4999 27C63.4999 44.6 64.6666 63.3333 66.9999 70.5L77.4999 79C71.5 65.4 74.9999 38.6667 77.4999 27Z" fill="#C62233"/>
    <path d="M56.0001 66C61.0001 62.6666 71.0001 58.4 71.0001 68C73.5001 67.8333 77.7001 69.3 74.5001 76.5C78.3334 73.6667 88.1001 71.5 96.5001 85.5C100 82.5 109.8 76.9 121 78.5L117.5 83.5C118.833 82.1667 121.7 80.2 122.5 83C123.333 80.8333 125.8 77.5 129 81.5C133.167 78.3333 141.8 73.9 143 81.5C143.333 80 144.9 77.1 148.5 77.5C149 75.1667 151.2 71 156 73C155.333 70.1667 156 65.2 164 68L168.5 73C167.5 81.3333 164.4 100.9 160 112.5C158.446 116.596 158.884 121.312 160.379 126C158.419 127.333 153.1 128.3 147.5 121.5C146 125.833 141.6 132.7 136 125.5C134.333 128.833 130 133.7 126 126.5C125.167 128.333 124.1 132.5 126.5 134.5C123.5 134.333 117.5 132 117.5 124C112 131.333 100.9 141.6 100.5 124C96.1668 129 87.5001 136 87.5001 124C82.3334 128.333 72.9001 133.8 76.5001 121C72.0001 121.667 63.7001 121.6 66.5001 116C65.0001 115.833 62.3001 116.8 63.5001 122C62.1668 121.333 59.9001 118.7 61.5001 113.5C59.6668 116.333 55.2001 121 52.0001 117C53.3334 115.667 55.4001 111.9 53.0001 107.5C51.6668 107.167 48.6001 107.2 47.0001 110C44.8334 110.333 40.8001 108.7 42.0001 99.5C42.3335 98 41.9003 95.6 37.5003 98C36.8336 96 36.7003 90.9 41.5003 86.5C40.1669 85.8333 36.5 85.3 32.5 88.5C32.6524 85.4552 34.3625 78.6279 39.8399 73.8104C38.0234 75.0742 35.6807 76.1807 34.5 75C35 72.8333 37.8 68.3 45 67.5C44.3335 66.5 41.9005 64.5 37.5003 64.5C40.1669 62.6667 46.9 60 52.5 64C52.3333 61.5 52.6 56.3 55 55.5C54.6667 57.8333 54.4002 63.2 56.0001 66Z" fill="white"/>
    <path d="M164 68C156 65.2 155.333 70.1667 156 73C151.2 71 149 75.1667 148.5 77.5C144.9 77.1 143.333 80 143 81.5C141.8 73.9 133.167 78.3333 129 81.5C125.8 77.5 123.333 80.8333 122.5 83C121.7 80.2 118.833 82.1667 117.5 83.5L121 78.5C109.8 76.9 100 82.5 96.5001 85.5C88.1001 71.5 78.3334 73.6667 74.5001 76.5C77.7001 69.3 73.5001 67.8333 71.0001 68C71.0001 58.4 61.0001 62.6666 56.0001 66C54.4002 63.2 54.6667 57.8333 55 55.5C52.6 56.3 52.3333 61.5 52.5 64C46.9 60 40.1669 62.6667 37.5003 64.5C41.9005 64.5 44.3335 66.5 45 67.5C37.8 68.3 35 72.8333 34.5 75C36.1 76.6 39.8335 74 41.5003 72.5C34.7005 77.3 32.6669 85.1667 32.5 88.5C36.5 85.3 40.1669 85.8333 41.5003 86.5C36.7003 90.9 36.8336 96 37.5003 98C41.9003 95.6 42.3335 98 42.0001 99.5C40.8001 108.7 44.8334 110.333 47.0001 110C48.6001 107.2 51.6668 107.167 53.0001 107.5C55.4001 111.9 53.3334 115.667 52.0001 117C55.2001 121 59.6668 116.333 61.5001 113.5C59.9001 118.7 62.1668 121.333 63.5001 122C62.3001 116.8 65.0001 115.833 66.5001 116C63.7001 121.6 72.0001 121.667 76.5001 121C72.9001 133.8 82.3334 128.333 87.5001 124C87.5001 136 96.1668 129 100.5 124C100.9 141.6 112 131.333 117.5 124C117.5 132 123.5 134.333 126.5 134.5C124.1 132.5 125.167 128.333 126 126.5C130 133.7 134.333 128.833 136 125.5C141.6 132.7 146 125.833 147.5 121.5C153.1 128.3 158.419 127.333 160.379 126M164 68C159.833 63 148.2 52.1 135 48.5M164 68L168.5 73M168.5 73C169.167 69.5 169.6 61.1 166 55.5M168.5 73C167.5 81.3333 164.4 100.9 160 112.5C158.446 116.596 158.884 121.312 160.379 126M173.5 147.5C169.403 143.08 163.117 134.587 160.379 126" stroke="black"/>
    <path d="M109 4.00008C125 13.0001 162.5 22.5001 163.5 23.0001C160.167 25.3334 146.8 28.6001 120 23.0001C86.5 16.0001 104.5 3.00008 109 4.00008Z" fill="#E86063"/>
    <path d="M186 147C184 136.6 173.5 137.667 168.5 139.5C171.5 140 177 151 174.5 149C172 147 169 145 164.5 144C152.1 142.8 148.667 147.833 148.5 150.5C153.3 149.3 157.5 150.333 159 151C149 153 146.999 162 146.499 164C145.999 166 160 156 154 162.5C148 169 148 178 148.5 176.5C148.9 175.3 151 174.333 152 174C151.833 176.5 152 181.7 154 182.5C156.5 183.5 157 179.5 157 181.5C155.5 188.5 162.5 195.5 162.5 193C161.7 187.8 164.167 184.833 165.5 184C166.7 196.4 174.667 194.167 178.5 191.5C176.667 193.333 173.4 197.1 175 197.5C180.2 198.3 183.833 192.833 185 190C184 194.5 188 197 188 193.5C188 190.7 192 188.667 194 188C193 189.167 192.1 191.5 196.5 191.5C202 191.5 198.5 182.5 200.5 182.5C202.1 182.5 202.167 185.167 202 186.5C205.2 184.9 204 178.5 203 175.5C205.8 175.9 208.833 179.333 210 181C213.2 177.4 207.333 170.167 204 167C206 168.6 209.5 167.667 211 167C212.6 163 205.667 158 202 156C202.8 153.6 209 154.333 212 155C210 146.6 199.833 147.167 195 148.5C195 144.5 199.667 142.833 202 142.5C196 139.3 188.833 144.167 186 147Z" fill="white" stroke="black"/>
    <path d="M135 39.5001C119.4 35.5001 128.5 43.8334 135 48.5001C148.2 51.3 162.5 65.3334 168 72.0001C172 51.0001 154.5 44.5001 135 39.5001Z" fill="#CD2735"/>
    <path d="M182 82.9999C171.6 115.4 175 134.5 178 140C171.5 140 165.1 129.4 171.5 103C179.5 69.9998 178 40.4999 180 39.9999C182 39.4999 195 42.4999 182 82.9999Z" fill="#CD2735"/>
    <path d="M155 250.756L204.262 275.462V320L155 295.294V250.756Z" fill="#C32B2A"/>
    <path d="M174.506 260.539L184.757 265.679V310.218L174.506 305.077V260.539Z" fill="url(#paint0_linear_3260_1909)"/>
    <path d="M204.153 275.462L253.416 250.757V295.295L204.153 320V275.462Z" fill="#E04545"/>
    <path d="M223.55 265.734L234.019 260.484V305.022L223.55 310.272V265.734Z" fill="#E04545"/>
    <path d="M223.55 265.734L234.019 260.484V305.022L223.55 310.272V265.734Z" fill="url(#paint1_linear_3260_1909)"/>
    <path d="M204.153 225.988L253.416 250.693L204.266 275.525L155.004 250.82L204.153 225.988Z" fill="#B92525"/>
    <path d="M184.755 235.787L234.018 260.492L223.662 265.724L174.4 241.019L184.755 235.787Z" fill="url(#paint2_linear_3260_1909)"/>
    <path d="M184.755 235.787L234.018 260.492L223.662 265.724L174.4 241.019L184.755 235.787Z" fill="url(#paint3_linear_3260_1909)"/>
    <path d="M224.349 236.073L235.004 241.446L184.752 265.762L174.501 260.599L224.349 236.073Z" fill="#E04545"/>
    <path d="M224.349 236.073L235.004 241.446L184.752 265.762L174.501 260.599L224.349 236.073Z" fill="url(#paint4_linear_3260_1909)"/>
    <path d="M210.91 234.061C203.65 236.527 203.263 245.728 203.978 250.02C211.674 246.62 214.85 238.715 215.242 237.827C215.633 236.939 219.986 230.977 210.91 234.061Z" stroke="url(#paint5_linear_3260_1909)" stroke-width="3.70569"/>
    <path d="M210.91 240.763C203.65 235.948 203.263 244.761 203.978 249.77C211.674 254.089 214.85 249.37 215.242 248.874C215.633 248.379 219.986 246.783 210.91 240.763Z" stroke="url(#paint6_linear_3260_1909)" stroke-width="3.70569"/>
    <path d="M195.503 233.037C202.763 235.504 203.15 244.705 202.435 248.997C194.739 245.597 191.563 237.692 191.171 236.803C190.78 235.915 186.427 229.954 195.503 233.037Z" stroke="url(#paint7_linear_3260_1909)" stroke-width="3.70569"/>
    <rect width="12.695" height="4.31394" transform="matrix(0.893889 0.448289 0 1 198.096 247.754)" fill="url(#paint8_linear_3260_1909)"/>
    <path d="M219.095 254.152C214.482 250.545 210.546 252.081 209.154 253.301C208.491 253.927 207.563 255.703 209.154 257.794C210.744 259.886 217.637 262.588 220.884 263.677L219.095 254.152Z" fill="url(#paint9_linear_3260_1909)"/>
    <path d="M188.442 238.78C193.054 239.799 196.991 245.284 198.383 247.9C199.046 249.191 199.973 251.897 198.383 252.393C196.792 252.89 189.9 248.678 186.653 246.511L188.442 238.78Z" fill="url(#paint10_linear_3260_1909)"/>
    <path d="M195.503 241.786C202.763 236.97 203.149 245.783 202.435 250.792C194.739 255.111 191.563 250.392 191.171 249.897C190.78 249.401 186.427 247.805 195.503 241.786Z" stroke="url(#paint11_linear_3260_1909)" stroke-width="3.70569"/>
  </g>
  <defs>
    <linearGradient id="paint0_linear_3260_1909" x1="179.631" y1="263.877" x2="163.369" y2="301.155" gradientUnits="userSpaceOnUse">
      <stop stop-color="#FF5C00"/>
      <stop offset="0.132351" stop-color="#FFB800"/>
      <stop offset="0.264704" stop-color="#FF8514"/>
      <stop offset="1" stop-color="#FF8514"/>
    </linearGradient>
    <linearGradient id="paint1_linear_3260_1909" x1="228.784" y1="263.877" x2="247.795" y2="297.501" gradientUnits="userSpaceOnUse">
      <stop stop-color="#FF5C00"/>
      <stop offset="0.132351" stop-color="#FFB800"/>
      <stop offset="0.264704" stop-color="#FF8514"/>
      <stop offset="1" stop-color="#FF8514"/>
    </linearGradient>
    <linearGradient id="paint2_linear_3260_1909" x1="227.178" y1="263.225" x2="178.746" y2="247.13" gradientUnits="userSpaceOnUse">
      <stop stop-color="#FF5C00"/>
      <stop offset="1" stop-color="#FFB800"/>
    </linearGradient>
    <linearGradient id="paint3_linear_3260_1909" x1="227.178" y1="263.225" x2="178.746" y2="247.13" gradientUnits="userSpaceOnUse">
      <stop stop-color="#FF5C00"/>
      <stop offset="1" stop-color="#FFB800"/>
    </linearGradient>
    <linearGradient id="paint4_linear_3260_1909" x1="176.676" y1="261.426" x2="188.186" y2="225.278" gradientUnits="userSpaceOnUse">
      <stop stop-color="#FF5C00"/>
      <stop offset="0.132351" stop-color="#FFB800"/>
      <stop offset="0.264704" stop-color="#FF8514"/>
      <stop offset="1" stop-color="#FF8514"/>
    </linearGradient>
    <linearGradient id="paint5_linear_3260_1909" x1="207.322" y1="248.829" x2="203.475" y2="236.282" gradientUnits="userSpaceOnUse">
      <stop stop-color="#FF5C00"/>
      <stop offset="0.338542" stop-color="#FFB800"/>
      <stop offset="0.692708" stop-color="#FF8514"/>
      <stop offset="1" stop-color="#FFC702"/>
    </linearGradient>
    <linearGradient id="paint6_linear_3260_1909" x1="207.322" y1="251.933" x2="213.759" y2="242.689" gradientUnits="userSpaceOnUse">
      <stop stop-color="#FF5C00"/>
      <stop offset="0.338542" stop-color="#FFB800"/>
      <stop offset="0.692708" stop-color="#FF8514"/>
      <stop offset="1" stop-color="#FFC702"/>
    </linearGradient>
    <linearGradient id="paint7_linear_3260_1909" x1="199.091" y1="247.805" x2="202.938" y2="235.258" gradientUnits="userSpaceOnUse">
      <stop stop-color="#FF5C00"/>
      <stop offset="0.338542" stop-color="#FFB800"/>
      <stop offset="0.692708" stop-color="#FF8514"/>
      <stop offset="1" stop-color="#FFC702"/>
    </linearGradient>
    <linearGradient id="paint8_linear_3260_1909" x1="5.82283" y1="4.21561" x2="5.76861" y2="0.0018683" gradientUnits="userSpaceOnUse">
      <stop stop-color="#FFB800"/>
      <stop offset="1" stop-color="#FF5C00"/>
    </linearGradient>
    <linearGradient id="paint9_linear_3260_1909" x1="214.059" y1="260.75" x2="217.69" y2="253.066" gradientUnits="userSpaceOnUse">
      <stop stop-color="#FF5C00"/>
      <stop offset="0.338542" stop-color="#FFB800"/>
      <stop offset="0.692708" stop-color="#FF8514"/>
      <stop offset="1" stop-color="#FFC702"/>
    </linearGradient>
    <linearGradient id="paint10_linear_3260_1909" x1="193.478" y1="250.429" x2="197.369" y2="243.092" gradientUnits="userSpaceOnUse">
      <stop stop-color="#FF5C00"/>
      <stop offset="0.338542" stop-color="#FFB800"/>
      <stop offset="0.692708" stop-color="#FF8514"/>
      <stop offset="1" stop-color="#FFC702"/>
    </linearGradient>
    <linearGradient id="paint11_linear_3260_1909" x1="199.091" y1="252.955" x2="194.494" y2="240.049" gradientUnits="userSpaceOnUse">
      <stop stop-color="#FF5C00"/>
      <stop offset="0.338542" stop-color="#FFB800"/>
      <stop offset="0.692708" stop-color="#FF8514"/>
      <stop offset="1" stop-color="#FFC702"/>
    </linearGradient>
    <clipPath id="clip0_3260_1909">
      <rect width="1037.52" height="320.34" fill="white"/>
    </clipPath>
  </defs>
</svg>
