<svg width="60" height="60" viewBox="0 0 60 60" fill="none" xmlns="http://www.w3.org/2000/svg">
<path d="M0 19.2C0 12.4794 0 9.11905 1.30792 6.55211C2.4584 4.29417 4.29417 2.4584 6.55211 1.30792C9.11905 0 12.4794 0 19.2 0H40.8C47.5206 0 50.8809 0 53.4479 1.30792C55.7058 2.4584 57.5416 4.29417 58.6921 6.55211C60 9.11905 60 12.4794 60 19.2V40.8C60 47.5206 60 50.8809 58.6921 53.4479C57.5416 55.7058 55.7058 57.5416 53.4479 58.6921C50.8809 60 47.5206 60 40.8 60H19.2C12.4794 60 9.11905 60 6.55211 58.6921C4.29417 57.5416 2.4584 55.7058 1.30792 53.4479C0 50.8809 0 47.5206 0 40.8V19.2Z" fill="white"/>
<circle cx="30" cy="30" r="23" fill="#161617"/>
<path fill-rule="evenodd" clip-rule="evenodd" d="M37.7822 23.9121C39.0558 23.5883 40 22.4073 40 21C40 19.3431 38.6913 18 37.0769 18C35.4626 18 34.1538 19.3431 34.1538 21C34.1538 22.3868 35.0707 23.5539 36.3163 23.8974C35.9988 27.3216 33.1888 30 29.7692 30H24.6538V23.9055C25.9146 23.5725 26.8462 22.3979 26.8462 21C26.8462 19.3431 25.5374 18 23.9231 18C22.3087 18 21 19.3431 21 21C21 22.3979 21.9316 23.5725 23.1923 23.9055V36H23.9231C22.3087 36 21 37.3431 21 39C21 40.6569 22.3087 42 23.9231 42C25.5374 42 26.8462 40.6569 26.8462 39C26.8462 37.3431 25.5374 36 23.9231 36H24.6538V31.5H29.7692C33.9916 31.5 37.4536 28.1589 37.7822 23.9121ZM38.5385 21C38.5385 21.8284 37.8841 22.5 37.0769 22.5C36.2697 22.5 35.6154 21.8284 35.6154 21C35.6154 20.1716 36.2697 19.5 37.0769 19.5C37.8841 19.5 38.5385 20.1716 38.5385 21ZM23.9231 22.5C24.7303 22.5 25.3846 21.8284 25.3846 21C25.3846 20.1716 24.7303 19.5 23.9231 19.5C23.1159 19.5 22.4615 20.1716 22.4615 21C22.4615 21.8284 23.1159 22.5 23.9231 22.5ZM25.3846 39C25.3846 39.8284 24.7303 40.5 23.9231 40.5C23.1159 40.5 22.4615 39.8284 22.4615 39C22.4615 38.1716 23.1159 37.5 23.9231 37.5C24.7303 37.5 25.3846 38.1716 25.3846 39Z" fill="white"/>
</svg>
