<svg width="46" height="46" viewBox="0 0 46 46" fill="none" xmlns="http://www.w3.org/2000/svg">
<circle cx="23" cy="23" r="23" fill="#161617"/>
<path fill-rule="evenodd" clip-rule="evenodd" d="M30.7822 16.9121C32.0558 16.5883 33 15.4073 33 14C33 12.3431 31.6913 11 30.0769 11C28.4626 11 27.1538 12.3431 27.1538 14C27.1538 15.3868 28.0707 16.5539 29.3163 16.8974C28.9988 20.3216 26.1888 23 22.7692 23H17.6538V16.9055C18.9146 16.5725 19.8462 15.3979 19.8462 14C19.8462 12.3431 18.5374 11 16.9231 11C15.3087 11 14 12.3431 14 14C14 15.3979 14.9316 16.5725 16.1923 16.9055V29H16.9231C15.3087 29 14 30.3431 14 32C14 33.6569 15.3087 35 16.9231 35C18.5374 35 19.8462 33.6569 19.8462 32C19.8462 30.3431 18.5374 29 16.9231 29H17.6538V24.5H22.7692C26.9916 24.5 30.4536 21.1589 30.7822 16.9121ZM31.5385 14C31.5385 14.8284 30.8841 15.5 30.0769 15.5C29.2697 15.5 28.6154 14.8284 28.6154 14C28.6154 13.1716 29.2697 12.5 30.0769 12.5C30.8841 12.5 31.5385 13.1716 31.5385 14ZM16.9231 15.5C17.7303 15.5 18.3846 14.8284 18.3846 14C18.3846 13.1716 17.7303 12.5 16.9231 12.5C16.1159 12.5 15.4615 13.1716 15.4615 14C15.4615 14.8284 16.1159 15.5 16.9231 15.5ZM18.3846 32C18.3846 32.8284 17.7303 33.5 16.9231 33.5C16.1159 33.5 15.4615 32.8284 15.4615 32C15.4615 31.1716 16.1159 30.5 16.9231 30.5C17.7303 30.5 18.3846 31.1716 18.3846 32Z" fill="white"/>
</svg>
