<svg width="32" height="32" viewBox="0 0 32 32" fill="none" xmlns="http://www.w3.org/2000/svg">
<path d="M22.021 12.4648H28.021V6.46484" stroke="#66C167" stroke-width="3" stroke-linecap="round" stroke-linejoin="round"/>
<path d="M8.22192 8.22183C9.24337 7.20038 10.456 6.39013 11.7906 5.83733C13.1252 5.28452 14.5556 5 16.0001 5C17.4446 5 18.875 5.28452 20.2096 5.83733C21.5442 6.39013 22.7568 7.20038 23.7783 8.22183L28.0209 12.4645" stroke="#66C167" stroke-width="3" stroke-linecap="round" stroke-linejoin="round"/>
<path d="M9.979 19.5352H3.979V25.5352" stroke="#66C167" stroke-width="3" stroke-linecap="round" stroke-linejoin="round"/>
<path d="M23.7782 23.7778C22.7568 24.7992 21.5442 25.6095 20.2096 26.1623C18.875 26.7151 17.4446 26.9996 16.0001 26.9996C14.5555 26.9996 13.1251 26.7151 11.7905 26.1623C10.456 25.6095 9.24333 24.7992 8.22189 23.7778L3.97925 19.5352" stroke="#66C167" stroke-width="3" stroke-linecap="round" stroke-linejoin="round"/>
</svg>
