<svg width="14" height="14" viewBox="0 0 14 14" fill="none" xmlns="http://www.w3.org/2000/svg">
<path d="M6.22362 9.40937C5.94652 9.72705 5.58806 9.96663 5.18512 10.1034C4.78218 10.2402 4.34932 10.2693 3.9311 10.1877C3.51288 10.1061 3.1244 9.91675 2.80565 9.63911C2.4869 9.36148 2.24938 9.0056 2.11755 8.60812C1.98572 8.21064 1.96434 7.7859 2.0556 7.37763C2.14687 6.96936 2.34748 6.59229 2.6368 6.28525C2.92612 5.97821 3.29369 5.75228 3.70169 5.63071C4.10968 5.50914 4.54335 5.49632 4.95807 5.59359L4.95804 5.59373C4.73243 5.23736 4.60811 4.82837 4.59792 4.40909C4.58774 3.98981 4.69207 3.57548 4.90012 3.20899C5.10816 2.84251 5.41237 2.53718 5.78123 2.32462C6.1501 2.11205 6.57023 1.99998 6.99813 2C7.42602 2.00002 7.84614 2.11213 8.21499 2.32472C8.58384 2.53732 8.88801 2.84267 9.09603 3.20918C9.30404 3.57568 9.40833 3.99002 9.39811 4.4093C9.38789 4.82858 9.26352 5.23756 9.03788 5.59391L9.03753 5.59369C9.45258 5.49586 9.88674 5.50825 10.2953 5.6296C10.7038 5.75094 11.072 5.97685 11.3618 6.28405C11.6516 6.59124 11.8527 6.96862 11.9442 7.3773C12.0357 7.78598 12.0144 8.21119 11.8825 8.60911C11.7505 9.00704 11.5128 9.3633 11.1936 9.64118C10.8745 9.91907 10.4855 10.1085 10.0668 10.1901C9.64811 10.2716 9.2148 10.2423 8.81152 10.105C8.40824 9.96782 8.04957 9.72771 7.77247 9.40943L8.59854 12H5.3975L6.22362 9.40937Z" fill="#67C23A"/>
</svg>
