<svg width="13" height="15" viewBox="0 0 13 15" fill="none" xmlns="http://www.w3.org/2000/svg">
<path d="M11.344 4.5L8.75 1.906V4.5H11.344ZM11.75 5.5H7.75V1.5H1.75V13.5H11.75V5.5ZM1.25 0.5H8.75L12.75 4.5V14C12.75 14.146 12.7032 14.2658 12.6095 14.3595C12.5158 14.4532 12.396 14.5 12.25 14.5H1.25C1.104 14.5 0.984167 14.4532 0.8905 14.3595C0.796833 14.2658 0.75 14.146 0.75 14V1C0.75 0.854 0.796833 0.734167 0.8905 0.6405C0.984167 0.546833 1.104 0.5 1.25 0.5ZM6.219 9.594L9.047 6.766L9.766 7.469L6.219 11.016L3.75 8.5315L4.453 7.8285L6.219 9.594Z" fill="#C4C4C4"/>
</svg>
