<svg width="48" height="48" viewBox="0 0 48 48" fill="none" xmlns="http://www.w3.org/2000/svg">
<path d="M0 24C0 10.7452 10.7452 0 24 0C37.2548 0 48 10.7452 48 24C48 37.2548 37.2548 48 24 48C10.7452 48 0 37.2548 0 24Z" fill="#5865F2"/>
<path d="M33.13 15.9071C31.4018 15.1354 29.5773 14.588 27.7032 14.2788C27.4468 14.7259 27.2147 15.1859 27.0081 15.6569C25.0118 15.3635 22.9817 15.3635 20.9854 15.6569C20.7786 15.1859 20.5466 14.7259 20.2902 14.2788C18.4149 14.5906 16.5893 15.1393 14.8593 15.9111C11.4249 20.8665 10.4938 25.6989 10.9594 30.4626C12.9706 31.9119 15.2219 33.014 17.6151 33.7212C18.154 33.0144 18.6309 32.2645 19.0406 31.4796C18.2623 31.1961 17.5112 30.8464 16.7958 30.4344C16.9841 30.3012 17.1682 30.164 17.3462 30.0309C19.4277 30.9855 21.6996 31.4805 23.9998 31.4805C26.3001 31.4805 28.572 30.9855 30.6535 30.0309C30.8335 30.1741 31.0177 30.3113 31.2039 30.4344C30.4871 30.847 29.7346 31.1974 28.9549 31.4816C29.3642 32.2662 29.8411 33.0154 30.3804 33.7212C32.7757 33.0169 35.0287 31.9152 37.0403 30.4647C37.5865 24.9402 36.1072 20.1523 33.13 15.9071ZM19.6303 27.533C18.333 27.533 17.2613 26.3849 17.2613 24.9725C17.2613 23.5601 18.2958 22.402 19.6261 22.402C20.9564 22.402 22.0199 23.5601 21.9971 24.9725C21.9744 26.3849 20.9523 27.533 19.6303 27.533ZM28.3694 27.533C27.0701 27.533 26.0026 26.3849 26.0026 24.9725C26.0026 23.5601 27.037 22.402 28.3694 22.402C29.7018 22.402 30.757 23.5601 30.7342 24.9725C30.7115 26.3849 29.6915 27.533 28.3694 27.533Z" fill="white"/>
</svg>
