<svg width="20" height="20" viewBox="0 0 20 20" fill="none"
  xmlns="http://www.w3.org/2000/svg">
  <g clip-path="url(#clip0_5898_37656)">
    <path d="M16.2542 2.0835C15.564 2.0835 15.0043 2.6432 15.0043 3.33349H15V8.65878H15.8337V3.33349H15.8374C15.8374 3.10369 16.0242 2.91664 16.2543 2.91664C16.4844 2.91664 16.6711 2.73018 16.6711 2.50007C16.6711 2.26996 16.4843 2.0835 16.2542 2.0835Z" fill="#A9B1BC"/>
    <path d="M2.4999 1.6665H10.4164L12.4926 8.35077C12.4926 8.35077 18.864 8.22901 19.9999 10.4427L19.9767 14.9999H0.825684L2.4999 1.6665Z" fill="#7AFB5A"/>
    <path d="M3.97034 3.3335H9.18916L11.2597 10.0001H6.84508L2.92236 11.6822L3.97034 3.3335Z" fill="#6E7AEB"/>
    <path d="M12.5 14.5835C12.5 12.5119 14.1791 10.8335 16.25 10.8335C18.3209 10.8335 20 12.5119 20 14.5835C20 16.6537 18.3209 18.3335 16.25 18.3335C14.1791 18.3335 12.5 16.6537 12.5 14.5835Z" fill="#424953"/>
    <path d="M0 13.3337C0 10.5718 2.23877 8.33301 5 8.33301C7.76151 8.33301 10 10.5718 10 13.3337C10 16.0949 7.76151 18.3337 5 18.3337C2.23877 18.3337 0 16.0949 0 13.3337Z" fill="#424953"/>
    <path d="M16.25 15.8335C15.5603 15.8335 15 15.2719 15 14.5835C15 13.8937 15.5603 13.3335 16.25 13.3335C16.9397 13.3335 17.5 13.8937 17.5 14.5835C17.5 15.2719 16.9397 15.8335 16.25 15.8335Z" fill="#E5E8EC"/>
    <path d="M16.25 12.916C15.3296 12.916 14.5837 13.6631 14.5837 14.5836C14.5837 15.504 15.3296 16.2498 16.25 16.2498C17.1704 16.2498 17.9163 15.504 17.9163 14.5836C17.9163 13.663 17.1704 12.916 16.25 12.916ZM16.25 15.416C15.7904 15.416 15.4163 15.0425 15.4163 14.5835C15.4163 14.1233 15.7904 13.7497 16.25 13.7497C16.7096 13.7497 17.0838 14.1233 17.0838 14.5835C17.0838 15.0425 16.7096 15.416 16.25 15.416Z" fill="#51555B"/>
    <path d="M5.00006 14.9998C4.08115 14.9998 3.3335 14.2521 3.3335 13.3336C3.3335 12.4143 4.08118 11.666 5.00006 11.666C5.91893 11.666 6.66662 12.4143 6.66662 13.3336C6.66662 14.2521 5.91893 14.9998 5.00006 14.9998Z" fill="#E5E8EC"/>
    <path d="M4.99995 11.25C3.84944 11.25 2.9165 12.1826 2.9165 13.3338C2.9165 14.4836 3.84941 15.4162 4.99995 15.4162C6.15046 15.4162 7.08336 14.4836 7.08336 13.3338C7.08336 12.1826 6.15046 11.25 4.99995 11.25ZM4.99995 14.5838C4.31056 14.5838 3.74996 14.0223 3.74996 13.3338C3.74996 12.6441 4.31056 12.0838 4.99995 12.0838C5.68934 12.0838 6.24994 12.6441 6.24994 13.3338C6.24994 14.0222 5.68934 14.5838 4.99995 14.5838Z" fill="#51555B"/>
    <path d="M15.8338 4.1665H15C14.5417 4.1665 14.1663 4.54158 14.1663 4.99996V6.67414C14.1663 7.13249 14.5416 7.50756 15 7.50756H15.8338C16.2916 7.50756 16.6663 7.13249 16.6663 6.67414V4.99996C16.6663 4.54154 16.2916 4.1665 15.8338 4.1665Z" fill="#51555B"/>
    <path d="M11.2499 1.6665H2.08335C1.85324 1.6665 1.6665 1.85328 1.6665 2.08335C1.6665 2.31342 1.85328 2.49992 2.08335 2.49992H11.2499C11.48 2.49992 11.6662 2.31346 11.6662 2.08335C11.6662 1.85324 11.48 1.6665 11.2499 1.6665Z" fill="#424953"/>
    <path d="M4.58423 8.3504C4.59337 8.57257 4.77558 8.74989 4.9999 8.74989C5.22419 8.74989 5.40671 8.57257 5.41585 8.3504C5.2785 8.3391 5.13994 8.33301 4.9999 8.33301C4.85982 8.33301 4.72126 8.3391 4.58423 8.3504Z" fill="#646C77"/>
    <path d="M4.9999 17.916C4.77558 17.916 4.59341 18.0937 4.58423 18.3158C4.72126 18.3274 4.85982 18.3335 4.9999 18.3335C5.13994 18.3335 5.2785 18.3274 5.41585 18.3158C5.40671 18.0937 5.22419 17.916 4.9999 17.916Z" fill="#646C77"/>
    <path d="M3.08648 8.71393C2.95707 8.76734 2.83137 8.82592 2.70898 8.8891C2.80237 9.09053 3.03889 9.18482 3.2461 9.09877C3.45331 9.01301 3.55401 8.77926 3.47742 8.5708C3.34621 8.61292 3.2159 8.6602 3.08648 8.71393Z" fill="#646C77"/>
    <path d="M6.75421 17.5676C6.547 17.6536 6.44631 17.8867 6.52289 18.0955C6.65383 18.054 6.78414 18.0064 6.91352 17.9527C7.04289 17.899 7.16864 17.8404 7.29102 17.7776C7.19763 17.5755 6.96142 17.4815 6.75421 17.5676Z" fill="#646C77"/>
    <path d="M1.46451 9.79731C1.36534 9.89648 1.27164 9.99874 1.18286 10.1037C1.34611 10.2542 1.60064 10.2508 1.75901 10.0921C1.91773 9.93341 1.92137 9.67919 1.77062 9.51562C1.6659 9.60475 1.56337 9.69842 1.46451 9.79731Z" fill="#646C77"/>
    <path d="M8.24094 16.5741C8.08222 16.7328 8.0789 16.9873 8.22934 17.1509C8.33433 17.0618 8.43655 16.9678 8.53572 16.869C8.63458 16.7701 8.72828 16.6675 8.81737 16.5625C8.65384 16.4123 8.39963 16.416 8.24094 16.5741Z" fill="#646C77"/>
    <path d="M0.555605 11.0425C0.492734 11.1645 0.434162 11.2903 0.380434 11.4196C0.32702 11.549 0.279427 11.6796 0.237305 11.8103C0.44604 11.8872 0.679822 11.7865 0.765552 11.5796C0.85132 11.3721 0.757307 11.1358 0.555605 11.0425Z" fill="#646C77"/>
    <path d="M9.23452 15.0871C9.14844 15.294 9.24276 15.5308 9.44415 15.6236C9.50702 15.5015 9.56595 15.3757 9.61932 15.2463C9.67305 15.117 9.72033 14.9863 9.76245 14.8557C9.55376 14.7788 9.32025 14.8802 9.23452 15.0871Z" fill="#646C77"/>
    <path d="M0.416885 13.3338C0.416885 13.1092 0.239292 12.9266 0.0173881 12.9175C0.00609561 13.0542 0 13.1934 0 13.3338C0 13.4729 0.00609561 13.6121 0.0173881 13.7488C0.239565 13.7403 0.416885 13.5572 0.416885 13.3338Z" fill="#646C77"/>
    <path d="M9.98268 12.9175C9.76082 12.9266 9.5835 13.1092 9.5835 13.3338C9.5835 13.5572 9.76082 13.7402 9.98268 13.7488C9.99397 13.6121 10.0001 13.4729 10.0001 13.3338C10.0001 13.1934 9.99397 13.0542 9.98268 12.9175Z" fill="#646C77"/>
    <path d="M0.237305 14.8557C0.279427 14.9863 0.32702 15.117 0.380434 15.2463C0.434162 15.3757 0.492773 15.5015 0.555605 15.6236C0.757307 15.5308 0.85132 15.2939 0.765552 15.0871C0.679822 14.8802 0.44604 14.7788 0.237305 14.8557Z" fill="#646C77"/>
    <path d="M9.76245 11.8103C9.72033 11.6796 9.67305 11.549 9.61932 11.4196C9.56591 11.2903 9.50698 11.1645 9.44415 11.0425C9.24276 11.1358 9.14844 11.3721 9.23452 11.5796C9.32025 11.7865 9.55376 11.8872 9.76245 11.8103Z" fill="#646C77"/>
    <path d="M1.18286 16.5625C1.27164 16.6675 1.36534 16.7701 1.46451 16.869C1.56337 16.9678 1.66563 17.0618 1.77058 17.1509C1.92133 16.9873 1.91769 16.7328 1.75897 16.5741C1.60064 16.416 1.34611 16.4123 1.18286 16.5625Z" fill="#646C77"/>
    <path d="M8.81739 10.1037C8.7283 9.9987 8.6346 9.89648 8.53574 9.79731C8.43657 9.69842 8.33431 9.60475 8.22935 9.51562C8.07888 9.67923 8.08224 9.93341 8.24096 10.0921C8.3996 10.2505 8.65382 10.2542 8.81739 10.1037Z" fill="#646C77"/>
    <path d="M3.2461 17.5676C3.03889 17.4815 2.80237 17.5755 2.70898 17.7775C2.83137 17.8404 2.95711 17.8989 3.08648 17.9526C3.21586 18.0064 3.34617 18.054 3.47742 18.0955C3.55405 17.8867 3.45331 17.6535 3.2461 17.5676Z" fill="#646C77"/>
    <path d="M6.52289 8.5708C6.44631 8.77922 6.547 9.01301 6.75421 9.09877C6.96142 9.18454 7.19763 9.09053 7.29102 8.88879C7.16864 8.82592 7.04289 8.76734 6.91352 8.71393C6.78414 8.6602 6.65383 8.61292 6.52289 8.5708Z" fill="#646C77"/>
    <path d="M16.25 10.8335C16.1096 10.8335 15.9705 10.8408 15.8337 10.8561C15.838 11.0825 16.023 11.2644 16.25 11.2644C16.477 11.2644 16.662 11.0825 16.6662 10.8561C16.5295 10.8408 16.3904 10.8335 16.25 10.8335Z" fill="#646C77"/>
    <path d="M16.2499 18.3336C16.3903 18.3336 16.5289 18.325 16.6655 18.3104C16.6533 18.0906 16.4721 17.916 16.2499 17.916C16.0277 17.916 15.8465 18.0906 15.8342 18.3104C15.9709 18.325 16.1095 18.3336 16.2499 18.3336Z" fill="#646C77"/>
    <path d="M13.5986 11.9315C13.4985 12.0311 13.4064 12.1348 13.3203 12.2422C13.4839 12.3991 13.7427 12.3972 13.9038 12.2367C14.0644 12.0762 14.0662 11.8162 13.9087 11.6538C13.8013 11.7393 13.6975 11.8321 13.5986 11.9315Z" fill="#646C77"/>
    <path d="M18.9013 17.2352C19.0009 17.1356 19.093 17.0319 19.1791 16.9251C19.0155 16.7786 18.7647 16.7835 18.6072 16.9403C18.4497 17.0973 18.4448 17.3487 18.5913 17.5123C18.6987 17.4268 18.8025 17.3341 18.9013 17.2352Z" fill="#646C77"/>
    <path d="M12.5 14.5838C12.5 14.7241 12.5079 14.8633 12.5232 15C12.7496 14.9951 12.9321 14.8108 12.9321 14.5838C12.9321 14.3555 12.7496 14.1711 12.5232 14.1675C12.508 14.3042 12.5 14.4427 12.5 14.5838Z" fill="#646C77"/>
    <path d="M20 14.5838C20 14.4428 19.9921 14.3042 19.9768 14.1675C19.7577 14.1797 19.5837 14.361 19.5837 14.5838C19.5837 14.806 19.7577 14.9866 19.9768 14.9988C19.9921 14.8621 20 14.7241 20 14.5838Z" fill="#646C77"/>
    <path d="M13.5986 17.2348C13.6975 17.3343 13.8013 17.4264 13.9087 17.5125C14.0662 17.3496 14.0644 17.0902 13.9038 16.9296C13.7427 16.7685 13.4839 16.7673 13.3203 16.9241C13.4064 17.031 13.4985 17.1347 13.5986 17.2348Z" fill="#646C77"/>
    <path d="M18.9013 11.9315C18.8025 11.8321 18.6987 11.7399 18.5913 11.6538C18.4448 11.8175 18.4497 12.0689 18.6072 12.2263C18.7646 12.3832 19.0155 12.3881 19.1791 12.2416C19.093 12.1348 19.0009 12.031 18.9013 11.9315Z" fill="#646C77"/>
  </g>
  <defs>
    <clipPath id="clip0_5898_37656">
      <rect width="20" height="20" fill="white"/>
    </clipPath>
  </defs>
</svg>
