<svg width="48" height="48" viewBox="0 0 48 48" fill="none"
  xmlns="http://www.w3.org/2000/svg">
  <circle cx="24" cy="24" r="24" fill="#161617"/>
  <path d="M21.977 17C21.0652 17 20.3816 17.0365 19.926 17.1094C19.4704 17.1823 19.0784 17.31 18.75 17.4926C18.2028 17.7843 17.7834 18.2037 17.4918 18.7509C17.3092 19.0793 17.1814 19.4713 17.1085 19.9269C17.0356 20.3825 16.9991 21.0661 16.9991 21.9779V29.5247C16.9991 30.4365 17.0356 31.1202 17.1085 31.5758C17.1814 32.0313 17.3092 32.4233 17.4918 32.7517C17.7834 33.2989 18.2028 33.7183 18.75 34.01C19.0784 34.1926 19.4704 34.3203 19.926 34.3932C20.3816 34.4662 21.0652 34.5026 21.977 34.5026H26.0239C26.9356 34.5026 27.6193 34.4662 28.0749 34.3932C28.5305 34.3203 28.9225 34.1926 29.2509 34.01C29.798 33.7183 30.2175 33.2989 30.5091 32.7517C30.6917 32.4233 30.8195 32.0313 30.8924 31.5758C30.9653 31.1202 31.0017 30.4365 31.0017 29.5247V21.9779C31.0017 21.0661 30.9653 20.3825 30.8924 19.9269C30.8195 19.4713 30.6917 19.0793 30.5091 18.7509C30.2175 18.2037 29.798 17.7843 29.2509 17.4926C28.9225 17.31 28.5305 17.1823 28.0749 17.1094C27.6193 17.0365 26.9356 17 26.0239 17H21.977ZM21.977 15.25H26.0239C27.1544 15.25 28.0113 15.3092 28.5946 15.4276C29.178 15.546 29.6703 15.7237 30.0716 15.9605C30.9285 16.4161 31.5848 17.0723 32.0404 17.9292C32.2772 18.3306 32.4548 18.8229 32.5732 19.4062C32.6917 19.9896 32.7509 20.8465 32.7509 21.977V29.5239C32.7509 30.6544 32.6917 31.5113 32.5732 32.0946C32.4548 32.678 32.2772 33.1703 32.0404 33.5716C31.5848 34.4285 30.9285 35.0848 30.0716 35.5404C29.6703 35.7772 29.178 35.9548 28.5946 36.0732C28.0113 36.1917 27.1544 36.2509 26.0239 36.2509H21.977C20.8465 36.2509 19.9896 36.1917 19.4062 36.0732C18.8229 35.9548 18.3306 35.7772 17.9293 35.5404C17.0723 35.0848 16.4161 34.4285 15.9605 33.5716C15.7237 33.1703 15.546 32.678 15.4276 32.0946C15.3092 31.5113 15.25 30.6544 15.25 29.5239V21.977C15.25 20.8465 15.3092 19.9896 15.4276 19.4062C15.546 18.8229 15.7237 18.3306 15.9605 17.9292C16.4161 17.0723 17.0723 16.4161 17.9293 15.9605C18.3306 15.7237 18.8229 15.546 19.4062 15.4276C19.9896 15.3092 20.8465 15.25 21.977 15.25ZM24 18.75C24.5833 18.75 24.875 19.0417 24.875 19.625V23.125C24.875 23.7083 24.5833 24 24 24C23.4167 24 23.125 23.7083 23.125 23.125V19.625C23.125 19.0417 23.4167 18.75 24 18.75ZM24.875 16.125C24.875 16.3805 24.793 16.5902 24.6291 16.7541C24.4652 16.918 24.2555 17 24 17C23.7445 17 23.5348 16.918 23.3709 16.7541C23.207 16.5902 23.125 16.3805 23.125 16.125V14.375C23.125 14.1195 23.043 13.9098 22.8791 13.7459C22.7152 13.582 22.5055 13.5 22.25 13.5H19.625C19.3695 13.5 19.1598 13.418 18.9959 13.2541C18.832 13.0902 18.75 12.8805 18.75 12.625C18.75 12.3695 18.832 12.1598 18.9959 11.9959C19.1598 11.832 19.3695 11.75 19.625 11.75H22.25C22.9972 11.7681 23.617 12.0233 24.1094 12.5156C24.6017 13.008 24.8569 13.6277 24.875 14.375V16.125Z" fill="white"/>
</svg>
