<svg xmlns="http://www.w3.org/2000/svg" width="22" height="21" viewBox="0 0 22 21"><g><g><path fill="#959696" d="M11.195 0C5.455 0 .8 4.66.8 10.407c0 4.598 2.978 8.499 7.109 9.875.52.096.71-.226.71-.5 0-.249-.01-1.068-.014-1.938-2.892.63-3.502-1.228-3.502-1.228-.473-1.203-1.154-1.523-1.154-1.523-.944-.646.07-.632.07-.632 1.044.073 1.594 1.072 1.594 1.072.927 1.591 2.432 1.131 3.025.865.093-.672.363-1.132.66-1.392-2.309-.263-4.736-1.155-4.736-5.143 0-1.136.406-2.064 1.071-2.793-.108-.262-.464-1.32.1-2.754 0 0 .874-.28 2.86 1.067a9.952 9.952 0 0 1 2.602-.35c.883.003 1.773.119 2.604.35 1.984-1.347 2.856-1.067 2.856-1.067.565 1.433.21 2.492.101 2.754.667.729 1.07 1.657 1.07 2.793 0 3.997-2.432 4.878-4.746 5.135.373.323.705.957.705 1.928 0 1.392-.012 2.513-.012 2.856 0 .276.187.6.714.499a10.407 10.407 0 0 0 7.102-9.874C21.59 4.659 16.935 0 11.195 0z"/></g></g></svg>