<svg width="213" height="46" viewBox="0 0 213 46" fill="none" xmlns="http://www.w3.org/2000/svg">
<g clip-path="url(#clip0_358_2524)">
<path d="M94.9778 1.51125C96.4698 2.52017 97.4756 3.88667 97.9952 5.61929H95.4209C94.973 4.56354 94.227 3.71213 93.179 3.06932C92.1341 2.42651 90.894 2.10298 89.4618 2.10298C88.1747 2.10298 87.0198 2.37968 86.0005 2.93309C84.9819 3.48651 84.1801 4.27407 83.6007 5.29575C83.0213 6.31745 82.7272 7.52217 82.7272 8.90996C82.7272 10.3276 83.0213 11.5536 83.6135 12.5881C84.2017 13.6182 85.0242 14.4101 86.069 14.9635C87.1171 15.5169 88.3197 15.7936 89.6794 15.7936C90.843 15.7936 91.9086 15.5637 92.8721 15.0997C93.8397 14.64 94.6279 13.9631 95.2464 13.0818C95.864 12.2007 96.2347 11.162 96.359 9.97423H88.9286V8.29269H98.4304V10.3701C98.2678 11.7579 97.8039 13.0095 97.0364 14.1333C96.2649 15.2572 95.2288 16.147 93.925 16.8067C92.6203 17.4666 91.1331 17.7987 89.4706 17.7987C87.6463 17.7987 86.0347 17.4241 84.6408 16.6706C83.2469 15.9213 82.1598 14.8698 81.3803 13.5246C80.6001 12.1794 80.2119 10.6426 80.2119 8.90576C80.2119 7.17311 80.6001 5.63206 81.3803 4.28684C82.1598 2.94161 83.2469 1.89012 84.6408 1.13237C86.0308 0.378877 87.6287 0 89.4363 0C91.636 0 93.4858 0.50233 94.9778 1.51125Z" fill="#B6BDC9"/>
<path d="M134.465 17.6242L129.53 10.4937H126.874V17.6242H124.432V0.17041H130.659C132.808 0.17041 134.414 0.647198 135.489 1.59226C136.563 2.54158 137.1 3.80167 137.1 5.36825C137.1 6.78584 136.669 7.93099 135.813 8.79514C134.956 9.66359 133.712 10.2042 132.083 10.4171L137.237 17.6199H134.465V17.6242ZM126.87 8.86327H130.437C133.213 8.86327 134.598 7.73942 134.598 5.49596C134.598 3.25251 133.213 2.12865 130.437 2.12865H126.87V8.86327Z" fill="#B6BDC9"/>
<path d="M165.22 2.00519V7.97356H172.411V9.70618H165.22V15.7937H173.216V17.6242H162.777V0.17041H173.216V2.00094H165.22V2.00519Z" fill="#B6BDC9"/>
<path d="M212.5 0.174561L206.302 11.0172V17.6241H203.834V11.0172L197.606 0.174561H200.449L205.091 8.61628L209.708 0.174561H212.5Z" fill="#B6BDC9"/>
<path d="M101.15 27.8281V45.2819H95.9197V35.38L92.4026 45.2819H87.8677L84.3506 35.38V45.2819H79.0654V27.8281H85.5318L90.1989 39.1646L94.7386 27.8281H101.15Z" fill="#424954"/>
<path d="M135.071 42.3616H128.336L127.288 45.2819H121.734L128.686 27.8281H134.777L141.699 45.2819H136.119L135.071 42.3616ZM133.754 38.6963L131.717 33.0004L129.649 38.6963H133.754Z" fill="#424954"/>
<path d="M175.616 42.881C175.079 43.6727 174.291 44.2986 173.255 44.7625C172.218 45.2266 170.974 45.4565 169.525 45.4565C167.326 45.4565 165.514 44.9713 164.09 43.9963C162.666 43.0215 161.895 41.6379 161.767 39.8373H167.377C167.432 40.446 167.637 40.9015 167.994 41.1995C168.353 41.4975 168.791 41.6464 169.308 41.6464C169.772 41.6464 170.134 41.54 170.394 41.323C170.655 41.11 170.782 40.8036 170.782 40.4077C170.782 39.8798 170.522 39.4712 170.002 39.1816C169.482 38.8921 168.66 38.5772 167.534 38.2281C166.337 37.8492 165.348 37.4789 164.567 37.1126C163.788 36.7509 163.118 36.206 162.556 35.478C161.993 34.7501 161.712 33.8178 161.712 32.6812C161.712 31.5914 162.015 30.6549 162.624 29.8715C163.233 29.0882 164.064 28.4922 165.117 28.0878C166.175 27.6834 167.373 27.4833 168.715 27.4833C170.898 27.4833 172.636 27.9558 173.932 28.9052C175.228 29.8544 175.94 31.187 176.064 32.9025H170.403C170.33 32.3576 170.147 31.9533 169.853 31.6893C169.559 31.4254 169.167 31.2934 168.685 31.2934C168.272 31.2934 167.952 31.3913 167.718 31.5914C167.483 31.7915 167.368 32.0852 167.368 32.4811C167.368 32.9749 167.624 33.3622 168.131 33.6433C168.642 33.9241 169.439 34.2392 170.53 34.584C171.728 34.9799 172.721 35.3673 173.51 35.7462C174.299 36.1252 174.977 36.6784 175.548 37.4064C176.119 38.1343 176.405 39.0753 176.405 40.2289C176.422 41.2037 176.153 42.0892 175.616 42.881Z" fill="#424954"/>
<path d="M211.093 42.881C210.556 43.6727 209.767 44.2986 208.732 44.7625C207.696 45.2266 206.451 45.4565 205.002 45.4565C202.802 45.4565 200.991 44.9713 199.567 43.9963C198.144 43.0215 197.372 41.6379 197.244 39.8373H202.853C202.909 40.446 203.114 40.9015 203.472 41.1995C203.829 41.4975 204.269 41.6464 204.784 41.6464C205.249 41.6464 205.612 41.54 205.871 41.323C206.131 41.11 206.26 40.8036 206.26 40.4077C206.26 39.8798 205.999 39.4712 205.479 39.1816C204.959 38.8921 204.136 38.5772 203.011 38.2281C201.814 37.8492 200.825 37.4789 200.045 37.1126C199.264 36.7509 198.596 36.206 198.033 35.478C197.47 34.7501 197.189 33.8178 197.189 32.6812C197.189 31.5914 197.491 30.6549 198.101 29.8715C198.71 29.0882 199.542 28.4922 200.595 28.0878C201.651 27.6834 202.849 27.4833 204.192 27.4833C206.374 27.4833 208.113 27.9558 209.409 28.9052C210.705 29.8544 211.417 31.187 211.54 32.9025H205.88C205.808 32.3576 205.624 31.9533 205.33 31.6893C205.036 31.4254 204.644 31.2934 204.162 31.2934C203.749 31.2934 203.429 31.3913 203.194 31.5914C202.96 31.7915 202.845 32.0852 202.845 32.4811C202.845 32.9749 203.101 33.3622 203.608 33.6433C204.12 33.9241 204.917 34.2392 206.008 34.584C207.206 34.9799 208.199 35.3673 208.988 35.7462C209.776 36.1252 210.453 36.6784 211.025 37.4064C211.596 38.1343 211.881 39.0753 211.881 40.2289C211.898 41.2037 211.63 42.0892 211.093 42.881Z" fill="#424954"/>
<path d="M64.0786 0.0681763H61.406V45.2822H64.0786V0.0681763Z" fill="#0091E2"/>
<path d="M35.12 28.22C35.5934 27.1934 36.5334 26.35 37.94 25.69C40.8534 24.3034 41.7534 21.8334 40.64 18.28C38.9067 12.7334 35.1934 9.30669 29.5 8.00002C24.1934 6.78002 18.7234 7.43002 13.09 9.95002C11.3434 10.73 9.91336 11.6134 8.80003 12.6C7.30669 13.92 6.31003 15.3234 5.81003 16.81C4.79003 19.8434 5.77336 21.4834 8.76003 21.73C9.10003 21.7567 9.41003 21.8634 9.69003 22.05C15.5967 25.93 20.95 27.58 25.75 27C30.0567 26.48 33.01 24.4867 34.61 21.02C34.8167 20.58 34.9967 20.55 35.15 20.93C35.2634 21.1967 35.2134 21.5534 35 22C33.7467 24.64 31.8067 26.44 29.18 27.4C22.4067 29.8867 16.05 28.87 10.11 24.35C9.57003 23.9367 8.97003 23.64 8.31003 23.46C6.21003 22.9067 4.87336 21.91 4.30003 20.47C3.84003 19.3034 3.98336 17.8534 4.73003 16.12C6.12336 12.8734 8.55003 10.5067 12.01 9.02002C17.03 6.86669 22.27 6.09336 27.73 6.70002C35.0567 7.50669 39.82 11.1367 42.02 17.59C42.74 19.7034 42.86 21.5 42.38 22.98C41.7934 24.7934 40.5134 26.2734 38.54 27.42C38.1867 27.62 37.89 27.8834 37.65 28.21C35.49 31.1634 33.3334 32.7434 31.18 32.95C29.9067 33.0767 29.7367 33.5767 30.67 34.45C31.97 35.6767 32.7767 36.9267 33.09 38.2C33.1767 38.54 33.0867 38.59 32.82 38.35C31.12 36.8367 29.3467 35.4267 27.5 34.12C26.9734 33.7534 26.3767 33.5134 25.71 33.4C25.0634 33.2934 24.42 33.1834 23.78 33.07C22.5934 32.8567 22.2867 32.27 22.86 31.31C22.9259 31.2015 23.0214 31.1133 23.1361 31.0551C23.2507 30.9969 23.3801 30.9709 23.51 30.98C28.25 31.3667 31.9234 30.6967 34.53 28.97C34.7573 28.8211 34.9639 28.5585 35.12 28.22Z" fill="black" fill-opacity="0.992"/>
</g>
<defs>
<clipPath id="clip0_358_2524">
<rect width="212" height="46" fill="white" transform="translate(0.5)"/>
</clipPath>
</defs>
</svg>
