<svg width="13" height="13" viewBox="0 0 13 13" fill="none" xmlns="http://www.w3.org/2000/svg">
<path d="M11.7836 6.20867L10.625 6.78799L9.125 3.9154L10.2954 3.33018C10.3834 3.28621 10.4851 3.27854 10.5786 3.3088C10.6721 3.33907 10.75 3.40486 10.7956 3.49201L11.9483 5.69968C11.9714 5.74383 11.9854 5.79212 11.9896 5.84175C11.9938 5.89137 11.9881 5.94133 11.9727 5.98871C11.9574 6.0361 11.9328 6.07995 11.9003 6.11771C11.8678 6.15548 11.8282 6.1864 11.7836 6.20867V6.20867Z" stroke="#F2F2F2" stroke-linecap="round" stroke-linejoin="round"/>
<path d="M2.37521 6.73776L1.21657 6.15844C1.17203 6.13617 1.13237 6.10525 1.0999 6.06748C1.06744 6.02972 1.04282 5.98586 1.02749 5.93848C1.01216 5.8911 1.00642 5.84114 1.0106 5.79152C1.01479 5.74189 1.02882 5.6936 1.05187 5.64945L2.20466 3.44178C2.25017 3.35463 2.32808 3.28884 2.42162 3.25857C2.51516 3.2283 2.61684 3.23598 2.70478 3.27995L3.87521 3.86516L2.37521 6.73776Z" stroke="#F2F2F2" stroke-linecap="round" stroke-linejoin="round"/>
<path d="M10.625 6.78797L9.875 7.66538L8.15013 9.39024C8.10434 9.43603 8.04748 9.46919 7.98507 9.48647C7.92266 9.50376 7.85684 9.50459 7.79402 9.48888L5.07729 8.8097C5.02633 8.79696 4.97862 8.77366 4.93724 8.7413L2.375 6.73773" stroke="#F2F2F2" stroke-linecap="round" stroke-linejoin="round"/>
<path d="M9.87465 7.66547L7.81215 6.16547L7.21215 6.61547C6.95251 6.8102 6.63671 6.91547 6.31215 6.91547C5.9876 6.91547 5.6718 6.8102 5.41215 6.61547L5.15806 6.42489C5.11507 6.39266 5.07952 6.35156 5.05381 6.30439C5.02809 6.25722 5.01281 6.20507 5.009 6.15148C5.00519 6.09789 5.01294 6.0441 5.03173 5.99377C5.05052 5.94343 5.0799 5.89772 5.11789 5.85973L6.95232 4.0253C6.98714 3.99048 7.02848 3.96286 7.07398 3.94401C7.11947 3.92517 7.16824 3.91547 7.21748 3.91547H9.12465" stroke="#F2F2F2" stroke-linecap="round" stroke-linejoin="round"/>
<path d="M3.9021 3.86517L6.30772 3.16385C6.39366 3.1388 6.48572 3.14531 6.56727 3.18221L8.18768 3.91541" stroke="#F2F2F2" stroke-linecap="round" stroke-linejoin="round"/>
<path d="M5.75 10.4779L4.33721 10.1247C4.27988 10.1104 4.22675 10.0827 4.18215 10.0439L3.125 9.125" stroke="#F2F2F2" stroke-linecap="round" stroke-linejoin="round"/>
</svg>
