<svg width="32" height="32" viewBox="0 0 32 32" fill="none" xmlns="http://www.w3.org/2000/svg">
<path d="M27 6H5C4.44772 6 4 6.44772 4 7V25C4 25.5523 4.44772 26 5 26H27C27.5523 26 28 25.5523 28 25V7C28 6.44772 27.5523 6 27 6Z" stroke="#66C167" stroke-width="3" stroke-linecap="round" stroke-linejoin="round"/>
<path d="M4 20.9998L10.2929 14.707C10.3857 14.6141 10.496 14.5404 10.6173 14.4902C10.7386 14.4399 10.8687 14.4141 11 14.4141C11.1313 14.4141 11.2613 14.4399 11.3827 14.4902C11.504 14.5404 11.6142 14.6141 11.7071 14.707L17.2929 20.2927C17.3857 20.3856 17.496 20.4593 17.6173 20.5095C17.7386 20.5598 17.8687 20.5856 18 20.5856C18.1313 20.5856 18.2613 20.5598 18.3827 20.5095C18.504 20.4593 18.6142 20.3856 18.7071 20.2927L21.2929 17.707C21.3857 17.6141 21.496 17.5404 21.6173 17.4902C21.7386 17.4399 21.8687 17.4141 22 17.4141C22.1313 17.4141 22.2613 17.4399 22.3827 17.4902C22.504 17.5404 22.6142 17.6141 22.7071 17.707L28 22.9999" stroke="#66C167" stroke-width="3" stroke-linecap="round" stroke-linejoin="round"/>
<path d="M19.5 14.5C20.6046 14.5 21.5 13.6046 21.5 12.5C21.5 11.3954 20.6046 10.5 19.5 10.5C18.3954 10.5 17.5 11.3954 17.5 12.5C17.5 13.6046 18.3954 14.5 19.5 14.5Z" fill="#66C167"/>
</svg>
