<svg width="14" height="15" viewBox="0 0 14 15" fill="none" xmlns="http://www.w3.org/2000/svg">
<path d="M7 0.5C8.97933 0.552 10.6278 1.23683 11.9455 2.5545C13.2632 3.87217 13.948 5.52067 14 7.5C13.948 9.47933 13.2632 11.1278 11.9455 12.4455C10.6278 13.7632 8.97933 14.448 7 14.5C5.02067 14.448 3.37217 13.7632 2.0545 12.4455C0.736833 11.1278 0.052 9.47933 0 7.5C0.052 5.52067 0.736833 3.87217 2.0545 2.5545C3.37217 1.23683 5.02067 0.552 7 0.5ZM7 11.5C7.22933 11.4897 7.4195 11.4115 7.5705 11.2655C7.7215 11.1195 7.797 10.932 7.797 10.703C7.797 10.474 7.7215 10.2838 7.5705 10.1325C7.4195 9.98117 7.22933 9.90567 7 9.906C6.77067 9.90633 6.5805 9.98183 6.4295 10.1325C6.2785 10.2832 6.203 10.4733 6.203 10.703C6.203 10.9327 6.2785 11.1202 6.4295 11.2655C6.5805 11.4108 6.77067 11.489 7 11.5ZM7 7.297C6.83333 7.30733 6.69267 7.36717 6.578 7.4765C6.46333 7.58583 6.406 7.7265 6.406 7.8985C6.406 8.0705 6.46333 8.21367 6.578 8.328C6.69267 8.44233 6.83333 8.49967 7 8.5C7.68767 8.48967 8.2815 8.27083 8.7815 7.8435C9.2815 7.41617 9.594 6.864 9.719 6.187C9.81267 5.51 9.69033 4.89017 9.352 4.3275C9.01367 3.76483 8.51633 3.369 7.86 3.14C7.20367 2.93167 6.5735 2.94983 5.9695 3.1945C5.3655 3.43917 4.89667 3.86367 4.563 4.468L5.5785 5.1085C5.7555 4.75417 6.01333 4.499 6.352 4.343C6.69067 4.187 7.05 4.1635 7.43 4.2725C7.81 4.3815 8.10167 4.5925 8.305 4.9055C8.50833 5.2185 8.58133 5.57 8.524 5.96C8.46667 6.35 8.29733 6.66767 8.016 6.913C7.73467 7.15833 7.39617 7.286 7.0005 7.296L7 7.297Z" fill="#C4C4C4"/>
</svg>
