<svg width="17" height="15" viewBox="0 0 17 15" fill="none" xmlns="http://www.w3.org/2000/svg">
<path d="M5.84363 7.9025L11.8147 12.5389C11.8838 12.5925 11.9675 12.6294 12.0576 12.6459C12.1477 12.6624 12.2411 12.658 12.3287 12.6331C12.4163 12.6082 12.495 12.5636 12.5572 12.5038C12.6194 12.4439 12.6629 12.3708 12.6835 12.2917L15.1813 2.67453C15.2029 2.59138 15.1983 2.50461 15.1682 2.42356C15.138 2.34251 15.0833 2.27027 15.0101 2.21461C14.9368 2.15895 14.8477 2.12198 14.7524 2.10769C14.6571 2.09341 14.5592 2.10234 14.4692 2.13353L2.21346 6.38184C2.10665 6.41887 2.0163 6.48542 1.95592 6.57153C1.89555 6.65764 1.8684 6.75869 1.87854 6.85955C1.88868 6.96041 1.93556 7.05566 2.01217 7.13105C2.08878 7.20645 2.191 7.25792 2.30353 7.27778L5.84363 7.9025Z" stroke="#486CF7" stroke-linecap="round" stroke-linejoin="round"/>
<path d="M5.84375 7.90254L14.8825 2.14258" stroke="#486CF7" stroke-linecap="round" stroke-linejoin="round"/>
<path d="M8.82586 10.2184L6.75065 12.0494C6.67635 12.115 6.58169 12.1596 6.47864 12.1777C6.37559 12.1958 6.26877 12.1865 6.1717 12.151C6.07463 12.1156 5.99166 12.0555 5.93328 11.9784C5.87491 11.9013 5.84375 11.8107 5.84375 11.718V7.90283" stroke="#486CF7" stroke-linecap="round" stroke-linejoin="round"/>
</svg>
