<svg width="15" height="15" viewBox="0 0 15 15" fill="none" xmlns="http://www.w3.org/2000/svg">
<path d="M2.81208 11.7188C2.81208 11.7188 5.15583 11.25 5.62458 9.84375C5.62458 9.84375 1.87458 8.4375 2.81208 3.28125C2.81208 3.28125 4.68708 5.625 7.49958 6.09375V5.15642C7.49964 4.61792 7.68509 4.09586 8.02477 3.678C8.36444 3.26015 8.83763 2.97198 9.36477 2.86196C9.89191 2.75193 10.4409 2.82675 10.9193 3.07384C11.3978 3.32092 11.7766 3.72521 11.9921 4.21873L14.0621 4.21875L12.1871 6.09375C12.1871 9.375 9.84333 12.6563 5.62458 12.6563C3.74958 12.6563 2.81208 11.7188 2.81208 11.7188Z" stroke="#486CF7" stroke-linecap="round" stroke-linejoin="round"/>
</svg>
