<svg width="15" height="15" viewBox="0 0 15 15" fill="none" xmlns="http://www.w3.org/2000/svg">
<path d="M1.25 5.5V13.5H13.25V2.5H11.25V3C11.25 3.146 11.2032 3.26583 11.1095 3.3595C11.0158 3.45317 10.896 3.5 10.75 3.5C10.604 3.5 10.4842 3.45317 10.3905 3.3595C10.2968 3.26583 10.25 3.146 10.25 3V2.5H4.25V3C4.25 3.146 4.20317 3.26583 4.1095 3.3595C4.01583 3.45317 3.896 3.5 3.75 3.5C3.604 3.5 3.48417 3.45317 3.3905 3.3595C3.29683 3.26583 3.25 3.146 3.25 3V2.5H1.25V4.5H13.25V5.5H1.25ZM4.25 1.5H10.25V1C10.25 0.854 10.2968 0.734167 10.3905 0.6405C10.4842 0.546833 10.604 0.5 10.75 0.5C10.896 0.5 11.0158 0.546833 11.1095 0.6405C11.2032 0.734167 11.25 0.854 11.25 1V1.5H13.75C13.896 1.5 14.0158 1.54683 14.1095 1.6405C14.2032 1.73417 14.25 1.854 14.25 2V14C14.25 14.146 14.2032 14.2658 14.1095 14.3595C14.0158 14.4532 13.896 14.5 13.75 14.5H0.75C0.604 14.5 0.484167 14.4532 0.3905 14.3595C0.296833 14.2658 0.25 14.146 0.25 14V2C0.25 1.854 0.296833 1.73417 0.3905 1.6405C0.484167 1.54683 0.604 1.5 0.75 1.5H3.25V1C3.25 0.854 3.29683 0.734167 3.3905 0.6405C3.48417 0.546833 3.604 0.5 3.75 0.5C3.896 0.5 4.01583 0.546833 4.1095 0.6405C4.20317 0.734167 4.25 0.854 4.25 1V1.5ZM3.75 7.5H4.75C4.896 7.5 5.01583 7.54683 5.1095 7.6405C5.20317 7.73417 5.25 7.854 5.25 8C5.25 8.146 5.20317 8.26583 5.1095 8.3595C5.01583 8.45317 4.896 8.5 4.75 8.5H3.75C3.604 8.5 3.48417 8.45317 3.3905 8.3595C3.29683 8.26583 3.25 8.146 3.25 8C3.25 7.854 3.29683 7.73417 3.3905 7.6405C3.48417 7.54683 3.604 7.5 3.75 7.5ZM3.75 10.5H4.75C4.896 10.5 5.01583 10.5468 5.1095 10.6405C5.20317 10.7342 5.25 10.854 5.25 11C5.25 11.146 5.20317 11.2658 5.1095 11.3595C5.01583 11.4532 4.896 11.5 4.75 11.5H3.75C3.604 11.5 3.48417 11.4532 3.3905 11.3595C3.29683 11.2658 3.25 11.146 3.25 11C3.25 10.854 3.29683 10.7342 3.3905 10.6405C3.48417 10.5468 3.604 10.5 3.75 10.5ZM6.75 7.5H7.75C7.896 7.5 8.01583 7.54683 8.1095 7.6405C8.20317 7.73417 8.25 7.854 8.25 8C8.25 8.146 8.20317 8.26583 8.1095 8.3595C8.01583 8.45317 7.896 8.5 7.75 8.5H6.75C6.604 8.5 6.48417 8.45317 6.3905 8.3595C6.29683 8.26583 6.25 8.146 6.25 8C6.25 7.854 6.29683 7.73417 6.3905 7.6405C6.48417 7.54683 6.604 7.5 6.75 7.5ZM6.75 10.5H7.75C7.896 10.5 8.01583 10.5468 8.1095 10.6405C8.20317 10.7342 8.25 10.854 8.25 11C8.25 11.146 8.20317 11.2658 8.1095 11.3595C8.01583 11.4532 7.896 11.5 7.75 11.5H6.75C6.604 11.5 6.48417 11.4532 6.3905 11.3595C6.29683 11.2658 6.25 11.146 6.25 11C6.25 10.854 6.29683 10.7342 6.3905 10.6405C6.48417 10.5468 6.604 10.5 6.75 10.5ZM9.75 7.5H10.75C10.896 7.5 11.0158 7.54683 11.1095 7.6405C11.2032 7.73417 11.25 7.854 11.25 8C11.25 8.146 11.2032 8.26583 11.1095 8.3595C11.0158 8.45317 10.896 8.5 10.75 8.5H9.75C9.604 8.5 9.48417 8.45317 9.3905 8.3595C9.29683 8.26583 9.25 8.146 9.25 8C9.25 7.854 9.29683 7.73417 9.3905 7.6405C9.48417 7.54683 9.604 7.5 9.75 7.5ZM9.75 10.5H10.75C10.896 10.5 11.0158 10.5468 11.1095 10.6405C11.2032 10.7342 11.25 10.854 11.25 11C11.25 11.146 11.2032 11.2658 11.1095 11.3595C11.0158 11.4532 10.896 11.5 10.75 11.5H9.75C9.604 11.5 9.48417 11.4532 9.3905 11.3595C9.29683 11.2658 9.25 11.146 9.25 11C9.25 10.854 9.29683 10.7342 9.3905 10.6405C9.48417 10.5468 9.604 10.5 9.75 10.5Z" fill="#C4C4C4"/>
</svg>
