<svg viewBox="0 0 32 33" fill="none"
  xmlns="http://www.w3.org/2000/svg">
  <path d="M3 24.5H29C29.292 24.5 29.5317 24.5937 29.719 24.781C29.9063 24.9683 30 25.208 30 25.5C30 25.792 29.9063 26.0317 29.719 26.219C29.5317 26.4063 29.292 26.5 29 26.5H3C2.708 26.5 2.46833 26.4063 2.281 26.219C2.09367 26.0317 2 25.792 2 25.5C2 25.208 2.09367 24.9683 2.281 24.781C2.46833 24.5937 2.708 24.5 3 24.5Z" fill="#8E8E93"/>
  <path d="M9.1658 14.2514C7.29533 15.9684 6.20663 18.1602 5.89969 20.8269H7.76985C8.03812 18.6777 8.93498 16.9223 10.4605 15.5608C11.9859 14.1992 13.8325 13.4991 16 13.4604C18.1682 13.4985 20.0148 14.1986 21.5396 15.5608C23.0645 16.923 23.9614 18.6783 24.2302 20.8269H26.1004C25.7935 18.1602 24.7048 15.9684 22.8343 14.2514C20.9638 12.5344 18.6857 11.647 16 11.5893C13.3144 11.647 11.0363 12.5344 9.1658 14.2514Z" fill="#32D74B"/>
  <path d="M16.6621 5.43187C16.4896 5.25938 16.2689 5.17313 16 5.17313C15.7312 5.17313 15.5105 5.25938 15.338 5.43187C15.1655 5.60437 15.0792 5.82506 15.0792 6.09394V8.85636C15.0792 9.12524 15.1655 9.34593 15.338 9.51842C15.5105 9.69092 15.7312 9.77717 16 9.77717C16.2689 9.77717 16.4896 9.69092 16.6621 9.51842C16.8346 9.34593 16.9209 9.12524 16.9209 8.85636V6.09394C16.9209 5.82506 16.8346 5.60437 16.6621 5.43187Z" fill="#32D74B"/>
  <path d="M28 10.6832C28 10.4438 27.904 10.2281 27.7118 10.0359C27.5197 9.84378 27.3039 9.74771 27.0645 9.74771C26.8251 9.74771 26.6093 9.84378 26.4172 10.0359L24.4604 11.9926C24.2112 12.2419 24.1345 12.5344 24.2302 12.8702C24.326 13.206 24.5418 13.4217 24.8776 13.5175C25.2134 13.6133 25.5059 13.5365 25.7551 13.2873L27.7118 11.3306C27.904 11.1384 28 10.9227 28 10.6832Z" fill="#32D74B"/>
  <path d="M4.9356 9.74771C4.69619 9.74771 4.48042 9.84378 4.28827 10.0359C4.09613 10.2281 4.00006 10.4438 4.00006 10.6832C4.00006 10.9227 4.09613 11.1384 4.28827 11.3306L6.24499 13.2873C6.49423 13.5365 6.78674 13.6133 7.12252 13.5175C7.45831 13.4217 7.67409 13.206 7.76985 12.8702C7.86562 12.5344 7.78888 12.2419 7.53965 11.9926L5.58293 10.0359C5.39079 9.84378 5.17501 9.74771 4.9356 9.74771Z" fill="#32D74B"/>
</svg>
