<svg viewBox="0 0 32 33" fill="none"
  xmlns="http://www.w3.org/2000/svg">
  <path d="M32 16.5C32 25.3366 24.8366 32.5 16 32.5C7.16344 32.5 0 25.3366 0 16.5C0 7.66344 7.16344 0.5 16 0.5C24.8366 0.5 32 7.66344 32 16.5Z" fill="#161617"/>
  <path fill-rule="evenodd" clip-rule="evenodd" d="M16 31.4333C24.2475 31.4333 30.9333 24.7475 30.9333 16.5C30.9333 8.25255 24.2475 1.56667 16 1.56667C7.75255 1.56667 1.06667 8.25255 1.06667 16.5C1.06667 24.7475 7.75255 31.4333 16 31.4333ZM16 32.5C24.8366 32.5 32 25.3366 32 16.5C32 7.66344 24.8366 0.5 16 0.5C7.16344 0.5 0 7.66344 0 16.5C0 25.3366 7.16344 32.5 16 32.5Z" fill="#333333"/>
  <path d="M8.3906 11.9531V21.0531H6.52185V11.9531H8.3906Z" fill="white"/>
  <path d="M13.7094 17.0594H11.3719L11.3594 15.7719H13.3219C13.6677 15.7719 13.951 15.7281 14.1719 15.6406C14.3927 15.549 14.5573 15.4177 14.6656 15.2469C14.7781 15.0719 14.8344 14.8594 14.8344 14.6094C14.8344 14.326 14.7802 14.0969 14.6719 13.9219C14.5677 13.7469 14.4031 13.6198 14.1781 13.5406C13.9573 13.4615 13.6719 13.4219 13.3219 13.4219H12.0219V21.0531H10.1469V11.9531H13.3219C13.851 11.9531 14.3239 12.0031 14.7406 12.1031C15.1614 12.2031 15.5177 12.3552 15.8094 12.5594C16.101 12.7635 16.3239 13.0219 16.4781 13.3344C16.6323 13.6427 16.7093 14.0094 16.7093 14.4344C16.7093 14.8094 16.6239 15.1552 16.4531 15.4719C16.2864 15.7885 16.0219 16.0469 15.6594 16.2469C15.301 16.4469 14.8323 16.5573 14.2531 16.5781L13.7094 17.0594ZM13.6281 21.0531H10.8594L11.5906 19.5906H13.6281C13.9573 19.5906 14.226 19.5385 14.4344 19.4344C14.6427 19.326 14.7969 19.1802 14.8969 18.9969C14.9969 18.8135 15.0469 18.6031 15.0469 18.3656C15.0469 18.099 15.001 17.8677 14.9094 17.6719C14.8219 17.476 14.6802 17.326 14.4844 17.2219C14.2885 17.1135 14.0302 17.0594 13.7094 17.0594H11.9031L11.9156 15.7719H14.1656L14.5969 16.2781C15.151 16.2698 15.5969 16.3677 15.9344 16.5719C16.276 16.7719 16.5239 17.0323 16.6781 17.3531C16.8364 17.674 16.9156 18.0177 16.9156 18.3844C16.9156 18.9677 16.7885 19.4594 16.5343 19.8594C16.2802 20.2552 15.9073 20.5531 15.4156 20.7531C14.9281 20.9531 14.3323 21.0531 13.6281 21.0531Z" fill="white"/>
  <path d="M23.5968 18.0344H25.4656C25.4281 18.6469 25.2593 19.1906 24.9593 19.6656C24.6635 20.1406 24.2489 20.5115 23.7156 20.7781C23.1864 21.0448 22.5489 21.1781 21.8031 21.1781C21.2198 21.1781 20.6968 21.0781 20.2343 20.8781C19.7718 20.674 19.376 20.3823 19.0468 20.0031C18.7218 19.624 18.4739 19.1656 18.3031 18.6281C18.1323 18.0906 18.0468 17.4885 18.0468 16.8219V16.1906C18.0468 15.524 18.1343 14.9219 18.3093 14.3844C18.4885 13.8427 18.7427 13.3823 19.0718 13.0031C19.4052 12.624 19.8031 12.3323 20.2656 12.1281C20.7281 11.924 21.2448 11.8219 21.8156 11.8219C22.5739 11.8219 23.2135 11.9594 23.7343 12.2344C24.2593 12.5094 24.6656 12.8885 24.9531 13.3719C25.2448 13.8552 25.4198 14.4052 25.4781 15.0219H23.6031C23.5823 14.6552 23.5093 14.3448 23.3843 14.0906C23.2593 13.8323 23.0698 13.6385 22.8156 13.5094C22.5656 13.376 22.2323 13.3094 21.8156 13.3094C21.5031 13.3094 21.2302 13.3677 20.9968 13.4844C20.7635 13.601 20.5677 13.7781 20.4093 14.0156C20.251 14.2531 20.1323 14.5531 20.0531 14.9156C19.9781 15.274 19.9406 15.6948 19.9406 16.1781V16.8219C19.9406 17.2927 19.976 17.7073 20.0468 18.0656C20.1177 18.4198 20.226 18.7198 20.3718 18.9656C20.5218 19.2073 20.7135 19.3906 20.9468 19.5156C21.1843 19.6365 21.4698 19.6969 21.8031 19.6969C22.1948 19.6969 22.5177 19.6344 22.7718 19.5094C23.026 19.3844 23.2198 19.199 23.3531 18.9531C23.4906 18.7073 23.5718 18.401 23.5968 18.0344Z" fill="white"/>
</svg>
