<svg viewBox="0 0 32 33" fill="none"
  xmlns="http://www.w3.org/2000/svg">
  <path d="M16.0001 4.5C9.3735 4.5 4 10.0085 4 16.8038C4 22.24 7.43839 26.8519 12.2064 28.4789C12.8061 28.5927 13.0263 28.2119 13.0263 27.887C13.0263 27.5936 13.0152 26.6244 13.01 25.5963C9.67157 26.3405 8.96712 24.1446 8.96712 24.1446C8.42125 22.7224 7.63473 22.3443 7.63473 22.3443C6.54596 21.5806 7.7168 21.5963 7.7168 21.5963C8.92181 21.6831 9.55632 22.8642 9.55632 22.8642C10.6266 24.7452 12.3636 24.2014 13.0484 23.887C13.1561 23.0918 13.4671 22.549 13.8102 22.2418C11.1449 21.9307 8.34295 20.8757 8.34295 16.1612C8.34295 14.8179 8.81172 13.7203 9.57937 12.8587C9.45477 12.5488 9.04402 11.2974 9.69562 9.60261C9.69562 9.60261 10.7033 9.27193 12.9965 10.8638C13.9537 10.5912 14.9803 10.4545 16.0001 10.4498C17.0199 10.4545 18.0473 10.5912 19.0063 10.8638C21.2967 9.27193 22.303 9.60261 22.303 9.60261C22.9562 11.2974 22.5452 12.5488 22.4206 12.8587C23.1901 13.7203 23.6557 14.8179 23.6557 16.1612C23.6557 20.8869 20.8484 21.9274 18.1762 22.232C18.6067 22.6138 18.9902 23.3626 18.9902 24.5105C18.9902 26.1568 18.9763 27.4817 18.9763 27.887C18.9763 28.2144 19.1923 28.598 19.8006 28.4772C24.566 26.8485 28 22.2381 28 16.8038C28 10.0085 22.6273 4.5 16.0001 4.5Z" fill="#32D74B"/>
  <path d="M8.58043 22.0812C8.55405 22.1417 8.46043 22.1598 8.37514 22.1183C8.28826 22.0785 8.23947 21.996 8.26764 21.9353C8.29342 21.873 8.38724 21.8556 8.47392 21.8974C8.56099 21.9371 8.61058 22.0204 8.58043 22.0812Z" fill="#8E8E93"/>
  <path d="M9.06559 22.6315C9.00846 22.6854 8.89679 22.6603 8.82102 22.5752C8.74268 22.4903 8.728 22.3767 8.78592 22.322C8.84483 22.2682 8.95312 22.2934 9.03167 22.3783C9.11002 22.4643 9.12529 22.577 9.06559 22.6315Z" fill="#8E8E93"/>
  <path d="M9.53785 23.3331C9.46446 23.385 9.34446 23.3364 9.27028 23.228C9.19689 23.1197 9.19689 22.9898 9.27187 22.9377C9.34625 22.8857 9.46446 22.9325 9.53964 23.04C9.61283 23.1502 9.61283 23.2801 9.53785 23.3331Z" fill="#8E8E93"/>
  <path d="M10.1849 24.011C10.1192 24.0846 9.97937 24.0648 9.87703 23.9644C9.7723 23.8661 9.74314 23.7267 9.80899 23.6531C9.87544 23.5793 10.0161 23.6 10.1192 23.6997C10.2231 23.7977 10.2549 23.9381 10.1849 24.011Z" fill="#8E8E93"/>
  <path d="M11.0774 24.4046C11.0485 24.5 10.9138 24.5433 10.7781 24.5028C10.6426 24.461 10.554 24.3493 10.5814 24.2528C10.6095 24.1568 10.7448 24.1116 10.8815 24.155C11.0167 24.1966 11.1056 24.3075 11.0774 24.4046Z" fill="#8E8E93"/>
  <path d="M12.0577 24.4776C12.061 24.578 11.946 24.6614 11.8036 24.6632C11.6604 24.6664 11.5445 24.5851 11.5429 24.4863C11.5429 24.3848 11.6554 24.3023 11.7986 24.2999C11.941 24.297 12.0577 24.3777 12.0577 24.4776Z" fill="#8E8E93"/>
  <path d="M12.9699 24.3196C12.9869 24.4177 12.8879 24.5183 12.7465 24.5452C12.6075 24.571 12.4787 24.5105 12.4611 24.4132C12.4438 24.3128 12.5446 24.2121 12.6834 24.1861C12.8251 24.1611 12.9518 24.22 12.9699 24.3196Z" fill="#8E8E93"/>
</svg>
