<svg viewBox="0 0 32 33" fill="none"
  xmlns="http://www.w3.org/2000/svg">
  <path d="M20.781 24.5L24.25 30.5H21.937L18.468 24.5H13.53L10.061 30.5H7.74796L11.217 24.5H4.99796C4.70596 24.5 4.46629 24.4063 4.27895 24.219C4.09162 24.0317 3.99796 23.792 3.99796 23.5V6.5H1.99796C1.70596 6.5 1.46629 6.40633 1.27896 6.219C1.09162 6.03167 0.997955 5.792 0.997955 5.5C0.997955 5.208 1.09162 4.96833 1.27896 4.781C1.46629 4.59367 1.70596 4.5 1.99796 4.5H29.998C30.29 4.5 30.5296 4.59367 30.717 4.781C30.9043 4.96833 30.998 5.208 30.998 5.5C30.998 5.792 30.9043 6.03167 30.717 6.219C30.5296 6.40633 30.29 6.5 29.998 6.5H27.998V23.5C27.998 23.792 27.9043 24.0317 27.717 24.219C27.5296 24.4063 27.29 24.5 26.998 24.5H20.779H20.781ZM26 6.5H5.99996V22.5H26V6.5Z" fill="#32D74B"/>
  <path d="M11.719 14.781C11.5317 14.5937 11.292 14.5 11 14.5C10.708 14.5 10.4683 14.5937 10.281 14.781C10.0937 14.9683 10 15.208 10 15.5V17.5C10 17.792 10.0937 18.0317 10.281 18.219C10.4683 18.4063 10.708 18.5 11 18.5C11.292 18.5 11.5317 18.4063 11.719 18.219C11.9063 18.0317 12 17.792 12 17.5V15.5C12 15.208 11.9063 14.9683 11.719 14.781Z" fill="#8E8E93"/>
  <path d="M16.719 12.781C16.5317 12.5937 16.292 12.5 16 12.5C15.708 12.5 15.4683 12.5937 15.281 12.781C15.0937 12.9683 15 13.208 15 13.5V17.5C15 17.792 15.0937 18.0317 15.281 18.219C15.4683 18.4063 15.708 18.5 16 18.5C16.292 18.5 16.5317 18.4063 16.719 18.219C16.9063 18.0317 17 17.792 17 17.5V13.5C17 13.208 16.9063 12.9683 16.719 12.781Z" fill="#8E8E93"/>
  <path d="M21.719 10.781C21.5317 10.5937 21.292 10.5 21 10.5C20.708 10.5 20.4683 10.5937 20.281 10.781C20.0937 10.9683 20 11.208 20 11.5V17.5C20 17.792 20.0937 18.0317 20.281 18.219C20.4683 18.4063 20.708 18.5 21 18.5C21.292 18.5 21.5317 18.4063 21.719 18.219C21.9063 18.0317 22 17.792 22 17.5V11.5C22 11.208 21.9063 10.9683 21.719 10.781Z" fill="#8E8E93"/>
</svg>
