<svg viewBox="0 0 32 33" fill="none"
  xmlns="http://www.w3.org/2000/svg">
  <path fill-rule="evenodd" clip-rule="evenodd" d="M12 7.5C12 8.80622 11.1652 9.91746 10 10.3293V14.5H15C18.5912 14.5 21.5508 13.7957 21.9534 10.3124C20.8126 9.88766 20 8.78873 20 7.5C20 5.84315 21.3431 4.5 23 4.5C24.6569 4.5 26 5.84315 26 7.5C26 8.82073 25.1465 9.94212 23.9611 10.3428C23.5362 14.9182 19.6864 16.5 15 16.5H10V19.5C10 20.0523 9.55228 20.5 9 20.5C8.44772 20.5 8 20.0523 8 19.5V10.3293C6.83481 9.91746 6 8.80622 6 7.5C6 5.84315 7.34315 4.5 9 4.5C10.6569 4.5 12 5.84315 12 7.5ZM24 7.5C24 8.05228 23.5523 8.5 23 8.5C22.4477 8.5 22 8.05228 22 7.5C22 6.94772 22.4477 6.5 23 6.5C23.5523 6.5 24 6.94772 24 7.5ZM10 7.5C10 8.05228 9.55228 8.5 9 8.5C8.44772 8.5 8 8.05228 8 7.5C8 6.94772 8.44772 6.5 9 6.5C9.55228 6.5 10 6.94772 10 7.5Z" fill="#32D74B"/>
  <path fill-rule="evenodd" clip-rule="evenodd" d="M12 25.5C12 27.1569 10.6569 28.5 9 28.5C7.34315 28.5 6 27.1569 6 25.5C6 23.8431 7.34315 22.5 9 22.5C10.6569 22.5 12 23.8431 12 25.5ZM10 25.5C10 26.0523 9.55228 26.5 9 26.5C8.44772 26.5 8 26.0523 8 25.5C8 24.9477 8.44772 24.5 9 24.5C9.55228 24.5 10 24.9477 10 25.5Z" fill="#8E8E93"/>
</svg>
