<svg viewBox="0 0 32 33" fill="none"
  xmlns="http://www.w3.org/2000/svg">
  <path fill-rule="evenodd" clip-rule="evenodd" d="M13.9788 11.2686C14.9788 10.1436 16.4121 9.5 17.9172 9.5C19.219 9.5 20.4747 9.98185 21.4423 10.8527L24.669 13.7567C25.0795 14.1262 25.1128 14.7585 24.7433 15.169C24.3738 15.5795 23.7415 15.6128 23.331 15.2433L20.1043 12.3393C19.504 11.799 18.7249 11.5 17.9172 11.5C16.9834 11.5 16.0941 11.8993 15.4737 12.5973L14.9696 13.1644C13.6491 14.65 11.7562 15.5 9.76853 15.5H8C7.44772 15.5 7 15.0523 7 14.5C7 13.9477 7.44772 13.5 8 13.5H9.76853C11.185 13.5 12.5338 12.8943 13.4748 11.8356L13.9788 11.2686Z" fill="#32D74B"/>
  <path fill-rule="evenodd" clip-rule="evenodd" d="M13.9788 17.2686C14.9788 16.1436 16.4121 15.5 17.9172 15.5C19.219 15.5 20.4747 15.9819 21.4423 16.8527L24.669 19.7567C25.0795 20.1262 25.1128 20.7585 24.7433 21.169C24.3738 21.5795 23.7415 21.6128 23.331 21.2433L20.1043 18.3393C19.504 17.799 18.7249 17.5 17.9172 17.5C16.9834 17.5 16.0941 17.8993 15.4737 18.5973L14.9696 19.1644C13.6491 20.65 11.7562 21.5 9.76853 21.5H8C7.44772 21.5 7 21.0523 7 20.5C7 19.9477 7.44772 19.5 8 19.5H9.76853C11.185 19.5 12.5338 18.8943 13.4748 17.8356L13.9788 17.2686Z" fill="#32D74B"/>
  <path fill-rule="evenodd" clip-rule="evenodd" d="M22 4.5H10C6.68629 4.5 4 7.18629 4 10.5V22.5C4 25.8137 6.68629 28.5 10 28.5H22C25.3137 28.5 28 25.8137 28 22.5V10.5C28 7.18629 25.3137 4.5 22 4.5ZM10 2.5C5.58172 2.5 2 6.08172 2 10.5V22.5C2 26.9183 5.58172 30.5 10 30.5H22C26.4183 30.5 30 26.9183 30 22.5V10.5C30 6.08172 26.4183 2.5 22 2.5H10Z" fill="#8E8E93"/>
</svg>
