<svg viewBox="0 0 32 33" fill="none"
  xmlns="http://www.w3.org/2000/svg">
  <path d="M28 17.5H4V15.5H28V17.5Z" fill="#8E8E93"/>
  <path d="M27 26.5C27 27.6046 26.1046 28.5 25 28.5L7 28.5C5.89543 28.5 5 27.6046 5 26.5L5 18.5H7L7 26.5L25 26.5V18.5H27V26.5Z" fill="#8E8E93"/>
  <path d="M23 22.5L9 22.5V24.5H23V22.5Z" fill="#8E8E93"/>
  <path d="M27 6.5C27 5.39543 26.1046 4.5 25 4.5H7C5.89543 4.5 5 5.39543 5 6.5V14.5H7V6.5H25V14.5H27V6.5Z" fill="#32D74B"/>
  <path d="M9 10.5H23V8.5H9V10.5Z" fill="#32D74B"/>
</svg>
