<svg viewBox="0 0 32 33" fill="none"
  xmlns="http://www.w3.org/2000/svg">
  <path d="M8.90242 23.9664L8.83683 24.1229C8.57865 24.7693 8.44566 25.4635 8.44566 26.1647C8.44566 26.866 8.57865 27.5601 8.83683 28.2065C9.09602 28.8553 9.47465 29.4437 9.95089 29.9376C10.43 30.4341 10.9968 30.827 11.6193 31.0941C12.8805 31.636 14.2932 31.636 15.5544 31.0941C16.1766 30.8269 16.7432 30.434 17.222 29.9376L26.6836 20.1212C27.1703 19.6179 27.557 19.0177 27.8212 18.3555C28.0855 17.6933 28.2219 16.9823 28.2226 16.2641C28.2226 14.9658 27.8353 13.7135 26.9888 12.7311C26.5708 12.5428 26.1094 12.4884 25.6622 12.5745C25.2626 12.6519 24.8962 12.8977 24.591 13.1868L15.6025 22.7583C15.4363 22.9369 15.244 23.0852 15.0358 23.1994C15.146 23.1285 15.2545 23.0548 15.362 22.9784L15.334 22.9903L15.3603 22.9719C15.3515 22.978 15.3428 22.9842 15.334 22.9903C14.3972 23.6436 13.3344 24.07 12.2223 24.2387C11.1102 24.4075 9.97631 24.3145 8.90242 23.9664Z" fill="#104ADE"/>
  <path d="M15.334 22.9903L15.3883 22.9517C15.0427 23.0969 14.6686 23.1501 14.2989 23.1068C13.9291 23.0634 13.5753 22.9248 13.2686 22.7031C12.9986 22.506 12.7727 22.2492 12.6066 21.9508C12.3574 21.5027 12.2567 20.9802 12.3204 20.4653C12.384 19.9505 12.6084 19.4725 12.9581 19.1065L15.9497 15.9759L20.3193 11.442L20.3368 11.4254C20.3493 11.4142 20.3621 11.4035 20.3753 11.3932L21.0329 10.71C21.3676 10.6414 21.708 10.6084 22.049 10.6114C22.8176 10.6114 23.4708 10.6897 24.1223 10.8849C25.2532 11.1382 26.2678 11.7913 26.9975 12.7357C26.5774 12.5438 26.1128 12.4883 25.6622 12.5745C25.2617 12.6528 24.8962 12.8977 24.591 13.1868L15.6025 22.7583C15.4363 22.9369 15.244 23.0852 15.0358 23.1994C15.146 23.1285 15.2545 23.0548 15.362 22.9784L15.334 22.9903Z" fill="#0038C7"/>
  <path d="M22.5859 4.78108C22.3452 4.17962 21.9936 3.63443 21.5514 3.17708C21.038 2.64439 20.4305 2.22272 19.7631 1.93588C18.4095 1.35393 16.8931 1.35393 15.5395 1.93588C14.8716 2.22255 14.2635 2.64423 13.7495 3.17708L5.95985 11.2578C4.59489 12.6681 3.81126 14.5869 3.77808 16.6002C3.74981 18.6126 4.47443 20.556 5.79545 22.0106L5.87677 22.0926L5.96072 22.1828C6.03767 22.2611 6.11812 22.3347 6.20207 22.4038C7.46422 23.5408 9.04623 24.2095 10.7046 24.3071C12.3643 24.4068 14.0102 23.9306 15.3883 22.9517C15.0427 23.0969 14.6686 23.1501 14.2989 23.1068C13.9291 23.0634 13.5753 22.9248 13.2686 22.7031C12.9986 22.506 12.7727 22.2492 12.6066 21.9508C12.3574 21.5027 12.2567 20.9802 12.3204 20.4653C12.384 19.9505 12.6084 19.4725 12.9581 19.1065L15.9497 15.9759L20.3193 11.442L20.3753 11.3932L21.5505 10.1713C22.2159 9.48336 22.6706 8.60149 22.8561 7.63916C23.04 6.68001 22.9455 5.68478 22.585 4.78292L22.5859 4.78108Z" fill="#0F75FC"/>
</svg>
