<svg viewBox="0 0 32 33" fill="none"
  xmlns="http://www.w3.org/2000/svg">
  <path fill-rule="evenodd" clip-rule="evenodd" d="M22 4.5H10C8.89543 4.5 8 5.39543 8 6.5V26.5C8 27.6046 8.89543 28.5 10 28.5H22C23.1046 28.5 24 27.6046 24 26.5V6.5C24 5.39543 23.1046 4.5 22 4.5ZM10 2.5C7.79086 2.5 6 4.29086 6 6.5V26.5C6 28.7091 7.79086 30.5 10 30.5H22C24.2091 30.5 26 28.7091 26 26.5V6.5C26 4.29086 24.2091 2.5 22 2.5H10Z" fill="#8E8E93"/>
  <path fill-rule="evenodd" clip-rule="evenodd" d="M16.0001 7.48389L21.1181 16.5002L16.0001 25.5166L10.8821 16.5002L16.0001 7.48389ZM13.1181 16.5002L16.0001 21.5773L18.8821 16.5002L16.0001 11.4231L13.1181 16.5002Z" fill="#32D74B"/>
</svg>
