<svg viewBox="0 0 32 33" fill="none"
  xmlns="http://www.w3.org/2000/svg">
  <path fill-rule="evenodd" clip-rule="evenodd" d="M2.65271 10.0708C2.65271 8.87513 3.70071 7.93322 4.90406 8.09451C6.17273 8.26456 7.80084 8.50803 8.67094 8.72501C9.33249 8.88998 9.71343 9.38156 9.85649 9.90422H12.9944C13.5467 9.90422 13.9944 10.3519 13.9944 10.9042C13.9944 11.4565 13.5467 11.9042 12.9944 11.9042H9.74826C9.4512 13.2866 8.89677 15.3521 8.43643 16.9954L14.8162 22.6647C14.8518 22.6836 14.8914 22.7029 14.9341 22.722L13.8801 21.6995C13.4837 21.3149 13.4742 20.6818 13.8587 20.2854C14.2433 19.889 14.8764 19.8794 15.2728 20.264L17.6903 22.6093C17.8277 22.6449 17.983 22.6611 18.1107 22.642L15.7875 20.2701C15.4011 19.8755 15.4077 19.2424 15.8022 18.856C16.1968 18.4695 16.8299 18.4761 17.2164 18.8706L19.8399 21.5492C19.9785 21.5379 20.1359 21.5106 20.2879 21.4581C20.3009 21.4536 20.3137 21.449 20.3263 21.4443L17.4798 18.7272C17.0803 18.3458 17.0655 17.7128 17.4469 17.3133C17.8282 16.9138 18.4612 16.8991 18.8607 17.2804L22.0243 20.3002C22.0369 20.2913 22.0492 20.2818 22.0612 20.2717C22.1159 20.2257 22.1644 20.1673 22.2015 20.0866C22.2387 20.0059 22.2768 19.876 22.2768 19.6721C22.2768 19.1198 22.7245 18.6721 23.2768 18.6721C23.8291 18.6721 24.2768 19.1198 24.2768 19.6721C24.2768 20.628 23.8971 21.3412 23.348 21.8027C23.0383 22.0631 22.6957 22.2264 22.3773 22.3197C21.9801 22.8611 21.4387 23.1767 20.9405 23.3487C20.6405 23.4522 20.34 23.5104 20.0627 23.5372C19.7038 24.1207 19.1654 24.4592 18.5808 24.5879C18.1248 24.6883 17.6761 24.6557 17.3019 24.5724C16.6941 24.8901 16.0552 24.9564 15.5066 24.9104C14.8259 24.8533 14.2222 24.6213 13.8264 24.4031C13.6916 24.3288 13.5827 24.2442 13.4976 24.1685L7.61675 18.9426C7.25101 19.3043 6.74988 19.52 6.21123 19.52H4.65271C3.54814 19.52 2.65271 18.6246 2.65271 17.52V10.0708ZM7.92224 10.8237V10.6045C7.12414 10.4321 5.80029 10.2327 4.65271 10.0787V17.52L6.20903 17.52C6.25168 17.3713 6.29613 17.2155 6.34197 17.0539C6.92899 14.9849 7.71161 12.084 7.92224 10.8237Z" fill="#32D74B"/>
  <path fill-rule="evenodd" clip-rule="evenodd" d="M23.4064 11.7145L26.0353 18.5496H27.3473V10.9599C26.2769 10.9858 24.6871 11.3469 23.4064 11.7145ZM22.7335 9.82721C24.1253 9.42146 26.212 8.9177 27.6532 8.96123C28.7729 8.99504 29.3473 9.97617 29.3473 10.7987V18.5496C29.3473 19.6542 28.4519 20.5496 27.3473 20.5496H26.0353C25.4197 20.5496 24.8513 20.2676 24.4783 19.8051C23.7219 20.397 22.646 20.3684 21.9215 19.7276L16.8709 15.261C16.8632 15.2586 16.8459 15.2556 16.8138 15.257C16.734 15.2603 16.6163 15.293 16.4984 15.3664C16.0628 15.6376 15.6239 15.7788 15.2197 15.8298C14.8327 15.8786 14.5729 15.9789 14.4452 16.0867C13.6595 16.7499 12.5137 17.1611 11.5334 16.6123C10.468 16.0159 10.3321 14.7365 10.6605 13.5498C11.2263 11.44 12.3941 10.1889 13.7014 9.54331C14.9673 8.91817 16.2831 8.89964 17.1496 9.08681L17.2095 9.09975L21.6561 10.6482C21.8885 10.2678 22.2574 9.96601 22.7335 9.82721ZM21.6699 12.7708L16.673 11.0307C16.175 10.9363 15.3615 10.9541 14.587 11.3366C13.8259 11.7124 13.0169 12.4809 12.5913 14.0714L12.5888 14.0805C12.4763 14.4858 12.4919 14.7231 12.5178 14.8302C12.5212 14.8444 12.5246 14.8557 12.5276 14.8646C12.5481 14.8649 12.5797 14.8625 12.6246 14.8525C12.7483 14.8247 12.9367 14.7428 13.1552 14.5584C13.7254 14.077 14.4503 13.911 14.9694 13.8455C15.0944 13.8297 15.257 13.7833 15.4413 13.6685C16.1095 13.2526 17.2897 12.9613 18.1925 13.7598L23.2465 18.2295L23.6417 17.8975L21.6699 12.7708ZM12.5398 14.8918L12.5378 14.8888Z" fill="#8E8E93"/>
</svg>
