<svg viewBox="0 0 32 33" fill="none"
  xmlns="http://www.w3.org/2000/svg">
  <path d="M23.5 13.5H17.5V7.5H8.5V25.5H23.5V13.5ZM22.891 12L19 8.109V12H22.891ZM7.75 6H19L25 12V26.25C25 26.469 24.9297 26.6487 24.7892 26.7892C24.6487 26.9297 24.469 27 24.25 27H7.75C7.531 27 7.35125 26.9297 7.21075 26.7892C7.07025 26.6487 7 26.469 7 26.25V6.75C7 6.531 7.07025 6.35125 7.21075 6.21075C7.35125 6.07025 7.531 6 7.75 6Z" fill="#32D74B"/>
  <path d="M20.5 16.5H11.5V18H20.5V16.5Z" fill="#8E8E93"/>
  <path d="M15.25 12H11.5V13.5H15.25V12Z" fill="#8E8E93"/>
  <path d="M20.5 21H11.5V22.5H20.5V21Z" fill="#8E8E93"/>
</svg>
