<svg width="14" height="14" viewBox="0 0 14 14" fill="none" xmlns="http://www.w3.org/2000/svg">
<path fill-rule="evenodd" clip-rule="evenodd" d="M7 13.125C10.3827 13.125 13.125 10.3827 13.125 7C13.125 3.61726 10.3827 0.875 7 0.875C3.61726 0.875 0.875 3.61726 0.875 7C0.875 10.3827 3.61726 13.125 7 13.125ZM7 14C10.866 14 14 10.866 14 7C14 3.13401 10.866 0 7 0C3.13401 0 0 3.13401 0 7C0 10.866 3.13401 14 7 14Z" fill="#BDBDBD"/>
<path d="M7.30249 8.44795H7.35249V8.39795C7.35249 8.14932 7.3844 7.91832 7.44783 7.70466C7.50992 7.49553 7.63105 7.30649 7.81329 7.13749L7.81349 7.13731C8.03352 6.93104 8.24152 6.71444 8.4375 6.48751C8.63506 6.25876 8.79647 6.01413 8.92151 5.75363C9.05145 5.48666 9.11616 5.19548 9.11616 4.88086C9.11616 4.47432 9.03449 4.1205 8.86907 3.82124C8.70347 3.51822 8.46187 3.28563 8.14565 3.12398C7.83273 2.96228 7.45532 2.88262 7.01538 2.88262C6.61596 2.88262 6.2532 2.95733 5.92799 3.10769C5.60228 3.25829 5.34215 3.47601 5.14882 3.76073L5.14882 3.76073L5.14858 3.76108C4.95789 4.04712 4.86006 4.38834 4.85308 4.78256L4.85218 4.83345H4.90308H5.85156H5.90085L5.90156 4.78416C5.90487 4.55221 5.95944 4.37024 6.06086 4.23395L6.06087 4.23395L6.06119 4.23351C6.16488 4.09093 6.30081 3.9856 6.47014 3.91721C6.64172 3.84792 6.82333 3.81318 7.01538 3.81318C7.24839 3.81318 7.43916 3.85813 7.59033 3.94497L7.59072 3.94519C7.74577 4.03241 7.86167 4.15631 7.9393 4.31802L7.93929 4.31803L7.93965 4.31875C8.02091 4.48127 8.06255 4.67663 8.06255 4.90649C8.06255 5.13304 8.02259 5.32505 7.94469 5.48417C7.86494 5.64363 7.7601 5.7935 7.62986 5.93375L7.62983 5.93379C7.50031 6.07354 7.35707 6.2236 7.20011 6.38397L7.19994 6.38415C6.98368 6.60727 6.80951 6.8072 6.67792 6.9838C6.54428 7.16317 6.44755 7.36194 6.38781 7.57979L6.38767 7.58033C6.33155 7.79429 6.30232 8.06709 6.29888 8.39743L6.29835 8.44795H6.34888H7.30249ZM6.41431 9.60003C6.30964 9.71592 6.25786 9.85804 6.25786 10.0232C6.25786 10.1821 6.31004 10.3207 6.41431 10.4361C6.52191 10.5552 6.67546 10.6115 6.8667 10.6115C7.06102 10.6115 7.21644 10.5554 7.32421 10.4361C7.42848 10.3207 7.48066 10.1821 7.48066 10.0232C7.48066 9.85804 7.42889 9.71592 7.32421 9.60003C7.21644 9.48071 7.06102 9.42461 6.8667 9.42461C6.67546 9.42461 6.52191 9.4809 6.41431 9.60003Z" fill="#C4C4C4" stroke="#BDBDBD" stroke-width="0.1"/>
</svg>
