<svg width="13" height="13" viewBox="0 0 13 13" fill="none" xmlns="http://www.w3.org/2000/svg">
<path d="M6.5 11C8.98528 11 11 8.98528 11 6.5C11 4.01472 8.98528 2 6.5 2C4.01472 2 2 4.01472 2 6.5C2 8.98528 4.01472 11 6.5 11Z" stroke="#FF7262" stroke-linecap="round" stroke-linejoin="round"/>
<path d="M8.9375 5L7.4375 6.5" stroke="#FF7262" stroke-linecap="round" stroke-linejoin="round"/>
<path d="M8.9375 6.5L7.4375 5" stroke="#FF7262" stroke-linecap="round" stroke-linejoin="round"/>
<path d="M5.5625 5L4.0625 6.5" stroke="#FF7262" stroke-linecap="round" stroke-linejoin="round"/>
<path d="M5.5625 6.5L4.0625 5" stroke="#FF7262" stroke-linecap="round" stroke-linejoin="round"/>
<path d="M6.5 9.6875C6.91421 9.6875 7.25 9.35171 7.25 8.9375C7.25 8.52329 6.91421 8.1875 6.5 8.1875C6.08579 8.1875 5.75 8.52329 5.75 8.9375C5.75 9.35171 6.08579 9.6875 6.5 9.6875Z" fill="#FF7262"/>
</svg>
