<svg width="14" height="15" viewBox="0 0 14 15" fill="none" xmlns="http://www.w3.org/2000/svg">
<path d="M4 3.5C3.71867 3.51033 3.48433 3.60933 3.297 3.797C3.10967 3.98467 3.01067 4.219 3 4.5V10.5C3.01033 10.7813 3.10933 11.0157 3.297 11.203C3.48467 11.3903 3.719 11.4893 4 11.5H10C10.2813 11.4897 10.5157 11.3907 10.703 11.203C10.8903 11.0153 10.9893 10.781 11 10.5V4.5C10.9897 4.21867 10.8907 3.98433 10.703 3.797C10.5153 3.60967 10.281 3.51067 10 3.5H4ZM4 2.5H10C10.5627 2.51033 11.034 2.70567 11.414 3.086C11.794 3.46633 11.9893 3.93767 12 4.5V10.5C11.9897 11.0627 11.7943 11.534 11.414 11.914C11.0337 12.294 10.5623 12.4893 10 12.5H4C3.43733 12.4897 2.966 12.2943 2.586 11.914C2.206 11.5337 2.01067 11.0623 2 10.5V4.5C2.01033 3.93733 2.20567 3.466 2.586 3.086C2.96633 2.706 3.43767 2.51067 4 2.5ZM7 0.5C7.146 0.5 7.26583 0.546833 7.3595 0.6405C7.45317 0.734167 7.5 0.854 7.5 1V3H6.5V1C6.5 0.854 6.54683 0.734167 6.6405 0.6405C6.73417 0.546833 6.854 0.5 7 0.5ZM9.5 0.5C9.646 0.5 9.76583 0.546833 9.8595 0.6405C9.95317 0.734167 10 0.854 10 1V3H9V1C9 0.854 9.04683 0.734167 9.1405 0.6405C9.23417 0.546833 9.354 0.5 9.5 0.5ZM4.5 0.5C4.646 0.5 4.76583 0.546833 4.8595 0.6405C4.95317 0.734167 5 0.854 5 1V3H4V1C4 0.854 4.04683 0.734167 4.1405 0.6405C4.23417 0.546833 4.354 0.5 4.5 0.5ZM7 14.5C6.854 14.5 6.73417 14.4532 6.6405 14.3595C6.54683 14.2658 6.5 14.146 6.5 14V12H7.5V14C7.5 14.146 7.45317 14.2658 7.3595 14.3595C7.26583 14.4532 7.146 14.5 7 14.5ZM9.5 14.5C9.354 14.5 9.23417 14.4532 9.1405 14.3595C9.04683 14.2658 9 14.146 9 14V12H10V14C10 14.146 9.95317 14.2658 9.8595 14.3595C9.76583 14.4532 9.646 14.5 9.5 14.5ZM4.5 14.5C4.354 14.5 4.23417 14.4532 4.1405 14.3595C4.04683 14.2658 4 14.146 4 14V12H5V14C5 14.146 4.95317 14.2658 4.8595 14.3595C4.76583 14.4532 4.646 14.5 4.5 14.5ZM0 7.5C0 7.354 0.0468333 7.23417 0.1405 7.1405C0.234167 7.04683 0.354 7 0.5 7H2.5V8H0.5C0.354 8 0.234167 7.95317 0.1405 7.8595C0.0468333 7.76583 0 7.646 0 7.5ZM0 5C0 4.854 0.0468333 4.73417 0.1405 4.6405C0.234167 4.54683 0.354 4.5 0.5 4.5H2.5V5.5H0.5C0.354 5.5 0.234167 5.45317 0.1405 5.3595C0.0468333 5.26583 0 5.146 0 5ZM0 10C0 9.854 0.0468333 9.73417 0.1405 9.6405C0.234167 9.54683 0.354 9.5 0.5 9.5H2.5V10.5H0.5C0.354 10.5 0.234167 10.4532 0.1405 10.3595C0.0468333 10.2658 0 10.146 0 10ZM14 7.5C14 7.646 13.9532 7.76583 13.8595 7.8595C13.7658 7.95317 13.646 8 13.5 8H11.5V7H13.5C13.646 7 13.7658 7.04683 13.8595 7.1405C13.9532 7.23417 14 7.354 14 7.5ZM14 5C14 5.146 13.9532 5.26583 13.8595 5.3595C13.7658 5.45317 13.646 5.5 13.5 5.5H11.5V4.5H13.5C13.646 4.5 13.7658 4.54683 13.8595 4.6405C13.9532 4.73417 14 4.854 14 5ZM14 10C14 10.146 13.9532 10.2658 13.8595 10.3595C13.7658 10.4532 13.646 10.5 13.5 10.5H11.5V9.5H13.5C13.646 9.5 13.7658 9.54683 13.8595 9.6405C13.9532 9.73417 14 9.854 14 10Z" fill="#C4C4C4"/>
</svg>
