<svg width="48" height="48" viewBox="0 0 48 48" fill="none"
  xmlns="http://www.w3.org/2000/svg">
  <circle cx="24" cy="24" r="24" fill="#161617"/>
  <path d="M18.75 17C18.2577 17.0181 17.8476 17.1913 17.5197 17.5197C17.1919 17.8482 17.0187 18.2583 17 18.75V29.25C17.0181 29.7423 17.1913 30.1524 17.5197 30.4802C17.8482 30.8081 18.2583 30.9813 18.75 31H29.25C29.7423 30.9819 30.1524 30.8087 30.4802 30.4802C30.8081 30.1518 30.9813 29.7418 31 29.25V18.75C30.9819 18.2577 30.8087 17.8476 30.4802 17.5197C30.1518 17.1919 29.7418 17.0187 29.25 17H18.75ZM18.75 15.25H29.25C30.2347 15.2681 31.0595 15.6099 31.7245 16.2755C32.3895 16.9411 32.7313 17.7659 32.75 18.75V29.25C32.7319 30.2347 32.3901 31.0595 31.7245 31.7245C31.0589 32.3895 30.2341 32.7313 29.25 32.75H18.75C17.7653 32.7319 16.9405 32.3901 16.2755 31.7245C15.6105 31.0589 15.2687 30.2341 15.25 29.25V18.75C15.2681 17.7653 15.6099 16.9405 16.2755 16.2755C16.9411 15.6105 17.7659 15.2687 18.75 15.25ZM24 11.75C24.2555 11.75 24.4652 11.832 24.6291 11.9959C24.793 12.1598 24.875 12.3695 24.875 12.625V16.125H23.125V12.625C23.125 12.3695 23.207 12.1598 23.3709 11.9959C23.5348 11.832 23.7445 11.75 24 11.75ZM28.375 11.75C28.6305 11.75 28.8402 11.832 29.0041 11.9959C29.168 12.1598 29.25 12.3695 29.25 12.625V16.125H27.5V12.625C27.5 12.3695 27.582 12.1598 27.7459 11.9959C27.9098 11.832 28.1195 11.75 28.375 11.75ZM19.625 11.75C19.8805 11.75 20.0902 11.832 20.2541 11.9959C20.418 12.1598 20.5 12.3695 20.5 12.625V16.125H18.75V12.625C18.75 12.3695 18.832 12.1598 18.9959 11.9959C19.1598 11.832 19.3695 11.75 19.625 11.75ZM24 36.25C23.7445 36.25 23.5348 36.168 23.3709 36.0041C23.207 35.8402 23.125 35.6305 23.125 35.375V31.875H24.875V35.375C24.875 35.6305 24.793 35.8402 24.6291 36.0041C24.4652 36.168 24.2555 36.25 24 36.25ZM28.375 36.25C28.1195 36.25 27.9098 36.168 27.7459 36.0041C27.582 35.8402 27.5 35.6305 27.5 35.375V31.875H29.25V35.375C29.25 35.6305 29.168 35.8402 29.0041 36.0041C28.8402 36.168 28.6305 36.25 28.375 36.25ZM19.625 36.25C19.3695 36.25 19.1598 36.168 18.9959 36.0041C18.832 35.8402 18.75 35.6305 18.75 35.375V31.875H20.5V35.375C20.5 35.6305 20.418 35.8402 20.2541 36.0041C20.0902 36.168 19.8805 36.25 19.625 36.25ZM11.75 24C11.75 23.7445 11.832 23.5348 11.9959 23.3709C12.1598 23.207 12.3695 23.125 12.625 23.125H16.125V24.875H12.625C12.3695 24.875 12.1598 24.793 11.9959 24.6291C11.832 24.4652 11.75 24.2555 11.75 24ZM11.75 19.625C11.75 19.3695 11.832 19.1598 11.9959 18.9959C12.1598 18.832 12.3695 18.75 12.625 18.75H16.125V20.5H12.625C12.3695 20.5 12.1598 20.418 11.9959 20.2541C11.832 20.0902 11.75 19.8805 11.75 19.625ZM11.75 28.375C11.75 28.1195 11.832 27.9098 11.9959 27.7459C12.1598 27.582 12.3695 27.5 12.625 27.5H16.125V29.25H12.625C12.3695 29.25 12.1598 29.168 11.9959 29.0041C11.832 28.8402 11.75 28.6305 11.75 28.375ZM36.25 24C36.25 24.2555 36.168 24.4652 36.0041 24.6291C35.8402 24.793 35.6305 24.875 35.375 24.875H31.875V23.125H35.375C35.6305 23.125 35.8402 23.207 36.0041 23.3709C36.168 23.5348 36.25 23.7445 36.25 24ZM36.25 19.625C36.25 19.8805 36.168 20.0902 36.0041 20.2541C35.8402 20.418 35.6305 20.5 35.375 20.5H31.875V18.75H35.375C35.6305 18.75 35.8402 18.832 36.0041 18.9959C36.168 19.1598 36.25 19.3695 36.25 19.625ZM36.25 28.375C36.25 28.6305 36.168 28.8402 36.0041 29.0041C35.8402 29.168 35.6305 29.25 35.375 29.25H31.875V27.5H35.375C35.6305 27.5 35.8402 27.582 36.0041 27.7459C36.168 27.9098 36.25 28.1195 36.25 28.375Z" fill="white"/>
</svg>
