<svg width="13" height="13" viewBox="0 0 13 13" fill="none" xmlns="http://www.w3.org/2000/svg">
<path d="M2.75 7.04315V10.25C2.75 10.3494 2.78951 10.4448 2.85984 10.5151C2.93016 10.5854 3.02554 10.625 3.125 10.625H9.875C9.97446 10.625 10.0698 10.5854 10.1402 10.5151C10.2105 10.4448 10.25 10.3494 10.25 10.25V7.04322" stroke="#F2F2F2" stroke-linecap="round" stroke-linejoin="round"/>
<path d="M3.03286 2.375H9.96714C10.0486 2.375 10.1279 2.40155 10.193 2.45062C10.258 2.49969 10.3053 2.56862 10.3277 2.64698L11 5H2L2.67229 2.64698C2.69468 2.56862 2.74198 2.49969 2.80704 2.45062C2.8721 2.40155 2.95137 2.375 3.03286 2.375Z" stroke="#F2F2F2" stroke-linecap="round" stroke-linejoin="round"/>
<path d="M5 5V5.75C5 6.14782 4.84196 6.52936 4.56066 6.81066C4.27936 7.09196 3.89782 7.25 3.5 7.25C3.10218 7.25 2.72064 7.09196 2.43934 6.81066C2.15804 6.52936 2 6.14782 2 5.75V5" stroke="#F2F2F2" stroke-linecap="round" stroke-linejoin="round"/>
<path d="M8 5V5.75C8 6.14782 7.84196 6.52936 7.56066 6.81066C7.27936 7.09196 6.89782 7.25 6.5 7.25C6.10218 7.25 5.72064 7.09196 5.43934 6.81066C5.15804 6.52936 5 6.14782 5 5.75V5" stroke="#F2F2F2" stroke-linecap="round" stroke-linejoin="round"/>
<path d="M11 5V5.75C11 6.14782 10.842 6.52936 10.5607 6.81066C10.2794 7.09196 9.89782 7.25 9.5 7.25C9.10218 7.25 8.72064 7.09196 8.43934 6.81066C8.15804 6.52936 8 6.14782 8 5.75V5" stroke="#F2F2F2" stroke-linecap="round" stroke-linejoin="round"/>
</svg>
