<svg width="12" height="13" viewBox="0 0 12 13" fill="none" xmlns="http://www.w3.org/2000/svg">
<path d="M7.75 5.9375V8.5H10C10.5627 8.51034 11.034 8.70567 11.414 9.086C11.794 9.46634 11.9893 9.93767 12 10.5H0C0.0103333 9.93734 0.205667 9.466 0.586 9.086C0.966333 8.706 1.43767 8.51067 2 8.5H4.25V5.9375C3.71867 5.5415 3.354 5.0415 3.156 4.4375C2.958 3.8335 2.96067 3.21634 3.164 2.586C3.36733 1.95567 3.72417 1.453 4.2345 1.078C4.74483 0.703003 5.33333 0.515503 6 0.515503C6.66667 0.515503 7.25517 0.703003 7.7655 1.078C8.27583 1.453 8.63267 1.95567 8.836 2.586C9.03933 3.21634 9.042 3.8335 8.844 4.4375C8.646 5.0415 8.28133 5.5415 7.75 5.9375ZM0 12.5V11.5H12V12.5H0Z" fill="#C4C4C4"/>
</svg>
