<svg width="60" height="60" viewBox="0 0 60 60" fill="none" xmlns="http://www.w3.org/2000/svg">
<path d="M0 19.2C0 12.4794 0 9.11905 1.30792 6.55211C2.4584 4.29417 4.29417 2.4584 6.55211 1.30792C9.11905 0 12.4794 0 19.2 0H40.8C47.5206 0 50.8809 0 53.4479 1.30792C55.7058 2.4584 57.5416 4.29417 58.6921 6.55211C60 9.11905 60 12.4794 60 19.2V40.8C60 47.5206 60 50.8809 58.6921 53.4479C57.5416 55.7058 55.7058 57.5416 53.4479 58.6921C50.8809 60 47.5206 60 40.8 60H19.2C12.4794 60 9.11905 60 6.55211 58.6921C4.29417 57.5416 2.4584 55.7058 1.30792 53.4479C0 50.8809 0 47.5206 0 40.8V19.2Z" fill="white"/>
<path d="M30 54C43.2548 54 54 43.2548 54 30C54 16.7452 43.2548 6 30 6C16.7452 6 6 16.7452 6 30C6 43.2548 16.7452 54 30 54Z" fill="url(#paint0_linear_338_1690)"/>
<path d="M14.9383 31.174C17.7438 29.6286 20.8756 28.3388 23.8018 27.0424C28.836 24.919 33.8902 22.8324 38.9954 20.8898C39.9887 20.5588 41.7734 20.2351 41.9484 21.7071C41.8526 23.7907 41.4584 25.8621 41.188 27.9335C40.5017 32.4887 39.7085 37.0283 38.935 41.5685C38.6685 43.0808 36.774 43.8637 35.5618 42.8959C32.6486 40.9281 29.713 38.9795 26.837 36.9661C25.8949 36.0088 26.7685 34.6341 27.6099 33.9505C30.0093 31.5859 32.5539 29.5769 34.8279 27.0901C35.4413 25.6088 33.6289 26.8572 33.0311 27.2397C29.7463 29.5033 26.5419 31.9051 23.0787 33.8945C21.3097 34.8683 19.2479 34.0361 17.4797 33.4927C15.8943 32.8363 13.5711 32.175 14.9381 31.1741L14.9383 31.174Z" fill="white"/>
<defs>
<linearGradient id="paint0_linear_338_1690" x1="24.0028" y1="8.0016" x2="12.0028" y2="36" gradientUnits="userSpaceOnUse">
<stop stop-color="#37AEE2"/>
<stop offset="1" stop-color="#1E96C8"/>
</linearGradient>
</defs>
</svg>
