<svg width="48" height="48" viewBox="0 0 48 48" fill="none" xmlns="http://www.w3.org/2000/svg">
<path d="M24 48C37.2548 48 48 37.2548 48 24C48 10.7452 37.2548 0 24 0C10.7452 0 0 10.7452 0 24C0 37.2548 10.7452 48 24 48Z" fill="url(#paint0_linear)"/>
<path d="M8.93813 25.1744C11.7437 23.629 14.8755 22.3392 17.8017 21.0428C22.8359 18.9194 27.8901 16.8328 32.9953 14.8902C33.9886 14.5592 35.7733 14.2355 35.9483 15.7075C35.8525 17.7911 35.4583 19.8625 35.1879 21.9339C34.5016 26.4891 33.7084 31.0287 32.9349 35.5689C32.6684 37.0812 30.7739 37.8641 29.5617 36.8963C26.6485 34.9285 23.7129 32.9799 20.8369 30.9665C19.8948 30.0092 20.7684 28.6345 21.6098 27.9509C24.0092 25.5863 26.5538 23.5773 28.8278 21.0905C29.4412 19.6092 27.6288 20.8576 27.031 21.2401C23.7462 23.5037 20.5418 25.9055 17.0786 27.8949C15.3096 28.8687 13.2478 28.0365 11.4796 27.4931C9.89419 26.8367 7.57097 26.1754 8.93797 25.1745L8.93813 25.1744Z" fill="white"/>
<defs>
<linearGradient id="paint0_linear" x1="18.0028" y1="2.0016" x2="6.0028" y2="30" gradientUnits="userSpaceOnUse">
<stop stop-color="#37AEE2"/>
<stop offset="1" stop-color="#1E96C8"/>
</linearGradient>
</defs>
</svg>
