<svg width="14" height="13" viewBox="0 0 14 13" fill="none" xmlns="http://www.w3.org/2000/svg">
<path d="M1.5315 7.578L2.0005 8.5C1.6775 8.81267 1.51083 9.146 1.5005 9.5C1.54217 10.1667 2.076 10.7448 3.102 11.2345C4.128 11.7242 5.4275 11.9793 7.0005 12C8.5735 11.979 9.873 11.7238 10.899 11.2345C11.925 10.7452 12.4588 10.167 12.5005 9.5C12.4902 9.14567 12.3235 8.81233 12.0005 8.5L12.485 7.578C12.808 7.849 13.058 8.14583 13.235 8.4685C13.412 8.79117 13.5005 9.135 13.5005 9.5C13.4485 10.5313 12.8078 11.3673 11.5785 12.008C10.3492 12.6487 8.82317 12.9793 7.0005 13C5.1775 12.979 3.6515 12.6483 2.4225 12.008C1.1935 11.3677 0.552833 10.5317 0.5005 9.5C0.5005 9.13533 0.591667 8.7915 0.774 8.4685C0.956333 8.1455 1.209 7.84867 1.532 7.578H1.5315ZM1.5315 4.578L2.0005 5.5C1.6775 5.81267 1.51083 6.146 1.5005 6.5C1.54217 7.16667 2.076 7.74483 3.102 8.2345C4.128 8.72417 5.4275 8.97933 7.0005 9C8.5735 8.979 9.873 8.72383 10.899 8.2345C11.925 7.74517 12.4588 7.167 12.5005 6.5C12.4902 6.14567 12.3235 5.81233 12.0005 5.5L12.485 4.578C12.808 4.849 13.058 5.14583 13.235 5.4685C13.412 5.79117 13.5005 6.135 13.5005 6.5C13.4485 7.53133 12.8078 8.36733 11.5785 9.008C10.3492 9.64867 8.82317 9.97933 7.0005 10C5.1775 9.979 3.6515 9.64833 2.4225 9.008C1.1935 8.36767 0.552833 7.53167 0.5005 6.5C0.5005 6.13533 0.591667 5.7915 0.774 5.4685C0.956333 5.1455 1.209 4.84867 1.532 4.578H1.5315ZM7 7C5.177 6.979 3.651 6.64833 2.422 6.008C1.193 5.36767 0.552333 4.53167 0.5 3.5C0.552 2.46867 1.19267 1.63267 2.422 0.992C3.65133 0.351333 5.17733 0.0206667 7 0C8.823 0.021 10.349 0.351667 11.578 0.992C12.807 1.63233 13.4477 2.46833 13.5 3.5C13.448 4.53133 12.8073 5.36733 11.578 6.008C10.3487 6.64867 8.82267 6.97933 7 7ZM7 6C8.573 5.979 9.8725 5.72383 10.8985 5.2345C11.9245 4.74517 12.4583 4.167 12.5 3.5C12.4583 2.83333 11.9245 2.25517 10.8985 1.7655C9.8725 1.27583 8.573 1.02067 7 1C5.427 1.021 4.1275 1.27617 3.1015 1.7655C2.0755 2.25483 1.54167 2.833 1.5 3.5C1.54167 4.16667 2.0755 4.74483 3.1015 5.2345C4.1275 5.72417 5.427 5.97933 7 6Z" fill="#C4C4C4"/>
</svg>
