<svg width="16" height="16" viewBox="0 0 16 16" fill="none" xmlns="http://www.w3.org/2000/svg">
<path fill-rule="evenodd" clip-rule="evenodd" d="M13.9665 5.47926C13.9238 5.1374 13.8829 4.8091 13.8336 4.5C13.5999 3.03408 13.1787 2 11.5 2H4.5C2.82131 2 2.40005 3.03408 2.16637 4.5C2.11709 4.8091 2.07616 5.1374 2.03353 5.47925L2.03095 5.5H13.9691L13.9665 5.47926ZM12.5227 3.47671C12.6554 3.72812 12.7431 4.05835 12.8193 4.5H3.18068C3.25692 4.05835 3.34461 3.72812 3.47726 3.47671C3.5707 3.2996 3.66846 3.20317 3.78024 3.14001C3.9001 3.07228 4.11294 3 4.5 3H11.5C11.8871 3 12.0999 3.07228 12.2198 3.14001C12.3315 3.20317 12.4293 3.2996 12.5227 3.47671Z" fill="#8E8E93"/>
<path d="M2 13C2 13.0439 2.00283 13.0872 2.00833 13.1296C2.0664 13.5782 2.42175 13.9336 2.87035 13.9917C2.91279 13.9972 2.95606 14 3 14H4.29289L2 11.7071V13Z" fill="#8E8E93"/>
<path d="M13 14C13.0439 14 13.0872 13.9972 13.1296 13.9917C13.5782 13.9336 13.9336 13.5782 13.9917 13.1296C13.9972 13.0872 14 13.0439 14 13V11.7071L11.7071 14H13Z" fill="#8E8E93"/>
<path fill-rule="evenodd" clip-rule="evenodd" d="M7.5 6.5V7C7.5 7.27614 7.72386 7.5 8 7.5C8.27614 7.5 8.5 7.27614 8.5 7V6.5H14V10L11 13H5L2 10V6.5H7.5ZM5.41421 12L3 9.58579V7.5H8H13V9.58579L10.5858 12H5.41421Z" fill="#8E8E93"/>
<path fill-rule="evenodd" clip-rule="evenodd" d="M8 4C7.44772 4 7 4.44772 7 5V7C7 7.55228 7.44772 8 8 8C8.55228 8 9 7.55228 9 7V5C9 4.44772 8.55228 4 8 4ZM8 6C8.27614 6 8.5 6.22386 8.5 6.5V7C8.5 7.27614 8.27614 7.5 8 7.5C7.72386 7.5 7.5 7.27614 7.5 7V6.5C7.5 6.22386 7.72386 6 8 6Z" fill="#32D74B"/>
<path d="M4.29289 14L2 11.7071V13C2 13.0439 2.00283 13.0872 2.00833 13.1296C2.0664 13.5782 2.42175 13.9336 2.87035 13.9917C2.91279 13.9972 2.95606 14 3 14H4.29289Z" fill="#32D74B"/>
<path d="M14 11.7071V13C14 13.0439 13.9972 13.0872 13.9917 13.1296C13.9336 13.5782 13.5782 13.9336 13.1296 13.9917C13.0872 13.9972 13.0439 14 13 14H11.7071L14 11.7071Z" fill="#32D74B"/>
</svg>
