<svg xmlns="http://www.w3.org/2000/svg" width="21" height="21" viewBox="0 0 21 21"><g><g><path fill="#959696" d="M20.79 10.5c0 5.799-4.654 10.5-10.395 10.5S0 16.299 0 10.5 4.654 0 10.395 0c5.74 0 10.395 4.701 10.395 10.5zM9.742 8.853c-1.324-.17-2.48-.749-3.461-1.72l-.48-.482-.124.356c-.262.793-.094 1.631.45 2.195.292.311.226.356-.275.17-.175-.059-.328-.103-.342-.081-.051.052.124.727.262.993.189.371.574.735.996.95l.356.17-.422.008c-.407 0-.421.007-.378.163.146.482.72.993 1.36 1.216l.45.155-.392.238a4.062 4.062 0 0 1-1.949.548c-.327.008-.596.037-.596.06 0 .074.887.489 1.404.652 1.548.482 3.388.274 4.77-.549.98-.585 1.962-1.75 2.42-2.876.248-.601.495-1.699.495-2.225 0-.341.022-.386.429-.793.24-.238.465-.497.509-.571.073-.141.065-.141-.305-.015-.619.222-.706.193-.4-.141.225-.237.494-.667.494-.793 0-.023-.11.014-.233.081-.13.074-.421.186-.64.252l-.392.126-.356-.244a2.947 2.947 0 0 0-.618-.327c-.371-.103-.938-.089-1.273.03-.909.334-1.483 1.194-1.418 2.136l.022.363z"/></g></g></svg>