<svg width="60" height="60" viewBox="0 0 60 60" fill="none" xmlns="http://www.w3.org/2000/svg">
<path d="M0 19.2C0 12.4794 0 9.11905 1.30792 6.55211C2.4584 4.29417 4.29417 2.4584 6.55211 1.30792C9.11905 0 12.4794 0 19.2 0H40.8C47.5206 0 50.8809 0 53.4479 1.30792C55.7058 2.4584 57.5416 4.29417 58.6921 6.55211C60 9.11905 60 12.4794 60 19.2V40.8C60 47.5206 60 50.8809 58.6921 53.4479C57.5416 55.7058 55.7058 57.5416 53.4479 58.6921C50.8809 60 47.5206 60 40.8 60H19.2C12.4794 60 9.11905 60 6.55211 58.6921C4.29417 57.5416 2.4584 55.7058 1.30792 53.4479C0 50.8809 0 47.5206 0 40.8V19.2Z" fill="white"/>
<path d="M6 30C6 16.7452 16.7452 6 30 6C43.2548 6 54 16.7452 54 30C54 43.2548 43.2548 54 30 54C16.7452 54 6 43.2548 6 30Z" fill="#55ACEE"/>
<path d="M29.2812 25.5075L29.3316 26.3379L28.4922 26.2363C25.4369 25.8465 22.7677 24.5245 20.5013 22.3043L19.3934 21.2027L19.108 22.0162C18.5036 23.8296 18.8897 25.7448 20.1488 27.0328C20.8203 27.7446 20.6692 27.8463 19.5109 27.4226C19.108 27.287 18.7554 27.1854 18.7219 27.2362C18.6044 27.3548 19.0073 28.8971 19.3262 29.5072C19.7627 30.3546 20.6524 31.1851 21.6261 31.6766L22.4487 32.0664L21.475 32.0833C20.5349 32.0833 20.5013 32.1003 20.6021 32.4562C20.9378 33.5578 22.264 34.7272 23.7413 35.2357L24.7822 35.5916L23.8756 36.1339C22.5326 36.9135 20.9546 37.3542 19.3766 37.3881C18.6211 37.405 18 37.4728 18 37.5237C18 37.6931 20.0481 38.6422 21.24 39.0151C24.8157 40.1167 29.063 39.6422 32.2526 37.7609C34.5189 36.422 36.7852 33.7612 37.8428 31.1851C38.4136 29.8123 38.9844 27.304 38.9844 26.1007C38.9844 25.3211 39.0347 25.2194 39.9748 24.2872C40.5288 23.7449 41.0492 23.1517 41.15 22.9822C41.3178 22.6602 41.3011 22.6602 40.4449 22.9483C39.018 23.4568 38.8165 23.389 39.5216 22.6263C40.042 22.084 40.6631 21.101 40.6631 20.8129C40.6631 20.762 40.4113 20.8468 40.1259 20.9993C39.8238 21.1688 39.1523 21.423 38.6486 21.5755L37.7421 21.8637L36.9195 21.3044C36.4663 20.9993 35.8283 20.6604 35.4926 20.5587C34.6364 20.3214 33.327 20.3553 32.5548 20.6265C30.4563 21.3891 29.1301 23.3551 29.2812 25.5075Z" fill="white"/>
</svg>
