<svg width="48" height="48" viewBox="0 0 48 48" fill="none" xmlns="http://www.w3.org/2000/svg">
<path d="M0 24C0 10.7452 10.7452 0 24 0C37.2548 0 48 10.7452 48 24C48 37.2548 37.2548 48 24 48C10.7452 48 0 37.2548 0 24Z" fill="#55ACEE"/>
<path d="M23.2812 19.5079L23.3316 20.3383L22.4922 20.2367C19.4369 19.8469 16.7677 18.5249 14.5013 16.3047L13.3934 15.2031L13.108 16.0166C12.5036 17.83 12.8897 19.7452 14.1488 21.0332C14.8203 21.745 14.6692 21.8467 13.5109 21.423C13.108 21.2874 12.7554 21.1857 12.7219 21.2366C12.6044 21.3552 13.0073 22.8975 13.3262 23.5076C13.7627 24.355 14.6524 25.1855 15.6261 25.677L16.4487 26.0668L15.475 26.0837C14.5349 26.0837 14.5013 26.1007 14.6021 26.4566C14.9378 27.5582 16.264 28.7276 17.7413 29.2361L18.7822 29.592L17.8756 30.1343C16.5326 30.9139 14.9546 31.3546 13.3766 31.3885C12.6211 31.4054 12 31.4732 12 31.5241C12 31.6935 14.0481 32.6426 15.24 33.0155C18.8157 34.1171 23.063 33.6426 26.2526 31.7613C28.5189 30.4224 30.7852 27.7616 31.8428 25.1855C32.4136 23.8127 32.9844 21.3044 32.9844 20.1011C32.9844 19.3215 33.0347 19.2198 33.9748 18.2876C34.5288 17.7453 35.0492 17.1521 35.15 16.9826C35.3178 16.6606 35.3011 16.6606 34.4449 16.9487C33.018 17.4572 32.8165 17.3894 33.5216 16.6267C34.042 16.0844 34.6631 15.1014 34.6631 14.8133C34.6631 14.7624 34.4113 14.8472 34.1259 14.9997C33.8238 15.1692 33.1523 15.4234 32.6486 15.5759L31.7421 15.8641L30.9195 15.3048C30.4663 14.9997 29.8283 14.6608 29.4926 14.5591C28.6364 14.3218 27.327 14.3557 26.5548 14.6269C24.4563 15.3895 23.1301 17.3555 23.2812 19.5079Z" fill="white"/>
</svg>
