<svg width="20" height="20" viewBox="0 0 20 20" fill="none" xmlns="http://www.w3.org/2000/svg">
<path d="M13.75 4.375H17.5" stroke="#F2F2F2" stroke-linecap="round" stroke-linejoin="round"/>
<path d="M2.4209 16.8743C3.1893 15.5442 4.29419 14.4398 5.62456 13.672C6.95493 12.9042 8.46393 12.5 9.99997 12.5C11.536 12.5 13.045 12.9043 14.3754 13.6721C15.7057 14.44 16.8106 15.5444 17.579 16.8744" stroke="#F2F2F2" stroke-linecap="round" stroke-linejoin="round"/>
<path d="M15.0001 7.5C14.999 8.537 14.6751 9.54793 14.0734 10.3925C13.4716 11.2371 12.6219 11.8734 11.6422 12.2132C10.6624 12.553 9.60122 12.5794 8.60578 12.2887C7.61035 11.998 6.73008 11.4047 6.08712 10.5911C5.44415 9.77751 5.07039 8.78394 5.01769 7.74828C4.96498 6.71262 5.23596 5.68624 5.79301 4.81156C6.35006 3.93688 7.16556 3.25729 8.12634 2.86708C9.08712 2.47687 10.1455 2.3954 11.1547 2.63397" stroke="#F2F2F2" stroke-linecap="round" stroke-linejoin="round"/>
</svg>
