<svg width="13" height="13" viewBox="0 0 13 13" fill="none" xmlns="http://www.w3.org/2000/svg">
<path d="M8.75 3.125H11" stroke="#F2F2F2" stroke-linecap="round" stroke-linejoin="round"/>
<path d="M1.95264 10.6246C2.41368 9.82654 3.07661 9.1639 3.87483 8.70321C4.67305 8.24251 5.57845 7.99999 6.50008 8C7.42171 8.00001 8.3271 8.24255 9.12531 8.70326C9.92353 9.16397 10.5864 9.82663 11.0475 10.6247" stroke="#F2F2F2" stroke-linecap="round" stroke-linejoin="round"/>
<path d="M9.50018 5C9.49949 5.6222 9.30514 6.22876 8.94411 6.7355C8.58308 7.24224 8.07326 7.62404 7.48541 7.82791C6.89756 8.03178 6.26083 8.04762 5.66357 7.87322C5.06631 7.69883 4.53815 7.34284 4.15237 6.85468C3.76659 6.36651 3.54233 5.77036 3.51071 5.14897C3.47909 4.52757 3.64167 3.91174 3.9759 3.38694C4.31013 2.86213 4.79943 2.45437 5.3759 2.22025C5.95237 1.98612 6.58742 1.93724 7.19293 2.08038" stroke="#F2F2F2" stroke-linecap="round" stroke-linejoin="round"/>
</svg>
