<svg width="25" height="24" viewBox="0 0 25 24" fill="none" xmlns="http://www.w3.org/2000/svg">
<path d="M6.46327 14.4262C5.11324 13.0774 5.11324 10.8918 6.46327 9.54534L10.0562 5.95562C11.4062 4.60677 13.5937 4.60677 14.9413 5.95562L16.2071 7.22032L19.7062 3.72437L18.4404 2.45967C15.1579 -0.81989 9.83717 -0.81989 6.55472 2.45967L2.96184 6.04939C-0.320612 9.32895 -0.320612 14.645 2.96184 17.9246L4.22284 19.1845L7.72187 15.6885L6.46087 14.4286L6.46327 14.4262Z" fill="url(#paint0_radial_508_6302)"/>
<path d="M22.0357 6.04937L20.7699 4.78467L17.2709 8.28062L18.5367 9.54532C19.8868 10.8942 19.8868 13.0797 18.5367 14.4262L14.2098 10.1031C13.2424 9.13657 11.6758 9.13657 10.7108 10.1031C9.74341 11.0697 9.74341 12.6349 10.7108 13.5991L15.0377 17.9221L14.9438 18.0159C13.5938 19.3648 11.4063 19.3648 10.0587 18.0159L8.78804 16.7464L5.289 20.2424L6.55963 21.5119C9.84207 24.7914 15.1628 24.7914 18.4453 21.5119L18.5391 21.4181L22.0382 17.9221C25.3206 14.6426 25.3206 9.32652 22.0382 6.04696L22.0357 6.04937Z" fill="url(#paint1_radial_508_6302)"/>
<defs>
<radialGradient id="paint0_radial_508_6302" cx="0" cy="0" r="1" gradientUnits="userSpaceOnUse" gradientTransform="translate(10.0977 3.16851) rotate(90) scale(13.4001 13.4153)">
<stop stop-color="#66FEF2"/>
<stop offset="1" stop-color="#00CFDC"/>
</radialGradient>
<radialGradient id="paint1_radial_508_6302" cx="0" cy="0" r="1" gradientUnits="userSpaceOnUse" gradientTransform="translate(14.8945 14.3781) rotate(90) scale(9.59343 9.60549)">
<stop stop-color="#C7A5EA"/>
<stop offset="1" stop-color="#7D4BA3"/>
</radialGradient>
</defs>
</svg>
