<svg width="13" height="13" viewBox="0 0 13 13" fill="none" xmlns="http://www.w3.org/2000/svg">
<path d="M9.68749 8.26551L8.96849 7.56251L10.3905 6.14051C10.9738 5.52585 11.2993 4.85401 11.367 4.12501C11.4347 3.39601 11.229 2.77101 10.75 2.25001C10.229 1.77068 9.60399 1.56501 8.87499 1.63301C8.14599 1.70101 7.47415 2.02651 6.85949 2.60951L5.43749 4.03151L4.73449 3.31251L6.14099 1.90601C6.96399 1.12468 7.87549 0.700181 8.87549 0.632514C9.87549 0.564847 10.7348 0.869514 11.4535 1.54651C12.1305 2.26518 12.4352 3.12451 12.3675 4.12451C12.2998 5.12451 11.8753 6.03601 11.094 6.85901L9.68749 8.26551ZM8.26549 9.68751L6.85899 11.094C6.03599 11.8753 5.12449 12.2998 4.12449 12.3675C3.12449 12.4352 2.26515 12.1305 1.54649 11.4535C0.869486 10.7348 0.564819 9.87551 0.632486 8.87551C0.700152 7.87551 1.12465 6.96401 1.90599 6.14101L3.31249 4.73451L4.03149 5.43751L2.60949 6.85951C2.02615 7.47418 1.70065 8.14601 1.63299 8.87501C1.56532 9.60401 1.77099 10.229 2.24999 10.75C2.77099 11.2293 3.39599 11.435 4.12499 11.367C4.85399 11.299 5.52582 10.9735 6.14049 10.3905L7.56249 8.96851L8.26549 9.68751ZM8.26549 4.03151L8.96849 4.73451L4.73399 8.96901L4.03099 8.26601L8.26549 4.03151Z" fill="#C4C4C4"/>
</svg>
